<svg width="318" height="248" viewBox="0 0 318 248" fill="none" xmlns="http://www.w3.org/2000/svg">
<path d="M36.3956 241.031H95.1406C96.1485 241.031 96.1485 239.48 95.1406 239.48C75.5503 239.48 55.96 239.48 36.3956 239.48C35.3877 239.48 35.3877 241.031 36.3956 241.031Z" fill="black"/>
<path d="M55.5471 234.957H114.499H131.22C132.228 234.957 132.228 233.406 131.22 233.406C111.578 233.406 91.9364 233.406 72.2686 233.406C66.6862 233.406 61.1037 233.406 55.5471 233.406C54.565 233.406 54.565 234.957 55.5471 234.957Z" fill="black"/>
<path d="M129.953 225.394H169.857C170.865 225.394 170.865 223.844 169.857 223.844C156.547 223.844 143.237 223.844 129.953 223.844C128.945 223.844 128.945 225.394 129.953 225.394Z" fill="black"/>
<path d="M164.12 247.105H247.211H270.445C271.453 247.105 271.453 245.555 270.445 245.555C242.74 245.555 215.034 245.555 187.355 245.555C179.601 245.555 171.874 245.555 164.12 245.555C163.112 245.555 163.112 247.105 164.12 247.105Z" fill="black"/>
<path d="M229.585 241.031H284.505C285.513 241.031 285.513 239.48 284.505 239.48C266.207 239.48 247.883 239.48 229.585 239.48C228.577 239.48 228.577 241.031 229.585 241.031Z" fill="black"/>
<path d="M84.8806 52.8789C83.5367 53.1115 81.4175 53.6542 79.1948 55.024C77.7992 55.8769 74.9563 57.9445 73.173 61.7436C72.5269 63.0876 71.0796 66.2148 71.8032 70.0915C72.8629 75.829 77.9026 78.6977 78.7038 79.1371C81.2624 75.2346 83.7952 71.3062 86.3538 67.4036C85.8369 62.5707 85.3459 57.7377 84.8806 52.8789V52.8789Z" fill="#EC615B"/>
<path d="M86.793 66.9401C90.5663 64.8984 94.3138 62.8566 98.0871 60.7891C98.9141 61.8228 100.465 64.123 100.439 67.2244C100.439 67.9222 100.361 68.5683 100.232 69.1627C95.7352 68.4132 91.2641 67.6637 86.793 66.9401H86.793Z" fill="#5222D0"/>
<path d="M46.3203 84.7702C46.7855 90.8437 47.2249 96.9431 47.6901 103.017C49.3441 102.913 50.9982 102.784 52.6264 102.681C52.0837 96.5037 51.5409 90.3527 50.9982 84.1758C49.4217 84.3825 47.871 84.5635 46.3203 84.7702Z" fill="#5222D0"/>
<path d="M55.5469 91.1034C55.8053 94.8509 56.0638 98.5725 56.3481 102.32C58.0021 102.165 59.6562 102.036 61.2844 101.881C60.9226 98.1332 60.5866 94.4115 60.2248 90.6641C58.6482 90.7933 57.0976 90.9484 55.5469 91.1034Z" fill="#EC615B"/>
<path fill-rule="evenodd" clip-rule="evenodd" d="M114.343 114.262C88.7055 116.614 63.0934 118.94 37.4555 121.292C35.1036 83.7652 32.7259 46.2387 30.374 8.68635C55.9344 7.78178 81.5206 6.87722 107.081 5.97266C109.51 42.0777 111.94 78.1827 114.343 114.262V114.262Z" stroke="#161616" stroke-width="0.516894"/>
<path d="M56.8132 1.57347C57.0975 3.6152 57.4077 5.65693 57.692 7.69866C57.7695 8.18971 58.519 7.98295 58.4414 7.4919C58.1572 5.45017 57.847 3.40845 57.5627 1.36672C57.4852 0.875667 56.7357 1.08242 56.8132 1.57347Z" fill="black"/>
<path d="M57.3566 1.52484C63.1716 1.13717 69.0125 0.904564 74.8276 0.77534C75.3186 0.77534 75.3186 0 74.8276 0C68.9867 0.129223 63.1716 0.38767 57.3566 0.749496C56.8655 0.77534 56.8655 1.55068 57.3566 1.52484Z" fill="black"/>
<path d="M74.5953 0.465943C74.8537 2.66274 75.0605 4.83369 75.1897 7.03049C75.2156 7.52154 75.9909 7.52154 75.9651 7.03049C75.8358 4.83369 75.6291 2.6369 75.3706 0.465943C75.2931 -0.025106 74.5178 -0.025106 74.5953 0.465943Z" fill="black"/>
<path d="M57.3824 1.5011C57.5633 3.41361 57.7442 5.35196 57.9251 7.26446C57.9509 7.47122 58.0802 7.65213 58.3128 7.65213C63.8694 7.70382 69.4001 6.8251 74.9826 7.00602C75.4736 7.03186 75.4736 6.25652 74.9826 6.23068C69.426 6.04976 63.8952 6.90264 58.3128 6.87679L58.7004 7.26446C58.5195 5.35196 58.3386 3.41361 58.1577 1.5011C58.106 1.01005 57.3307 1.01005 57.3824 1.5011Z" fill="black"/>
<path d="M57.7959 1.75708C58.6488 2.27397 59.7601 2.01552 60.6905 1.96384C62.2412 1.8863 63.7919 1.80877 65.3426 1.73123C68.4439 1.57617 71.5195 1.39525 74.6208 1.24018C74.4916 1.11096 74.3624 0.981737 74.2331 0.852514C74.3107 2.53242 74.3882 4.21232 74.4657 5.91807C74.4916 6.40912 75.2669 6.40912 75.2411 5.91807C75.1636 4.23817 75.086 2.55826 75.0085 0.852514C75.0085 0.645757 74.8276 0.464844 74.6208 0.464844C71.8813 0.619912 69.1159 0.749135 66.3764 0.904203C65.0066 0.981737 63.6368 1.05927 62.2412 1.11096C61.1557 1.16265 59.1399 1.67954 58.1836 1.08512C57.7701 0.826669 57.3824 1.49863 57.7959 1.75708Z" fill="black"/>
<path d="M57.7698 1.91002C58.1575 3.48654 58.416 5.08891 58.571 6.71713C58.8295 6.69129 59.0879 6.6396 59.3205 6.61375C59.0362 5.21814 59.1138 3.84837 59.3722 2.42691C59.1138 2.40107 58.8553 2.34938 58.6227 2.32353C58.6744 3.87421 58.7778 5.34736 59.3722 6.76882C59.5531 7.18233 60.1992 6.8722 60.07 6.45868C59.6307 4.80462 59.2171 3.17641 59.6565 1.47066C59.3981 1.47066 59.1655 1.47066 58.907 1.47066C59.1396 3.02134 59.3722 4.57202 59.6048 6.1227C59.6823 6.61375 60.4318 6.40699 60.3543 5.91594C60.1217 4.36526 59.8891 2.81458 59.6565 1.2639C59.6048 0.876232 58.9845 0.927921 58.907 1.2639C58.4418 3.09887 58.8553 4.88216 59.3205 6.66544C59.5531 6.56206 59.7857 6.45868 60.0183 6.3553C59.4756 5.06307 59.4239 3.66746 59.3722 2.29769C59.3722 1.88417 58.7003 1.75495 58.6227 2.19431C58.3384 3.74499 58.235 5.24398 58.571 6.79466C58.6486 7.20818 59.3722 7.13064 59.3205 6.69129C59.1655 5.01138 58.8812 3.33148 58.4935 1.67742C58.3901 1.21221 57.6665 1.41897 57.7698 1.91002Z" fill="black"/>
<path d="M59.7597 3.28342C60.044 2.81821 60.3283 2.35301 60.6126 1.8878C60.38 1.75858 60.1732 1.62936 59.9406 1.50013C59.6047 2.24963 59.2945 2.99913 58.9585 3.74862C58.8035 4.11045 59.2687 4.6015 59.5788 4.21383C60.0957 3.56771 60.5868 2.89575 61.1036 2.24963C60.8969 2.12041 60.6643 1.99118 60.4575 1.86196C60.2508 2.48223 59.9923 3.05081 59.6305 3.6194C59.3979 3.98122 59.9665 4.44643 60.2508 4.0846C60.6384 3.59355 61.0261 3.1025 61.4396 2.61146C61.2329 2.45639 61.0261 2.30132 60.8194 2.14625C60.3025 3.36095 59.7856 4.54981 59.2687 5.76451C59.1136 6.12633 59.5788 6.61738 59.8889 6.22971C60.8194 5.0667 61.7756 3.87784 62.706 2.71483C62.4993 2.55977 62.2925 2.4047 62.0857 2.24963C61.3879 3.3868 60.6901 4.54981 59.9923 5.68697C59.8114 5.97126 60.0957 6.35893 60.4317 6.25556C60.8452 6.12633 60.8969 6.07464 61.207 5.8162C61.0003 5.68697 60.7677 5.55775 60.5609 5.42853C60.4058 5.86789 60.1474 6.20387 59.7597 6.48816C59.3721 6.77245 59.708 7.41857 60.1474 7.16012C60.5609 6.92752 60.9486 6.77245 61.4138 6.72076C61.2587 6.56569 61.1036 6.41062 60.9486 6.25556C60.2766 5.91957 60.0699 5.45437 60.3283 4.8341C60.4058 4.49812 60.5351 4.18798 60.6901 3.90369C60.8969 3.54186 61.2846 2.66314 61.6722 3.43849C61.9565 4.00707 60.7677 7.18596 60.6126 5.22177C60.5868 4.70487 60.6384 4.18798 60.7935 3.72278C60.8969 3.36095 61.052 3.02497 61.2329 2.68899C61.4913 2.1721 61.6205 2.1721 61.6464 2.68899C62.1374 3.72278 61.543 5.35099 61.052 6.25556C61.2846 6.2814 61.5172 6.30724 61.7498 6.35893C61.543 5.63528 61.4655 4.93748 61.6205 4.21383C61.6722 3.92953 61.9307 2.55977 62.215 2.99913C62.8094 3.852 61.8273 5.79035 61.4138 6.53985C61.6464 6.61738 61.9048 6.66907 62.1374 6.7466C62.0599 6.0488 62.0341 5.37684 62.1633 4.67903C62.2408 4.21383 62.5251 2.71483 63.0162 2.66314C63.714 2.58561 62.37 5.76451 62.0599 6.22971C62.2925 6.25556 62.5251 6.2814 62.7577 6.33309C62.5251 5.17008 62.5251 2.68899 64.1016 2.30132C63.9466 2.22379 63.7915 2.12041 63.6364 2.04287C63.9207 3.6194 63.4814 5.14423 62.3959 6.30724C62.6026 6.35893 62.8352 6.41062 63.042 6.48816C62.8611 5.76451 62.8352 5.0667 63.0162 4.34305C63.1195 3.95538 63.6623 2.32716 64.1792 2.45639C64.541 2.53392 64.0758 4.03291 63.9724 4.36889C63.6881 5.19592 63.2488 5.91957 62.6026 6.53985C62.8094 6.59154 63.042 6.64323 63.2488 6.72076C62.8352 4.98917 63.5589 3.25757 65.0837 2.32716C64.9028 2.24963 64.6961 2.1721 64.5151 2.09456C65.1096 3.67109 63.5847 5.71282 62.5768 6.77245C62.7835 6.82414 63.0162 6.87583 63.2229 6.95336C63.042 6.20387 63.042 5.48021 63.2746 4.73072C63.3521 4.49812 64.1275 2.74068 64.4893 2.8699C65.0062 3.05081 64.1275 4.62734 63.9724 4.85994C63.7915 5.19592 63.4555 5.79035 63.1195 5.99711C62.7319 6.25556 62.7577 6.30724 62.7319 5.73866C62.706 4.96332 63.2229 4.0846 63.6623 3.51602C63.8949 3.20588 64.2825 2.71483 64.6444 2.58561C65.0579 2.4047 65.0062 2.35301 64.9545 2.89575C64.7736 4.49812 63.869 5.94542 62.7319 7.05674C62.9386 7.10843 63.1712 7.16012 63.378 7.23765C63.1454 5.71282 63.6623 4.13629 64.7994 3.07666C65.1354 2.76652 65.5231 2.55977 65.6523 3.20588C65.704 3.46433 65.3939 4.0846 65.2905 4.3172C64.9287 5.17008 64.4118 5.89373 63.7656 6.53985H64.3084C63.8432 5.99711 64.4376 4.80825 64.7219 4.29136C64.8511 4.05876 65.9624 2.35301 66.2726 2.50808C66.6344 2.68899 65.8332 4.42058 65.7298 4.6015C65.368 5.2993 64.9028 5.91957 64.3601 6.48816C64.5927 6.59154 64.7994 6.66907 65.032 6.77245C65.0579 4.88579 65.9366 3.28342 67.539 2.27547C67.3322 2.1721 67.1513 2.04287 66.9445 1.93949C66.9704 3.67109 66.3501 5.19592 65.1096 6.41062C65.3422 6.514 65.5489 6.59154 65.7815 6.69491C65.9366 4.80825 66.8153 3.18004 68.2626 1.96534C68.0559 1.93949 67.8491 1.91365 67.6423 1.8878C68.4694 3.12835 66.6603 5.45437 65.9366 6.38478C66.1692 6.48816 66.376 6.56569 66.6086 6.66907C66.6344 5.94542 66.7636 5.27346 67.0479 4.6015C67.203 4.18798 67.8491 2.76652 68.3143 2.66314C68.9346 2.53392 68.2885 3.72278 68.0817 4.16214C67.7199 4.91163 67.2288 5.55775 66.6603 6.15218C66.867 6.2814 67.0996 6.41062 67.3064 6.53985C67.539 4.93748 68.1851 2.81821 69.865 2.22379C69.7099 2.09456 69.529 1.96534 69.3739 1.86196C69.1672 3.6194 68.3918 5.11839 67.0996 6.30724C67.3322 6.41062 67.539 6.48816 67.7716 6.59154C67.8491 5.76451 68.03 4.96332 68.3918 4.18798C68.6244 3.69693 69.2447 2.4047 69.8133 2.30132C70.0976 2.24963 69.8133 2.68899 69.7099 2.97328C69.5549 3.3868 69.3481 3.77447 69.1413 4.13629C68.7278 4.85994 68.2109 5.50606 67.6165 6.10049C67.8491 6.20387 68.0559 6.2814 68.2885 6.38478C68.3918 4.73072 69.1672 3.30926 70.4594 2.30132C70.2785 2.14625 70.0717 2.01703 69.8908 1.86196C69.6841 3.07666 69.0638 4.03291 68.2368 4.93748C67.7457 5.48021 67.5907 5.35099 67.539 4.62734C67.4873 3.64524 68.0817 2.66314 69.0638 2.4047C68.9087 2.27547 68.7278 2.14625 68.5728 2.04287C68.4952 3.59355 68.03 4.98917 67.203 6.2814C67.4356 6.35893 67.694 6.41062 67.9266 6.48816C68.0042 5.71282 68.2109 4.96332 68.5728 4.26551C68.8054 3.80031 69.3998 2.6373 69.9167 2.50808C70.6662 2.30132 69.9167 3.77447 69.7358 4.13629C69.3739 4.85994 68.8829 5.48021 68.3143 6.07464C68.5469 6.17802 68.7537 6.25556 68.9863 6.35893C68.8829 4.47227 70.0201 2.81821 71.8033 2.24963C71.6483 2.12041 71.4674 1.99118 71.3123 1.8878C71.1055 3.72278 70.2268 5.27346 68.8054 6.46231C69.038 6.56569 69.2447 6.64323 69.4773 6.7466C69.6841 4.96332 70.5886 3.43849 72.0618 2.4047C71.8809 2.32716 71.6741 2.24963 71.4932 2.1721C71.9067 3.51602 70.4853 5.27346 69.7099 6.22971C69.9425 6.33309 70.1493 6.41062 70.3819 6.514C70.4853 5.19592 71.2348 2.79237 72.8113 2.55977C72.6562 2.4047 72.5011 2.24963 72.3461 2.09456C72.0618 3.56771 71.4674 4.88579 70.5111 6.0488C70.7437 6.15218 70.9505 6.22971 71.1831 6.33309C71.2606 4.75656 71.8809 3.3868 72.9664 2.27547C72.7596 2.24963 72.5528 2.22379 72.3461 2.19794C72.9405 3.28342 71.7258 5.19592 71.1831 6.15218L71.8809 6.46231C72.1393 5.22177 72.3461 3.12835 73.5091 2.37885C73.354 2.35301 73.199 2.32716 73.0439 2.32716C73.69 3.05082 72.4495 5.48021 72.1652 6.20387C72.4236 6.2814 72.6562 6.33309 72.9147 6.41062C73.2765 5.09254 73.6125 3.80031 73.9743 2.48223C73.7158 2.45639 73.4574 2.4047 73.2248 2.37885C73.2765 3.6194 73.0956 4.78241 72.6821 5.97126C72.9405 5.99711 73.199 6.0488 73.4316 6.07464C73.5608 4.91163 73.4316 3.1025 74.1035 2.12041C73.8709 2.09456 73.6383 2.06872 73.4057 2.01703C73.7675 3.28342 73.6383 4.49812 73.4574 5.8162C73.7158 5.84204 73.9743 5.89373 74.2069 5.91957C74.1035 4.47227 74.0001 2.99913 73.8968 1.55182C73.6642 1.6552 73.4574 1.73274 73.2248 1.83612C74.2069 2.84406 73.8192 4.16214 73.3799 5.32515C73.6125 5.2993 73.8451 5.27346 74.0777 5.22177C73.7934 4.67903 73.2248 3.77447 73.2506 3.12835C72.9922 2.71483 73.0956 2.50808 73.5866 2.53392C73.8192 2.94744 73.8968 3.3868 73.7934 3.82616C74.026 3.72278 74.2327 3.64524 74.4653 3.54186C74.0518 3.05082 73.8451 2.58561 73.7158 1.99118C73.5349 2.14625 73.3282 2.27547 73.1473 2.43054C73.2506 2.71483 73.354 3.02497 73.4574 3.30926C73.69 3.33511 73.9226 3.36095 74.1552 3.41264C73.9743 2.89575 73.8968 2.43054 73.9226 1.8878C73.7675 2.01703 73.5866 2.14625 73.4316 2.24963C74.4395 2.66314 73.7417 5.35099 73.6125 6.0488C73.7417 5.94542 73.8709 5.86789 73.9743 5.76451C72.0101 5.8162 70.0459 5.86788 68.0817 5.91957C67.5907 5.94542 67.5907 6.66907 68.0817 6.69491C69.8133 6.7466 71.5191 6.48816 73.2248 6.22971C73.1473 5.97126 73.0956 5.73866 73.018 5.48022C71.0022 6.02295 68.9863 6.38478 66.9187 6.53985C66.4276 6.56569 66.4276 7.28934 66.9187 7.31519C68.9346 7.39272 70.8988 6.69491 72.9147 6.77245C72.8888 6.514 72.8371 6.25556 72.8113 6.02295C71.2606 6.53985 69.7099 6.69491 68.0817 6.514V7.28934C69.9425 7.10843 71.8033 6.92752 73.6642 6.7466C73.6383 6.48816 73.5866 6.22971 73.5608 5.99711C72.3202 6.35893 71.1055 6.48816 69.8133 6.43647V7.21181C71.0797 7.21181 72.2944 7.05674 73.5091 6.7466C74.0001 6.61738 73.7934 5.89373 73.3023 5.99711C71.855 6.30724 70.4077 6.46231 68.9346 6.46231V7.23765C70.692 7.00505 72.4495 6.72076 74.2069 6.35893C74.6204 6.2814 74.5429 5.55775 74.1035 5.60944C72.4236 5.8162 70.7696 5.79035 69.1155 5.5319C68.6244 5.45437 68.4177 6.20387 68.9087 6.2814C70.6403 6.53985 72.3719 6.59154 74.1035 6.38478C74.0777 6.12633 74.026 5.86789 74.0001 5.63528C72.3202 5.97126 70.6403 6.2814 68.9346 6.48816C68.4435 6.53985 68.4177 7.2635 68.9346 7.2635C70.4853 7.2635 71.9843 7.10843 73.5091 6.77245C73.4316 6.514 73.3799 6.2814 73.3023 6.02295C72.1393 6.30724 71.0022 6.46231 69.8133 6.46231C69.3223 6.46231 69.3223 7.21181 69.8133 7.23765C71.1572 7.28934 72.4495 7.13427 73.7675 6.77245C74.1811 6.64323 74.1035 5.97126 73.6642 6.02295C71.8033 6.20387 69.9425 6.38478 68.0817 6.56569C67.5907 6.61738 67.5907 7.28934 68.0817 7.34103C69.7875 7.52194 71.4157 7.34103 73.018 6.82414C73.4316 6.69491 73.354 6.07464 72.9147 6.07464C70.8988 5.99711 68.9346 6.69491 66.9187 6.61738V7.39272C69.0638 7.23765 71.1572 6.87583 73.2248 6.30724C73.7158 6.17802 73.5091 5.48021 73.018 5.55775C71.364 5.8162 69.7358 6.0488 68.0817 5.99711V6.77245C70.0459 6.72076 72.0101 6.66907 73.9743 6.61738C74.1294 6.61738 74.3103 6.48816 74.3361 6.33309C74.5946 4.88579 75.3958 2.32716 73.6125 1.57767C73.354 1.47429 73.1473 1.73274 73.1214 1.93949C73.0697 2.58561 73.1473 3.07666 73.3799 3.67109C73.4832 3.95538 73.9226 4.0846 74.0777 3.77447C74.4395 3.02497 74.2327 2.27547 73.4832 1.83612C73.1731 1.6552 72.8371 1.93949 72.9147 2.27547C73.0697 3.02497 73.3799 3.59355 73.8709 4.18798C74.1035 4.47227 74.517 4.21383 74.5429 3.90369C74.6204 3.07666 73.8968 0.621415 72.5787 1.37091C71.3898 2.06872 72.9664 4.88579 73.354 5.68697C73.5091 6.02295 73.9485 5.86789 74.0518 5.58359C74.6204 4.11045 74.8789 2.55977 73.69 1.34507C73.4574 1.11246 72.9922 1.26753 73.018 1.62936C73.1214 3.07666 73.2248 4.54981 73.3282 5.99711C73.354 6.41062 74.026 6.56569 74.0777 6.10049C74.2844 4.67903 74.4395 3.30926 74.026 1.8878C73.9226 1.55182 73.5091 1.52598 73.3282 1.78443C72.527 2.92159 72.6821 4.80825 72.5528 6.12633C72.5011 6.59154 73.1731 6.61738 73.3023 6.22971C73.7417 4.98917 73.9226 3.74862 73.8709 2.43054C73.8451 1.99118 73.2248 1.8878 73.1214 2.32716C72.7596 3.64524 72.4236 4.93748 72.0618 6.25556C71.9326 6.7466 72.6304 6.92752 72.8113 6.46231C73.2765 5.27346 74.517 2.99913 73.4832 1.81027C73.3799 1.68105 73.1473 1.6552 73.018 1.75858C71.5966 2.68899 71.3381 4.78241 71.028 6.30724C70.9505 6.72076 71.5191 7.00505 71.7258 6.61738C72.4236 5.35099 73.6642 3.30926 72.8888 1.86196C72.7596 1.6552 72.4495 1.60351 72.2685 1.78443C71.028 3.07666 70.356 4.6015 70.2527 6.38478C70.2268 6.69491 70.692 6.92752 70.9246 6.66907C71.9843 5.40268 72.6562 3.98122 72.9664 2.37885C73.018 2.06872 72.7854 1.86196 72.5011 1.91365C70.5628 2.19794 69.6324 4.93748 69.5032 6.61738C69.4773 6.95336 69.9425 7.13427 70.1751 6.90167C71.1831 5.68697 72.6821 3.77447 72.1652 2.09456C72.0876 1.86196 71.8033 1.70689 71.5966 1.86196C69.8908 3.05082 68.857 4.78241 68.6244 6.84998C68.5728 7.21181 69.0638 7.31519 69.2964 7.13427C70.8729 5.8162 71.7775 4.03291 72.0101 2.01703C72.0359 1.75858 71.7517 1.57767 71.5191 1.6552C69.3998 2.32716 68.0042 4.29136 68.1334 6.514C68.1592 6.84998 68.5469 7.0309 68.8054 6.79829C69.3998 6.20387 72.5011 1.99118 70.5628 1.52598C69.7616 1.31922 68.857 2.55977 68.4694 3.07666C67.6682 4.13629 67.2547 5.35099 67.0996 6.66907C67.0479 7.08258 67.6423 7.16012 67.8233 6.87583C68.7537 5.48021 69.2447 3.92953 69.3223 2.24963C69.3223 1.99118 69.0638 1.81027 68.8312 1.8878C67.7716 2.1721 67.1255 2.94744 66.867 4.00707C66.6861 4.67903 66.5052 5.94542 67.2288 6.38478C67.9266 6.82414 68.4952 6.0488 68.8829 5.58359C69.7099 4.62734 70.3819 3.59355 70.5886 2.32716C70.6403 2.04287 70.3302 1.6552 70.0201 1.8878C68.4694 3.07666 67.5907 4.70487 67.4614 6.64323C67.4356 6.97921 67.9008 7.13427 68.1334 6.92752C68.7537 6.30724 72.0618 2.22379 70.2785 1.55182C69.4773 1.24169 68.6244 2.53392 68.2626 3.05082C67.4614 4.18798 67.0738 5.45437 66.9445 6.82414C66.9187 7.18596 67.3839 7.31519 67.6165 7.10843C69.0638 5.76451 69.9167 4.0846 70.1234 2.12041C70.1493 1.8878 69.865 1.68105 69.6324 1.75858C67.6682 2.45639 66.8153 4.70487 66.531 6.61738C66.4793 6.97921 66.8929 7.31519 67.1771 7.00505C67.7974 6.35893 70.7437 2.30132 68.9346 1.78443C68.1076 1.55182 67.203 2.97328 66.8412 3.54186C66.1692 4.57565 65.8591 5.76451 65.8074 6.97921C65.7815 7.28934 66.2467 7.52194 66.4793 7.2635C67.4614 6.0488 69.3739 3.46433 68.3143 1.83612C68.1592 1.60351 67.9008 1.60351 67.694 1.75858C66.0917 3.1025 65.1613 4.96332 64.9803 7.05674C64.9545 7.39272 65.4197 7.54779 65.6523 7.34103C67.0221 5.97126 67.7199 4.23967 67.694 2.32716C67.694 2.04287 67.3581 1.83612 67.0996 1.99118C65.2646 3.12835 64.2309 5.01501 64.205 7.16012C64.205 7.4961 64.6444 7.67701 64.877 7.44441C65.8591 6.41062 66.6603 5.17008 66.9962 3.77447C67.1513 3.18004 67.2547 2.01703 66.2984 2.06872C65.2905 2.12041 64.2309 3.87784 63.869 4.65318C63.4814 5.5319 63.0678 6.66907 63.7656 7.47025C63.8949 7.62532 64.1792 7.59948 64.3084 7.47025C65.3422 6.46231 66.1175 5.19592 66.4018 3.77447C66.531 3.12835 66.5827 2.04287 65.6523 2.04287C64.6702 2.04287 63.6106 3.49017 63.2229 4.23967C62.6026 5.35099 62.4476 6.56569 62.6543 7.80624C62.706 8.11637 63.1195 8.16806 63.3004 7.98715C64.4635 6.84998 65.3163 5.42853 65.6782 3.82616C65.8332 3.12835 66.04 1.93949 65.0062 1.96534C63.2229 2.01703 60.7677 6.48816 62.4476 7.65117C62.5768 7.7287 62.7319 7.70286 62.8352 7.65117C63.7398 7.21181 66.9445 2.8699 64.9803 2.30132C64.1533 2.04287 63.2229 3.43849 62.9128 4.03291C62.3183 5.14423 62.1891 6.35893 62.4734 7.54779C62.5251 7.83208 62.9386 7.93546 63.1195 7.7287C64.3342 6.43647 65.9624 4.13629 65.2646 2.30132C65.1871 2.06872 64.9287 1.93949 64.6961 2.06872C62.8611 3.18004 62.0082 5.27346 62.4993 7.34103C62.5768 7.62532 62.9386 7.70286 63.1454 7.52194C64.1792 6.514 64.7477 5.24761 65.0062 3.82616C65.1096 3.20588 65.3422 2.06872 64.541 1.81027C63.6881 1.55182 62.8869 2.99913 62.6026 3.6194C62.0857 4.73072 62.0082 5.94542 62.2925 7.16012C62.37 7.44441 62.7319 7.54779 62.9386 7.34103C64.2309 5.94542 64.7477 4.18798 64.3859 2.32716C64.3342 2.12041 64.1016 2.01703 63.9207 2.06872C61.9048 2.55977 61.6981 5.40268 62.0341 7.05674C62.1116 7.41857 62.5768 7.39272 62.7319 7.16012C63.4038 6.20387 63.8432 5.14423 63.9466 3.95538C63.9982 3.3868 64.1533 2.19794 63.378 1.99118C62.6026 1.78443 62.1374 2.92159 61.9048 3.46433C61.3621 4.67903 61.2329 5.97126 61.3879 7.28934C61.4396 7.65117 61.9048 7.85792 62.1116 7.4961C62.9128 6.10049 63.5847 4.00707 62.8611 2.45639C62.8094 2.32716 62.6543 2.24963 62.5251 2.27547C60.6126 2.30132 60.716 5.94542 61.052 7.16012C61.1295 7.47025 61.5947 7.54779 61.7498 7.2635C62.4734 5.99711 62.9386 4.13629 62.3183 2.71483C61.879 1.70689 61.0778 2.1721 60.5868 2.92159C59.8889 4.00707 59.4496 6.0488 60.1474 7.23765C60.6901 8.16806 61.3879 7.47025 61.7756 6.77245C62.2408 5.91957 62.9903 3.82616 62.215 2.92159C61.5172 2.12041 60.6126 3.23173 60.2249 3.80031C59.6305 4.70487 59.0619 6.35893 59.8114 7.34103C60.38 8.09053 61.4138 7.93546 61.7239 7.08258C61.8531 6.77245 61.5172 6.56569 61.2587 6.61738C60.716 6.69491 60.2766 6.84998 59.8114 7.13427C59.9406 7.36688 60.0699 7.57363 60.1991 7.80624C60.7418 7.39272 61.1036 6.92752 61.3621 6.2814C61.5172 5.89373 60.9744 5.68697 60.716 5.89373C60.5609 5.97126 60.4317 6.0488 60.2766 6.12633C60.4317 6.30724 60.5609 6.514 60.716 6.69491C61.4138 5.55775 62.1116 4.39474 62.8094 3.25757C63.042 2.89575 62.4734 2.43054 62.1891 2.79237C61.2587 3.95538 60.3025 5.14423 59.3721 6.30724C59.5788 6.46231 59.7856 6.61738 59.9923 6.77245C60.5092 5.55775 61.0261 4.36889 61.543 3.15419C61.6981 2.79237 61.2329 2.30132 60.9227 2.68899C60.5351 3.18004 60.1474 3.67109 59.7339 4.16214C59.9406 4.3172 60.1474 4.47227 60.3541 4.62734C60.7418 4.00707 61.0261 3.3868 61.2587 2.68899C61.3621 2.32716 60.8452 1.99118 60.6126 2.30132C60.0957 2.94744 59.6047 3.6194 59.0878 4.26551C59.2945 4.42058 59.5013 4.57565 59.708 4.73072C60.044 3.98122 60.3541 3.23173 60.6901 2.48223C60.8969 2.04287 60.2766 1.6552 60.0182 2.09456C59.7339 2.55977 59.4496 3.02497 59.1653 3.49017C58.8293 3.33511 59.5013 3.72278 59.7597 3.28342Z" fill="black"/>
<path d="M73.7937 1.08456C73.7937 1.96328 73.8195 2.86785 73.8454 3.74657C73.8712 4.39268 74.1555 5.76245 73.742 6.2535C73.4835 6.56364 73.8195 7.10638 74.2072 6.87377C74.3881 6.74455 74.4398 6.71871 74.5948 6.56364C74.7499 6.35688 74.7241 5.99505 74.4139 5.91752C73.9487 5.81414 73.6128 5.81414 73.1475 5.96921C72.6823 6.12428 72.8633 6.87377 73.3543 6.71871C73.6386 6.69286 73.9229 6.69286 74.2072 6.66702C74.1555 6.46026 74.1038 6.22766 74.0263 6.0209C73.9487 6.09843 73.8712 6.15012 73.8195 6.22766C73.9746 6.43441 74.1296 6.64117 74.2847 6.84793C74.8533 6.17597 74.6982 5.71076 74.6465 4.8062C74.5948 3.5915 74.569 2.35095 74.569 1.13625C74.569 0.567671 73.7937 0.567671 73.7937 1.08456Z" fill="black"/>
<path d="M35.5695 23.5937C46.1916 22.9993 56.8396 22.7667 67.4876 22.8959C67.9787 22.8959 67.9787 22.1206 67.4876 22.1206C56.8396 21.9913 46.1916 22.2239 35.5695 22.8184C35.0784 22.8442 35.0784 23.6195 35.5695 23.5937Z" fill="black"/>
<path d="M36.9396 30.6775C44.5637 29.8764 52.2138 29.4628 59.8638 29.4628C60.3548 29.4628 60.3548 28.6875 59.8638 28.6875C52.2138 28.6875 44.5637 29.0752 36.9396 29.9022C36.4485 29.9539 36.4227 30.7292 36.9396 30.6775Z" fill="black"/>
<path d="M37.6368 43.8819C47.8196 42.8223 58.0283 42.2279 68.2628 42.1503C68.7538 42.1503 68.7538 41.375 68.2628 41.375C58.0283 41.4525 47.8196 42.047 37.6368 43.1066C37.1458 43.1583 37.1458 43.9336 37.6368 43.8819Z" fill="black"/>
<path d="M79.4536 79.2371C74.4397 77.2988 71.4676 71.7422 71.9587 66.4699C72.4756 61.12 76.4556 56.5455 81.2369 54.4004C84.5192 52.9273 88.1374 52.6171 91.368 54.3487C93.9008 55.6926 96.0717 57.7602 97.5966 60.1896C100.775 65.2552 100.543 71.3804 97.1831 76.3425C95.1672 79.3147 91.368 80.1676 88.034 80.6844C84.7259 81.2013 81.2369 81.0204 78.4457 78.9787C78.0322 78.6944 77.6445 79.3664 78.058 79.6507C80.6425 81.5373 83.8214 81.925 86.9227 81.6149C89.9982 81.3047 93.6423 80.6328 96.1234 78.6686C98.5787 76.7302 100.052 73.0603 100.569 70.0623C101.06 67.1935 100.517 64.2989 99.3023 61.6628C96.5886 55.796 90.3342 51.0923 83.6921 52.7205C77.9546 54.1161 72.8891 58.7423 71.4935 64.5574C69.9945 70.7342 73.225 77.6348 79.221 79.9608C79.7121 80.1675 79.9188 79.4181 79.4536 79.2371Z" fill="black"/>
<path d="M84.9069 52.8527C85.217 57.6339 85.5272 62.4152 85.8631 67.1965C85.889 67.6875 86.6643 67.6875 86.6385 67.1965C86.3283 62.4152 86.0182 57.6339 85.6822 52.8527C85.6564 52.3616 84.881 52.3616 84.9069 52.8527Z" fill="black"/>
<path d="M86.5868 67.6616C90.5152 65.5164 94.3919 63.268 98.2169 60.8902C98.6304 60.6318 98.2428 59.9598 97.8292 60.2183C94.0301 62.596 90.1534 64.8445 86.1991 66.9896C85.7598 67.248 86.1474 67.92 86.5868 67.6616Z" fill="black"/>
<path d="M86.7423 67.791C91.1876 67.791 95.5812 68.8506 99.9489 69.6001C100.44 69.6776 100.647 68.9281 100.156 68.8506C95.7363 68.1011 91.2651 67.0156 86.7423 67.0156C86.2513 67.0156 86.2513 67.791 86.7423 67.791Z" fill="black"/>
<path d="M86.0702 67.2741C83.5891 71.3834 81.108 75.4669 78.6011 79.5762C78.3427 80.0156 79.0146 80.4032 79.2731 79.9639C81.7541 75.8546 84.2352 71.7711 86.7422 67.6618C87.0006 67.2483 86.3287 66.8348 86.0702 67.2741Z" fill="black"/>
<path d="M42.0568 103.893C53.2992 103.04 64.5158 102.058 75.7065 100.895C76.1976 100.843 76.1976 100.068 75.7065 100.12C64.4899 101.257 53.2734 102.265 42.0568 103.118C41.5657 103.169 41.5657 103.945 42.0568 103.893Z" fill="black"/>
<path d="M45.8814 84.8448C46.2949 90.7891 46.7343 96.7592 47.1478 102.704C47.1736 103.195 47.949 103.195 47.9231 102.704C47.5096 96.7592 47.0702 90.7891 46.6567 84.8448C46.605 84.3538 45.8297 84.3538 45.8814 84.8448Z" fill="black"/>
<path d="M46.6306 84.9262C48.1038 84.6677 49.5769 84.5902 51.0759 84.6677C50.9467 84.5385 50.8174 84.4093 50.6882 84.28C51.0759 90.3277 51.6445 96.3495 52.3423 102.345C52.394 102.837 53.1693 102.837 53.1176 102.345C52.394 96.3495 51.8512 90.3018 51.4636 84.28C51.4377 84.0733 51.3085 83.8924 51.0759 83.8924C49.4994 83.8148 47.9745 83.9182 46.4238 84.1767C45.9328 84.28 46.1654 85.0295 46.6306 84.9262Z" fill="black"/>
<path d="M54.7722 90.9719C55.3666 94.5643 55.7285 98.2084 55.8577 101.853C55.8835 102.344 56.6589 102.344 56.633 101.853C56.5038 98.1309 56.142 94.4351 55.5217 90.7652C55.4442 90.2741 54.6947 90.4809 54.7722 90.9719Z" fill="black"/>
<path d="M55.7023 91.3585C57.2013 91.3585 58.6744 91.281 60.1476 91.0742C60.0183 90.945 59.8891 90.8157 59.7599 90.6865C60.1217 94.2789 60.5094 97.8455 60.8712 101.438C60.9229 101.929 61.6982 101.929 61.6465 101.438C61.2847 97.8455 60.8971 94.2789 60.5352 90.6865C60.5094 90.5056 60.3802 90.273 60.1476 90.2989C58.6744 90.4798 57.1754 90.5831 55.7023 90.5831C55.2112 90.5831 55.2112 91.3585 55.7023 91.3585Z" fill="black"/>
<path d="M63.9732 84.798C64.5934 90.3804 64.9811 95.9629 65.1362 101.597C65.162 102.088 65.9374 102.088 65.9115 101.597C65.7306 95.9887 65.3429 90.3804 64.7485 84.798C64.6968 84.3069 63.9215 84.3069 63.9732 84.798Z" fill="black"/>
<path d="M64.3599 85.1059C65.1869 85.1576 66.0398 85.1834 66.8668 85.2351C68.0298 85.2868 68.0557 85.3126 68.0815 86.4756C68.159 88.1555 68.2366 89.8096 68.3399 91.4895C68.5725 94.6942 68.9344 97.8731 69.5288 101.026C69.6322 101.517 70.3558 101.31 70.2783 100.819C69.5288 96.8394 69.167 92.7817 68.9602 88.7241C68.9085 87.7937 68.8827 86.8892 68.831 85.9587C68.8051 85.5969 68.8568 85.0542 68.5725 84.744C68.2624 84.4339 67.7197 84.4856 67.332 84.4598C66.3241 84.4081 65.342 84.3564 64.334 84.3047C63.8688 84.3047 63.8688 85.08 64.3599 85.1059Z" fill="black"/>
<path d="M74.414 109.402C84.3901 108.704 94.3403 107.438 104.161 105.603C104.652 105.5 104.446 104.776 103.955 104.853C94.1852 106.688 84.3126 107.929 74.414 108.627C73.8971 108.653 73.8971 109.428 74.414 109.402Z" fill="black"/>
<path d="M89.6105 104.463C93.849 104.024 98.1134 103.584 102.352 103.145C102.843 103.093 102.843 102.318 102.352 102.37C98.1134 102.809 93.849 103.248 89.6105 103.688C89.1194 103.739 89.1194 104.515 89.6105 104.463Z" fill="black"/>
<path d="M96.8467 99.2937C98.785 99.2162 100.749 99.1387 102.688 99.0611C103.179 99.0353 103.179 98.2599 102.688 98.2858C100.749 98.3633 98.785 98.4409 96.8467 98.5184C96.3298 98.5442 96.3298 99.3196 96.8467 99.2937Z" fill="black"/>
<path d="M76.3785 12.3791C76.8696 13.8006 77.0763 15.2479 76.9988 16.7469C76.973 17.2379 77.7483 17.2379 77.7742 16.7469C77.8517 15.1704 77.6449 13.6714 77.128 12.1724C76.9471 11.7072 76.1976 11.9139 76.3785 12.3791Z" fill="black"/>
<path d="M77.0245 12.4591C84.1318 11.7355 91.2391 11.2703 98.3722 11.0377C98.8633 11.0118 98.8633 10.2365 98.3722 10.2624C91.2391 10.495 84.106 10.9602 77.0245 11.6838C76.5335 11.7355 76.5335 12.5108 77.0245 12.4591Z" fill="black"/>
<path d="M77.7736 17.1587C84.855 16.6418 91.9106 16.1249 98.992 15.608C99.4831 15.5822 99.4831 14.8068 98.992 14.8327C91.9106 15.3496 84.855 15.8665 77.7736 16.3833C77.2825 16.4092 77.2825 17.1845 77.7736 17.1587Z" fill="black"/>
<path d="M98.4753 11.1633C98.7079 12.7657 98.9405 14.3422 99.1731 15.9446C99.2507 16.4356 100 16.2289 99.9226 15.7378C99.69 14.1355 99.4574 12.5589 99.2248 10.9566C99.1473 10.4655 98.3978 10.6723 98.4753 11.1633Z" fill="black"/>
<path d="M223.46 32.2003C223.486 33.1824 223.537 34.1387 223.667 35.1208C223.744 35.6118 224.52 35.6118 224.442 35.1208C224.313 34.1645 224.235 33.1824 224.235 32.2003C224.235 31.7093 223.46 31.7093 223.46 32.2003Z" fill="black"/>
<path d="M224.029 32.5917H274.193C274.685 32.5917 274.685 31.8164 274.193 31.8164C257.472 31.8164 240.75 31.8164 224.029 31.8164C223.538 31.8164 223.538 32.5917 224.029 32.5917Z" fill="black"/>
<path d="M273.728 32.5127V34.2184C273.728 34.7095 274.503 34.7095 274.503 34.2184C274.503 33.6498 274.503 33.0813 274.503 32.5127C274.503 31.9958 273.728 31.9958 273.728 32.5127Z" fill="black"/>
<path d="M224.494 35.4042H274.013C274.504 35.4042 274.504 34.6289 274.013 34.6289C257.498 34.6289 240.983 34.6289 224.494 34.6289C223.977 34.6289 223.977 35.4042 224.494 35.4042Z" fill="black"/>
<path d="M224.417 23.2883C225.063 26.2088 225.606 29.1551 226.045 32.1014C226.123 32.5924 226.872 32.3856 226.795 31.8946C226.329 28.9483 225.787 26.002 225.166 23.0816C225.037 22.5905 224.313 22.7973 224.417 23.2883Z" fill="black"/>
<path d="M224.882 23.233C228.268 23.3364 231.808 23.7499 235.194 23.3364C235.685 23.2847 235.685 22.5094 235.194 22.561C231.808 22.9746 228.268 22.561 224.882 22.4577C224.391 22.4318 224.391 23.2072 224.882 23.233Z" fill="black"/>
<path d="M234.806 23.4933C234.444 26.2845 234.108 29.0757 233.746 31.8928C233.694 32.3839 234.47 32.3839 234.521 31.8928C234.883 29.1016 235.219 26.3104 235.581 23.4933C235.633 23.0022 234.857 23.0022 234.806 23.4933Z" fill="black"/>
<path d="M228.733 22.3821C228.216 22.1495 227.595 21.9169 227.208 21.5034C226.536 20.8314 226.587 19.9269 226.484 19.0481C226.329 17.8851 225.683 16.8513 225.605 15.6625C225.399 15.7659 225.218 15.8951 225.011 15.9985C227.415 17.5491 229.534 19.7459 229.456 22.7956C229.43 23.2867 230.206 23.2867 230.232 22.7956C230.335 19.4617 228.035 17.0323 225.399 15.3265C225.166 15.1714 224.804 15.3782 224.804 15.6625C224.856 16.3603 225.063 16.9806 225.295 17.6525C225.631 18.5829 225.631 19.4875 225.812 20.4438C226.096 21.8652 227.079 22.4855 228.319 23.0541C228.784 23.235 229.172 22.5889 228.733 22.3821Z" fill="black"/>
<path d="M229.482 19.0724C229.198 17.1082 230.49 15.2215 231.214 13.4899C231.782 12.1202 232.196 10.7246 232.118 9.22557C231.86 9.25142 231.601 9.30311 231.369 9.32895C232.325 13.8001 233.514 18.0386 231.472 22.4322C231.265 22.8716 231.937 23.2851 232.144 22.8199C233.075 20.804 233.566 18.633 233.462 16.4104C233.333 13.9551 232.635 11.5257 232.118 9.12219C232.041 8.68283 231.343 8.78621 231.369 9.22557C231.524 12.818 228.216 15.7126 228.758 19.2792C228.81 19.7702 229.56 19.5634 229.482 19.0724Z" fill="black"/>
<path d="M242.12 4.10642C242.43 13.5139 242.534 22.8955 242.353 32.303C242.353 32.794 243.128 32.794 243.128 32.303C243.283 22.8955 243.206 13.488 242.895 4.10642C242.895 3.58953 242.12 3.58953 242.12 4.10642Z" fill="black"/>
<path d="M242.714 4.23932C243.826 3.30891 245.712 3.72242 246.953 4.11009C247.418 4.26516 247.625 3.51567 247.159 3.3606C245.583 2.86955 243.515 2.55941 242.171 3.69658C241.784 4.00671 242.327 4.54945 242.714 4.23932Z" fill="black"/>
<path d="M246.643 4.10642C246.694 13.3847 246.746 22.6371 246.798 31.9153C246.798 32.4063 247.573 32.4063 247.573 31.9153C247.521 22.6371 247.47 13.3847 247.418 4.10642C247.418 3.58953 246.643 3.58953 246.643 4.10642Z" fill="black"/>
<path d="M243.283 10.367C244.317 9.5141 245.842 9.59164 246.798 10.4962C247.16 10.8322 247.702 10.2894 247.341 9.95346C246.048 8.73876 244.084 8.71292 242.74 9.82424C242.353 10.1344 242.895 10.6771 243.283 10.367Z" fill="black"/>
<path d="M242.947 7.39099C244.084 6.4089 245.713 6.38305 246.901 7.28762C247.315 7.59775 247.677 6.89995 247.289 6.61565C245.79 5.50433 243.774 5.6594 242.379 6.84826C242.017 7.18424 242.585 7.72698 242.947 7.39099Z" fill="black"/>
<path d="M247.444 10.754C248.607 10.754 249.744 10.8833 250.882 11.1675C250.778 11.0383 250.701 10.9091 250.597 10.8057C250.752 17.7838 250.675 24.736 250.313 31.7141C250.287 32.2051 251.063 32.2051 251.088 31.7141C251.45 24.7619 251.528 17.7838 251.373 10.8057C251.373 10.6507 251.243 10.4697 251.088 10.4439C249.874 10.1338 248.685 10.0045 247.444 10.0045C246.927 9.97869 246.927 10.754 247.444 10.754Z" fill="black"/>
<path d="M247.625 18.0935C248.659 17.4215 249.899 17.3957 250.959 18.016C251.398 18.2744 251.786 17.6024 251.347 17.344C250.054 16.5687 248.478 16.5945 247.237 17.4215C246.824 17.68 247.211 18.3519 247.625 18.0935Z" fill="black"/>
<path d="M247.496 14.396C248.401 13.9567 249.434 13.9308 250.365 14.3185C250.83 14.4994 251.218 13.8533 250.752 13.6466C249.538 13.1297 248.297 13.1555 247.108 13.7241C246.669 13.9567 247.057 14.6287 247.496 14.396Z" fill="black"/>
<path d="M253.079 31.7894C253.079 31.35 252.794 29.7477 253.053 29.4375C253.415 28.9982 255.405 29.1532 255.922 29.1274C257.705 29.024 259.514 28.9465 261.297 28.9206C264.89 28.869 268.482 28.9982 272.049 29.2825C271.919 29.1532 271.79 29.024 271.661 28.8948C271.816 30.0578 271.894 31.2208 271.868 32.4097C271.868 32.9007 272.643 32.9007 272.643 32.4097C272.643 31.2208 272.591 30.0578 272.436 28.8948C272.41 28.6622 272.281 28.533 272.049 28.5071C267.629 28.1711 263.158 28.0678 258.739 28.2228C257.705 28.2487 256.697 28.3004 255.663 28.3779C254.914 28.4296 253.518 28.2745 252.82 28.6105C251.812 29.0757 252.277 30.9624 252.303 31.8152C252.303 32.2805 253.079 32.3063 253.079 31.7894Z" fill="black"/>
<path d="M255.74 28.2468C255.688 27.9625 255.43 27.1096 255.481 26.8253C255.662 26.05 256.412 26.2309 256.98 26.2309C257.911 26.2051 258.867 26.2051 259.798 26.1792C261.762 26.1534 263.726 26.1017 265.716 26.0758C267.603 26.05 269.489 25.9983 271.376 25.9725C272.41 25.9466 273.443 25.9466 274.451 25.9208C275.175 25.9208 275.589 25.6623 275.821 26.5927C275.925 27.0063 275.847 27.549 275.821 27.9625C275.795 28.4536 276.571 28.4536 276.597 27.9625C276.622 27.2905 276.829 25.9725 276.286 25.4039C275.795 24.9128 274.787 25.1454 274.193 25.1713C271.273 25.223 268.378 25.2747 265.457 25.3264C262.64 25.378 259.798 25.4297 256.98 25.4814C256.412 25.4814 255.197 25.2488 254.784 25.7657C254.293 26.3601 254.887 27.8333 254.99 28.4794C255.094 28.9446 255.843 28.7378 255.74 28.2468Z" fill="black"/>
<path d="M271.893 29.2581C273.056 29.284 274.245 29.3098 275.408 29.2323C275.977 29.1806 276.545 28.9738 276.494 28.3019C276.442 27.8108 275.667 27.8108 275.718 28.3019C275.744 28.5862 272.229 28.5086 271.893 28.4828C271.402 28.4569 271.402 29.2323 271.893 29.2581Z" fill="black"/>
<path d="M258.015 25.6353C257.989 25.1959 257.86 24.6015 257.911 24.1622C257.963 23.6453 257.834 23.5677 258.428 23.4902C259.255 23.3868 260.315 23.6711 261.142 23.7228C262.873 23.852 264.631 23.9296 266.362 23.9554C268.094 23.9812 269.851 23.9812 271.583 23.9037C272.358 23.8779 273.289 23.6711 274.064 23.7745C274.426 23.6194 274.71 23.7228 274.891 24.0588C275.175 24.188 275.279 24.4206 275.253 24.7049C275.331 24.9116 275.356 25.1701 275.434 25.4027C275.615 25.8679 276.364 25.6611 276.183 25.1959C275.951 24.6274 276.106 23.7745 275.641 23.2834C275.227 22.8441 274.633 22.9475 274.064 22.9733C271.506 23.1025 268.921 23.1801 266.362 23.1542C263.881 23.1025 261.4 22.9733 258.919 22.7407C258.402 22.689 257.601 22.4822 257.239 22.9991C256.826 23.6194 257.188 24.9375 257.239 25.6095C257.291 26.1263 258.066 26.1263 258.015 25.6353Z" fill="black"/>
<path d="M277.837 51.2238V62.7246C277.837 63.2157 278.613 63.2157 278.613 62.7246C278.613 58.8996 278.613 55.0488 278.613 51.2238C278.613 50.7327 277.837 50.7327 277.837 51.2238Z" fill="black"/>
<path d="M278.484 51.2246H298.642C299.133 51.2246 299.133 50.4492 298.642 50.4492C291.923 50.4492 285.203 50.4492 278.484 50.4492C277.992 50.4492 277.992 51.2246 278.484 51.2246Z" fill="black"/>
<path d="M298.28 50.9659V62.4668C298.28 62.9579 299.056 62.9579 299.056 62.4668C299.056 58.6418 299.056 54.791 299.056 50.9659C299.056 50.4749 298.28 50.4749 298.28 50.9659Z" fill="black"/>
<path d="M278.225 63.3691H298.384C298.875 63.3691 298.875 62.5938 298.384 62.5938C291.664 62.5938 284.945 62.5938 278.225 62.5938C277.734 62.5938 277.734 63.3691 278.225 63.3691Z" fill="black"/>
<path d="M287.012 50.4495C287.012 49.7776 287.064 49.1573 287.245 48.5112C287.322 48.2269 287.426 47.7875 287.607 47.5808C287.684 47.3223 287.865 47.2448 288.175 47.3482C288.589 47.1673 288.795 47.2965 288.821 47.7617C289.131 48.8472 289.183 50.0877 289.338 51.2249C289.416 51.7159 290.165 51.5092 290.088 51.0181C289.933 49.881 289.881 48.6663 289.571 47.5549C289.416 46.9347 288.95 46.2885 288.253 46.2369C286.521 46.1335 286.211 49.2865 286.211 50.4495C286.263 50.9406 287.038 50.9406 287.012 50.4495Z" fill="black"/>
<path d="M279.104 52.9034V61.4322C279.104 61.9232 279.879 61.9232 279.879 61.4322C279.879 58.5893 279.879 55.7464 279.879 52.9034C279.879 52.4124 279.104 52.4124 279.104 52.9034Z" fill="black"/>
<path d="M279.905 52.9042H297.48C297.971 52.9042 297.971 52.1289 297.48 52.1289C291.613 52.1289 285.746 52.1289 279.905 52.1289C279.414 52.1289 279.414 52.9042 279.905 52.9042Z" fill="black"/>
<path d="M296.988 52.6456V61.6913C296.988 62.1823 297.764 62.1823 297.764 61.6913C297.764 58.6674 297.764 55.6695 297.764 52.6456C297.764 52.1546 296.988 52.1546 296.988 52.6456Z" fill="black"/>
<path d="M279.647 61.8222H296.446C296.937 61.8222 296.937 61.0469 296.446 61.0469C290.837 61.0469 285.229 61.0469 279.647 61.0469C279.156 61.0469 279.156 61.8222 279.647 61.8222Z" fill="black"/>
<path d="M280.37 58.3803C280.939 57.5533 281.456 57.3723 281.895 57.7859C281.973 57.8375 282.024 57.8892 282.102 57.9409C282.283 58.0185 282.412 58.1477 282.593 58.1994C282.903 58.3028 283.265 58.2769 283.575 58.1477C283.808 58.0443 284.014 57.8634 284.092 57.6049C284.221 57.1914 283.911 57.1139 283.885 56.7521C283.756 56.597 283.808 56.4419 284.04 56.2352C284.092 55.6408 284.454 55.5115 285.074 55.8734C285.229 55.8734 285.384 55.925 285.513 55.8992C285.979 55.8217 286.03 55.6666 286.366 55.3823C287.452 54.5036 288.667 54.9429 288.951 56.3386C288.977 56.5195 289.106 57.7083 288.899 57.8375C288.692 57.5791 288.486 57.3465 288.279 57.0881C288.951 57.1914 289.442 57.5533 289.726 58.1218C289.881 58.3803 290.217 58.3544 290.398 58.1218C290.915 57.5791 291.432 57.5533 291.949 58.0702C292.13 57.8892 292.311 57.7083 292.492 57.5274C292.285 57.3465 292.104 57.1656 291.897 56.9847C291.225 56.4161 291.277 55.77 292.078 55.0205C293.163 55.0722 293.732 56.1318 293.267 57.0881C292.672 58.2511 291.251 58.4061 290.088 58.3028V59.0781C291.768 59.1815 293.474 59.2849 295.154 59.3882C295.645 59.4141 295.645 58.6387 295.154 58.6129C293.474 58.5095 291.768 58.4061 290.088 58.3028C289.597 58.2769 289.597 59.0264 290.088 59.0781C291.432 59.2073 292.905 58.9489 293.758 57.76C294.43 56.8038 294.378 55.3565 293.396 54.607C292.647 54.0384 291.509 54.1418 290.889 54.8913C289.959 56.0543 291.044 57.3207 291.923 58.096C292.285 58.432 292.828 57.9151 292.466 57.5533C291.639 56.6745 290.372 56.8296 289.7 57.76H290.372C289.726 56.7004 288.511 55.925 287.297 56.5712C286.366 57.0881 286.03 58.432 286.883 59.2073C287.762 60.0085 289.028 59.3882 289.494 58.4837C290.01 57.4499 289.907 55.8217 289.158 54.8913C288.408 53.9608 287.09 53.8575 286.16 54.5553C285.513 55.0463 285.901 55.1239 284.816 55.0463C284.454 55.0205 284.144 54.9429 283.782 55.0463C283.394 55.1497 283.032 55.3823 282.851 55.77C282.722 56.0543 282.671 56.3127 282.8 56.6228C282.826 56.7262 283.11 56.9588 283.084 57.0364C282.981 57.6049 281.482 56.5712 281.223 56.5195C280.06 56.3386 279.285 57.5791 279.621 58.587C279.776 59.0522 280.525 58.8713 280.37 58.3803Z" fill="black"/>
<path d="M302.519 36.5441V45.4346C302.519 45.9257 303.294 45.9257 303.294 45.4346C303.294 42.4625 303.294 39.5162 303.294 36.5441C303.294 36.053 302.519 36.053 302.519 36.5441Z" fill="black"/>
<path d="M303.346 36.4941H317.612C318.103 36.4941 318.103 35.7188 317.612 35.7188C312.857 35.7188 308.102 35.7188 303.346 35.7188C302.829 35.7188 302.829 36.4941 303.346 36.4941Z" fill="black"/>
<path d="M303.113 46.0566H317.38C317.871 46.0566 317.871 45.2812 317.38 45.2812C312.624 45.2812 307.869 45.2812 303.113 45.2812C302.622 45.2812 302.622 46.0566 303.113 46.0566Z" fill="black"/>
<path d="M317.225 36.4385V45.5616C317.225 46.0527 318 46.0527 318 45.5616C318 42.512 318 39.4881 318 36.4385C318 35.9216 317.225 35.9216 317.225 36.4385Z" fill="black"/>
<path d="M303.398 36.8799V45.3311C303.398 45.8221 304.173 45.8221 304.173 45.3311C304.173 42.514 304.173 39.6969 304.173 36.8799C304.173 36.363 303.398 36.363 303.398 36.8799Z" fill="black"/>
<path d="M303.682 45.3808H317.302C317.793 45.3808 317.793 44.6055 317.302 44.6055C312.754 44.6055 308.231 44.6055 303.682 44.6055C303.165 44.6055 303.165 45.3808 303.682 45.3808Z" fill="black"/>
<path d="M303.889 37.0371H317.07C317.561 37.0371 317.561 36.2617 317.07 36.2617C312.676 36.2617 308.282 36.2617 303.889 36.2617C303.398 36.2617 303.398 37.0371 303.889 37.0371Z" fill="black"/>
<path d="M316.889 36.7511V44.8663C316.889 45.3574 317.664 45.3574 317.664 44.8663C317.664 42.1526 317.664 39.4389 317.664 36.7511C317.664 36.2601 316.889 36.2601 316.889 36.7511Z" fill="black"/>
<path d="M306.396 43.3424C308.541 42.3086 310.971 41.8176 313.142 43.084C313.581 43.3424 313.969 42.6705 313.529 42.412C311.126 40.9906 308.412 41.5075 306.008 42.6705C305.543 42.8772 305.957 43.5492 306.396 43.3424Z" fill="black"/>
<path d="M306.396 42.2542C305.931 41.6856 307.12 41.5047 307.275 41.1946C307.404 40.962 307.223 40.2383 307.301 40.2642C307.533 40.3159 307.792 40.1608 307.792 39.9023C307.766 38.6876 309.084 40.626 309.032 40.5485C309.187 40.7294 309.342 40.9103 309.601 41.0137C309.963 41.1687 310.738 40.7552 310.945 40.9103C311.177 41.117 311.488 41.0137 311.591 40.7294C311.798 40.6518 312.004 40.5743 312.237 40.5226C312.211 40.8586 312.676 41.0395 312.909 40.8069C313.607 41.3496 313.71 41.789 313.193 42.0991C312.806 42.4351 313.374 42.9779 313.736 42.6419C314.408 42.0733 314.873 41.0912 314.253 40.29C313.736 39.618 312.883 39.6697 312.34 40.2642C312.573 40.3675 312.78 40.4451 313.012 40.5485C313.064 39.9799 312.728 39.5147 312.108 39.463C311.436 39.4113 311.048 39.9799 310.841 40.5485C311.048 40.4968 311.281 40.4451 311.488 40.3675C311.048 40.0057 310.971 40.1608 310.48 40.1349C309.162 40.0833 309.549 39.2562 308.696 38.7652C307.843 38.2741 307.016 39.0236 307.016 39.9023C307.172 39.7731 307.352 39.6439 307.508 39.5405C307.12 39.463 306.655 39.4371 306.396 39.7731C306.112 40.1349 306.551 40.4192 306.448 40.6777C306.293 41.0912 305.543 40.962 305.362 41.5047C305.181 42.0216 305.543 42.4868 305.853 42.8486C306.164 43.2105 306.706 42.6419 306.396 42.2542Z" fill="black"/>
<path d="M309.497 35.4595C309.342 35.1235 309.265 34.7875 309.342 34.4257C309.368 34.1931 309.575 33.4436 309.937 33.547C310.195 33.6245 310.454 34.2965 310.505 34.5291C310.634 34.9426 310.66 35.3303 310.609 35.7696C310.557 36.2607 311.332 36.2607 311.384 35.7696C311.461 35.0718 311.358 34.3998 311.022 33.7796C310.764 33.2627 310.273 32.5649 309.601 32.7716C309.084 32.9267 308.748 33.5728 308.619 34.0639C308.463 34.6841 308.541 35.3044 308.825 35.873C309.058 36.3124 309.704 35.9247 309.497 35.4595Z" fill="black"/>
<path d="M303.656 49.8525V61.7152C303.656 62.2063 304.432 62.2063 304.432 61.7152C304.432 57.761 304.432 53.8067 304.432 49.8525C304.432 49.3356 303.656 49.3356 303.656 49.8525Z" fill="black"/>
<path d="M304.044 49.5722H316.062C316.553 49.5722 316.553 48.7969 316.062 48.7969C312.056 48.7969 308.05 48.7969 304.044 48.7969C303.527 48.7969 303.527 49.5722 304.044 49.5722Z" fill="black"/>
<path d="M315.674 49.1808V61.6896C315.674 62.1807 316.45 62.1807 316.45 61.6896C316.45 57.5286 316.45 53.3418 316.45 49.1808C316.45 48.6897 315.674 48.6897 315.674 49.1808Z" fill="black"/>
<path d="M304.354 62.5957H315.726C316.217 62.5957 316.217 61.8203 315.726 61.8203C311.927 61.8203 308.153 61.8203 304.354 61.8203C303.863 61.8203 303.863 62.5957 304.354 62.5957Z" fill="black"/>
<path d="M307.895 53.8058C307.714 55.3048 308.67 56.933 310.273 57.1139C311.953 57.2948 313.193 56.0026 313.141 54.3744C313.116 53.8833 312.34 53.8833 312.366 54.3744C312.418 55.5891 311.487 56.5712 310.221 56.3127C309.058 56.0801 308.567 54.8913 308.67 53.8058C308.722 53.3147 307.947 53.3147 307.895 53.8058Z" fill="black"/>
<path d="M310.505 56.9347C310.453 57.2965 310.686 57.5808 310.583 57.9168C310.428 58.4337 309.756 58.9247 309.42 59.3124C308.851 59.9844 308.438 60.6563 308.412 61.5609C308.386 62.0519 309.161 62.0519 309.187 61.5609C309.239 60.372 310.247 59.6742 310.919 58.7955C311.125 58.5371 311.332 58.2528 311.41 57.9426C311.487 57.5808 311.229 57.2965 311.281 56.9347C311.332 56.4436 310.557 56.4436 310.505 56.9347Z" fill="black"/>
<path d="M308.722 56.907C307.817 56.8553 306.111 56.2867 306.525 55.0203C306.732 54.3484 307.585 54.3225 307.946 53.8573C308.437 53.2629 308.024 52.9269 307.636 52.4876C307.274 52.074 306.525 51.919 307.533 51.0144C308.101 50.4975 309.032 51.1436 309.497 51.5313C309.781 51.7898 309.833 52.074 310.221 52.255C310.479 52.3842 310.815 52.4359 311.099 52.3325C311.565 52.1257 312.082 50.756 312.573 52.4617C312.624 52.6685 312.857 52.7977 313.038 52.7202C313.064 53.2629 313.089 53.7798 313.089 54.3225C312.779 54.7102 313.322 55.2529 313.632 54.8653C314.123 54.245 314.692 53.4697 314.33 52.6426C314.046 52.0224 313.425 51.7898 312.805 51.9707C312.96 52.0482 313.115 52.1516 313.27 52.2291C313.064 51.5313 312.728 50.8077 311.926 50.756C311.668 50.7301 311.435 50.7818 311.229 50.911C311.28 50.8852 310.918 51.2987 310.918 51.2987C310.376 51.583 310.221 51.0919 309.911 50.7818C309.368 50.1874 308.928 49.8514 308.05 49.9806C307.378 50.084 306.422 50.5492 306.189 51.247C305.905 52.074 306.602 52.3066 306.913 52.9269C307.249 53.0561 307.249 53.2112 306.887 53.3921C306.809 53.5472 306.706 53.6247 306.577 53.6764C306.473 53.754 306.318 53.8056 306.215 53.909C306.008 54.1416 305.853 54.3742 305.75 54.6585C305.155 56.5452 307.093 57.5531 308.644 57.6565C309.213 57.7082 309.213 56.9328 308.722 56.907Z" fill="black"/>
<path d="M309.006 49.1037C308.98 48.716 308.851 48.0182 309.316 47.7856C309.807 47.553 309.73 48.3025 309.678 48.5609C309.575 49.052 310.324 49.2588 310.428 48.7677C310.505 48.3542 310.557 47.889 310.35 47.5013C310.143 47.1395 309.756 46.9327 309.368 46.9844C308.308 47.1136 308.179 48.2508 308.257 49.1037C308.257 49.5947 309.032 49.5947 309.006 49.1037Z" fill="black"/>
<path d="M304.613 49.7744V61.1719C304.613 61.6629 305.388 61.6629 305.388 61.1719C305.388 57.3727 305.388 53.5736 305.388 49.7744C305.388 49.2575 304.613 49.2575 304.613 49.7744Z" fill="black"/>
<path d="M305.078 61.7441H315.39C315.881 61.7441 315.881 60.9688 315.39 60.9688C311.952 60.9688 308.515 60.9688 305.078 60.9688C304.587 60.9688 304.587 61.7441 305.078 61.7441Z" fill="black"/>
<path d="M315.674 61.4594C315.674 57.4793 315.674 53.4734 315.674 49.4933C315.674 49.0022 314.899 49.0022 314.899 49.4933V61.4594C314.899 61.9504 315.674 61.9504 315.674 61.4594Z" fill="black"/>
<path d="M305.259 49.8769H315.468C315.959 49.8769 315.959 49.1016 315.468 49.1016C312.056 49.1016 308.67 49.1016 305.259 49.1016C304.768 49.1016 304.768 49.8769 305.259 49.8769Z" fill="black"/>
<path d="M160.838 189.546C159.106 188.15 156.755 187.866 154.842 188.822C152.594 189.959 151.379 192.621 151.947 195.283C152.413 198.824 152.878 202.391 153.343 205.931C143.91 210.247 139.413 213.064 139.8 214.357C140.266 215.933 147.916 215.261 162.776 212.393C162.13 204.768 161.484 197.17 160.838 189.546Z" fill="#191919"/>
<path d="M154.532 105.656C154.17 110.851 153.576 119.276 152.568 129.718C151.327 142.821 150.811 156.028 149.053 169.079C147.244 182.622 145.254 191.9 149.828 195.131C151.482 196.294 153.473 196.294 154.894 196.113C156.393 195.725 157.892 195.311 159.391 194.924C160.864 195.647 162.854 196.345 164.456 195.518C169.16 193.115 164.715 180.787 165.051 163.109C165.284 151.453 167.532 139.823 170.53 124.549C172.804 112.893 174.536 106.845 171.305 103.873C167.377 100.229 158.667 103.718 154.532 105.656Z" fill="white" stroke="#161616" stroke-width="0.516894"/>
<path opacity="0.14" d="M161.949 103.226C162.932 107.801 164.043 114.727 163.965 123.152C163.836 136.747 160.657 145.327 158.357 155.536C156.264 164.788 154.248 178.279 155.152 195.673C156.522 195.414 157.918 195.13 159.287 194.871C159.598 195.104 160.864 195.957 162.621 195.802C162.88 195.776 164.586 195.595 165.697 194.329C167.067 192.778 166.782 190.478 166.627 189.366C166.033 184.534 165.904 179.649 165.413 174.79C164.896 169.673 164.973 165.693 164.999 163.289C165.025 161.48 165.154 158.094 165.8 152.589C166.937 143.001 167.971 141.373 170.22 127.443C171.925 116.95 171.176 118.862 171.822 116.484C172.417 114.365 173.424 111.29 172.882 107.387C172.623 105.552 172.158 104.518 171.409 103.769C169.858 102.244 167.558 102.27 166.188 102.296C164.353 102.322 162.854 102.838 161.949 103.226Z" fill="#6D6C6C"/>
<path opacity="0.1" d="M169.315 129.586C167.376 133.876 165.335 139.51 164.094 146.307C161.923 158.299 164.068 164.399 162.233 177.218C161.561 181.947 160.295 187.892 157.814 194.611C158.744 194.74 159.675 194.87 160.631 195.025C162.027 195.516 163.784 195.878 165.05 195.025C167.325 193.5 166.549 189.029 165.981 183.782C165.981 183.782 165.283 177.321 165.18 165.045C165.128 158.248 165.748 153.234 166.653 145.92C167.454 139.355 168.436 133.799 169.315 129.586Z" fill="#6D6C6C"/>
<path d="M193.454 187.585C191.723 186.189 189.371 185.905 187.458 186.861C185.21 187.998 183.995 190.66 184.564 193.322C185.029 196.863 185.494 200.43 185.959 203.97C176.526 208.286 172.029 211.104 172.417 212.396C172.882 213.972 180.532 213.3 195.393 210.432C194.721 202.807 194.074 195.209 193.454 187.585Z" fill="#191919"/>
<path d="M183.814 104.854C185.313 117.13 186.915 129.794 188.621 142.949C189.784 151.995 190.068 154.14 190.973 157.655C192.524 163.754 194.617 168.949 196.426 178.382C197.279 182.776 197.718 186.342 195.677 189.03C194.152 191.046 191.18 192.649 190.508 192.028C190.223 191.744 190.404 191.02 190.663 190.374C190.042 190.969 186.114 194.664 182.987 193.372C181.152 192.623 180.402 190.478 180.041 189.315C176.371 178.072 175.776 166.804 175.776 166.804C175.544 162.462 174.975 158.017 173.864 149.1C173.037 142.562 171.486 133.102 168.152 121.602C167.661 121.291 162.854 118.087 162.544 112.168C162.518 111.729 162.337 107.258 165.154 104.234C168.876 100.228 176.836 99.9437 183.814 104.854Z" fill="white" stroke="#161616" stroke-width="0.516894"/>
<path d="M162.957 107.954C162.027 110.641 161.768 113.665 163.241 116.224C164.508 118.421 166.549 120.824 169.03 121.6C169.496 121.755 169.702 121.005 169.237 120.85C166.963 120.152 165.05 117.852 163.913 115.836C162.543 113.459 162.854 110.667 163.706 108.16C163.887 107.695 163.138 107.488 162.957 107.954Z" fill="white"/>
<path d="M162.182 112.763C162.414 116.795 164.999 120.154 168.927 121.266C169.418 121.395 169.625 120.645 169.134 120.516C165.567 119.508 163.19 116.459 162.957 112.763C162.931 112.272 162.156 112.272 162.182 112.763Z" fill="white"/>
<path opacity="0.14" d="M173.631 101.492C174.303 103.508 175.337 106.765 176.474 110.796C179.782 122.478 185.494 142.714 185.855 167.06C185.907 171.118 186.062 191.768 187.923 191.871C188.362 191.897 189.086 190.76 190.068 191.018C190.74 191.199 190.766 191.819 191.36 192.052C192.653 192.543 194.798 190.32 195.831 188.692C196.193 188.124 197.02 186.831 197.201 184.996C197.305 184.169 197.227 183.575 196.943 181.817C196.529 179.104 196.322 177.76 196.167 177.088C195.056 171.841 193.066 166.802 191.438 159.694C190.74 156.696 190.275 154.009 189.706 150.907C189.525 149.925 189.034 147.056 188.492 143.49C187.277 135.323 186.889 129.715 186.088 122.556C185.649 118.653 184.977 113.148 183.943 106.454C183.684 105.886 183.219 105.007 182.392 104.206C182.108 103.947 181.229 103.146 178.851 102.397C177.688 101.983 175.905 101.544 173.631 101.492L173.631 101.492Z" fill="#6D6C6C"/>
<path opacity="0.2" d="M190.43 155.844C191.852 162.46 192.808 168.12 193.454 172.565C194.488 179.802 194.539 182.438 193.195 185.229C191.18 189.442 186.993 191.949 187.251 192.285C187.355 192.414 188.027 192.156 190.353 190.657C190.43 191.277 190.611 191.975 191.128 192.207C192.446 192.776 195.366 189.933 196.633 187.219C198.364 183.472 197.098 179.621 195.935 175.925C194.488 171.247 192.549 164.579 190.43 155.844Z" fill="#6D6C6C"/>
<path d="M156.057 60.9178C153.524 60.5818 151.198 63.8899 146.675 70.4803C143.574 74.9773 141.403 78.9315 139.981 81.6711C136.906 81.516 133.83 81.3609 130.755 81.18C127.886 81.025 125.017 80.8699 122.149 80.689C121.011 80.3013 119.306 79.7327 117.212 79.2417C113.827 78.4146 106.823 77.0449 106.383 78.2596C106.254 78.6473 106.719 79.4484 109.717 81.3351C109.511 81.852 108.761 84.0229 109.717 86.5299C109.872 86.9175 110.725 89.011 112.741 90.0964C115.326 91.4662 118.892 90.7167 121.502 88.1581C123.518 89.3728 134.451 95.7564 144.737 91.3887C148.097 89.9672 150.449 87.7963 152.542 85.8838C156.341 82.3947 161.329 77.8202 161.458 71.4624C161.562 66.8621 159.132 61.3313 156.057 60.9178Z" fill="white" stroke="#161616" stroke-width="0.516894"/>
<path d="M106.177 78.5657C107.184 79.5736 108.167 80.6591 109.304 81.5119C110.415 82.339 111.681 82.8042 112.974 83.2435C113.336 83.3728 113.491 82.8042 113.129 82.675C111.759 82.2098 110.441 81.6929 109.304 80.7624C108.322 79.9613 107.469 79.0309 106.59 78.1521C106.332 77.8937 105.918 78.3072 106.177 78.5657Z" fill="#161616"/>
<path d="M118.402 81.2338C117.419 81.5956 116.515 82.1642 115.817 82.9396C115.326 83.4823 114.602 84.3352 114.783 85.1105C114.964 85.9892 116.05 85.9892 116.773 85.9892C117.936 85.9634 119.048 85.6274 120.056 85.033C120.366 84.8521 120.081 84.3352 119.771 84.5419C119.125 84.9296 118.427 85.2139 117.678 85.3431C117.032 85.4465 115.145 85.6791 115.481 84.4644C115.817 83.2239 117.471 82.2159 118.582 81.8024C118.893 81.6732 118.738 81.1046 118.402 81.2338Z" fill="#161616"/>
<path d="M109.381 81.7997C108.839 83.5313 108.839 85.2112 110.699 86.0382C112.069 86.6585 114.059 86.3484 114.757 84.8752C114.912 84.5392 114.421 84.2549 114.266 84.5909C113.697 85.8056 112.069 86.0124 110.932 85.4955C109.355 84.7977 109.511 83.3762 109.95 81.9548C110.053 81.5929 109.511 81.4379 109.381 81.7997Z" fill="#161616"/>
<path d="M109.252 85.6229C109.355 87.0961 110.26 88.5434 111.81 88.8277C113.18 89.0861 114.447 88.2591 114.938 87.0185C115.067 86.6826 114.524 86.5275 114.369 86.8635C113.956 87.8973 112.793 88.5175 111.681 88.2074C110.544 87.8714 109.898 86.7343 109.82 85.6229C109.82 85.2611 109.226 85.2611 109.252 85.6229Z" fill="#161616"/>
<path d="M114.834 87.3065C116.85 86.9447 116.178 90.5371 114.705 90.4078C114.343 90.382 114.343 90.9506 114.705 91.0023C115.946 91.1057 116.617 89.5808 116.695 88.547C116.773 87.4099 115.79 86.5828 114.679 86.7896C114.317 86.8154 114.472 87.3582 114.834 87.3065Z" fill="#161616"/>
<path d="M114.679 85.2087C114.679 85.1828 114.705 85.1828 114.705 85.157C114.601 85.1828 114.524 85.2087 114.42 85.2345C114.627 85.2862 114.653 85.9582 114.627 86.0874C114.601 86.4234 114.472 86.7335 114.214 86.992C113.955 87.2504 114.369 87.6639 114.627 87.4055C115.015 87.0178 115.222 86.4751 115.196 85.9065C115.17 85.493 115.041 84.7693 114.55 84.6659C114.446 84.6401 114.343 84.6659 114.265 84.7435C114.265 84.7693 114.24 84.7693 114.24 84.7952C114.033 85.0795 114.42 85.493 114.679 85.2087Z" fill="#161616"/>
<path d="M113.284 83.296C113.904 83.3218 114.292 83.9162 114.137 84.5107C114.033 84.8725 114.602 85.0276 114.705 84.6657C114.964 83.7095 114.317 82.7532 113.31 82.7274C112.896 82.7015 112.896 83.296 113.284 83.296Z" fill="#161616"/>
<path opacity="0.12" d="M159.882 65.0781C159.132 67.2749 157.892 70.2471 155.927 73.5035C153.911 76.8375 151.663 80.5332 147.295 83.6346C145.693 84.7718 140.86 88.1316 133.701 88.39C126.955 88.6226 121.993 85.9865 120.029 84.7976C118.478 85.9606 117.419 86.0382 116.721 85.8831C116.101 85.728 115.868 85.4179 114.783 85.0819C113.852 84.7976 113.103 84.7459 112.689 84.7201C111.19 84.6167 109.64 84.5133 109.226 85.2111C108.683 86.1674 110.441 88.2091 111.81 89.3204C112.431 89.8115 113.516 90.6644 115.041 90.897C118.633 91.4655 121.295 88.3383 121.451 88.1574C122.329 88.7002 123.596 89.4497 125.198 90.1733C127.808 91.388 131.504 93.0679 136.415 93.0421C141.997 93.0421 146.029 90.8453 146.856 90.3801C147.838 89.8115 149.673 88.2091 153.317 84.9785C156.703 81.9805 157.943 80.6625 159.08 78.8533C159.752 77.7937 160.605 76.4239 161.096 74.5373C162.156 70.5055 160.734 66.8356 159.882 65.0781V65.0781Z" fill="#6D6C6C"/>
<path opacity="0.15" d="M161.251 68.1797C160.76 69.8854 159.907 72.289 158.434 74.951C157.064 77.4321 153.446 83.8157 145.77 87.7441C143.496 88.9071 139.567 90.8713 134.114 90.7679C128.067 90.6387 123.725 88.0542 121.89 86.8137C120.856 87.4598 119.305 88.2868 117.289 88.8296C114.601 89.5274 112.663 89.2948 112.611 89.6825C112.56 90.0701 114.421 90.8972 116.359 90.8455C119.073 90.7679 120.985 88.9847 121.683 88.261C123.466 89.5532 130.134 94.1019 138.87 92.9389C145.615 92.0343 149.879 88.2352 153.627 84.8754C156.418 82.3684 159.649 79.3963 160.889 74.4341C161.535 71.9013 161.432 69.6787 161.251 68.1797V68.1797Z" fill="#6D6C6C"/>
<path d="M153.317 61.0225C152.8 61.617 151.896 62.8833 151.12 68.931C150.086 77.1496 150.629 83.6625 151.12 88.5213C151.689 94.2846 152.49 101.237 153.653 109.145C158.15 110.541 165.619 112.117 174.587 110.696C178.645 110.05 182.108 108.939 184.899 107.776C184.305 101.314 184.382 96.0938 184.563 92.6564C185.442 74.9011 186.243 69.9648 186.243 69.9648C186.838 66.4241 187.38 64.2273 186.062 62.2372C184.744 60.1955 182.237 59.4977 174.251 58.9808C162.13 58.1538 156.031 57.8178 153.317 61.0225Z" fill="#EC615B"/>
<path opacity="0.14" d="M170.762 59.0312C171.563 61.8742 172.235 64.898 172.804 68.1027C175.75 84.9535 173.683 99.8917 170.762 111.031C172.261 110.927 173.838 110.746 175.518 110.462C179.084 109.868 182.211 108.937 184.796 107.981C184.434 102.838 184.331 98.4444 184.331 94.9554C184.357 85.2119 185.209 77.7686 185.571 74.7965C186.036 71.1783 186.527 68.1544 186.941 65.9576C187.044 65.3374 187.148 64.2002 186.605 63.0113C185.985 61.6416 184.822 60.9179 184.331 60.6336C182.651 59.6257 180.945 59.6257 180.015 59.6257C177.792 59.5481 174.846 59.4189 170.762 59.0313V59.0312Z" fill="#6D6C6C"/>
<path opacity="0.16" d="M186.734 65.1289C182.16 76.9916 181.203 85.4687 181.307 91.1803C181.333 93.3255 181.565 98.4685 178.826 103.87C177.146 107.152 174.949 109.453 173.269 110.9C174.82 110.693 176.525 110.383 178.36 109.892C180.712 109.272 182.754 108.496 184.486 107.747C184.253 101.079 184.279 93.8423 184.718 86.1148C185.106 78.5681 185.83 71.5642 186.734 65.1289V65.1289Z" fill="#6D6C6C"/>
<path d="M183.219 61.0956C186.398 59.7 190.714 63.7834 193.506 66.3937C196.555 69.2625 202.732 75.0775 203.042 84.5884C203.301 92.5227 199.347 98.2602 197.382 100.664C194.307 104.411 190.818 106.375 188.75 107.332C188.724 108.21 188.595 109.606 188.001 111.131C187.665 111.958 185.959 116.3 182.703 116.481C182.263 116.507 180.764 116.507 179.033 114.878C178.929 114.878 178.412 114.801 178.076 114.336C177.766 113.896 177.74 113.25 178.051 112.733C177.973 112.682 177.301 112.346 177.146 111.544C176.965 110.666 177.559 110.02 177.611 109.994C177.637 109.554 177.74 108.986 178.154 108.701C178.619 108.391 179.11 108.65 179.86 108.598C180.351 108.546 181.049 108.365 181.876 107.642C180.945 107.383 178.852 106.711 178.903 105.962C178.929 105.083 181.953 104.566 182.625 104.437C184.279 104.153 185.701 104.204 186.657 104.282C187.225 103.248 188.052 101.723 189.035 99.8884C190.689 96.7871 191.516 95.2364 192.007 94.1251C192.937 92.0575 193.971 88.9303 194.255 84.5625C193.092 83.4254 191.309 81.7972 189.035 80.0139C184.124 76.1889 182.47 76.1113 181.126 73.9404C178.593 69.8828 179.808 62.5946 183.219 61.0956Z" fill="white" stroke="#161616" stroke-width="0.516894"/>
<path d="M177.353 109.684C177.766 111.7 180.868 111.234 182.108 110.511C182.419 110.33 182.134 109.813 181.824 110.02C180.92 110.562 178.232 111.157 177.922 109.554C177.844 109.167 177.275 109.322 177.353 109.684Z" fill="#161616"/>
<path d="M177.663 112.914C179.213 114.026 181.488 113.509 183.116 112.759C183.452 112.604 183.167 112.113 182.831 112.268C181.384 112.914 179.342 113.379 177.973 112.423C177.663 112.191 177.378 112.708 177.663 112.914Z" fill="#161616"/>
<path d="M178.826 115.193C180.428 115.968 182.289 115.865 183.762 114.831C184.072 114.624 183.788 114.108 183.478 114.34C182.186 115.245 180.557 115.4 179.136 114.702C178.8 114.521 178.49 115.012 178.826 115.193Z" fill="#161616"/>
<path opacity="0.18" d="M182.108 62.0775C181.591 63.8349 187.639 65.5148 192.937 71.2006C194.772 73.1648 198.52 77.1707 199.398 83.115C200.51 90.4808 196.659 96.3733 195.237 98.4926C192.498 102.654 189.164 105.109 187.148 106.375C187.148 107.099 187.045 109.735 185.029 111.958C184.615 112.423 182.987 114.206 180.609 114.465C179.24 114.62 177.999 114.232 177.947 114.387C177.921 114.542 178.878 114.749 180.118 115.602C180.919 116.145 180.945 116.377 181.333 116.558C182.935 117.308 185.468 115.033 185.752 114.801C188.389 112.397 188.699 108.83 188.75 107.512C189.345 107.176 190.146 106.711 191.076 106.091C192.033 105.445 194.85 103.584 197.072 101.129C197.667 100.483 200.691 97.0453 202.164 91.5404C202.681 89.602 204.102 83.9937 201.828 77.8686C200.82 75.2066 199.528 73.475 197.202 70.4511C195.134 67.7374 193.609 66.3935 190.663 63.7832C188.544 61.8965 187.277 61.0178 185.571 60.9144C184.408 60.8369 182.393 61.1212 182.108 62.0775Z" fill="#6D6C6C"/>
<path opacity="0.18" d="M199.812 73.918C200.691 76.0889 201.957 80.0432 201.776 85.0829C201.595 90.5619 199.812 94.542 199.114 95.9118C195.909 102.373 190.844 105.836 188.363 107.283C190.379 106.534 193.299 105.112 196.065 102.45C204.154 94.6454 202.965 83.6356 202.862 82.8602C202.396 78.9835 201.001 75.9597 199.812 73.918V73.918Z" fill="#6D6C6C"/>
<path d="M170.194 41.1994C171.744 46.3941 172.313 49.418 174.51 54.1734C175.544 56.396 176.526 58.1535 177.223 59.3165C174.975 60.3761 171.331 61.7459 166.653 61.9268C163.888 62.0302 161.51 61.6683 159.675 61.2548C159.856 59.8334 159.959 58.0501 159.83 56.0342C159.649 53.5014 159.106 51.3563 158.589 49.7798C156.108 49.4697 153.601 49.1337 151.12 48.8235C150.629 47.7381 150.138 46.6267 149.647 45.5413C148.975 45.5154 148.277 45.4896 147.605 45.4637C148.122 43.9647 148.898 41.6129 149.802 38.6924C151.482 33.1875 151.456 32.4122 152.361 31.1716C154.868 27.786 160.476 25.615 164.172 27.45C166.369 28.5096 167.661 32.7481 170.194 41.1994Z" fill="white" stroke="#161616" stroke-width="0.516894"/>
<path d="M147.657 45.8768C148.949 45.9027 150.215 45.7993 151.482 45.6184C151.973 45.5409 151.766 44.7914 151.275 44.8689C150.06 45.0498 148.872 45.1273 147.657 45.1015C147.166 45.1015 147.166 45.8768 147.657 45.8768Z" fill="#161616"/>
<path d="M147.166 36.0039C147.89 35.6163 148.846 35.823 149.311 36.495C149.596 36.9085 150.268 36.5208 149.983 36.1073C149.26 35.0735 147.89 34.7375 146.779 35.332C146.339 35.5646 146.727 36.2365 147.166 36.0039Z" fill="#161616"/>
<path d="M153.265 36.9048C154.196 36.6205 155.204 36.9306 155.747 37.7577C156.031 38.1712 156.703 37.7835 156.418 37.37C155.669 36.2845 154.325 35.7676 153.059 36.1812C152.593 36.3104 152.774 37.0599 153.265 36.9048Z" fill="#161616"/>
<path d="M153.446 39.8008C153.421 39.5165 153.472 39.2322 153.627 38.9738C153.653 38.9221 153.705 38.8445 153.757 38.7928C153.653 38.6636 153.602 38.6378 153.627 38.767C153.576 38.8187 153.602 39.0771 153.576 39.1547C153.55 39.2839 153.498 39.4131 153.446 39.5423C153.421 39.594 153.395 39.6457 153.369 39.6716C153.498 39.9042 153.576 39.93 153.627 39.7491C153.731 39.6457 153.782 39.4131 153.86 39.2839C153.938 39.1288 154.015 38.9738 154.093 38.8187C154.299 38.431 153.808 38.0434 153.472 38.3535C153.291 38.5344 153.188 38.7153 153.111 38.9479C152.981 39.439 153.731 39.6457 153.86 39.1547C153.886 39.0254 153.938 38.9738 154.015 38.8962C153.808 38.7412 153.602 38.5861 153.395 38.431C153.214 38.7928 153.007 39.1547 152.852 39.5423C152.723 39.8266 152.749 40.1626 153.033 40.3435C153.731 40.7829 154.17 39.8783 154.299 39.3356C154.403 38.8187 154.403 37.7332 153.55 37.9658C152.878 38.1726 152.619 39.1547 152.645 39.7491C152.697 40.2918 153.472 40.2918 153.446 39.8008Z" fill="#161616"/>
<path d="M151.456 32.5137C151.637 31.4023 152.076 29.5415 153.291 27.629C153.73 26.9571 154.635 25.5356 156.108 24.5794C158.925 22.7444 163.241 22.8994 166.368 25.1479C169.444 27.3447 170.969 31.2731 170.297 35.2015C164.042 34.3228 157.736 33.4182 151.456 32.5137H151.456Z" fill="#5222D0"/>
<path d="M141.17 32.5939C150.862 33.8086 160.528 35.0233 170.22 36.238C171.693 36.4189 171.693 34.0928 170.22 33.9119C160.528 32.6972 150.862 31.4825 141.17 30.2678C139.671 30.0869 139.697 32.4129 141.17 32.5939Z" fill="#161616"/>
<path d="M164.043 34.9415C162.337 35.5618 161.329 36.7506 160.192 38.1204C157.762 41.0667 158.486 42.1522 156.78 43.9872C154.067 46.9076 151.301 45.176 148.872 48.0448C146.804 50.4742 147.089 53.7564 147.166 54.5059C147.244 55.2296 147.605 58.15 150.009 60.1659C152.102 61.8975 154.894 62.2852 155.075 61.8975C155.126 61.7683 154.919 61.4065 153.369 60.3727C153.808 60.6828 154.532 61.0705 155.436 61.2514C156.496 61.4323 157.504 61.2514 157.504 61.0963C157.504 60.9671 156.935 60.993 156.496 60.5278C156.238 60.2435 156.134 59.9333 156.057 59.649C156.91 60.1918 157.969 60.6828 158.977 60.3727C161.742 59.5457 162.234 53.4205 162.389 51.3787C162.905 44.8142 161.019 41.2218 163.319 38.8958C163.5 38.689 164.43 37.7586 165.464 37.9653C166.756 38.1979 167.738 40.188 167.325 41.5061C166.963 42.6432 165.671 42.9534 165.748 43.186C165.878 43.4444 168.049 43.0309 169.884 41.5836C170.556 41.0667 171.098 40.6273 171.383 39.852C171.874 38.4822 171.305 36.9316 170.53 36.0012C168.927 34.1403 165.903 34.2696 164.043 34.9415Z" fill="#161616" stroke="#161616" stroke-width="0.516894"/>
<path opacity="0.22" d="M166.601 43.42C166.188 43.4717 165.593 43.4717 165.568 43.3425C165.542 43.2649 165.697 43.1616 165.697 43.1616C165.697 43.1616 165.206 43.7818 164.585 43.8594C164.301 43.8852 164.043 43.8077 163.862 43.7043C164.947 46.0045 166.059 48.7699 167.015 51.9746C168.049 55.4895 168.643 58.6684 168.979 61.4079C170.09 61.4079 171.667 61.2787 173.476 60.7101C174.949 60.2449 176.112 59.6246 176.991 59.0819C174.665 55.4378 173.476 52.5173 172.804 50.5273C172.494 49.5969 171.822 47.4001 171.512 46.3146C170.917 44.3504 170.426 42.7222 170.116 41.6367C169.961 41.7918 169.677 42.0244 169.341 42.257C168.85 42.6188 167.894 43.2908 166.601 43.42Z" fill="#6D6C6C"/>
<path d="M159.649 23.4405C162.156 23.9316 164.043 25.9475 164.353 28.2993C164.689 31.1164 162.622 33.0548 162.415 33.2098C165.103 33.5458 167.765 33.856 170.452 34.1919C170.504 33.5717 170.53 32.7188 170.349 31.7367C169.832 28.5836 167.971 26.6194 167.584 26.2318C166.963 25.6115 164.767 23.5181 161.484 23.3372C160.735 23.3113 160.089 23.3889 159.649 23.4405Z" fill="#321693"/>
<path d="M102.765 136.562C102.894 137.958 102.997 139.38 103.126 140.775L234.702 141.008C235.089 139.612 235.477 138.191 235.865 136.795C191.515 136.718 147.14 136.64 102.765 136.562Z" fill="white"/>
<path d="M104.522 136.748H105.918C106.409 136.748 106.409 135.973 105.918 135.973C105.453 135.973 104.988 135.973 104.522 135.973C104.006 135.973 104.006 136.748 104.522 136.748Z" fill="#161616"/>
<path d="M103.101 137.496H154.971C154.971 137.496 189.551 137.496 206.841 137.496H236.253C237.261 137.496 237.261 135.945 236.253 135.945C218.963 135.945 201.672 135.945 184.382 135.945C167.092 135.945 149.802 135.945 132.512 135.945C122.717 135.945 112.896 135.945 103.101 135.945C102.119 135.945 102.119 137.496 103.101 137.496Z" fill="#161616"/>
<path d="M103.463 141.316H205.601H234.495C235.503 141.316 235.503 139.766 234.495 139.766C200.458 139.766 166.395 139.766 132.357 139.766C122.717 139.766 113.103 139.766 103.463 139.766C102.455 139.766 102.455 141.316 103.463 141.316Z" fill="#161616"/>
<path d="M107.572 145.092V210.04V228.596C107.572 229.604 109.123 229.604 109.123 228.596C109.123 206.938 109.123 185.281 109.123 163.649C109.123 157.472 109.123 151.269 109.123 145.092C109.123 144.11 107.572 144.11 107.572 145.092Z" fill="#161616"/>
<path d="M215.551 144.061V202.857V219.553C215.551 220.561 217.101 220.561 217.101 219.553C217.101 199.963 217.101 180.347 217.101 160.756C217.101 155.2 217.101 149.643 217.101 144.061C217.101 143.053 215.551 143.053 215.551 144.061Z" fill="#161616"/>
<path d="M0.755957 210.508H59.8886H119.28H152.593C153.601 210.508 153.601 208.957 152.593 208.957C132.874 208.957 113.18 208.957 93.4608 208.957C73.6638 208.957 53.8668 208.957 34.0698 208.957C22.9565 208.957 11.8692 208.957 0.755957 208.957C-0.251986 208.957 -0.251986 210.508 0.755957 210.508Z" fill="#161616"/>
<path d="M182.315 211.203H234.702H286.831H316.501C317.509 211.203 317.509 209.652 316.501 209.652C299.03 209.652 281.584 209.652 264.113 209.652C246.746 209.652 229.352 209.652 211.985 209.652C202.086 209.652 192.214 209.652 182.315 209.652C181.307 209.652 181.307 211.203 182.315 211.203Z" fill="#161616"/>
<path d="M107.882 145.068V208.595V226.686C107.882 227.694 109.433 227.694 109.433 226.686C109.433 205.519 109.433 184.327 109.433 163.16C109.433 157.138 109.433 151.116 109.433 145.068C109.433 144.061 107.882 144.061 107.882 145.068Z" fill="#161616"/>
<path d="M108.219 145.405V208.672V226.686C108.219 227.694 109.769 227.694 109.769 226.686C109.769 205.597 109.769 184.508 109.769 163.418C109.769 157.422 109.769 151.426 109.769 145.405C109.769 144.422 108.219 144.422 108.219 145.405Z" fill="#161616"/>
<path d="M215.422 143.67V201.226V217.663C215.422 218.671 216.973 218.671 216.973 217.663C216.973 198.487 216.973 179.284 216.973 160.107C216.973 154.628 216.973 149.149 216.973 143.67C216.973 142.688 215.422 142.688 215.422 143.67Z" fill="#161616"/>
<path d="M215.784 144.033V201.098V217.355C215.784 218.363 217.334 218.363 217.334 217.355C217.334 198.333 217.334 179.311 217.334 160.29C217.334 154.862 217.334 149.435 217.334 144.033C217.334 143.025 215.784 143.025 215.784 144.033Z" fill="#161616"/>
<path d="M104.315 141.45C105.659 143.078 106.848 144.784 107.908 146.593C108.425 147.446 109.769 146.67 109.252 145.818C108.115 143.905 106.822 142.096 105.401 140.364C104.755 139.589 103.669 140.675 104.315 141.45Z" fill="#161616"/>
<path d="M109.562 146.05C111.474 144.448 113.361 142.82 115.273 141.217C116.023 140.571 114.937 139.486 114.188 140.132C112.275 141.734 110.389 143.362 108.476 144.965C107.701 145.611 108.812 146.696 109.562 146.05Z" fill="#161616"/>
<path d="M211.106 142.253C212.708 143.261 214.311 144.269 215.913 145.277C216.766 145.82 217.541 144.476 216.688 143.933C215.086 142.925 213.484 141.917 211.881 140.909C211.028 140.392 210.253 141.736 211.106 142.253Z" fill="#161616"/>
<path d="M220.436 140.416C219.092 141.501 217.799 142.664 216.585 143.879C215.887 144.577 216.972 145.688 217.67 144.964C218.885 143.75 220.177 142.587 221.521 141.501C222.296 140.881 221.211 139.795 220.436 140.416Z" fill="#161616"/>
<path d="M212.321 142.325C214.388 142.635 216.404 142.713 218.472 142.506C218.342 142.015 218.213 141.55 218.084 141.059C217.231 141.602 216.352 141.757 215.344 141.86C214.776 141.938 214.207 142.713 214.802 143.178C215.603 143.824 216.404 144.031 217.412 143.773C218.368 143.54 217.981 142.041 216.998 142.274C216.611 142.429 216.223 142.351 215.887 142.067C215.706 142.506 215.525 142.946 215.344 143.385C216.585 143.256 217.8 143.075 218.859 142.351C219.454 141.963 219.299 140.826 218.472 140.904C216.559 141.085 214.621 141.059 212.708 140.775C211.752 140.671 211.338 142.17 212.321 142.325Z" fill="#161616"/>
<path d="M219.815 140.858C219.092 140.702 218.368 140.806 217.748 141.219C217.412 141.452 217.257 141.891 217.463 142.279C217.67 142.615 218.187 142.796 218.523 142.563C218.807 142.356 219.092 142.279 219.376 142.356C219.789 142.434 220.203 142.227 220.332 141.814C220.461 141.426 220.229 140.935 219.815 140.858Z" fill="#161616"/>
<path d="M106.073 142.17C106.538 142.48 108.27 143.281 108.192 143.953L108.967 143.178C108.864 143.178 108.554 141.989 108.476 141.782C108.244 142.17 108.037 142.557 107.804 142.945C109.355 142.868 110.828 142.557 112.25 141.989C111.991 141.549 111.759 141.136 111.5 140.697C110.622 141.601 109.691 142.454 108.683 143.229L109.743 144.289C110.673 142.712 109.355 141.42 108.011 140.748C107.882 141.239 107.753 141.705 107.624 142.196C108.683 142.144 109.743 142.118 110.802 142.17C111.81 142.221 111.785 140.671 110.802 140.619C109.743 140.567 108.683 140.567 107.624 140.645C106.9 140.697 106.512 141.73 107.236 142.092C107.701 142.325 108.838 142.816 108.425 143.514C108.063 144.134 108.838 145.064 109.484 144.573C110.596 143.72 111.655 142.816 112.612 141.808C113.103 141.291 112.612 140.206 111.862 140.516C110.544 141.033 109.226 141.343 107.83 141.42C107.21 141.446 106.926 142.041 107.158 142.583C107.598 143.565 107.572 144.754 108.993 144.728C109.459 144.728 109.717 144.367 109.769 143.953C109.975 142.402 107.934 141.524 106.9 140.852C106.021 140.283 105.246 141.627 106.073 142.17Z" fill="#161616"/>
<path d="M114.55 135.764C114.55 134.497 114.55 133.231 114.55 131.939C114.55 131.448 113.774 131.448 113.774 131.939V135.764C113.774 136.281 114.55 136.281 114.55 135.764Z" fill="black"/>
<path d="M114.162 132.271H135.613C136.104 132.271 136.104 131.496 135.613 131.496C128.454 131.496 121.321 131.496 114.162 131.496C113.671 131.496 113.671 132.271 114.162 132.271Z" fill="black"/>
<path d="M135.226 131.884V135.528C135.226 136.019 136.001 136.019 136.001 135.528C136.001 134.313 136.001 133.098 136.001 131.884C136.001 131.367 135.226 131.367 135.226 131.884Z" fill="black"/>
<path d="M115.145 133.721H131.556C132.047 133.721 132.047 132.945 131.556 132.945C126.077 132.945 120.624 132.945 115.145 132.945C114.654 132.945 114.654 133.721 115.145 133.721Z" fill="black"/>
<path d="M118.789 135.197H131.376C131.867 135.197 131.867 134.422 131.376 134.422C127.189 134.422 122.976 134.422 118.789 134.422C118.298 134.422 118.298 135.197 118.789 135.197Z" fill="black"/>
<path d="M119.667 131.811C119.667 130.932 119.667 130.079 119.667 129.2C119.667 128.709 118.892 128.709 118.892 129.2V131.811C118.892 132.302 119.667 132.302 119.667 131.811Z" fill="black"/>
<path d="M119.771 129.432H138.456C138.947 129.432 138.947 128.656 138.456 128.656C132.228 128.656 125.999 128.656 119.771 128.656C119.28 128.656 119.28 129.432 119.771 129.432Z" fill="black"/>
<path d="M135.846 132.096H138.276C138.767 132.096 138.767 131.32 138.276 131.32C137.475 131.32 136.647 131.32 135.846 131.32C135.355 131.32 135.355 132.096 135.846 132.096Z" fill="black"/>
<path d="M138.068 129.122V131.629C138.068 132.12 138.844 132.12 138.844 131.629C138.844 130.802 138.844 129.949 138.844 129.122C138.844 128.605 138.068 128.605 138.068 129.122Z" fill="black"/>
<path d="M123.518 130.721H127.989C128.48 130.721 128.48 129.945 127.989 129.945C126.49 129.945 125.017 129.945 123.518 129.945C123.001 129.945 123.001 130.721 123.518 130.721Z" fill="black"/>
<path d="M131.22 131.369H135.2C135.691 131.369 135.691 130.594 135.2 130.594C133.882 130.594 132.538 130.594 131.22 130.594C130.729 130.594 130.729 131.369 131.22 131.369Z" fill="black"/>
<path d="M124.009 128.297C123.389 127.702 123.26 126.798 123.312 125.971C123.415 124.601 124.656 124.549 125.689 124.963C126.155 125.144 126.361 124.394 125.896 124.213C124.733 123.748 123.208 123.774 122.691 125.144C122.252 126.307 122.562 127.986 123.467 128.839C123.829 129.201 124.371 128.633 124.009 128.297Z" fill="black"/>
<path d="M125.559 124.574C127.989 123.488 128.997 127.572 126.903 128.606C126.464 128.838 126.851 129.484 127.291 129.278C130.289 127.779 128.531 122.403 125.172 123.902C124.706 124.109 125.12 124.781 125.559 124.574Z" fill="black"/>
<path d="M125.638 124.363C125.509 123.536 125.198 122.786 124.707 122.114C124.423 121.701 123.751 122.088 124.035 122.502C124.475 123.122 124.759 123.794 124.888 124.57C124.966 125.061 125.715 124.854 125.638 124.363Z" fill="black"/>
<path d="M125.275 123.045C125.353 122.838 125.456 122.657 125.585 122.477C125.637 122.399 125.714 122.296 125.792 122.218C125.818 122.166 125.869 122.141 125.921 122.089C125.792 121.83 125.714 121.779 125.663 121.908C125.533 122.037 125.404 122.373 125.327 122.554C125.197 122.787 125.042 122.993 124.887 123.2C124.603 123.614 125.275 124.001 125.559 123.588C125.844 123.2 126.102 122.787 126.309 122.347C126.49 121.986 126.593 121.52 126.128 121.339C125.353 121.055 124.758 122.27 124.551 122.813C124.345 123.304 125.094 123.51 125.275 123.045Z" fill="black"/>
<path d="M252.276 175.072C252.38 176.287 252.483 177.527 252.587 178.742C264.501 178.639 276.415 178.535 288.33 178.432C288.2 177.269 288.071 176.106 287.942 174.969C276.028 175.02 264.165 175.046 252.276 175.072Z" fill="white"/>
<path d="M252.509 179.156H288.226C289.234 179.156 289.234 177.605 288.226 177.605C276.312 177.605 264.423 177.605 252.509 177.605C251.527 177.605 251.501 179.156 252.509 179.156Z" fill="#161616"/>
<path d="M252.742 175.613H287.787C288.795 175.613 288.795 174.062 287.787 174.062C276.105 174.062 264.424 174.062 252.742 174.062C251.734 174.062 251.734 175.613 252.742 175.613Z" fill="#161616"/>
<path d="M251.527 175.072V177.709C251.527 178.716 253.078 178.716 253.078 177.709C253.078 176.83 253.078 175.951 253.078 175.072C253.078 174.064 251.527 174.064 251.527 175.072Z" fill="#161616"/>
<path d="M287.451 175.072V178.587C287.451 179.595 289.002 179.595 289.002 178.587C289.002 177.424 289.002 176.235 289.002 175.072C289.002 174.064 287.451 174.064 287.451 175.072Z" fill="#161616"/>
<path d="M270.032 178.822V223.353C270.032 224.361 271.582 224.361 271.582 223.353C271.582 208.518 271.582 193.683 271.582 178.822C271.582 177.814 270.032 177.814 270.032 178.822Z" fill="#161616"/>
<path d="M269.98 223.12C267.318 224.697 264.656 226.273 261.968 227.85C261.115 228.367 261.891 229.711 262.743 229.194C265.405 227.617 268.067 226.041 270.755 224.464C271.634 223.947 270.833 222.603 269.98 223.12Z" fill="#161616"/>
<path d="M270.419 224.231C273.443 225.911 276.441 227.617 279.465 229.297C280.344 229.788 281.119 228.444 280.24 227.953C277.216 226.273 274.218 224.567 271.195 222.887C270.316 222.396 269.541 223.74 270.419 224.231Z" fill="#161616"/>
<path d="M262.433 229.76C268.171 229.709 273.882 229.528 279.62 229.243C280.602 229.192 280.628 227.641 279.62 227.693C273.908 227.977 268.171 228.158 262.433 228.21C261.425 228.21 261.425 229.76 262.433 229.76Z" fill="#161616"/>
<path d="M263.286 179.391C265.612 182.699 267.732 186.162 269.644 189.729C270.109 190.607 271.453 189.832 270.988 188.953C269.076 185.387 266.956 181.923 264.63 178.615C264.062 177.788 262.718 178.564 263.286 179.391Z" fill="#161616"/>
<path d="M278.819 178.276C275.433 181.507 272.538 185.177 270.187 189.209C269.67 190.061 271.014 190.863 271.53 189.984C273.831 186.056 276.648 182.515 279.93 179.388C280.654 178.69 279.542 177.578 278.819 178.276Z" fill="#161616"/>
<path d="M215.655 208.671C215.448 212.367 215.267 216.063 215.06 219.759C205.188 224.049 200.432 226.866 200.82 228.158C201.259 229.709 208.857 229.166 223.563 226.582C223.666 220.25 223.77 213.918 223.847 207.586C221.134 207.948 218.394 208.31 215.655 208.671Z" fill="#161616"/>
<path d="M246.306 148.789C244.109 150.753 240.982 153.596 237.338 157.111C228.654 165.537 222.271 171.713 217.955 178.097C214.388 183.395 209.09 193.475 208.676 209.964C212.243 210.946 216.74 211.773 221.96 211.721C223.718 211.695 225.398 211.592 226.923 211.411C226.251 207.663 225.708 201.797 227.078 194.922C228.034 190.089 229.636 186.212 231.084 183.395C242.714 178.226 250.57 171.894 255.584 167.061C260.65 162.177 266.413 156.594 264.863 152.64C263.441 148.893 255.869 147.445 246.306 148.789Z" fill="#EC615B"/>
<path opacity="0.18" d="M258.531 148.816C254.628 154.011 249.95 159.645 244.342 165.383C237.312 172.594 230.36 178.409 224.132 183.035C221.961 192.571 219.79 202.108 217.619 211.619C218.549 211.774 219.609 211.903 220.772 211.903C223.124 211.955 225.139 211.619 226.69 211.205C226.199 207.949 225.863 203.478 226.483 198.283C227.259 191.874 229.223 186.834 230.825 183.5C236.666 180.812 241.292 178.073 244.626 175.902C244.626 175.902 255.068 169.13 263.157 158.741C263.338 158.508 263.958 157.707 264.449 156.466C264.837 155.458 265.328 154.218 264.94 152.926C264.578 151.763 263.7 151.117 262.769 150.47C262.046 149.979 260.624 149.127 258.531 148.816Z" fill="#6D6C6C"/>
<path opacity="0.16" d="M230.619 183.625C229.507 185.693 228.422 187.864 227.362 190.138C223.796 197.814 221.315 205.154 219.583 211.822C221.961 211.718 224.313 211.615 226.69 211.537C226.148 208.41 225.734 204.197 226.199 199.313C226.845 192.412 228.939 187.036 230.619 183.625Z" fill="#6D6C6C"/>
<path d="M231.601 212.236C232.79 215.931 233.979 219.627 235.167 223.323C226.38 228.595 222.219 231.774 222.71 232.834C223.305 234.126 230.877 232.214 245.454 227.096C243.438 221.23 241.422 215.363 239.406 209.496C236.796 210.375 234.185 211.305 231.601 212.236Z" fill="#161616"/>
<path d="M274.219 153.805C276.054 163.135 273.288 168.381 271.97 170.397C269.334 174.429 265.819 175.669 255.559 180.761C251.553 182.751 245.453 185.852 237.984 189.961C238.501 193.244 239.328 197.017 240.646 201.126C241.887 205.003 243.334 208.389 244.73 211.232C243.36 212.55 240.595 214.876 236.382 216.22C231.833 217.693 227.931 217.253 226.018 216.917C221.961 208.906 220.927 201.876 220.643 197.586C220.307 192.417 219.919 186.55 222.943 180.761C225.269 176.315 227.517 175.902 236.925 168.717C251.062 157.94 252.483 153.908 259.771 152.409C265.742 151.194 271.04 152.616 274.219 153.805Z" fill="#EC615B"/>
<path opacity="0.22" d="M264.552 152.068C264.681 155.066 264.449 159.77 262.045 164.577C260.029 168.635 257.342 171.529 248.477 177.525C240.594 182.849 234.314 186.959 230.256 189.595C232.841 198.253 235.425 206.911 238.01 215.569C238.785 215.31 239.716 214.923 240.672 214.38C242.429 213.372 243.67 212.157 244.471 211.227C243.334 208.797 242.197 206.084 241.189 203.111C239.535 198.356 238.501 193.911 237.855 190.06C244.264 186.493 248.761 184.167 251.397 182.849C255.326 180.885 257.264 179.903 259.254 178.947C259.926 178.637 261.425 177.939 263.389 176.905C265.586 175.768 266.672 175.225 267.654 174.553C268.455 174.01 270.471 172.589 272.099 170.237C274.425 166.877 274.632 163.362 274.787 160.804C274.89 159.15 274.864 156.746 274.244 153.929C272.9 153.36 271.091 152.74 268.92 152.378C267.24 152.068 265.767 152.017 264.552 152.068Z" fill="#6D6C6C"/>
<path opacity="0.11" d="M274.761 158.973C274.348 160.342 273.598 162.332 272.28 164.478C268.223 170.99 262.02 173.575 257.678 175.746C252.535 178.33 245.608 182.595 237.907 189.96C240.078 188.746 242.74 187.298 245.841 185.644C251.32 182.724 254.034 181.277 256.851 179.933C259.048 178.899 261.555 177.788 265.302 175.798C267.99 174.376 269.463 173.497 270.859 171.869C272.435 170.034 273.133 168.199 273.598 166.959C274.167 165.408 274.968 162.643 274.761 158.973V158.973Z" fill="#6D6C6C"/>
<path opacity="0.17" d="M237.804 190.215C237.83 192.386 237.985 194.712 238.269 197.167C238.993 203.447 240.517 208.849 242.146 213.217C242.611 212.958 243.154 212.596 243.722 212.105C244.084 211.795 244.394 211.485 244.627 211.201C243.541 208.952 242.482 206.445 241.474 203.732C239.69 198.821 238.553 194.247 237.804 190.215L237.804 190.215Z" fill="#6D6C6C"/>
<path d="M257.187 103.198C253.956 104.284 253.388 108.135 251.217 112.528C251.217 112.528 247.805 119.506 240.336 125.244C237.622 127.337 231.756 131.033 221.96 131.679C221.004 131.292 219.531 130.775 217.67 130.465C215.008 130.025 211.287 129.379 208.78 131.524C207.643 132.506 206.376 134.367 206.945 135.504C207.643 136.9 210.744 136.357 215.835 136.125C222.891 135.814 222.555 136.59 227.465 136.28C231.859 135.995 238.785 135.582 245.996 131.369C252.897 127.363 256.463 122.013 257.316 120.644C258.97 118.059 259.72 115.966 261.244 111.753C263.26 106.222 262.924 104.982 262.356 104.258C261.374 102.914 258.996 102.578 257.187 103.198Z" fill="white" stroke="#161616" stroke-width="0.516894"/>
<path d="M218.885 132.48C217.257 132.79 214.905 132.868 213.716 134.212C213.044 134.987 213.148 136.357 214.388 136.357C214.75 136.357 214.776 135.762 214.388 135.762C213.768 135.116 213.82 134.599 214.595 134.237C214.853 134.057 215.138 133.927 215.448 133.798C215.784 133.669 216.12 133.591 216.456 133.514C217.309 133.333 218.162 133.178 219.04 133.023C219.402 132.971 219.247 132.428 218.885 132.48Z" fill="#161616"/>
<path d="M206.687 134.884C208.211 136.797 210.589 134.574 212.424 135.065C212.786 135.168 212.941 134.6 212.579 134.496C211.778 134.29 211.08 134.393 210.279 134.651C209.219 134.987 207.927 135.556 207.074 134.471C206.868 134.186 206.454 134.6 206.687 134.884Z" fill="#161616"/>
<path d="M207.617 132.533C207.668 133.308 208.185 133.618 208.935 133.618C210.615 133.618 212.088 132.946 213.768 133.489C214.129 133.592 214.285 133.049 213.923 132.92C213.07 132.636 212.243 132.61 211.364 132.688C210.744 132.739 208.263 133.437 208.211 132.507C208.159 132.171 207.591 132.171 207.617 132.533Z" fill="#161616"/>
<path d="M210.149 130.932C210.408 131.553 210.847 131.837 211.519 131.94C212.837 132.121 213.974 132.173 215.189 132.716C215.525 132.871 215.835 132.354 215.473 132.225C214.801 131.94 214.129 131.682 213.406 131.553C212.579 131.398 211.054 131.656 210.692 130.777C210.563 130.441 209.994 130.596 210.149 130.932Z" fill="#161616"/>
<path opacity="0.16" d="M260.314 103.274C258.841 103.635 259.28 107.59 258.505 111.26C257.213 117.178 253 120.874 248.348 124.957C245.195 127.723 241.499 130.979 235.865 132.426C233.927 132.917 230.722 133.46 227.285 133.641C222.633 133.874 220.332 134.003 220.177 133.977C219.402 133.9 217.515 133.693 215.499 134.571C215.086 134.752 213.949 135.243 214.026 135.605C214.13 136.148 216.817 135.993 222.865 135.941C227.336 135.915 226.871 135.993 228.241 135.941C230.825 135.838 235.322 135.683 240.388 133.848C247.598 131.263 252.044 126.689 254.085 124.57C256.05 122.502 257.135 120.9 257.471 120.409C259.074 118.005 259.823 115.86 261.296 111.647C263.002 106.737 263.002 105.445 262.33 104.437C261.865 103.842 261.012 103.093 260.314 103.274Z" fill="#6D6C6C"/>
<path opacity="0.13" d="M207.384 135.709C207.565 135.243 208.34 133.331 210.408 132.323C213.509 130.85 216.533 132.84 216.662 132.917C215.99 133.279 215.421 133.538 215.008 133.693C214.362 133.977 214.103 134.029 213.871 134.287C213.483 134.778 213.587 135.502 213.69 135.941C212.863 136.122 211.777 136.251 210.485 136.2C209.245 136.174 208.185 135.941 207.384 135.709H207.384Z" fill="#6D6C6C"/>
<path opacity="0.14" d="M262.304 107.516C261.218 111.134 258.841 117.233 253.62 123.126C246.513 131.164 238.165 134.291 234.366 135.454C237.286 134.937 248.141 132.637 255.791 122.712C260.314 116.82 261.761 110.824 262.304 107.516V107.516Z" fill="#6D6C6C"/>
<path d="M256.308 103.406C254.68 105.19 253.517 107.542 252.768 116.225C251.656 128.915 253.414 131.836 251.45 138.116C250.545 140.985 248.684 145.146 244.368 149.617C247.418 151.581 252.354 154.269 258.97 155.819C265.509 157.344 271.066 157.112 274.684 156.698C279.336 142.406 278.948 130.853 277.992 123.746C277.088 116.975 275.046 101.391 266.931 99.4263C263.08 98.4701 258.712 100.796 256.308 103.406Z" fill="white" stroke="#161616" stroke-width="0.516894"/>
<path opacity="0.12" d="M264.863 99.4766C264.733 100.536 264.552 102.113 264.371 103.999C263.157 116.637 264.578 118.938 263.648 126.381C263.131 130.619 262.045 138.554 256.463 145.945C254.137 149.021 251.682 151.166 249.924 152.484C252.741 153.905 257.032 155.689 262.511 156.516C267.421 157.239 271.582 156.955 274.528 156.516C275.355 154.138 276.338 150.907 277.113 147.031C278.56 139.846 278.664 133.721 278.483 129.482C278.147 121.289 277.397 103.715 268.403 100.123C267.008 99.5799 265.741 99.4766 264.863 99.4766Z" fill="#6D6C6C"/>
<path opacity="0.24" d="M278.302 136.59C277.992 136.539 277.268 139.744 276.209 142.638C274.865 146.386 272.332 151.425 267.085 156.879C269.618 156.749 272.177 156.646 274.71 156.517C275.563 153.777 276.648 149.694 277.527 144.654C278.095 141.268 278.69 136.668 278.302 136.59Z" fill="#6D6C6C"/>
<path d="M271.66 103.072C274.58 103.641 275.821 108.267 276.854 112.325C277.888 116.408 279.878 124.73 277.087 135.688C275.924 140.211 274.89 144.424 271.298 148.688C266.62 154.271 260.65 156.442 257.859 157.243C254.757 159.388 253.155 160.473 252.25 161.042C251.604 161.456 251.217 161.688 250.519 162.179C249.511 162.903 249.33 163.135 248.839 163.342C248.322 163.549 247.495 163.704 246.254 163.316C246.151 163.342 245.35 163.446 244.755 162.851C244.394 162.489 244.316 162.076 244.316 161.895C244.238 161.895 243.747 161.843 243.411 161.43C243.101 161.042 243.075 160.499 243.308 160.034C243.205 159.827 243.101 159.543 243.101 159.181C242.972 157.372 245.117 155.925 246.306 155.098C247.572 154.219 250.079 152.823 253.956 152.462C256.049 151.35 259.177 149.36 261.942 146.026C262.821 144.992 268.688 137.704 268.222 127.909C268.041 123.8 266.568 116.15 265.741 109.017C265.69 108.5 265.534 107.104 266.284 105.76C267.369 103.925 269.851 102.736 271.66 103.072Z" fill="white" stroke="#161616" stroke-width="0.516894"/>
<path d="M243.386 160.212C243.747 160.212 243.773 159.617 243.386 159.617C243.024 159.617 243.024 160.212 243.386 160.212Z" fill="#161616"/>
<path d="M243.102 159.901V160.082C243.128 160.392 243.464 160.47 243.645 160.237C244.678 158.868 246.074 157.86 247.702 157.343C248.064 157.239 247.909 156.671 247.547 156.774C245.764 157.343 244.265 158.428 243.128 159.927C243.309 159.979 243.49 160.031 243.67 160.082C243.67 160.031 243.67 159.979 243.67 159.901C243.67 159.54 243.076 159.54 243.102 159.901Z" fill="#161616"/>
<path d="M244.549 161.997C245.867 160.498 247.495 159.36 249.356 158.611C249.692 158.482 249.563 157.913 249.201 158.042C247.237 158.818 245.531 159.981 244.136 161.557C243.903 161.867 244.317 162.281 244.549 161.997Z" fill="#161616"/>
<path d="M246.487 163.388C247.831 161.863 249.381 160.596 251.139 159.563C251.449 159.382 251.165 158.865 250.855 159.071C249.071 160.131 247.469 161.423 246.099 163C245.841 163.258 246.254 163.672 246.487 163.388Z" fill="#161616"/>
<path opacity="0.13" d="M270.522 104.051C269.54 105.472 271.143 107.979 272.047 109.84C273.365 112.58 273.572 115.552 273.985 121.496C274.735 132.273 269.721 141.5 269.359 142.146C264.785 150.287 257.677 155.172 255.455 156.671C251.682 159.203 246.332 161.969 246.771 163.028C246.926 163.416 247.779 163.468 248.141 163.442C249.381 163.39 249.898 162.434 251.63 161.219C252.534 160.573 252.509 160.78 254.059 159.849C254.964 159.307 256.256 158.48 257.781 157.317C261.244 156.386 263.803 154.965 265.405 153.931C267.731 152.432 272.202 148.995 274.942 142.999C275.872 140.957 276.234 139.329 276.958 136.098C277.707 132.713 278.896 127.156 278.224 120.075C277.914 116.87 277.371 114.725 276.622 111.908C275.459 107.385 274.399 103.482 272.383 103.224C271.711 103.12 270.91 103.508 270.522 104.051Z" fill="#6D6C6C"/>
<path opacity="0.16" d="M277.889 118.188C277.656 118.188 277.708 120.901 276.596 128.112C275.588 134.573 275.072 137.881 273.65 140.905C271.583 145.299 268.765 148.064 267.396 149.382C263.493 153.155 261.141 153.414 255.171 157.807C252.044 160.108 249.718 162.201 248.348 163.493C251.45 161.426 254.525 159.358 257.626 157.316C260.469 156.489 266.31 154.318 271.014 148.762C274.245 144.937 275.511 141.189 276.493 138.269C279.853 127.853 278.302 118.188 277.889 118.188V118.188Z" fill="#6D6C6C"/>
<path d="M260.055 91.8031C258.892 92.6043 258.686 94.155 258.505 95.8607C258.324 97.5923 258.298 100.616 259.874 104.364C260.857 104.364 262.071 104.286 263.415 104.028C264.475 103.821 265.405 103.537 266.181 103.252C266.077 99.815 266 96.3776 265.896 92.9403C263.725 91.3379 261.451 90.8469 260.055 91.8031Z" fill="white" stroke="#161616" stroke-width="0.516894"/>
<path d="M253.904 74.5611C252.095 75.5949 251.32 77.3265 249.795 80.6863C248.089 84.5113 246.9 87.8194 246.435 90.2488C246.358 90.6107 246.539 90.9725 246.875 91.1276C247.314 91.3343 248.089 91.4119 248.503 91.5152C248.503 92.5232 248.632 94.2548 249.537 96.1156C251.191 99.5012 254.24 100.871 255.145 101.233C258.014 100.742 260.133 99.7597 261.399 99.0102C262.562 98.3641 264.061 97.4854 265.535 95.7796C266.853 94.2289 267.55 92.6782 267.912 91.6445C268.455 91.6445 269.282 91.5928 270.135 91.1276C271.892 90.1713 273.391 87.6644 272.461 86.1395C271.763 85.0282 269.851 84.563 267.886 85.2867C267.912 84.4596 267.886 83.3225 267.602 81.9785C267.525 81.6426 266.982 79.1873 265.741 77.4557C263.364 74.1218 257.574 72.4677 253.904 74.5611Z" fill="white" stroke="#161616" stroke-width="0.516894"/>
<path d="M247.391 86.2718C246.745 85.2639 245.324 82.7311 245.531 79.3713C245.608 78.2341 245.763 76.0631 247.34 74.0214C249.252 71.5403 251.914 70.8942 252.69 70.7391C253.051 70.1447 253.672 69.266 254.705 68.5423C255.119 68.2581 256.256 67.5602 259.047 67.4052C260.521 67.3276 262.769 67.3793 265.457 68.1547C267.55 68.7749 268.946 69.6537 269.799 70.3515C273.081 72.9359 272.823 74.9777 276.984 79.1645C277.94 80.1208 278.612 80.4567 280.059 81.8782C281.584 83.3513 282.799 84.7728 283.471 85.6257C284.995 87.564 287.864 91.234 288.407 96.1962C288.588 97.8761 289.105 102.606 286.158 106.224C282.153 111.16 273.107 111.548 267.602 107.619C266.568 106.896 262.278 103.794 262.511 98.8065C262.717 94.3095 266.465 91.6216 266.982 91.234C267.421 91.4149 268.326 91.6992 269.204 91.389C271.039 90.7171 271.815 87.9 270.858 86.4786C270.471 85.91 269.85 85.6774 269.67 85.6257C268.171 85.1088 266.775 86.2201 266.672 86.2976C264.656 84.8245 263.131 83.403 262.071 82.2917C260.624 80.8186 259.9 79.8365 259.642 79.4746C258.841 78.3375 258.246 77.3037 257.859 76.5283C256.67 76.8126 255.119 77.3554 253.491 78.415C253.103 78.6476 251.811 79.5263 250.467 81.0512C250.312 81.2321 249.562 82.085 248.761 83.3772C248.167 84.4885 247.702 85.4706 247.391 86.2718Z" fill="#5222D0"/>
<path d="M252.664 88.5701C252.664 88.5443 252.664 88.5443 252.664 88.5701C252.664 88.5959 252.69 88.6476 252.69 88.6993V88.7252C252.664 88.7769 252.639 88.8027 252.613 88.8544C252.664 88.8027 252.613 88.8285 252.509 88.9061C252.458 88.8802 252.406 88.8802 252.354 88.8544C252.328 88.8285 252.303 88.8285 252.303 88.8027C252.277 88.751 252.277 88.6993 252.251 88.6476V88.6218C252.277 88.5701 252.303 88.5443 252.328 88.4926C252.38 88.4926 252.432 88.4667 252.483 88.4667L252.69 88.6735V88.751C252.561 88.7769 252.432 88.8285 252.303 88.8544L252.277 88.8285C252.251 88.7769 252.225 88.751 252.199 88.6993C252.225 88.6218 252.277 88.5443 252.303 88.4926C252.354 88.4667 252.406 88.4667 252.458 88.4409H252.432C252.277 88.4667 252.147 88.5701 252.147 88.7252C252.147 88.8802 252.277 89.0353 252.432 89.0095C252.587 88.9836 252.742 88.9061 252.768 88.7252C252.819 88.5701 252.742 88.3892 252.587 88.3116C252.432 88.2341 252.277 88.2858 252.199 88.415C252.044 88.6218 252.147 88.9578 252.406 88.9836C252.639 89.0095 252.845 88.8285 252.845 88.5959C252.845 88.3633 252.613 88.2083 252.38 88.26C252.147 88.3375 252.044 88.5701 252.147 88.8027C252.225 88.9578 252.432 88.9836 252.535 88.9061C252.716 88.8802 252.716 88.6993 252.664 88.5701Z" fill="#161616"/>
<path d="M254.939 87.9512C254.99 88.2096 254.887 88.1838 254.654 87.8736C254.706 87.8478 254.732 87.822 254.783 87.7961C254.887 87.7961 254.964 87.8478 255.016 87.977C255.042 87.822 254.861 87.6927 254.732 87.6927C254.551 87.6927 254.447 87.822 254.447 87.977C254.422 88.2096 254.654 88.3905 254.861 88.3647C255.119 88.3647 255.275 88.1063 255.197 87.8736C255.119 87.641 254.861 87.5118 254.628 87.641C254.396 87.7703 254.37 88.0029 254.473 88.2355C254.525 88.3905 254.758 88.4164 254.861 88.3389C254.99 88.2613 255.016 88.1063 254.939 87.9512Z" fill="#161616"/>
<path d="M254.214 89.657C254.369 89.657 254.395 89.7087 254.292 89.8379C254.292 89.9413 254.266 89.9929 254.188 89.9929C254.163 89.8896 254.163 89.7603 254.137 89.657C254.214 89.6311 254.266 89.6311 254.344 89.6828C254.085 89.3985 253.672 89.812 253.93 90.0963C254.111 90.3031 254.447 90.2514 254.576 90.0188C254.705 89.7862 254.576 89.5019 254.344 89.4244C254.085 89.3468 253.827 89.5277 253.801 89.7862C253.801 90.0705 254.085 90.2772 254.344 90.2255C254.731 90.1222 254.576 89.5536 254.214 89.657Z" fill="#161616"/>
<path d="M249.433 95.2879C251.036 95.0036 252.431 94.0732 253.336 92.7035C253.542 92.3933 253.051 92.109 252.845 92.4192C252.018 93.6597 250.777 94.4609 249.304 94.7452C248.916 94.7969 249.071 95.3396 249.433 95.2879Z" fill="#161616"/>
<path opacity="0.1" d="M258.221 77.3828C258.686 78.3132 259.28 79.5538 259.952 81.0269C262.02 85.5239 262.252 86.7644 262.33 87.8499C262.433 89.4781 262.149 90.7187 261.916 91.5974C260.727 96.4045 257.238 99.6092 255.507 101.005C256.36 100.901 257.393 100.721 258.531 100.333C260.288 99.7385 261.658 98.9373 262.588 98.2653C262.511 99.0665 262.511 100.307 262.976 101.703C263.493 103.357 264.423 104.391 265.199 105.373C265.793 106.122 266.853 107.311 268.533 108.267C270.161 109.223 271.686 109.559 272.616 109.715C274.787 110.206 276.596 110.154 277.811 110.05C279.491 109.895 282.153 109.663 284.634 107.75C285.254 107.259 286.676 106.148 287.528 104.184C287.735 103.719 288.045 102.84 288.2 100.514C288.381 97.7743 288.51 95.8618 287.864 93.4324C287.192 90.9254 285.978 88.9871 284.789 87.5656C282.721 93.1222 277.733 96.327 273.236 95.655C269.721 95.1123 267.602 92.3469 266.982 91.494C268.352 91.8041 269.747 91.3906 270.548 90.3827C271.505 89.2455 271.789 87.2038 270.548 86.1183C269.566 85.2654 267.938 85.2396 266.723 86.1958C265.25 85.1362 263.57 83.7406 261.865 81.9315C260.34 80.355 259.151 78.7784 258.221 77.3828V77.3828Z" fill="#6D6C6C"/>
<path d="M252.25 85.78C252.095 85.5216 252.07 85.1339 252.328 84.9272C252.25 84.953 252.199 84.9789 252.121 85.0047H252.199C252.121 84.9789 252.07 84.953 251.992 84.9272C252.25 85.1339 252.044 85.9351 251.94 86.1677C251.992 86.116 252.044 86.0902 252.121 86.0385C252.095 86.0385 252.07 86.0643 252.07 86.0643C252.147 86.0643 252.225 86.0902 252.302 86.0902C252.147 86.0126 252.173 85.5991 252.199 85.4958C252.225 85.2632 252.276 85.0564 252.38 84.8755C252.25 84.9013 252.121 84.953 251.992 84.9789C252.121 85.0822 252.147 85.289 252.121 85.4441C252.121 85.5216 252.095 85.5991 252.07 85.6508C252.044 85.78 251.992 85.78 252.121 85.8059C252.173 85.8576 252.225 85.8834 252.302 85.9351C252.302 85.9093 252.276 85.9093 252.276 85.8834C252.044 85.5991 251.553 85.8834 251.785 86.1677C251.915 86.3228 252.095 86.4262 252.302 86.3486C252.535 86.2711 252.612 86.0385 252.664 85.8317C252.793 85.3148 252.793 84.7979 252.328 84.462C252.199 84.3586 251.992 84.4361 251.94 84.5653C251.682 85.0822 251.527 85.8834 251.863 86.4003C251.992 86.6071 252.276 86.7105 252.483 86.5554C252.716 86.3745 252.742 85.9093 252.767 85.6508C252.819 85.2632 252.742 84.1518 252.07 84.4878C251.527 84.7721 251.579 85.6508 251.837 86.0902C251.94 86.4003 252.457 86.0902 252.25 85.78Z" fill="#161616"/>
<path d="M251.062 83.1426C252.431 82.91 253.594 83.6595 254.654 84.4606C254.964 84.6932 255.249 84.1764 254.938 83.9696C253.75 83.065 252.457 82.3672 250.907 82.5998C250.545 82.6257 250.7 83.1943 251.062 83.1426Z" fill="#161616"/>
<path d="M252.612 92.4515C252.896 92.6324 253.155 92.865 253.387 93.1235C253.646 93.4078 254.059 92.9943 253.801 92.71C253.542 92.4257 253.232 92.1672 252.896 91.9346C252.586 91.7279 252.302 92.2448 252.612 92.4515Z" fill="#161616"/>
</svg>
