<svg width="246" height="227" viewBox="0 0 246 227" fill="none" xmlns="http://www.w3.org/2000/svg">
<path fill-rule="evenodd" clip-rule="evenodd" d="M62.0998 93.5787C59.1318 51.2154 114.633 23.3135 165.227 26.5725C174.89 27.1949 211.122 35.0468 192.941 60.4111C174.76 85.7753 192.666 100.525 184.666 133.625C175.413 171.904 139.574 207.961 90.8405 188.777C-33.0237 140.017 63.0992 107.844 62.0998 93.5787Z" fill="#D44121"/>
<path d="M90.0938 117.166C85.0462 122.079 82.4215 127.328 81.1427 130.424C78.1142 137.693 78.0469 143.884 78.0469 147.182C78.0469 156.066 80.4697 162.46 83.0945 169.594C84.9789 174.574 88.0075 181.439 93.0551 189.044C94.1319 189.38 95.7471 189.784 97.6989 189.851C99.5833 189.851 101.064 189.582 102.208 189.246C101.535 185.006 100.929 180.833 100.256 176.593C101.4 176.862 103.15 177.199 105.304 177.535C115.466 179.083 123.744 178.006 128.657 177.333C130.946 176.997 134.176 176.526 138.012 175.583C137.676 178.141 137.339 180.631 137.07 183.188C140.772 185.275 142.387 184.467 142.925 184.131C144.002 183.458 144.137 182.246 145.483 178.074C146.089 176.122 146.694 174.574 147.031 173.564C148.511 172.959 149.992 172.42 151.54 171.815C151.136 173.228 150.732 174.641 150.396 176.122C151.54 176.391 153.424 176.728 155.645 176.324C156.924 176.122 157.934 175.718 158.741 175.382C159.616 172.218 160.558 169.055 161.433 165.825C163.991 163.065 166.414 161.787 168.231 161.181C170.25 160.441 170.923 160.71 172.538 159.835C175.836 157.95 176.98 154.383 177.182 153.576C177.451 152.701 178.326 149.403 176.778 146.173C175.903 144.356 175.297 144.625 173.48 141.865C171.932 139.577 172 138.77 170.586 136.212C169.846 135.001 168.702 133.184 166.885 131.165C168.163 127.396 169.308 125.646 170.182 124.771C170.384 124.569 170.99 123.963 170.99 123.223C170.99 122.55 170.384 121.944 169.442 121.271C167.154 119.656 165.741 118.714 163.789 118.916C161.299 119.252 159.818 121.204 159.482 121.608C158.472 119.925 156.991 117.57 154.838 115.214C148.04 107.744 139.897 104.917 136.33 103.907C122.802 100.139 111.226 105.119 104.227 108.215C100.391 109.83 95.2087 112.118 90.0938 117.166Z" fill="white"/>
<path d="M83.4985 168.515C79.4604 157.612 77.8452 145.565 81.2103 134.259C84.4407 123.558 91.642 115.078 101.804 110.434C112.034 105.723 124.418 102.291 135.522 105.117C145.214 107.608 153.559 113.934 158.472 122.683C159.078 123.827 160.828 122.818 160.222 121.674C151.944 106.867 134.917 99.5987 118.495 102.964C109.208 104.848 99.1124 108.146 91.7766 114.27C85.1138 119.856 80.6046 127.865 78.5855 136.278C76.0281 147.248 77.6433 158.622 81.5468 169.054C82.0179 170.198 83.9696 169.727 83.4985 168.515Z" fill="black"/>
<path d="M141.379 142.536C141.11 139.777 141.244 132.845 144.946 132.306C147.234 131.97 148.715 134.931 151.272 134.729C152.551 134.595 152.551 132.576 151.272 132.71C149.522 132.912 148.311 131.095 146.763 130.422C145.282 129.816 143.869 130.085 142.658 131.095C139.562 133.652 139.091 138.835 139.427 142.536C139.495 143.815 141.514 143.815 141.379 142.536Z" fill="black"/>
<path d="M149.791 133.05C153.627 131.435 156.117 135.608 152.483 137.627C151.271 138.3 149.791 138.704 148.444 139.175C145.752 140.117 142.993 141.059 140.301 142.001C139.09 142.405 139.628 144.357 140.839 143.953C144.339 142.742 147.906 141.598 151.406 140.252C153.223 139.579 155.377 138.636 156.184 136.685C158.136 131.906 152.415 129.753 148.848 131.3C147.637 131.772 148.646 133.521 149.791 133.05Z" fill="black"/>
<path d="M161.232 119.315C159.414 120.392 157.328 122.075 157.867 124.498C158.068 125.507 158.741 126.247 159.684 126.719C161.097 127.459 162.51 127.863 163.856 128.872C164.866 129.68 166.279 128.267 165.27 127.459C164.058 126.517 162.78 125.844 161.433 125.238C160.424 124.767 159.549 124.296 160.087 123.017C160.491 122.075 161.501 121.536 162.308 121.065C163.385 120.392 162.376 118.642 161.232 119.315Z" fill="black"/>
<path d="M159.819 126.115C159.28 129.548 161.568 133.518 165.539 132.711C167.155 132.374 168.164 131.163 168.837 129.75C169.577 128.067 169.712 125.712 171.394 124.702C172.471 124.029 171.462 122.279 170.385 122.952C168.635 124.029 168.097 125.779 167.491 127.596C167.087 128.807 166.616 130.288 165.27 130.692C162.847 131.432 161.434 128.673 161.77 126.654C161.905 125.375 159.953 124.769 159.819 126.115Z" fill="black"/>
<path d="M161.299 121.738C164.193 118.575 168.096 121.805 170.183 124.093C171.058 125.036 172.471 123.622 171.596 122.68C168.702 119.517 163.52 116.286 159.886 120.324C159.011 121.267 160.424 122.68 161.299 121.738Z" fill="black"/>
<path d="M158.069 143.547C157.935 143.547 157.935 143.547 158.069 143.547C157.935 143.48 157.935 143.48 158.069 143.547C158.002 143.547 157.935 143.48 157.935 143.413C158.002 143.48 158.002 143.48 157.935 143.413C157.867 143.346 157.867 143.278 157.935 143.346C157.935 143.413 157.935 143.413 157.935 143.278C157.935 143.144 157.935 143.144 157.935 143.278C157.935 143.211 157.935 143.144 157.935 143.076C157.935 143.211 157.935 143.211 157.935 143.076C157.867 143.211 157.867 143.211 157.935 143.076C157.8 143.144 158.069 143.076 157.867 143.144C158.002 143.076 158.002 143.076 157.867 143.144C158.002 143.144 158.002 143.144 157.867 143.144C157.935 143.144 158.002 143.144 158.069 143.144C158.002 143.144 157.935 143.144 158.002 143.144C158.069 143.144 158.069 143.144 158.137 143.211C158.069 143.144 158.069 143.211 158.137 143.211C158.204 143.278 158.271 143.278 158.137 143.211C158.204 143.278 158.204 143.346 158.137 143.278C158.137 143.211 158.137 143.211 158.137 143.346C158.137 143.278 158.137 143.211 158.137 143.211C158.069 143.346 158.137 143.346 158.137 143.211C158.069 143.278 158.069 143.346 158.137 143.211C158.069 143.278 158.069 143.278 158.002 143.346C158.137 143.211 157.867 143.413 158.002 143.346C157.935 143.346 157.867 143.413 157.8 143.413C157.935 143.413 157.935 143.413 157.8 143.413C157.867 143.48 157.867 143.413 157.8 143.413C156.723 142.74 155.646 144.49 156.791 145.163C157.867 145.836 159.281 145.365 159.886 144.288C160.559 143.076 159.819 141.663 158.54 141.327C157.396 140.99 156.118 141.596 155.781 142.807C155.512 143.951 156.185 145.23 157.396 145.567C158.81 145.836 159.348 143.884 158.069 143.547Z" fill="black"/>
<path d="M167.423 137.763C167.558 137.83 167.692 137.897 167.76 138.032C167.692 137.897 167.827 138.234 167.76 138.099C167.76 137.965 167.76 138.368 167.76 138.166C167.76 137.965 167.692 138.436 167.76 138.166C167.827 137.965 167.625 138.368 167.76 138.166C167.827 138.032 167.625 138.301 167.692 138.234C167.558 138.368 167.423 138.436 167.221 138.368C167.087 138.301 167.019 138.234 166.952 138.166C166.885 138.099 166.885 138.099 166.952 138.166C166.952 138.099 166.885 138.099 166.885 138.032C166.952 138.234 166.885 137.763 166.885 137.965C166.885 138.166 166.952 137.763 166.885 137.965C166.818 138.166 166.952 137.83 166.885 137.897C166.818 138.032 166.885 137.897 166.952 137.83C166.885 137.897 166.885 137.897 166.952 137.83C167.019 137.763 167.087 137.763 167.154 137.763C167.019 137.83 167.356 137.763 167.423 137.763C166.885 137.628 166.279 137.897 166.212 138.436C166.077 138.974 166.346 139.58 166.885 139.647C167.76 139.849 168.567 139.311 168.837 138.436C169.038 137.561 168.702 136.619 167.76 136.349C166.885 136.08 166.01 136.753 165.808 137.561C165.539 138.436 166.01 139.311 166.885 139.647C167.356 139.782 168.029 139.445 168.096 138.974C168.231 138.436 167.962 137.965 167.423 137.763Z" fill="black"/>
<path d="M166.348 131.635C168.569 134.192 169.982 137.221 170.588 140.586C170.857 141.864 172.808 141.326 172.539 140.047C171.866 136.346 170.184 133.048 167.761 130.221C166.886 129.212 165.473 130.692 166.348 131.635Z" fill="black"/>
<path d="M171.259 141.869C172.134 142.676 173.211 143.282 174.422 143.551C175.701 143.82 176.239 141.869 174.961 141.599C174.086 141.397 173.345 141.061 172.672 140.455C171.73 139.513 170.317 140.926 171.259 141.869Z" fill="black"/>
<path d="M174.625 142.198C169.847 142.669 165.741 145.428 164.059 150.072C162.645 154.043 163.184 159.898 167.895 161.311C172 162.523 175.769 159.562 177.25 155.86C178.73 152.158 179.201 144.823 175.163 142.467C174.019 141.794 173.01 143.544 174.154 144.217C176.913 145.832 176.375 151.957 175.567 154.514C174.625 157.543 171.866 160.437 168.433 159.292C164.462 157.946 164.934 152.562 166.481 149.534C168.097 146.438 171.193 144.688 174.558 144.284C175.904 144.082 175.971 142.063 174.625 142.198Z" fill="black"/>
<path d="M169.644 153.101C169.644 152.966 169.644 152.832 169.644 152.697C169.644 152.159 169.173 151.688 168.635 151.688C168.096 151.688 167.625 152.159 167.625 152.697C167.625 152.832 167.625 152.966 167.625 153.101C167.625 153.639 168.096 154.11 168.635 154.11C169.173 154.11 169.644 153.707 169.644 153.101Z" fill="black"/>
<path d="M175.029 149.402C174.895 149.267 174.76 149.133 174.693 148.998C174.356 148.594 173.616 148.594 173.279 148.998C172.876 149.402 172.876 150.008 173.279 150.411C173.414 150.546 173.549 150.681 173.616 150.815C173.952 151.219 174.693 151.219 175.029 150.815C175.433 150.411 175.366 149.806 175.029 149.402Z" fill="black"/>
<path d="M152.281 151.69C153.56 153.103 155.848 152.767 156.925 151.286C157.261 150.815 156.992 150.142 156.588 149.873C156.05 149.603 155.511 149.805 155.175 150.209C154.838 150.68 154.031 150.546 153.694 150.142C152.887 149.267 151.406 150.747 152.281 151.69Z" fill="black"/>
<path d="M154.502 151.893C155.983 156.2 160.963 158.286 165.069 156.335C166.213 155.796 165.203 154.047 164.059 154.585C161.165 155.931 157.531 154.316 156.454 151.354C155.983 150.143 154.031 150.614 154.502 151.893Z" fill="black"/>
<path d="M167.626 159.704C165.337 161.522 162.982 163.339 160.693 165.156C159.684 165.964 161.097 167.377 162.107 166.569C164.395 164.752 166.751 162.935 169.039 161.118C170.116 160.378 168.635 158.964 167.626 159.704Z" fill="black"/>
<path d="M160.357 166.023C159.146 169.119 158.203 172.282 157.53 175.512C157.261 176.791 159.213 177.329 159.482 176.051C160.155 172.82 161.097 169.657 162.309 166.561C162.78 165.35 160.828 164.811 160.357 166.023Z" fill="black"/>
<path d="M81.0081 166.699C82.6233 173.429 85.3154 179.89 89.2862 185.611C90.4303 187.293 91.7763 189.649 93.7281 190.457C96.2182 191.533 99.6506 190.659 102.208 190.255C102.612 190.187 103.016 189.649 102.948 189.313C102.545 185.073 101.872 180.9 100.997 176.727C100.727 175.448 98.7757 175.987 99.0449 177.266C99.9198 181.236 100.525 185.274 100.929 189.313C101.199 188.976 101.4 188.64 101.67 188.37C98.7757 188.841 95.4779 189.582 93.1223 187.428C91.3052 185.746 89.7573 182.852 88.5459 180.698C85.9211 176.121 84.104 171.276 82.8925 166.161C82.6233 164.882 80.6716 165.421 81.0081 166.699Z" fill="black"/>
<path d="M100.794 177.534C107.188 178.947 113.716 179.62 120.244 179.485C125.763 179.351 133.031 179.216 137.877 176.389C139.021 175.716 138.012 173.967 136.868 174.64C131.955 177.466 124.484 177.399 118.965 177.466C113.043 177.534 107.12 176.861 101.265 175.582C100.054 175.313 99.5154 177.264 100.794 177.534Z" fill="black"/>
<path d="M137.206 172.423C136.667 175.518 135.994 178.749 135.927 181.912C135.86 183.931 136.936 185.008 138.955 185.075C140.638 185.143 144.003 185.008 145.012 183.527C145.82 182.249 146.022 180.028 146.426 178.614C146.897 176.999 147.435 175.317 147.906 173.701C148.31 172.423 146.359 171.951 145.955 173.163C144.945 176.461 144.003 179.691 143.061 182.989C143.263 182.787 143.532 182.518 143.734 182.316C142.59 182.652 141.244 183.123 140.032 183.056C138.013 182.989 137.879 181.912 138.08 180.23C138.35 177.807 138.686 175.384 139.157 172.961C139.359 171.682 137.407 171.144 137.206 172.423Z" fill="black"/>
<path d="M146.626 174.508C149.991 173.633 152.953 171.883 155.375 169.326C156.25 168.383 154.837 166.97 153.962 167.912C151.808 170.201 149.184 171.748 146.088 172.556C144.876 172.893 145.348 174.844 146.626 174.508Z" fill="black"/>
<path d="M149.926 171.741C149.32 173.424 149.051 175.107 149.118 176.856C149.118 177.395 149.589 177.866 150.128 177.866C152.348 177.866 154.569 177.597 156.79 177.193C158.069 176.924 157.531 175.039 156.252 175.241C154.233 175.645 152.214 175.78 150.128 175.847C150.464 176.183 150.801 176.52 151.137 176.856C151.07 175.241 151.272 173.76 151.81 172.28C152.348 171.068 150.397 170.53 149.926 171.741Z" fill="black"/>
<path d="M99.8536 118.304C108.603 114.871 117.756 112.987 127.111 112.583C128.389 112.516 128.389 110.497 127.111 110.564C117.554 110.901 108.199 112.852 99.3152 116.352C98.1038 116.823 98.6422 118.775 99.8536 118.304Z" fill="black"/>
<path d="M100.324 115.892C100.257 115.825 100.257 115.825 100.19 115.758C100.257 116.161 100.324 116.565 100.324 116.969C101.132 115.085 105.304 114.681 107.054 114.344C109.343 113.873 111.631 113.469 113.919 113.133C119.034 112.325 124.216 111.787 129.331 111.45C130.61 111.383 130.61 109.364 129.331 109.431C123.341 109.835 117.419 110.508 111.496 111.518C108.4 112.056 100.055 112.527 98.5743 115.96C98.3724 116.363 98.3724 116.834 98.7089 117.171C98.7762 117.238 98.7762 117.238 98.8435 117.306C99.7857 118.181 101.266 116.767 100.324 115.892Z" fill="black"/>
<path opacity="0.12" d="M157.934 119.584C157.665 126.92 155.377 130.756 153.223 132.842C152.079 133.986 151.608 133.986 147.233 137.553C141.042 142.533 140.638 143.61 140.436 144.351C139.696 147.918 143.532 149.533 143.801 153.705C144.137 158.484 139.494 162.522 137.003 164.608C124.553 175.309 99.2474 173.088 95.0747 172.684C96.0169 178.338 96.9591 183.991 97.9687 189.577C99.1801 189.914 100.863 190.183 101.603 189.308C102.343 188.5 101.872 187.154 101.334 184.395C100.593 180.491 100.257 178.472 100.795 177.597C102.276 175.309 108.602 177.463 114.054 178.405C119.236 179.28 126.841 179.482 136.734 176.319C136.936 178.607 137.071 180.828 137.273 183.116C139.561 183.116 141.782 183.116 144.07 183.116C144.878 180.155 145.618 177.194 146.426 174.232C147.974 173.357 149.522 172.483 151.137 171.608C150.8 173.357 150.464 175.107 150.127 176.79C152.55 176.723 154.973 176.588 157.396 176.521C157.463 174.569 158.001 170.531 160.761 166.627C161.77 165.214 163.587 162.724 166.751 161.445C168.77 160.637 169.375 161.109 171.462 160.166C172.404 159.763 174.961 158.349 176.644 155.455C178.259 152.696 179.201 148.254 177.182 145.293C176.106 143.745 175.433 144.351 173.548 142.399C171.462 140.245 171.933 139.101 169.375 134.323C167.626 131.025 167.02 130.89 167.02 129.612C167.154 126.381 171.26 125.372 170.923 123.083C170.587 120.324 164.261 119.247 163.924 119.18C161.434 118.911 159.348 119.247 157.934 119.584Z" fill="#3F3F3F"/>
<path opacity="0.14" d="M156.116 135.199C155.847 136.68 155.174 139.17 153.222 141.458C152.145 142.737 150.799 144.285 148.511 144.554C146.021 144.891 144.069 143.41 143.598 143.006C147.838 140.381 151.944 137.824 156.116 135.199Z" fill="#3F3F3F"/>
<path d="M46.3479 33.1018C45.5161 38.2237 47.7925 43.0393 50.8132 47.023C53.8776 51.0505 58.0365 54.3339 63.1585 55.0781C63.9902 55.2094 64.3404 53.9399 63.5087 53.8085C59.0871 53.1956 55.4098 50.569 52.6081 47.1981C49.4999 43.4333 46.7857 38.5302 47.6174 33.4958C47.7488 32.6202 46.4792 32.27 46.3479 33.1018Z" fill="#161616"/>
<path d="M47.4861 33.099C48.7556 32.1359 50.2003 31.4792 51.7763 31.1728C52.608 30.9977 52.2578 29.7281 51.426 29.9033C49.6312 30.2535 48.0114 31.0415 46.5667 32.1359C45.9101 32.705 46.8294 33.6243 47.4861 33.099Z" fill="#161616"/>
<path d="M51.9956 31.2636C55.8918 32.3142 59.4378 36.8671 61.6705 40.0191C63.9907 43.3024 65.7418 46.9359 66.9238 50.7446C67.1864 51.5325 68.456 51.2261 68.1933 50.3943C66.8362 46.0166 64.7787 41.8577 61.9769 38.2242C59.6129 35.116 56.242 31.0447 52.3458 29.994C51.5141 29.7751 51.1638 31.0447 51.9956 31.2636Z" fill="#161616"/>
<path d="M63.4216 55.1709C65.0851 54.3391 66.5736 53.1571 67.7556 51.6687C68.2809 51.012 67.3616 50.0927 66.8362 50.7493C65.7418 52.1502 64.3847 53.2447 62.8087 54.0327C61.9769 54.4267 62.6774 55.5211 63.4216 55.1709Z" fill="#161616"/>
<path d="M49.5425 31.3504C49.4112 36.3848 52.213 41.4192 55.1898 45.3154C57.9916 48.9927 61.9316 51.7945 66.7471 51.7069C67.5789 51.7069 67.5789 50.3936 66.7471 50.3936C61.8878 50.4812 58.1229 47.3292 55.4963 43.5205C53.0885 39.9746 50.7683 35.7719 50.8559 31.3504C50.8559 30.5186 49.5425 30.5186 49.5425 31.3504Z" fill="#161616"/>
<path d="M48.1431 39.0985C48.7997 38.3105 49.5877 37.6976 50.5071 37.2161C51.2513 36.8658 50.5946 35.7276 49.8504 36.0778C48.8435 36.5594 47.9242 37.2598 47.2238 38.1354C46.6984 38.792 47.6177 39.7552 48.1431 39.0985Z" fill="#161616"/>
<path d="M47.4422 36.1199C48.2739 35.507 49.1057 35.0692 50.1126 34.8065C50.9444 34.5876 50.5941 33.3181 49.7624 33.537C48.7117 33.8434 47.7048 34.325 46.7855 34.9816C46.1288 35.4632 46.7417 36.6014 47.4422 36.1199Z" fill="#161616"/>
<path d="M52.082 47.1995C53.0014 46.4552 53.9645 45.711 54.8838 44.9668C55.5404 44.4415 54.6211 43.5222 53.9645 44.0475C53.0451 44.7917 52.082 45.5359 51.1627 46.2801C50.4623 46.8055 51.4254 47.7248 52.082 47.1995Z" fill="#161616"/>
<path d="M54.7094 50.0853C55.4536 49.5162 56.1978 48.9471 56.942 48.378C57.2047 48.1591 57.3798 47.8089 57.1609 47.4587C56.9858 47.196 56.548 47.0209 56.2416 47.2398C55.4974 47.8089 54.7532 48.378 54.009 48.9471C53.7463 49.166 53.5712 49.5162 53.7901 49.8664C53.9652 50.1291 54.4029 50.3042 54.7094 50.0853Z" fill="#161616"/>
<path d="M59.35 53.3675C60.0942 52.6233 60.8822 51.9228 61.6264 51.1786C62.2393 50.6095 61.32 49.6464 60.7071 50.2593C59.9628 51.0035 59.1749 51.7039 58.4306 52.4482C57.8177 53.0173 58.7371 53.9804 59.35 53.3675Z" fill="#161616"/>
<path d="M52.2142 34.0679C53.046 34.8121 53.834 35.6001 54.6658 36.3443C54.622 36.0816 54.5782 35.819 54.5782 35.5563C53.7027 36.9572 53.2211 38.7521 54.4031 40.1529C54.7971 40.6345 55.41 41.0285 56.0666 41.1598C56.3731 41.2036 56.6357 41.1598 56.9422 41.1598C57.1611 41.116 57.3362 41.0285 57.5551 40.9847C59.9628 40.5907 60.4006 41.51 58.8246 43.6989C58.0366 44.0054 58.3868 45.2749 59.1748 44.9685C60.7946 44.3556 61.9328 42.5607 60.9697 40.8972C60.5319 40.1092 59.6126 39.5401 58.7371 39.4963C58.4306 39.4525 58.1242 39.5401 57.8177 39.5401C56.7671 40.1092 55.8478 39.6714 55.0598 38.3143C55.1035 37.5701 55.3224 36.9134 55.7602 36.3443C55.8915 36.1254 55.8478 35.7314 55.6726 35.5563C54.8409 34.8121 54.0529 34.0241 53.2211 33.2799C52.5207 32.5794 51.6013 33.4988 52.2142 34.0679Z" fill="#161616"/>
<path d="M59.8751 44.6122C60.6193 45.4877 61.3198 46.3195 62.064 47.195C62.5893 47.8517 63.5524 46.8886 62.9833 46.2757C62.2391 45.4001 61.5387 44.5684 60.7944 43.6928C60.2691 43.0362 59.3498 43.9993 59.8751 44.6122Z" fill="#161616"/>
<path d="M89.1194 24.2139C85.267 21.1932 82.903 12.6128 86.1426 8.54153C89.9512 3.85733 97.5247 1.84357 101.771 6.83421C105.317 10.9931 105.536 17.5159 102.866 22.2001C101.246 25.0456 98.8818 26.4028 95.5985 26.4465C92.753 26.4903 90.0388 25.3959 88.0688 23.2945C87.4997 22.6817 86.5803 23.601 87.1494 24.2139C90.3452 27.6285 96.08 28.8981 100.326 26.7092C104.748 24.389 106.412 18.085 105.886 13.4884C105.361 8.84797 102.515 3.85733 97.6998 2.63156C93.0594 1.44957 86.1863 4.77666 84.1288 9.11064C82.8592 11.7811 83.3408 14.9768 83.9975 17.7786C84.6541 20.5803 85.7923 23.2508 88.1125 25.0456C88.813 25.6585 89.7761 24.7392 89.1194 24.2139Z" fill="#161616"/>
<path d="M92.7958 7.75827C92.7958 7.7145 92.7521 7.62694 92.7521 7.58316C92.6645 7.84583 92.5332 8.06472 92.4456 8.32738C92.0516 8.19605 92.0078 8.23983 92.2705 8.59005C92.5332 9.02782 92.7083 9.4656 92.8834 9.94715C93.0147 9.68448 93.1898 9.42182 93.3212 9.15915C91.6138 9.68448 89.4687 10.8665 90.0816 13.0116C90.2567 13.6682 90.6945 14.2373 91.3512 14.4562C91.8765 14.6751 92.1829 14.4562 92.7083 14.4125C93.4963 14.0185 94.328 14.1498 95.116 14.8502C95.7727 16.7764 95.2474 17.7395 93.4963 17.8709C92.9709 17.8709 92.7083 18.44 92.9272 18.8778C93.3212 19.622 93.6276 20.3662 93.8903 21.1542C94.1529 21.9422 95.4225 21.6357 95.1598 20.804C94.8972 19.8846 94.5469 19.0529 94.0654 18.2211C93.8903 18.5713 93.6714 18.8778 93.4963 19.228C95.5976 19.1842 97.6114 17.2142 96.7358 15.0253C96.3418 14.0185 95.4225 13.2305 94.3718 13.0116C93.7589 12.8802 93.2336 13.1429 92.6645 13.1429C91.5701 13.1429 91.2636 12.924 91.8327 11.8734C92.3581 10.9103 92.6645 10.7789 93.6714 10.4725C93.9778 10.3849 94.2405 9.99093 94.1092 9.68448C93.8027 8.80893 93.4963 7.58316 92.6207 7.14539C92.4018 7.05783 92.1392 7.01406 91.9641 7.14539C91.9203 7.18917 91.8327 7.23294 91.789 7.27672C91.5263 7.45183 91.4387 7.7145 91.4825 8.02094C91.4825 8.06472 91.5263 8.15227 91.5263 8.19605C91.7014 8.89649 92.9709 8.54627 92.7958 7.75827Z" fill="#161616"/>
<path d="M96.9113 4.0336C103.566 2.32628 107.024 9.50579 107.155 14.978C107.199 17.4733 106.98 20.2751 105.492 22.3764C103.872 24.6528 100.983 25.3533 98.5749 26.4039C97.7869 26.7541 98.4873 27.8923 99.2315 27.5421C102.121 26.2726 105.273 25.4408 106.98 22.5077C108.6 19.7059 108.731 15.9849 108.337 12.8329C107.637 7.05425 103.04 1.10051 96.6049 2.76405C95.7731 2.98294 96.1233 4.25249 96.9113 4.0336Z" fill="#161616"/>
<path d="M104.222 21.7582C104.835 21.6269 105.448 21.4955 106.061 21.3642C106.893 21.1891 106.543 19.9195 105.711 20.0947C105.098 20.226 104.485 20.3573 103.872 20.4887C103.04 20.6638 103.391 21.9333 104.222 21.7582Z" fill="#161616"/>
<path d="M105.798 16.7282C106.498 16.5093 107.199 16.2904 107.855 16.0278C108.643 15.7651 108.293 14.4956 107.505 14.7582C106.805 14.9771 106.104 15.196 105.448 15.4587C104.66 15.7213 105.01 16.9909 105.798 16.7282Z" fill="#161616"/>
<path d="M105.359 12.8311C105.797 12.7435 106.278 12.6559 106.716 12.5684C107.066 12.5246 107.242 12.0868 107.154 11.7804C107.066 11.4302 106.716 11.2551 106.366 11.3426C105.928 11.4302 105.447 11.5177 105.009 11.6053C104.659 11.6491 104.484 12.0868 104.571 12.3933C104.659 12.7435 105.009 12.8748 105.359 12.8311Z" fill="#161616"/>
<path d="M102.734 7.31617C103.565 7.4475 104.353 7.40372 105.141 7.14106C105.929 6.87839 105.579 5.60884 104.791 5.87151C104.222 6.04662 103.653 6.13417 103.084 6.04662C102.734 6.00284 102.383 6.13417 102.296 6.48439C102.165 6.79084 102.383 7.27239 102.734 7.31617Z" fill="#161616"/>
<path d="M95.4669 90.1429C89.7321 88.4794 86.011 82.8758 85.9234 77.0097C85.7921 70.3117 91.6145 64.5768 98.2687 67.5537C103.872 70.049 106.017 76.6157 106.192 82.3505C106.28 85.1085 105.798 88.4356 103.303 90.0554C100.72 91.7627 97.3494 91.106 94.5914 90.2305C93.8034 89.9678 93.4532 91.2373 94.2412 91.5C98.7065 92.9447 104.354 93.0322 106.586 88.0416C108.732 83.2698 107.374 76.4405 104.923 72.0628C102.471 67.6413 97.218 64.2266 92.0085 65.7588C86.5801 67.3786 84.1285 73.2886 84.7414 78.5419C85.3981 84.4518 89.3819 89.7927 95.1605 91.4562C95.9485 91.6751 96.2987 90.4056 95.4669 90.1429Z" fill="#161616"/>
<path d="M92.577 70.7533C93.6715 71.9353 94.4595 73.1611 95.0286 74.6495C95.2912 74.3869 95.5539 74.1242 95.8166 73.8615C93.7152 73.4238 92.6208 75.2186 92.7521 77.1449C92.7959 77.8015 92.9272 78.5895 93.5839 78.9397C94.0655 79.2024 94.7659 79.0273 95.2475 79.0273C95.7728 78.9835 96.2543 78.9397 96.7797 78.9835C99.0999 79.1586 99.4063 80.1655 97.7428 82.0042C97.305 82.0479 96.8672 82.5295 97.1737 83.011C97.9617 84.2368 98.7059 85.5064 99.3188 86.8197C99.669 87.5639 100.807 86.9072 100.457 86.163C99.8003 84.8497 99.0999 83.5802 98.3119 82.3544C98.1368 82.7046 97.9179 83.011 97.7428 83.3613C99.5814 83.1424 101.114 81.4351 100.151 79.5526C99.7128 78.7208 98.881 78.1955 98.0492 77.9329C97.3926 77.714 96.7359 77.714 96.0792 77.714C95.5539 77.7577 95.0723 77.8015 94.547 77.8453C93.7152 76.8384 94.0217 75.9629 95.5101 75.2186C95.9479 75.3062 96.517 74.9122 96.2981 74.4307C95.6415 72.7233 94.7659 71.2787 93.4964 69.9653C92.9272 69.2211 92.0079 70.1405 92.577 70.7533Z" fill="#161616"/>
<path d="M88.0242 67.8209C82.3769 72.6802 80.6258 81.0417 84.8723 87.3895C88.9874 93.5621 97.2613 95.357 103.521 91.3294C104.222 90.8917 103.565 89.7535 102.865 90.1912C96.9986 93.9561 89.25 92.1612 85.6603 86.1637C82.1581 80.2975 83.9529 73.0742 88.9874 68.7402C89.6002 68.2149 88.6809 67.2956 88.0242 67.8209Z" fill="#161616"/>
<path opacity="0.14" d="M91.526 67.25C90.738 69.0011 89.7311 71.978 89.8624 75.7428C89.9062 76.8811 90.2126 83.2288 94.8093 87.519C97.9613 90.4521 101.288 90.6272 101.157 91.6341C100.982 92.7285 96.8668 93.6041 93.1457 92.6847C89.0744 91.6779 85.4409 88.4383 83.8649 84.1919C83.4709 83.0975 81.8949 78.7197 84.0838 73.948C86.3164 69.1762 90.6942 67.5127 91.526 67.25Z" fill="#3F3F3F"/>
<path opacity="0.15" d="M50.2441 31.2188C50.4192 32.8823 50.8569 35.4652 51.9952 38.3983C53.1334 41.2 55.1034 46.2344 60.2253 49.1238C61.4949 49.8242 63.9026 50.9624 67.4048 51.1375C67.0984 51.7504 66.3542 52.9324 64.9533 53.8517C64.034 54.4208 63.2022 54.6835 62.5893 54.8148C60.7944 54.2895 58.0802 53.2388 55.2785 51.1813C53.4836 49.8242 49.3247 46.6284 47.5298 40.806C46.523 37.5227 46.6105 34.5458 46.9607 32.3132C48.0114 31.9192 49.1058 31.569 50.2441 31.2188Z" fill="#3F3F3F"/>
<path opacity="0.14" d="M97.6553 3.07439C98.9686 3.77483 101.245 5.26326 102.821 8.02125C105.054 11.8299 104.572 15.5948 104.353 17.4334C104.134 19.097 103.828 21.5485 101.989 23.9125C101.026 25.182 99.9317 26.0138 99.1437 26.4954C100.107 26.4516 102.558 26.1451 104.572 24.2627C106.148 22.7743 106.63 21.0669 107.155 19.1845C107.987 16.2076 107.724 13.7999 107.637 12.9681C107.286 10.429 106.367 8.63413 106.104 8.15258C105.273 6.57659 104.178 4.56282 101.858 3.55594C100.151 2.81172 98.5308 2.94305 97.6553 3.07439Z" fill="#3F3F3F"/>
</svg>
