<svg width="326" height="257" viewBox="0 0 326 257" fill="none" xmlns="http://www.w3.org/2000/svg">
<path d="M258.51 159.846C258.481 164.444 258.424 169.07 258.396 173.668C258.396 174.804 258.368 175.939 258.368 177.046C258.368 177.812 258.197 178.777 258.51 179.515C258.992 180.764 260.61 180.424 261.206 181.474C261.263 181.275 261.319 181.076 261.348 180.878C259.276 181.899 258.737 184.198 258.566 186.327C258.424 188.371 258.339 191.663 261.007 192.06C260.979 191.805 260.95 191.55 260.894 191.294C256.863 193.139 258.481 200.348 260.184 203.243C261.433 205.372 263.278 207.103 265.18 208.636C266.258 209.516 267.337 210.339 268.444 211.19C269.096 211.701 269.749 212.184 270.374 212.695C270.714 212.95 272.162 213.745 272.218 214.227C272.332 214.085 272.417 213.944 272.531 213.83C272.559 213.83 272.559 213.83 272.587 213.83C272.644 214.029 272.701 214.227 272.729 214.426C272.758 214.398 272.758 214.369 272.786 214.341C273.013 213.858 272.304 213.433 272.048 213.915C272.02 213.944 272.02 213.972 271.991 214C271.878 214.227 271.935 214.426 272.133 214.596C272.332 214.767 272.474 214.767 272.729 214.682C272.9 214.625 273.07 214.454 273.042 214.284C272.928 213.404 272.048 213.007 271.367 212.496C270.374 211.701 269.352 210.935 268.358 210.14C266.485 208.693 264.583 207.245 262.966 205.542C261.149 203.641 259.9 201.427 259.531 198.787C259.219 196.63 258.935 193.167 261.319 192.06C261.632 191.919 261.575 191.323 261.206 191.294C258.935 190.954 259.248 187.718 259.418 185.987C259.588 184.284 260.071 182.495 261.745 181.672C261.944 181.559 262.001 181.275 261.887 181.076C261.291 180.055 259.844 180.253 259.304 179.345C258.879 178.664 259.162 177.074 259.191 176.251C259.191 175.116 259.219 173.981 259.219 172.874C259.248 168.56 259.276 164.217 259.333 159.903C259.361 159.307 258.51 159.278 258.51 159.846Z" fill="white"/>
<path d="M258.964 160.071C262.938 160.27 265.719 163.307 268.103 166.145C269.239 167.508 270.431 168.785 271.594 170.062C272.786 171.339 274.347 173.922 272.19 175.171C271.821 175.398 271.992 175.966 272.417 175.966C275.71 176.051 277.157 180.053 278.179 182.579C279.4 185.644 280.365 188.795 281.074 192.002C282.522 198.587 282.805 205.37 281.982 212.04C281.926 212.579 282.777 212.579 282.834 212.04C283.714 204.604 283.26 197.054 281.415 189.816C280.563 186.41 279.428 182.976 277.895 179.797C276.817 177.527 275.142 175.171 272.417 175.114C272.503 175.37 272.559 175.653 272.644 175.909C276.788 173.525 271.651 168.983 269.976 167.025C266.996 163.562 263.988 159.447 258.992 159.191C258.425 159.191 258.425 160.043 258.964 160.071Z" fill="white"/>
<path d="M273.213 170.291C275.2 163.252 277.981 156.469 281.557 150.083C281.359 150.139 281.16 150.196 280.961 150.225C281.728 150.679 282.522 151.133 283.289 151.587C283.686 151.814 284.055 151.36 283.885 150.991C281.841 146.904 287.972 144.293 290.044 141.852C289.874 141.88 289.703 141.908 289.533 141.908C289.93 142.136 290.356 142.363 290.753 142.59C290.952 142.703 291.208 142.646 291.349 142.448C293.62 138.588 297.622 136.431 301.482 134.444C301.283 134.274 301.056 134.132 300.858 133.961C299.637 137.963 301.567 142.334 301.936 146.336C302.135 148.493 302.163 150.679 301.993 152.864C301.908 153.943 301.993 155.561 301.567 156.526C301.567 157.235 301.17 157.633 300.347 157.774C300.091 157.803 299.864 157.831 299.609 157.86C299.041 157.916 298.445 157.973 297.877 158.03C297.65 158.058 297.423 158.2 297.452 158.456C297.48 159.023 297.65 159.194 298.076 159.563C298.615 160.017 299.041 160.073 299.297 160.868C299.439 161.294 299.439 161.776 299.439 162.202C299.41 164.501 299.07 166.857 298.672 169.128C298.275 171.341 297.707 173.527 297.026 175.656C296.43 177.444 295.635 180.112 293.421 180.395C293.138 180.424 292.854 180.736 293.052 181.048C294.699 183.574 292.258 186.64 291.066 188.825C289.76 191.153 288.568 193.537 287.461 195.949C285.247 200.746 283.431 205.713 281.955 210.793C281.813 211.333 282.636 211.56 282.778 211.02C284.452 205.174 286.638 199.497 289.306 194.048C290.555 191.465 292.059 189.024 293.365 186.469C294.301 184.624 295.039 182.467 293.819 180.594C293.705 180.821 293.563 181.02 293.45 181.247C295.124 181.048 296.203 179.856 296.941 178.409C298.048 176.195 298.644 173.64 299.183 171.228C299.779 168.56 300.176 165.835 300.318 163.11C300.375 162.202 300.46 161.18 300.063 160.329C299.836 159.761 298.388 158.881 298.36 158.484C298.218 158.626 298.076 158.768 297.934 158.91C299.524 158.739 301.794 159.137 302.334 157.32C303.043 155.05 303.015 152.24 302.986 149.912C302.986 147.415 302.731 144.945 302.277 142.505C301.766 139.751 300.858 136.998 301.709 134.217C301.823 133.848 301.397 133.564 301.085 133.734C297.083 135.806 292.967 138.048 290.64 142.05C290.839 141.994 291.037 141.937 291.236 141.908C290.839 141.681 290.413 141.454 290.015 141.227C289.874 141.142 289.618 141.142 289.505 141.284C287.12 144.094 280.848 146.762 283.204 151.445C283.402 151.246 283.601 151.048 283.8 150.849C283.033 150.395 282.239 149.941 281.472 149.487C281.274 149.373 280.99 149.43 280.876 149.629C277.3 156.1 274.462 162.94 272.447 170.036C272.219 170.603 273.043 170.83 273.213 170.291Z" fill="white"/>
<path d="M253.145 141.284C248.377 141.624 245.851 136.033 246.646 132.003C247.412 128.057 251.272 125.276 255.217 125.389C260.411 125.503 263.079 130.583 262.143 135.323C261.32 139.552 257.062 142.674 252.805 141C252.294 140.801 252.067 141.624 252.578 141.823C255.984 143.157 259.957 141.596 261.83 138.502C263.817 135.21 263.59 130.498 261.291 127.433C258.964 124.311 254.508 123.885 251.13 125.389C247.753 126.865 245.539 130.186 245.624 133.876C245.709 137.906 248.689 142.447 253.117 142.135C253.685 142.107 253.713 141.255 253.145 141.284Z" fill="white"/>
<path d="M296.712 78.9232C295.066 81.9885 293.165 84.8836 291.007 87.6083C290.667 88.034 291.263 88.6301 291.603 88.2043C293.817 85.4228 295.776 82.471 297.45 79.3489C297.706 78.8664 296.968 78.4407 296.712 78.9232Z" fill="white"/>
<path d="M296.685 79.6049C297.707 82.3012 298.785 84.9976 299.892 87.6656C300.091 88.1765 300.914 87.9494 300.715 87.4385C299.608 84.7705 298.53 82.0742 297.508 79.3778C297.309 78.8669 296.486 79.094 296.685 79.6049Z" fill="white"/>
<path d="M296.485 80.0039C296.287 90.5622 294.924 101.064 292.398 111.31C292.256 111.849 293.079 112.076 293.221 111.537C295.776 101.206 297.138 90.6474 297.337 80.0039C297.365 79.4362 296.514 79.4362 296.485 80.0039Z" fill="white"/>
<path d="M301.396 97.3459C302.134 103.42 301.963 109.55 300.856 115.568C300.771 116.107 301.566 116.334 301.68 115.795C302.786 109.692 302.985 103.505 302.247 97.3459C302.162 96.8066 301.311 96.8066 301.396 97.3459Z" fill="white"/>
<path d="M298.133 109.151C299.126 111.422 300.857 113.494 300.971 116.049C300.999 116.474 301.539 116.645 301.766 116.276C302.759 114.544 303.781 112.813 304.774 111.082C305.058 110.599 304.32 110.173 304.036 110.656C303.043 112.387 302.021 114.118 301.028 115.85C301.283 115.935 301.567 115.992 301.822 116.077C301.709 113.324 299.921 111.195 298.871 108.754C298.644 108.215 297.906 108.641 298.133 109.151Z" fill="white"/>
<path d="M104.477 252.855C121.592 251.265 138.735 249.193 155.906 248.484C173.22 247.774 190.618 248.228 207.932 248.682C217.866 248.938 227.8 249.42 237.677 250.357C238.216 250.414 238.216 249.562 237.677 249.505C220.307 247.859 202.88 247.661 185.453 247.462C176.711 247.348 167.969 247.263 159.255 247.547C150.769 247.802 142.311 248.512 133.853 249.278C124.061 250.187 114.269 251.095 104.477 252.003C103.937 252.032 103.937 252.883 104.477 252.855Z" fill="white"/>
<path d="M193.542 240.311C200.666 241.645 207.705 241.588 214.886 240.935C222.266 240.254 229.617 239.828 237.025 239.488C251.897 238.835 266.77 238.239 281.614 237.614C290.1 237.245 298.587 236.905 307.073 236.536C307.612 236.507 307.612 235.656 307.073 235.684C292.172 236.309 277.3 236.933 262.399 237.558C247.753 238.182 233.023 238.494 218.406 239.743C214.432 240.084 210.458 240.538 206.485 240.594C202.227 240.651 197.97 240.254 193.769 239.459C193.23 239.402 193.003 240.226 193.542 240.311Z" fill="white"/>
<path d="M0.425741 234.292C13.6521 234.661 26.8784 234.604 40.1048 234.122C40.6441 234.093 40.6441 233.242 40.1048 233.27C26.8784 233.753 13.6521 233.809 0.425741 233.441C-0.141914 233.412 -0.141914 234.264 0.425741 234.292Z" fill="white"/>
<path d="M14.8721 245.702C19.6972 244.68 24.8061 245.333 29.6879 245.56C34.5981 245.816 39.48 246.043 44.3902 246.298C54.3809 246.809 64.3432 247.32 74.334 247.802C74.8732 247.831 74.8732 246.979 74.334 246.951C64.1729 246.44 53.9835 245.929 43.8225 245.418C38.742 245.163 33.6615 244.907 28.581 244.652C23.9546 244.425 19.2431 243.886 14.6735 244.879C14.1342 244.993 14.3613 245.816 14.8721 245.702Z" fill="white"/>
<path d="M91.3918 224.074C108.932 225.266 126.189 220.725 143.701 220.782C144.24 220.782 144.24 219.93 143.701 219.93C126.189 219.873 108.932 224.386 91.3918 223.223C90.8525 223.166 90.8525 224.046 91.3918 224.074Z" fill="white"/>
<path d="M78.2516 135.862C78.3935 135.379 78.5355 134.897 78.7625 134.443C78.9044 134.244 79.018 134.074 79.1599 133.875C79.7559 133.818 80.3803 133.733 80.9764 133.676C81.1467 133.79 81.2886 134.13 81.4021 134.301C81.8279 134.897 82.282 135.408 82.9348 135.805C84.1836 136.543 85.6879 136.713 87.0219 136.202C90.513 134.925 91.8186 130.299 96.076 130.753C97.2113 130.866 98.2898 131.32 99.1129 132.115C99.7374 132.711 100.22 133.449 100.873 134.017C102.036 134.982 103.484 135.124 104.875 134.613C106.578 134.017 107.883 132.74 109.16 131.519C110.892 129.901 113.418 127.943 115.717 129.674C117.221 130.781 118.101 132.484 119.974 133.08C121.734 133.648 123.607 133.307 125.083 132.2C125.509 131.888 125.083 131.122 124.657 131.462C122.614 132.995 120.059 132.74 118.271 130.952C117.079 129.788 116.057 128.34 114.298 128.142C110.154 127.631 107.997 132.683 104.477 133.847C101.809 134.726 100.929 132.342 99.1697 131.037C97.8641 130.072 96.2179 129.674 94.6001 129.93C92.8971 130.185 91.5915 131.207 90.3994 132.371C89.0087 133.761 87.5328 135.663 85.3757 135.663C83.9282 135.663 82.8213 134.868 82.0265 133.733C81.5724 133.109 81.2034 132.598 80.3803 132.513C78.5922 132.342 77.8259 134.216 77.4002 135.606C77.2582 136.146 78.0813 136.373 78.2516 135.862Z" fill="white"/>
<path d="M122.018 121.187C123.04 118.206 126.616 120.733 127.978 121.839C129.17 122.804 130.561 123.798 132.179 123.741C134.847 123.628 136.266 120.903 138.451 119.768C141.488 118.206 143.333 122.265 146.285 121.868C147.591 121.698 148.272 120.647 149.095 119.739C149.975 118.774 150.883 118.774 152.132 119.058C153.296 119.342 154.488 119.626 155.651 119.909C156.191 120.051 156.418 119.228 155.878 119.086C154.715 118.803 153.523 118.519 152.359 118.235C151.564 118.036 150.77 117.809 149.975 118.036C148.414 118.519 147.96 120.591 146.399 120.96C144.724 121.357 143.078 119.484 141.63 118.888C140.41 118.377 139.218 118.377 138.054 119.001C136.805 119.654 135.869 120.761 134.762 121.641C134.024 122.237 133.201 122.776 132.236 122.833C130.76 122.918 129.539 121.896 128.461 121.045C127.155 120.023 125.764 118.803 123.976 118.944C122.699 119.03 121.649 119.711 121.223 120.931C121.024 121.47 121.848 121.698 122.018 121.187Z" fill="white"/>
<path d="M250.336 38.3654C250.08 43.673 249.91 49.0089 249.853 54.3449C249.853 54.8841 250.705 54.8841 250.705 54.3449C250.761 49.0089 250.932 43.7013 251.187 38.3654C251.215 37.8261 250.364 37.8261 250.336 38.3654Z" fill="white"/>
<path d="M250.904 38.7654C257.46 37.8572 264.13 36.9773 270.658 38.51C271.197 38.6235 271.424 37.8288 270.885 37.6869C264.215 36.0974 257.375 37.0057 250.677 37.9423C250.137 37.9991 250.364 38.8222 250.904 38.7654Z" fill="white"/>
<path d="M270.119 38.7912C270.261 49.5766 270.062 60.3904 269.494 71.1759C269.466 71.7151 270.317 71.7151 270.346 71.1759C270.913 60.3904 271.112 49.605 270.97 38.7912C270.97 38.2519 270.119 38.2519 270.119 38.7912Z" fill="white"/>
<path d="M250.562 68.2799C250.704 69.6423 250.761 71.0614 251.016 72.3954C251.158 73.0482 251.385 73.5023 251.953 73.8997C253.741 75.0634 256.636 74.3822 258.595 74.2686C261.376 74.0983 264.186 73.928 266.968 73.7577C268.216 73.6726 270.203 73.332 269.437 71.6007C269.21 71.0898 268.472 71.5439 268.699 72.0264C268.841 72.3386 267.251 72.8495 266.968 72.9063C266.513 72.9914 266.031 72.963 265.577 72.9914C264.754 73.0482 263.902 73.1049 263.079 73.1333C261.404 73.2469 259.73 73.332 258.055 73.4455C256.523 73.5307 254.82 73.8429 253.287 73.5023C251.357 73.0482 251.612 69.9261 251.414 68.3083C251.357 67.7406 250.506 67.7406 250.562 68.2799Z" fill="white"/>
<path d="M245.398 67.2309C242.9 70.8923 240.317 74.4969 237.706 78.0731C237.621 78.1866 237.621 78.3853 237.706 78.4988C238.16 79.2084 238.926 79.4922 239.75 79.2368C240.97 78.8678 241.566 77.4771 242.19 76.5121C243.212 74.9226 244.376 73.4183 245.625 71.9708C246.164 71.3748 246.703 70.7787 247.271 70.2111C247.924 69.5583 249.031 68.1675 249.967 68.0256C250.507 67.9405 250.279 67.1174 249.74 67.2025C248.889 67.3444 248.321 68.0256 247.697 68.5933C246.874 69.3596 246.079 70.1543 245.313 71.0058C243.837 72.652 242.474 74.4117 241.282 76.2566C240.942 76.7675 240.658 77.3919 240.232 77.846C239.778 78.4988 239.295 78.5556 238.728 78.0163C238.898 77.7893 239.068 77.5622 239.21 77.3352C239.977 76.285 240.743 75.2348 241.481 74.1847C243.042 71.9992 244.575 69.8137 246.079 67.5999C246.448 67.2025 245.71 66.7768 245.398 67.2309Z" fill="white"/>
<path d="M249.825 68.2831C253.344 68.3683 256.722 66.2396 258.113 63.0039C259.362 60.0805 258.68 56.2772 256.041 54.3472C253.004 52.1617 249.115 53.8079 246.76 56.1921C245.369 57.6112 244.205 59.3993 243.921 61.3861C243.808 62.1809 243.836 62.9756 244.035 63.7419C244.148 64.196 244.319 64.6218 244.546 65.0191C244.603 65.1327 245.908 66.9775 245.341 66.9491C244.801 66.8924 244.801 67.7439 245.341 67.8006C246.22 67.8858 246.675 67.0911 246.419 66.2963C246.22 65.6435 245.596 65.1894 245.255 64.5934C244.744 63.6568 244.631 62.5782 244.773 61.528C245.255 57.8951 249.115 54.0918 252.862 54.1485C256.552 54.1769 258.482 58.2924 257.715 61.528C256.864 65.0475 253.401 67.5168 249.825 67.4033C249.257 67.4317 249.257 68.2831 249.825 68.2831Z" fill="white"/>
<path d="M253.856 41.7731L253.827 41.7447C253.827 41.9434 253.827 42.1421 253.827 42.3408C254.196 41.915 256.751 41.9434 257.432 41.8582C258.51 41.7447 259.617 41.6596 260.696 41.6028C261.774 41.546 262.881 41.4893 263.988 41.4609C264.471 41.4609 266.997 41.688 267.167 41.2338C266.968 41.7447 267.791 41.9718 267.99 41.4609C268.019 41.4041 268.019 41.3757 268.047 41.319C268.104 41.1771 268.047 41.0068 267.933 40.8932C267.309 40.2688 266.174 40.5526 265.351 40.5526C263.79 40.5526 262.257 40.6094 260.696 40.7229C259.248 40.8081 257.801 40.95 256.325 41.0919C255.587 41.1771 253.742 41.0635 253.203 41.688C253.061 41.8582 253.032 42.1137 253.203 42.284L253.231 42.3124C253.657 42.7665 254.253 42.1421 253.856 41.7731Z" fill="white"/>
<path d="M253.458 45.9157C256.325 46.3131 259.106 46.1996 261.973 46.086C262.512 46.0577 262.512 45.2062 261.973 45.2346C259.163 45.3481 256.467 45.4616 253.685 45.0926C253.146 45.0359 252.919 45.859 253.458 45.9157Z" fill="white"/>
<path d="M251.527 49.123C251.442 49.2081 251.357 49.3217 251.272 49.4068C251.016 49.6906 251.187 50.1164 251.584 50.1448C256.523 50.2299 261.461 50.0028 266.371 49.4636C266.911 49.4068 266.911 48.5553 266.371 48.6121C261.461 49.1514 256.523 49.3784 251.584 49.2933C251.698 49.5487 251.783 49.7758 251.896 50.0312C251.981 49.9461 252.067 49.8325 252.152 49.7474C252.492 49.3217 251.896 48.7256 251.527 49.123Z" fill="white"/>
<path d="M257.63 53.7792C260.213 53.9779 262.795 53.8644 265.35 53.4386C265.889 53.3535 265.662 52.5304 265.123 52.6155C262.625 53.0129 260.128 53.1264 257.63 52.9278C257.062 52.8994 257.062 53.7509 257.63 53.7792Z" fill="white"/>
<path d="M250.704 65.2721C248.405 65.3856 246.447 63.3704 247.185 61.043C247.752 59.1982 249.881 57.2398 251.811 56.9275C252.748 56.7856 253.769 57.0127 254.479 57.6655C255.529 58.6305 255.245 60.0496 254.763 61.2133C253.94 63.2569 252.435 65.1018 250.136 65.3572C249.597 65.414 249.597 66.2655 250.136 66.2087C253.088 65.8965 255.188 63.3704 255.898 60.5889C256.579 57.9777 254.649 55.8206 251.953 56.0477C249.455 56.2747 246.702 58.8008 246.248 61.2701C245.765 64.0232 248.008 66.2655 250.704 66.1236C251.243 66.0952 251.243 65.2437 250.704 65.2721Z" fill="white"/>
<path d="M251.187 57.297C250.052 59.7379 249.002 62.2072 248.065 64.7049C247.867 65.2158 248.69 65.4429 248.888 64.932C249.825 62.4911 250.818 60.0785 251.925 57.7228C252.152 57.2119 251.443 56.7861 251.187 57.297Z" fill="white"/>
<path d="M252.493 59.7404C251.755 61.2731 251.045 62.8058 250.308 64.3385C250.08 64.821 250.818 65.2751 251.045 64.7642C251.783 63.2315 252.493 61.6989 253.231 60.1662C253.458 59.6837 252.748 59.2296 252.493 59.7404Z" fill="white"/>
<path d="M41.4961 13.3888C41.4961 15.9717 41.4961 18.5829 41.4961 21.1657C41.4961 21.705 42.3476 21.705 42.3476 21.1657C42.3476 18.5829 42.3476 15.9717 42.3476 13.3888C42.3476 12.8496 41.4961 12.8496 41.4961 13.3888Z" fill="white"/>
<path d="M42.0343 21.5351C44.4469 21.5351 46.831 21.5351 49.2435 21.5351C49.7828 21.5351 49.7828 20.6836 49.2435 20.6836C46.831 20.6836 44.4469 20.6836 42.0343 20.6836C41.4951 20.6836 41.4951 21.5351 42.0343 21.5351Z" fill="white"/>
<path d="M49.7548 20.6281C49.7548 17.8182 49.7548 14.98 49.7548 12.1701C49.7548 11.6308 48.9033 11.6308 48.9033 12.1701C48.9033 14.98 48.9033 17.8182 48.9033 20.6281C48.9033 21.1674 49.7548 21.1674 49.7548 20.6281Z" fill="white"/>
<path d="M49.4431 11.6289C46.9738 11.6289 44.5045 11.6289 42.0636 11.6289C41.5244 11.6289 41.5244 12.4804 42.0636 12.4804C44.5329 12.4804 47.0022 12.4804 49.4431 12.4804C49.9824 12.4804 49.9824 11.6289 49.4431 11.6289Z" fill="white"/>
<path d="M45.1006 21.9904C45.1006 24.8854 45.1006 27.7521 45.1006 30.6471C45.1006 31.1864 45.9521 31.1864 45.9521 30.6471C45.9521 27.7521 45.9521 24.8854 45.9521 21.9904C45.9521 21.4511 45.1006 21.4511 45.1006 21.9904Z" fill="white"/>
<path d="M35.1099 30.5342C38.2604 27.5256 41.5528 24.6305 44.9587 21.8774C45.3844 21.5368 44.7884 20.9408 44.3627 21.2814C40.9567 24.0345 37.6927 26.9012 34.5139 29.9381C34.1165 30.3071 34.7125 30.9031 35.1099 30.5342Z" fill="white"/>
<path d="M46.0094 22.1616C49.4153 24.7444 52.8212 27.3272 56.2271 29.9101C56.6529 30.2507 57.0786 29.5127 56.6529 29.1721C53.2469 26.5893 49.841 24.0065 46.4351 21.4236C46.0094 21.083 45.5836 21.821 46.0094 22.1616Z" fill="white"/>
<path d="M31.8166 31.5546C33.6898 31.5546 35.5631 31.5546 37.4647 31.5546C38.004 31.5546 38.004 30.7031 37.4647 30.7031C35.5915 30.7031 33.7182 30.7031 31.8166 30.7031C31.2773 30.7031 31.2773 31.5546 31.8166 31.5546Z" fill="white"/>
<path d="M36.9541 31.7265C36.9541 33.8552 36.9541 36.0123 36.9541 38.141C36.9541 38.6803 37.8056 38.6803 37.8056 38.141C37.8056 36.0123 37.8056 33.8552 37.8056 31.7265C37.8056 31.1589 36.9541 31.1589 36.9541 31.7265Z" fill="white"/>
<path d="M31.1934 31.3281C31.1934 33.8258 31.1934 36.3234 31.1934 38.8211C31.1934 39.3604 32.0448 39.3604 32.0448 38.8211C32.0448 36.3234 32.0448 33.8258 32.0448 31.3281C32.0448 30.7604 31.1934 30.7604 31.1934 31.3281Z" fill="white"/>
<path d="M31.5334 39.332C33.2931 39.332 35.0244 39.332 36.7842 39.332C37.3234 39.332 37.3234 38.4805 36.7842 38.4805C35.0244 38.4805 33.2931 38.4805 31.5334 38.4805C30.9941 38.4805 30.9941 39.332 31.5334 39.332Z" fill="white"/>
<path d="M42.4883 31.5273C42.4883 33.9966 42.4883 36.4659 42.4883 38.9068C42.4883 39.4461 43.3398 39.4461 43.3398 38.9068C43.3398 36.4375 43.3398 33.9682 43.3398 31.5273C43.3398 30.9596 42.4883 30.9596 42.4883 31.5273Z" fill="white"/>
<path d="M42.9142 39.1327C44.6456 39.1327 46.3485 39.1327 48.0799 39.1327C48.6191 39.1327 48.6191 38.2812 48.0799 38.2812C46.3485 38.2812 44.6456 38.2812 42.9142 38.2812C42.3749 38.2812 42.3749 39.1327 42.9142 39.1327Z" fill="white"/>
<path d="M43.1984 31.953C44.7311 31.953 46.2354 31.953 47.768 31.953C48.3073 31.953 48.3073 31.1016 47.768 31.1016C46.2354 31.1016 44.7311 31.1016 43.1984 31.1016C42.6591 31.1016 42.6591 31.953 43.1984 31.953Z" fill="white"/>
<path d="M47.4561 31.4123C47.4561 33.7397 47.4561 36.067 47.4561 38.4228C47.4561 38.9621 48.3075 38.9621 48.3075 38.4228C48.3075 36.0954 48.3075 33.768 48.3075 31.4123C48.3075 30.873 47.4561 30.873 47.4561 31.4123Z" fill="white"/>
<path d="M54.5237 31.4123C54.4386 33.2571 54.3818 35.102 54.3818 36.9469C54.3818 37.4862 55.2333 37.4862 55.2333 36.9469C55.2333 35.102 55.2901 33.2571 55.3752 31.4123C55.4036 30.873 54.5521 30.873 54.5237 31.4123Z" fill="white"/>
<path d="M54.8917 31.6114C56.765 31.4128 58.6382 31.1857 60.5115 30.987C61.0508 30.9302 61.0508 30.0788 60.5115 30.1355C58.6382 30.3342 56.765 30.5613 54.8917 30.7599C54.3525 30.8167 54.3241 31.6682 54.8917 31.6114Z" fill="white"/>
<path d="M60.2276 30.7326C60.0289 32.6342 60.0856 34.5075 60.4262 36.3807C60.5114 36.92 61.3345 36.693 61.2493 36.1537C60.9371 34.3372 60.8804 32.5491 61.079 30.7326C61.1358 30.1933 60.2843 30.1933 60.2276 30.7326Z" fill="white"/>
<path d="M55.177 37.6847C57.0503 37.4008 58.9235 37.117 60.7968 36.8332C61.3361 36.748 61.109 35.9249 60.5697 36.0101C58.6965 36.2939 56.8232 36.5777 54.95 36.8616C54.4107 36.9467 54.6377 37.7414 55.177 37.6847Z" fill="white"/>
<path d="M44.9865 39.3895C43.9363 40.9789 43.0281 42.6535 42.205 44.3564C41.9779 44.8389 42.7159 45.2931 42.9429 44.7822C43.766 43.0508 44.7027 41.4046 45.7244 39.8152C46.0083 39.3611 45.2703 38.9353 44.9865 39.3895Z" fill="white"/>
<path d="M45.2424 39.7293C46.2926 41.1484 47.2008 42.6243 47.9672 44.1854C48.2226 44.6679 48.9606 44.2421 48.7051 43.7596C47.9104 42.1986 47.0022 40.6943 45.9804 39.3035C45.6682 38.8494 44.9302 39.2751 45.2424 39.7293Z" fill="white"/>
<path d="M40.672 45.4605C41.2681 45.4605 41.8641 45.4605 42.4885 45.4889C42.7724 45.4889 43.0278 45.5173 43.3116 45.5457C43.8225 45.574 43.7657 45.4037 43.8509 45.8579C44.0496 46.9364 43.8225 48.3272 43.7374 49.4341C43.6806 49.9734 44.5321 49.9734 44.5888 49.4341C44.6456 48.5826 44.7024 47.7027 44.7024 46.8513C44.7024 46.3688 44.8443 45.574 44.5888 45.1199C44.3334 44.6942 43.7374 44.7509 43.3116 44.7226C42.4318 44.6658 41.5519 44.6374 40.672 44.6374C40.1328 44.609 40.1328 45.4605 40.672 45.4605Z" fill="white"/>
<path d="M40.1043 45.4347C40.1894 46.4281 40.2746 47.3931 40.3597 48.3865C40.4165 49.1812 40.303 50.3449 40.6152 51.1112C40.7287 51.4235 40.8706 51.537 41.1828 51.5937C41.9208 51.7357 43.0277 51.3667 43.7656 51.2532C44.3049 51.168 44.0779 50.3733 43.5386 50.4301C43.0277 50.4868 42.233 50.799 41.7505 50.6855C41.2112 50.5436 41.3247 49.8056 41.2964 49.238C41.1828 47.9608 41.0693 46.7119 40.9558 45.4347C40.899 44.8954 40.0475 44.867 40.1043 45.4347Z" fill="white"/>
<path d="M46.5198 45.3215C46.463 46.1446 46.4346 46.996 46.463 47.8191C46.463 48.0178 46.7185 49.8911 46.6333 49.9478C46.7752 49.9195 46.9171 49.8627 47.0591 49.8343C47.0307 49.8343 47.0023 49.8059 46.9455 49.8059C47.0591 49.9478 47.1442 50.0898 47.2577 50.2033C47.2577 50.1749 47.2577 50.1465 47.2577 50.0898C47.1442 50.2317 47.0591 50.3736 46.9455 50.4871C46.9739 50.4871 47.0023 50.4871 47.0307 50.4587C47.5699 50.3452 47.3429 49.5221 46.8036 49.6356C46.7752 49.6356 46.7468 49.6356 46.7185 49.664C46.5198 49.6924 46.4062 49.8911 46.4062 50.0614C46.4062 50.0898 46.4062 50.1181 46.4062 50.1749C46.4062 50.3452 46.5482 50.5439 46.7185 50.5723C47.4564 50.7142 47.4564 50.033 47.428 49.4937C47.3145 48.0746 47.2577 46.6838 47.3713 45.2363C47.3996 44.7538 46.5482 44.7822 46.5198 45.3215Z" fill="white"/>
<path d="M47.0292 45.5192C47.0292 45.3205 48.8457 45.2638 49.1012 45.2922C49.8107 45.4057 49.6688 45.4625 49.7823 45.9733C49.8675 46.3139 49.754 46.7964 49.7256 47.137C49.6972 47.8466 49.6972 48.5278 49.7256 49.2374C49.7256 49.6347 50.0094 50.8268 49.8107 51.1106C50.0094 51.0539 50.2081 50.9971 50.4068 50.9687C50.3784 50.9687 50.35 50.9403 50.3216 50.9403C50.3784 51.1106 50.4635 51.2525 50.5203 51.4228C50.5203 51.3944 50.5487 51.3661 50.5487 51.3377C50.6906 50.7984 49.8675 50.5713 49.7256 51.1106C49.7256 51.139 49.6972 51.1674 49.6972 51.1958C49.6404 51.3661 49.7256 51.5931 49.8959 51.6783C49.9243 51.6783 49.9526 51.7067 49.981 51.7067C50.2081 51.7918 50.4351 51.7634 50.5771 51.5647C50.7757 51.2809 50.6906 50.9971 50.6622 50.6565C50.6338 49.8902 50.5771 49.0954 50.5771 48.3291C50.5771 47.5628 50.6054 46.7681 50.6338 46.0017C50.6622 45.6611 50.7474 45.207 50.5203 44.8948C50.0378 44.242 48.5051 44.4407 47.8807 44.5258C47.1711 44.611 46.2345 44.6961 46.1777 45.5476C46.1777 46.0585 47.0292 46.0585 47.0292 45.5192Z" fill="white"/>
<path d="M47.1152 51.2795C47.9667 51.2227 48.8182 51.3079 49.6413 51.5065C50.1805 51.6485 50.4076 50.8254 49.8683 50.6834C48.9601 50.428 48.0518 50.3429 47.1152 50.3996C46.5475 50.4564 46.5475 51.3079 47.1152 51.2795Z" fill="white"/>
<path d="M57.7878 37.8556C57.1066 39.3599 56.5106 40.921 55.9713 42.482C55.801 42.9929 56.6241 43.22 56.7944 42.7091C57.3053 41.2048 57.8729 39.7289 58.5257 38.2814C58.7528 37.7705 58.0149 37.3447 57.7878 37.8556Z" fill="white"/>
<path d="M53.4446 44.5838C54.8637 44.1865 56.3112 43.9878 57.8155 44.0446C58.3548 44.073 58.3548 43.2215 57.8155 43.1931C56.2545 43.1363 54.7218 43.335 53.2175 43.7607C52.6783 43.9027 52.9053 44.7258 53.4446 44.5838Z" fill="white"/>
<path d="M53.4159 44.1849C53.1604 44.9796 53.3591 45.7175 53.4442 46.5123C53.5294 47.4773 53.5294 48.4139 53.501 49.3789C53.4442 50.6278 53.7564 50.7697 55.0053 50.6561C55.8568 50.571 57.0205 50.798 57.3327 49.8614C57.6165 48.9532 57.5313 47.7327 57.6165 46.7677C57.7016 45.7459 57.8152 44.6958 57.9003 43.674C57.9571 43.1347 57.1056 43.1347 57.0488 43.674C56.9353 44.8661 56.8218 46.0865 56.7082 47.2786C56.6515 47.7611 56.6799 48.3571 56.5663 48.8396C56.396 49.6344 56.3109 49.6911 55.4878 49.7763C55.2323 49.8047 55.0053 49.833 54.7498 49.8614C54.2673 50.0317 54.1254 49.8898 54.3241 49.4073C54.2106 49.0099 54.3809 48.3855 54.3525 47.9598C54.3241 46.8812 53.8984 45.4337 54.2106 44.4119C54.4092 43.8727 53.5861 43.6456 53.4159 44.1849Z" fill="white"/>
<path d="M58.9797 38.6497C59.6325 39.6431 60.2002 40.6933 60.7395 41.7718C60.9665 42.2543 61.7045 41.8286 61.4774 41.3461C60.9665 40.2675 60.3705 39.2457 59.7177 38.224C59.4055 37.7415 58.6675 38.1672 58.9797 38.6497Z" fill="white"/>
<path d="M59.9443 43.0195C61.3634 43.0195 62.7826 43.0195 64.2017 43.0195C64.741 43.0195 64.741 42.168 64.2017 42.168C64.1166 42.168 64.0314 42.168 63.9463 42.168C63.407 42.168 63.407 43.0195 63.9463 43.0195C64.0314 43.0195 64.1166 43.0195 64.2017 43.0195C64.741 43.0195 64.741 42.168 64.2017 42.168C62.7826 42.168 61.3634 42.168 59.9443 42.168C59.3766 42.168 59.3766 43.0195 59.9443 43.0195Z" fill="white"/>
<path d="M59.5183 42.9935C59.6319 44.0721 59.717 45.1506 59.7454 46.2291C59.7738 46.9955 59.5183 48.3011 59.8589 49.0106C60.0576 49.4364 60.3131 49.4932 60.7672 49.4932C61.8173 49.4648 62.9526 49.2093 64.0028 49.0674C64.1731 49.039 64.315 48.812 64.315 48.6701C64.2866 46.74 64.2583 44.8384 64.2299 42.9084C64.2299 42.3691 63.3784 42.3691 63.3784 42.9084C63.4068 44.8384 63.4352 46.74 63.4635 48.6701C63.5771 48.5281 63.6622 48.3862 63.7757 48.2727C63.0946 48.3578 62.4134 48.443 61.7322 48.5565C61.5051 48.5849 60.8523 48.7836 60.6536 48.6133C60.5117 48.4998 60.6536 47.6199 60.6536 47.4496C60.6253 45.9737 60.5401 44.4978 60.3982 43.0503C60.3131 42.4542 59.4616 42.4542 59.5183 42.9935Z" fill="white"/>
<path d="M28.0142 45.3198C29.4901 43.9574 30.9944 42.6802 32.6122 41.5165C33.0379 41.2043 32.6122 40.4663 32.1864 40.7786C30.5119 41.999 28.9224 43.3046 27.4182 44.7238C27.0208 45.0927 27.6168 45.6888 28.0142 45.3198Z" fill="white"/>
<path d="M32.3567 41.1472C33.2082 42.3677 33.9177 43.6449 34.4854 44.9789C34.7125 45.4898 35.4504 45.0357 35.2233 44.5532C34.6273 43.1908 33.9177 41.9136 33.0946 40.7215C32.7824 40.2674 32.0445 40.6931 32.3567 41.1472Z" fill="white"/>
<path d="M24.2389 46.8816C25.0052 46.8249 25.7431 46.7681 26.5095 46.7113C26.8501 46.6829 27.2191 46.5978 27.5313 46.6262C27.9286 46.4843 28.0422 46.5126 27.8719 46.7397C27.7583 46.91 27.7016 47.0803 27.7299 47.279C27.4177 48.6697 27.361 50.1456 27.3042 51.5648C27.5596 51.4512 27.7867 51.3661 28.0422 51.2526C28.0138 51.2242 27.9854 51.1958 27.957 51.139C27.588 50.7417 26.992 51.3377 27.361 51.7351C27.3893 51.7635 27.4177 51.7918 27.4461 51.8486C27.7016 52.1324 28.1557 51.9054 28.1841 51.5364C28.2124 50.3159 28.326 49.0955 28.4963 47.9034C28.5814 47.3925 28.9504 46.541 28.6382 46.0301C28.3827 45.6328 27.957 45.7179 27.5596 45.7463C26.4527 45.8315 25.3742 45.9166 24.2672 46.0018C23.6996 46.0869 23.6996 46.9384 24.2389 46.8816Z" fill="white"/>
<path d="M24.8058 46.0586C24.7774 46.0586 24.749 46.0586 24.6922 46.0586C24.5503 46.0586 24.4084 46.1437 24.3233 46.2573C23.8691 47.0236 23.8975 48.3576 23.7556 49.2375C23.5569 50.4863 23.3582 51.7351 23.1596 52.984C23.1312 53.211 23.2163 53.4665 23.4434 53.4949C24.7774 53.7787 26.0262 53.7219 27.3034 53.2394C27.8143 53.0407 27.5873 52.2176 27.0764 52.4163C25.9411 52.8421 24.8625 52.9272 23.6705 52.6718C23.7556 52.8421 23.8691 53.0124 23.9543 53.1827C24.0394 52.615 25.0328 46.9101 24.749 46.8817C25.345 46.9668 25.345 46.1154 24.8058 46.0586Z" fill="white"/>
<path d="M32.5272 45.9145L32.4988 45.9429C32.6975 45.9429 32.8961 45.9429 33.0948 45.9429C33.0664 45.9429 33.0664 45.9145 33.038 45.9145C33.038 46.1132 33.038 46.3119 33.038 46.5105C33.0664 46.4822 33.5773 46.4822 33.6909 46.4822C34.0031 46.4538 34.3437 46.4254 34.6559 46.4254C35.2519 46.397 35.8479 46.4254 36.444 46.4822C36.3304 46.2267 36.2453 45.9997 36.1318 45.7442C36.075 45.7726 36.0182 45.8294 35.9899 45.8577C35.4506 45.9145 35.4506 46.766 35.9899 46.7092C36.3021 46.6808 36.5291 46.5957 36.7562 46.3402C37.0116 46.0564 36.8413 45.6307 36.444 45.6023C35.6209 45.5455 34.7978 45.5171 33.9747 45.5739C33.5773 45.6023 32.7542 45.5171 32.4704 45.8861C32.3285 46.0564 32.2717 46.3402 32.4704 46.4822C32.4988 46.4822 32.4988 46.5105 32.5272 46.5105C32.6975 46.6525 32.9813 46.7092 33.1232 46.5105L33.1516 46.4822C33.4922 46.1132 32.8961 45.5171 32.5272 45.9145Z" fill="white"/>
<path d="M32.1855 46.1142C32.1004 47.2779 32.0152 48.4416 31.9585 49.6053C31.9301 50.2581 31.5611 51.9327 31.9585 52.5287C32.1572 52.8125 32.3558 52.9261 32.7248 52.8977C33.0938 52.8977 33.4911 52.6422 33.8317 52.5571C34.5129 52.3584 35.2225 52.3016 35.9321 52.3016C36.4713 52.3016 36.4713 51.4502 35.9321 51.4502C35.3076 51.4502 34.6832 51.5069 34.0588 51.6488C33.775 51.7056 33.2357 52.0178 32.9803 51.9611C32.7816 52.103 32.6964 52.0746 32.7532 51.8475C32.7248 51.6205 32.7248 51.3934 32.7532 51.138C32.7816 49.4918 32.9235 47.8172 33.037 46.171C33.0938 45.5466 32.2423 45.5466 32.1855 46.1142Z" fill="white"/>
<path d="M35.8477 46.2013C35.6207 48.103 35.5072 50.0046 35.5355 51.9346C35.5355 52.4739 36.387 52.4739 36.387 51.9346C36.3586 50.0046 36.4722 48.103 36.6992 46.2013C36.7844 45.6621 35.9329 45.6621 35.8477 46.2013Z" fill="white"/>
<path d="M262.569 165.267C269.267 179.998 273.95 195.551 276.533 211.531C276.618 212.07 277.441 211.843 277.356 211.304C274.745 195.267 270.033 179.629 263.307 164.841C263.08 164.359 262.342 164.784 262.569 165.267Z" fill="white"/>
<path d="M297.905 140.346C289.617 153.005 282.408 166.345 277.299 180.622C277.1 181.132 277.923 181.36 278.122 180.849C283.202 166.629 290.383 153.374 298.643 140.772C298.926 140.318 298.188 139.892 297.905 140.346Z" fill="white"/>
<path d="M259.674 180.82C264.272 182.069 268.217 184.907 270.857 188.881C271.169 189.335 271.907 188.909 271.595 188.455C268.842 184.311 264.726 181.302 259.901 179.997C259.362 179.855 259.135 180.678 259.674 180.82Z" fill="white"/>
<path d="M270.743 169.042C269.182 171.625 268.132 174.435 267.706 177.443C267.621 177.982 268.444 178.209 268.529 177.67C268.955 174.747 269.948 171.994 271.481 169.468C271.765 169.013 271.027 168.588 270.743 169.042Z" fill="white"/>
<path d="M279.57 153.091C280.96 154.624 281.925 156.383 282.663 158.285C283.004 159.137 283.288 160.016 283.543 160.868C283.799 161.691 284.395 162.911 284.054 163.735C283.855 164.245 284.678 164.473 284.877 163.962C285.218 163.139 284.877 162.315 284.622 161.521C284.281 160.357 283.912 159.193 283.458 158.058C282.663 156.014 281.613 154.113 280.137 152.467C279.797 152.069 279.201 152.665 279.57 153.091Z" fill="white"/>
<path d="M289.191 156.354C292.739 152.267 297.337 149.372 302.56 147.953C303.099 147.811 302.872 146.988 302.333 147.13C296.997 148.577 292.228 151.557 288.595 155.73C288.255 156.155 288.851 156.78 289.191 156.354Z" fill="white"/>
<path d="M279.173 179.144C281.727 176.874 284.736 175.284 287.914 174.092C289.362 173.553 290.809 173.127 292.285 172.701C293.108 172.474 293.903 172.276 294.726 172.049C295.124 171.963 296.798 171.282 297.11 171.452C297.054 171.254 296.997 171.055 296.969 170.856C296.94 170.885 296.94 170.913 296.912 170.942C297.11 170.885 297.309 170.828 297.508 170.8C297.479 170.8 297.451 170.771 297.423 170.771C296.94 170.516 296.514 171.254 296.997 171.509C297.025 171.509 297.054 171.538 297.082 171.538C297.281 171.651 297.536 171.594 297.678 171.396C297.706 171.367 297.706 171.339 297.735 171.311C297.848 171.112 297.792 170.856 297.593 170.715C297.196 170.487 296.77 170.686 296.344 170.771C295.379 170.998 294.414 171.225 293.449 171.481C291.604 171.963 289.759 172.503 287.943 173.127C284.537 174.348 281.301 176.022 278.605 178.463C278.179 178.889 278.775 179.513 279.173 179.144Z" fill="white"/>
<path d="M264.697 214.17C271.14 215.731 277.696 214.567 284.139 213.801C291.121 212.978 298.132 212.836 305.142 212.723C305.681 212.723 305.681 211.871 305.142 211.871C298.302 211.985 291.462 212.127 284.678 212.893C278.122 213.659 271.452 214.936 264.924 213.347C264.413 213.205 264.186 214.028 264.697 214.17Z" fill="white"/>
<path d="M285.02 211.755C296.486 211.159 307.953 210.534 319.42 209.938C319.959 209.91 319.959 209.058 319.42 209.087C307.953 209.683 296.486 210.307 285.02 210.903C284.48 210.932 284.48 211.783 285.02 211.755Z" fill="white"/>
<path d="M252.18 129.814C249.37 130.353 245.936 127.657 246.021 124.677C246.135 121.299 250.364 120.164 253.06 120.135C256.04 120.135 258.14 122.434 257.431 125.443C257.119 126.749 256.296 127.827 255.274 128.65C254.678 129.133 252.265 130.892 251.584 130.041C251.243 129.615 250.647 130.211 250.988 130.637C251.896 131.772 253.769 130.609 254.734 130.069C256.21 129.189 257.544 127.855 258.112 126.209C259.247 122.888 257.232 119.568 253.741 119.312C250.42 119.057 245.283 120.589 245.198 124.677C245.141 128.253 249.058 131.261 252.435 130.637C252.946 130.552 252.719 129.729 252.18 129.814Z" fill="white"/>
<path d="M34.3148 143.186C33.2647 144.378 32.3564 145.683 31.5901 147.103C31.3346 147.585 32.0726 148.011 32.328 147.528C33.066 146.194 33.9175 144.945 34.9392 143.782C35.2798 143.384 34.6838 142.76 34.3148 143.186Z" fill="#161616"/>
<path d="M34.2869 143.526C35.1384 144.718 35.9899 145.882 36.8414 147.074C37.1536 147.528 37.8915 147.102 37.5793 146.648C36.7278 145.456 35.8763 144.292 35.0249 143.1C34.6843 142.646 33.9463 143.072 34.2869 143.526Z" fill="#161616"/>
<path d="M34.2302 145.2C34.4856 155.219 34.7127 165.239 34.9681 175.286C34.9681 175.825 35.8196 175.825 35.8196 175.286C35.5642 165.267 35.3371 155.248 35.0817 145.2C35.0533 144.661 34.2018 144.633 34.2302 145.2Z" fill="#161616"/>
<path d="M35.9035 176.078C48.5054 176.078 61.1073 176.078 73.7093 176.078C74.2485 176.078 74.2485 175.227 73.7093 175.227C61.1073 175.227 48.5054 175.227 35.9035 175.227C35.3642 175.227 35.3642 176.078 35.9035 176.078Z" fill="#161616"/>
<path d="M72.0643 175.228C72.9442 175.569 73.7957 175.909 74.6755 176.25C74.562 175.938 74.4201 175.626 74.3065 175.313C73.8808 176.08 73.2848 176.676 72.5468 177.13C71.8372 177.556 72.49 178.662 73.1996 178.237C74.1362 177.697 74.9026 176.903 75.4419 175.966C75.6689 175.569 75.4419 175.171 75.0729 175.029C74.193 174.689 73.3415 174.348 72.4617 174.008C71.6386 173.695 71.298 174.916 72.0643 175.228Z" fill="#161616"/>
<path d="M290.043 21.9346C288.908 20.4303 290.526 18.1313 292.285 19.2666C293.08 19.7775 293.449 20.8276 292.881 21.6507C292.37 22.3887 291.32 22.7009 290.526 22.3035C290.043 22.0481 289.617 22.786 290.1 23.0415C291.264 23.6091 292.683 23.2685 293.506 22.2468C294.386 21.1398 294.073 19.5788 292.995 18.7273C291.945 17.9042 290.469 17.9042 289.561 18.926C288.737 19.8626 288.596 21.3669 289.362 22.3887C289.617 22.786 290.355 22.3603 290.043 21.9346Z" fill="#5222D0"/>
<path d="M313.657 129.871C313.6 128.537 314.594 127.629 315.899 127.629C316.439 127.629 316.864 127.771 317.375 127.544C318.34 127.118 318.709 126.011 319.021 125.074C319.476 123.712 319.816 123.059 321.519 123.485C321.973 123.598 322.257 123.826 322.74 123.655C324.159 123.116 323.307 120.675 325.464 121.072C326.004 121.186 326.231 120.363 325.691 120.249C325.01 120.107 324.357 120.164 323.761 120.59C323.222 120.987 323.165 121.47 322.853 121.981C322.825 122.52 322.456 122.747 321.775 122.662C321.633 122.577 321.462 122.492 321.32 122.435C321.008 122.406 320.838 122.236 320.497 122.265C319.873 122.293 319.39 122.69 319.021 123.144C318.482 123.797 318.34 124.592 318.028 125.387C317.716 126.181 317.404 126.749 316.439 126.834C316.013 126.863 315.616 126.721 315.19 126.777C313.686 127.004 312.721 128.395 312.777 129.871C312.834 130.439 313.686 130.439 313.657 129.871Z" fill="#5222D0"/>
<path d="M44.3907 174.462C48.3927 166.429 49.0171 157.375 51.3729 148.832C51.9689 146.647 52.5649 144.092 54.2111 142.446C56.6237 140.033 59.689 141.736 60.6824 144.575C61.4203 146.732 61.4487 149.229 61.5906 151.5C61.7325 153.941 61.8461 156.382 61.988 158.823C62.3002 164.045 62.8395 169.296 64.5992 174.263C64.7695 174.774 65.5926 174.547 65.4223 174.036C63.5774 168.813 63.0665 163.279 62.7827 157.773C62.6408 155.076 62.5273 152.351 62.3286 149.655C62.1583 147.498 62.0731 145.142 61.0514 143.184C60.2566 141.651 58.724 140.402 56.9359 140.402C55.091 140.402 53.5583 141.68 52.6217 143.155C51.4012 145.114 50.8336 147.583 50.2659 149.797C49.6415 152.266 49.1306 154.764 48.6197 157.262C47.4844 162.995 46.3207 168.757 43.6811 174.036C43.3973 174.518 44.1353 174.944 44.3907 174.462Z" fill="#5222D0"/>
<path d="M48.2784 139.268C47.7107 138.445 48.8744 137.338 49.5556 138.246C50.2084 139.098 48.9879 139.949 48.3067 139.297C47.9094 138.928 47.3133 139.524 47.7107 139.893C48.3067 140.46 49.2718 140.517 49.9529 140.035C50.7193 139.495 50.8044 138.473 50.2368 137.736C49.6691 136.998 48.619 136.799 47.9094 137.423C47.285 137.991 47.0863 138.984 47.5688 139.694C47.8526 140.148 48.5906 139.722 48.2784 139.268Z" fill="#5222D0"/>
<path d="M54.5513 135.493C54.0972 134.84 55.0906 134.244 55.5163 134.925C55.9704 135.663 54.6932 136.486 54.2675 135.663C54.012 135.181 53.3025 135.606 53.5295 136.089C53.8985 136.855 54.8919 137.054 55.6015 136.628C56.3394 136.202 56.68 135.237 56.2259 134.471C55.8285 133.818 54.8919 133.478 54.2107 133.903C53.5579 134.329 53.3308 135.237 53.7566 135.89C54.1256 136.373 54.8635 135.947 54.5513 135.493Z" fill="#5222D0"/>
<path d="M52.0821 129.248C51.855 128.595 52.5646 127.914 53.1322 128.453C53.6999 128.992 53.0471 129.759 52.3943 129.532C51.8834 129.361 51.6563 130.184 52.1672 130.355C53.6431 130.837 54.892 128.964 53.7283 127.857C53.2174 127.346 52.4227 127.261 51.8266 127.687C51.2874 128.084 51.0035 128.822 51.259 129.475C51.4577 129.986 52.2808 129.787 52.0821 129.248Z" fill="#5222D0"/>
<path d="M62.9248 136.826C62.8396 136.77 62.9532 136.855 62.9815 136.911C62.9815 136.94 62.9815 136.968 62.9815 136.997C62.9815 137.025 62.9815 137.025 62.9815 136.968V136.997C63.0383 136.968 62.9815 136.997 62.9815 136.997C62.9532 136.997 63.0667 136.997 63.0951 136.997C63.1802 136.997 63.2654 137.025 63.3505 137.053C63.237 136.911 63.1518 136.77 63.0383 136.656C63.0383 136.883 63.0383 137.11 63.0383 137.337C63.1518 137.195 63.237 137.053 63.3505 136.94C63.1235 137.025 62.8964 137.053 62.6693 136.997C62.1584 136.826 61.9314 137.649 62.4423 137.82C62.8112 137.933 63.237 137.933 63.5776 137.763C63.7479 137.678 63.8898 137.564 63.8898 137.366C63.8898 137.139 63.8898 136.911 63.8898 136.684C63.8898 136.486 63.7479 136.315 63.5776 136.287C63.1235 136.173 62.5842 136.117 62.3004 136.571C62.0733 136.911 62.1017 137.451 62.5274 137.621C62.7261 137.735 62.9815 137.678 63.1235 137.479C63.2086 137.224 63.1518 136.94 62.9248 136.826Z" fill="#5222D0"/>
<path d="M110.323 23.8348C110.465 23.8915 110.153 25.3107 110.295 25.6512C110.494 26.077 110.948 26.3324 111.402 26.3892C112.026 26.5027 112.566 26.2189 113.077 25.9067C113.587 25.5945 114.808 24.5159 115.177 25.708C115.262 25.9635 114.978 26.5879 115.063 26.9285C115.319 28.0638 116.397 28.007 117.164 27.411C117.448 27.1839 117.618 26.9001 117.845 26.6446C118.129 25.9635 118.554 25.8215 119.094 26.2189C119.094 26.3892 119.122 26.5595 119.179 26.7014C119.463 27.1271 119.605 27.411 120.172 27.3826C120.712 27.3542 120.712 26.5027 120.172 26.5311C120.201 26.5311 119.576 25.2539 119.236 25.112C118.838 24.9417 118.384 25.0836 118.015 25.3107C117.76 25.4526 117.561 25.6796 117.362 25.8783C116.937 26.304 116.965 26.9285 116.284 26.5027C115.631 26.1054 116.17 25.4809 115.716 24.9133C114.978 23.9767 113.729 24.4876 112.935 24.9984C112.481 25.2823 111.345 26.304 111.061 24.7998C111.033 24.6011 111.203 24.2889 111.203 24.0902C111.203 23.6361 111.118 23.3806 110.721 23.1819C110.267 22.8414 109.841 23.5793 110.323 23.8348Z" fill="#5222D0"/>
<path d="M80.6355 90.2199C80.9761 94.1934 81.3167 98.167 81.6857 102.141C81.7425 102.68 82.4804 102.68 82.5372 102.141C82.5372 102.055 82.5656 101.942 82.5656 101.857C82.6223 101.318 81.7708 101.318 81.7141 101.857C81.7141 101.942 81.6857 102.055 81.6857 102.141C81.9695 102.141 82.2533 102.141 82.5372 102.141C82.1966 98.167 81.856 94.1934 81.487 90.2199C81.4302 89.6806 80.5788 89.6522 80.6355 90.2199Z" fill="#EC615B"/>
<path d="M81.2883 90.5354C82.4804 90.28 84.5524 89.911 85.4606 90.9044C86.2837 91.7843 86.085 93.5156 86.1986 94.7077C86.3972 97.0918 86.5959 99.476 86.7946 101.832C86.8514 102.371 87.7028 102.371 87.6461 101.832C87.3622 98.4258 87.3339 94.8496 86.7662 91.4721C86.3405 88.8325 83.0481 89.315 81.0613 89.7123C80.522 89.8259 80.7491 90.649 81.2883 90.5354Z" fill="#EC615B"/>
<path d="M88.5545 74.5245C89.4627 83.607 89.7749 92.7179 89.4911 101.857C89.4627 102.396 90.3142 102.396 90.3426 101.857C90.6264 92.7463 90.3142 83.607 89.406 74.5245C89.3492 73.9853 88.4977 73.9569 88.5545 74.5245Z" fill="#EC615B"/>
<path d="M89.575 74.5241C90.7386 74.6944 92.1578 74.6944 93.2363 75.0918C94.6838 75.6026 94.4568 78.2139 94.5987 79.5478C94.8541 82.1307 95.0244 84.7135 95.1947 87.2963C95.5069 92.6607 95.6205 98.025 95.734 103.389C95.734 103.929 96.5855 103.929 96.5855 103.389C96.4436 97.2019 96.3017 90.9861 95.8759 84.7986C95.6772 81.9036 95.5353 78.9802 95.0812 76.1135C94.6838 73.6726 91.7604 73.9848 89.802 73.6726C89.2627 73.6442 89.0357 74.439 89.575 74.5241Z" fill="#EC615B"/>
<path d="M96.7849 69.1896C97.7499 79.975 98.7433 90.7321 99.7083 101.518C99.7651 102.057 100.617 102.057 100.56 101.518C99.5948 90.7321 98.6014 79.975 97.6364 69.1896C97.608 68.6503 96.7565 68.6503 96.7849 69.1896Z" fill="#EC615B"/>
<path d="M97.3245 69.6154C98.6868 69.3599 100.078 69.2748 101.468 69.4167C102.632 69.5302 103.455 69.7573 103.512 71.0061C103.54 71.4318 103.54 71.886 103.54 72.3117C103.625 74.4404 103.711 76.5691 103.824 78.6978C104.193 86.8437 104.619 94.9611 105.045 103.107C105.073 103.646 105.924 103.646 105.896 103.107C105.442 94.3083 104.988 85.5381 104.59 76.7394C104.505 74.8945 104.42 73.078 104.363 71.2332C104.335 70.4101 104.335 69.587 103.569 69.0477C102.859 68.5652 101.752 68.5368 100.929 68.5084C99.6519 68.4233 98.3746 68.5368 97.0974 68.7923C96.5581 68.9058 96.7852 69.7289 97.3245 69.6154Z" fill="#EC615B"/>
<path d="M74.5337 66.467C73.5971 68.3119 72.6888 70.1568 71.7522 72.0016C71.4967 72.4841 72.2347 72.9099 72.4901 72.4274C73.4268 70.5825 74.335 68.7376 75.2716 66.8928C75.4987 66.4102 74.7607 65.9561 74.5337 66.467Z" fill="#161616"/>
<path d="M74.6463 67.3184C75.0436 68.9646 75.9235 70.4122 77.2291 71.4907C77.6548 71.8313 78.2509 71.2353 77.8251 70.8947C76.6331 69.9013 75.8383 68.6241 75.4694 67.1198C75.3274 66.5521 74.5043 66.7792 74.6463 67.3184Z" fill="#161616"/>
<path d="M74.0512 67.713C73.8809 80.1447 75.4987 92.5479 78.8763 104.525C79.0182 105.065 79.8413 104.838 79.6994 104.298C76.3502 92.406 74.7324 80.0879 74.9027 67.713C74.9027 67.1738 74.0512 67.1738 74.0512 67.713Z" fill="#161616"/>
<path d="M79.8976 105.266C86.5392 104.641 93.2091 104.301 99.8791 104.272C106.095 104.244 112.822 103.988 118.555 106.798C119.037 107.025 119.463 106.316 118.981 106.06C113.418 103.336 107.06 103.392 100.986 103.421C93.9471 103.421 86.9082 103.761 79.8976 104.414C79.3583 104.471 79.3583 105.322 79.8976 105.266Z" fill="#161616"/>
<path d="M115.063 103.874C116.596 104.811 118.071 105.833 119.434 106.968C119.462 106.741 119.491 106.514 119.519 106.287C118.355 107.167 117.22 108.047 116.056 108.927C115.63 109.267 116.056 110.005 116.482 109.665C117.646 108.785 118.781 107.905 119.945 107.025C120.143 106.883 120.257 106.542 120.03 106.344C118.582 105.152 117.078 104.073 115.489 103.137C115.006 102.881 114.58 103.591 115.063 103.874Z" fill="#161616"/>
<path d="M76.6893 82.1046C77.1151 82.6155 77.5408 83.1264 77.9666 83.6373C78.1369 83.836 78.5058 83.7792 78.6478 83.5522C80.9184 79.0961 83.1606 74.6116 85.4596 70.1555C86.0556 69.0202 86.8787 69.9568 87.7302 70.269C88.2695 70.4677 88.8372 70.411 89.3764 70.2123C90.7388 69.7014 91.647 68.2822 92.2715 67.0334C93.2932 64.9047 94.2015 62.6908 95.1949 60.5338C95.4503 59.9377 95.7342 59.3417 95.9896 58.774C96.1315 58.4334 96.3018 57.7239 96.5856 57.4684C97.4655 56.6737 99.6226 58.4902 100.361 58.9443C101.581 59.6823 103.341 61.3285 104.93 60.9027C106.122 60.5905 106.69 59.2849 107.03 58.2064C108.677 53.3529 110.777 48.9536 114.013 44.9516C114.268 44.6394 114.041 44.1002 113.587 44.2421C112.111 44.7246 110.777 45.4625 109.557 46.3992C109.159 46.7114 109.67 47.279 110.067 47.0803C111.174 46.5411 112.31 45.9734 113.417 45.4341C113.218 45.349 112.991 45.2639 112.792 45.1787C113.133 46.8817 113.473 48.5846 113.786 50.2876C113.899 50.8269 114.722 50.5998 114.609 50.0605C114.268 48.3576 113.927 46.6546 113.615 44.9516C113.559 44.6678 113.218 44.5827 112.991 44.6962C111.884 45.2355 110.749 45.8031 109.642 46.3424C109.812 46.5695 109.982 46.7965 110.153 47.0236C111.26 46.1437 112.452 45.5193 113.814 45.0652C113.672 44.8381 113.53 44.5827 113.388 44.3556C110.919 47.4209 108.875 50.7985 107.399 54.4599C107.002 55.4249 106.662 56.4183 106.349 57.4117C106.094 58.2064 105.696 59.9093 104.646 60.0796C103.454 60.2783 101.922 58.9159 100.957 58.3199C99.9916 57.7239 99.0549 57.0711 98.0615 56.5318C96.9262 55.9358 96.2167 56.1628 95.649 57.2697C94.5705 59.3985 93.6906 61.6691 92.6972 63.8545C91.9593 65.5007 91.0226 68.8215 89.0074 69.3608C87.6451 69.7298 86.3962 67.6862 85.1758 68.8783C84.4662 69.5595 84.0972 70.8367 83.6715 71.6882C83.0187 72.9654 82.3943 74.2142 81.7415 75.4915C80.4642 78.0175 79.1586 80.5436 77.8814 83.0696C78.1085 83.0413 78.3355 83.0129 78.5626 82.9845C78.1369 82.4736 77.7111 81.9627 77.2854 81.4518C76.9164 81.0829 76.3204 81.6789 76.6893 82.1046Z" fill="#161616"/>
<path d="M200.24 11.5732C197.458 10.0405 196.266 6.15209 198.026 3.39897C199.814 0.589079 204.157 0.0781898 206.683 2.15013C209.266 4.30722 209.294 8.73492 206.825 10.9772C204.27 13.3329 199.984 12.7085 197.884 10.0973C197.543 9.67155 196.947 10.2676 197.288 10.6933C199.246 13.0775 202.738 13.929 205.604 12.7369C208.386 11.5732 209.833 8.56463 209.464 5.6412C209.095 2.63264 206.853 0.3904 203.844 0.049807C200.978 -0.290786 197.912 1.12835 196.834 3.90986C195.642 6.97519 196.976 10.6933 199.842 12.2544C200.297 12.5666 200.722 11.8286 200.24 11.5732Z" fill="#EC615B"/>
<path d="M212.558 16.7945C211.366 14.5807 214.431 12.1398 215.964 14.5239C217.326 16.6242 213.977 18.2137 212.898 16.2552C212.643 15.7727 211.905 16.1985 212.16 16.681C212.842 17.9298 214.431 18.2704 215.68 17.7312C217.156 17.1067 217.525 15.4038 216.702 14.0982C215.85 12.7358 214.09 12.1965 212.728 13.1615C211.451 14.0698 211.053 15.8579 211.791 17.2486C212.104 17.7028 212.842 17.277 212.558 16.7945Z" fill="#EC615B"/>
<path d="M197.629 231.48C219.967 231.48 242.275 231.48 264.613 231.48C265.152 231.48 265.152 230.629 264.613 230.629C242.275 230.629 219.967 230.629 197.629 230.629C197.062 230.629 197.062 231.48 197.629 231.48Z" fill="#161616"/>
<path d="M278.633 231.48C282.891 231.48 287.148 231.48 291.406 231.48C291.945 231.48 291.945 230.629 291.406 230.629C287.148 230.629 282.891 230.629 278.633 230.629C278.094 230.629 278.094 231.48 278.633 231.48Z" fill="#161616"/>
<path d="M133.286 244.367C148.13 244.367 163.003 244.367 177.847 244.367C178.386 244.367 178.386 243.516 177.847 243.516C163.003 243.516 148.13 243.516 133.286 243.516C132.747 243.516 132.747 244.367 133.286 244.367Z" fill="#161616"/>
<path d="M177.278 240.961C190.136 240.961 203.022 240.961 215.879 240.961C216.418 240.961 216.418 240.109 215.879 240.109C203.022 240.109 190.136 240.109 177.278 240.109C176.739 240.109 176.739 240.961 177.278 240.961Z" fill="#161616"/>
<path d="M73.5392 238.637C77.4276 238.637 81.2877 238.637 85.1761 238.637C85.9992 238.637 85.9992 237.359 85.1761 237.359C81.2877 237.359 77.4276 237.359 73.5392 237.359C72.7161 237.359 72.7161 238.637 73.5392 238.637Z" fill="#161616"/>
<path d="M89.1496 238.637C90.4835 238.637 91.7891 238.637 93.1231 238.637C93.9462 238.637 93.9462 237.359 93.1231 237.359C91.7891 237.359 90.4835 237.359 89.1496 237.359C88.3265 237.359 88.3265 238.637 89.1496 238.637Z" fill="#161616"/>
<path d="M57.021 187.094C57.5603 187.179 58.2983 187.86 58.8659 191.096C60.5405 191.209 62.2151 191.323 63.8897 191.436C65.2804 190.273 66.6712 189.109 68.0619 187.917C68.2606 189.052 68.516 190.727 68.7431 192.77C69.254 197.51 68.9418 198.646 69.254 201.285C69.3959 202.449 70.0487 207.359 73.0857 212.127C75.4131 215.789 76.9457 215.902 78.7622 219.478C80.1814 222.288 80.6071 224.928 80.7774 226.659C81.0612 226.631 84.6658 226.347 86.9648 229.157C88.015 230.463 89.1787 232.903 88.2988 234.834C87.4473 236.707 85.4889 236.423 81.9411 239.517C80.6922 240.595 79.5002 241.674 79.784 242.525C80.0678 243.405 81.6005 243.235 84.2968 244.682C85.716 245.449 86.3972 245.846 86.6242 246.527C87.4757 248.997 82.083 252.8 81.2883 253.367C78.6771 255.184 75.4982 256.603 75.1008 256.035C74.5048 255.184 80.9193 250.501 79.9543 248.684C79.2447 247.322 75.2144 249.025 74.2777 247.521C73.256 245.874 76.8606 241.759 78.7906 239.517C82.5087 235.203 84.8645 234.124 84.4671 232.676C84.0414 231.144 80.8058 230.122 79.1312 231.172C77.7121 232.052 77.9959 234.039 77.4566 235.344C76.4348 237.842 71.553 239.886 54.7504 238.012C54.9775 237.558 55.3181 237.019 55.7438 236.508C57.1913 234.834 59.0078 234.237 59.9161 234.01C59.6606 233.585 58.1847 231.059 59.093 227.993C59.7742 225.666 61.392 224.389 61.9313 223.991C60.7959 221.749 59.6606 219.308 58.5821 216.64C57.9009 214.909 57.2765 213.234 56.7372 211.616C55.1478 211.616 53.3029 211.333 51.8838 210.112C49.7551 208.239 50.6065 205.94 48.3927 204.265C46.3208 202.676 43.8515 203.385 43.4257 202.023C43.227 201.37 43.6244 200.604 44.0501 200.207C45.1287 199.185 47.0587 199.696 49.159 200.263C50.6065 200.661 52.6785 201.399 54.9775 202.789C54.2112 201.683 52.8204 199.355 52.7353 196.261C52.5366 191.607 55.3748 186.867 57.021 187.094Z" fill="#161616"/>
<path d="M56.0276 207.474C54.0692 208.325 54.8071 214.087 55.5167 219.338C55.9708 222.659 56.7372 227.058 58.1847 232.195C54.2111 235.261 54.4098 236.14 54.5233 236.367C54.8923 237.134 57.5319 236.68 58.355 236.538C59.2348 236.396 60.4837 236.169 61.1933 235.715C63.2084 234.381 62.1583 230.322 61.5338 223.851C60.6256 214.484 61.7041 210.568 58.6956 208.325C58.2982 208.013 56.9926 207.048 56.0276 207.474Z" fill="#161616"/>
<path d="M36.6143 219.225C36.6994 219.196 37.4374 218.827 37.409 218.799C37.3522 218.771 37.3522 219.225 37.3522 219.338C37.3238 219.707 37.2103 220.161 37.2671 220.559C37.3806 221.126 37.8063 221.41 38.374 221.354C38.6862 221.325 38.9133 221.183 39.1687 220.985C39.2255 220.928 39.6228 220.587 39.6512 220.587C39.708 220.616 39.708 221.24 39.7364 221.297C39.8499 221.836 40.2473 222.29 40.8433 222.233C41.3826 222.177 41.3826 221.325 40.8433 221.382C40.5595 221.41 40.4743 219.878 39.9918 219.707C39.7931 219.622 39.5661 219.679 39.3958 219.764C38.97 219.963 38.3456 220.871 38.1469 220.076C38.005 219.48 38.6011 218.629 38.0618 218.118C37.5509 217.635 36.6994 218.203 36.2169 218.458C35.706 218.742 36.1318 219.48 36.6143 219.225Z" fill="white"/>
<path d="M56.1426 196.346C56.6251 195.892 57.4482 196.006 57.7888 196.573C58.0159 196.914 58.5551 196.602 58.3281 196.261C57.7604 195.353 56.4548 195.183 55.6885 195.892C55.4047 196.176 55.8588 196.63 56.1426 196.346Z" fill="white"/>
<path d="M62.2159 196.149C62.7267 195.638 63.5782 195.609 64.1175 196.092C64.4297 196.376 64.8838 195.922 64.5716 195.638C63.7769 194.9 62.5281 194.928 61.7617 195.695C61.4779 195.978 61.932 196.432 62.2159 196.149Z" fill="white"/>
<path d="M57.2487 199.468C56.9365 200.092 55.6025 202.249 57.05 202.42C57.646 202.476 58.2137 201.937 58.5543 201.54C59.0368 200.972 59.3206 200.263 59.5761 199.581C59.7747 199.071 58.9517 198.843 58.753 199.354C58.4408 200.149 58.1002 200.887 57.419 201.455C57.2771 201.568 57.1919 201.767 57.2487 201.511C57.2771 201.341 57.3622 201.171 57.4474 201.029C57.6177 200.66 57.788 200.291 57.9866 199.922C58.2137 199.383 57.4757 198.957 57.2487 199.468Z" fill="#EC615B"/>
<path d="M58.015 199.921C58.384 199.751 58.6678 199.524 59.0084 199.297C58.8949 199.325 58.7814 199.325 58.6678 199.354C58.6962 199.354 58.7246 199.382 58.753 199.382C58.6678 199.325 58.5827 199.24 58.4976 199.184C58.4976 199.013 58.4692 199.013 58.3556 199.212C58.2705 199.297 58.2137 199.382 58.1286 199.496C57.9867 199.666 57.8731 199.836 57.7596 200.007C57.5042 200.404 57.2771 200.801 57.05 201.227C56.7946 201.71 57.5325 202.135 57.788 201.653C58.0434 201.199 58.2989 200.716 58.5827 200.29C58.8098 199.95 59.2923 199.581 59.3207 199.155C59.349 198.843 59.0936 198.559 58.8098 198.559C58.6111 198.531 58.4692 198.644 58.3273 198.758C58.0718 198.956 57.8447 199.098 57.5325 199.24C57.1068 199.382 57.5325 200.12 58.015 199.921Z" fill="#EC615B"/>
<path d="M57.1631 199.439C58.0997 199.467 58.9796 198.786 59.1498 197.85C59.2066 197.452 58.6106 197.282 58.5254 197.679C58.4119 198.36 57.8442 198.843 57.1631 198.815C56.7373 198.786 56.7373 199.411 57.1631 199.439Z" fill="white"/>
<path d="M58.6113 197.653C58.7248 198.789 59.7182 199.697 60.8819 199.612C61.2793 199.584 61.2793 198.931 60.8819 198.959C60.0872 199.016 59.3209 198.477 59.2357 197.653C59.2073 197.256 58.5829 197.256 58.6113 197.653Z" fill="white"/>
<path d="M231.093 144.148C221.698 155.53 212.332 166.883 202.937 178.264C217.668 181.926 232.398 185.587 247.129 189.249C247.611 183.146 247.725 170.686 240.941 157.659C237.876 151.755 234.215 147.327 231.093 144.148Z" fill="#5222D0"/>
<path d="M200.185 180.562C215.057 184.309 229.958 188.027 244.831 191.774C244.66 194.158 244.178 197.479 242.759 201.168C241.084 205.596 238.728 208.803 237.025 210.79C224.764 200.714 212.474 190.638 200.185 180.562Z" fill="#EC615B"/>
<ellipse cx="197.997" cy="180.337" rx="49.4711" ry="50.7199" stroke="#161616" stroke-width="0.851482"/>
<path d="M198.622 179.26C198.736 179.146 199.019 179.231 199.076 179.373C199.105 179.26 199.105 179.146 199.133 179.033C199.105 179.09 199.019 179.061 198.991 179.033C198.764 178.948 198.537 179.118 198.48 179.317C198.423 179.544 198.565 179.771 198.764 179.827C199.105 179.941 199.502 179.856 199.729 179.6C200.013 179.317 199.928 178.919 199.672 178.664C199.218 178.21 198.509 178.181 198.054 178.607C197.6 179.004 198.196 179.629 198.622 179.26Z" fill="#161616"/>
<path d="M228.537 140.772C219.483 153.942 209.748 166.657 199.388 178.834C199.048 179.259 199.644 179.855 199.984 179.43C210.401 167.197 220.164 154.453 229.275 141.198C229.588 140.744 228.85 140.318 228.537 140.772Z" fill="#161616"/>
<path d="M198.962 179.798C214.97 182.665 230.864 186.042 246.645 189.959C247.184 190.101 247.411 189.278 246.872 189.136C231.091 185.248 215.197 181.842 199.189 178.975C198.65 178.89 198.423 179.713 198.962 179.798Z" fill="#161616"/>
<path d="M198.905 179.657C211.025 190.755 223.513 201.427 236.371 211.702C236.796 212.042 237.392 211.446 236.967 211.106C224.138 200.859 211.621 190.159 199.501 179.061C199.104 178.692 198.48 179.288 198.905 179.657Z" fill="#161616"/>
<path opacity="0.21" d="M198.026 129.732C199.076 134.415 199.785 141.085 197.203 147.897C191.327 163.451 174.269 164.217 167.798 176.904C164.279 183.801 163.399 195.211 174.525 215.079C174.525 218.428 174.525 221.749 174.525 225.098C171.232 223.253 167.599 220.755 164.108 217.349C150.854 204.379 148.81 187.434 148.384 180.991C148.413 176.336 149.065 161.208 160.22 147.698C162.746 144.633 171.715 134.131 186.985 130.754C191.441 129.789 195.301 129.647 198.026 129.732Z" fill="#6D6C6C"/>
<path d="M114.013 209.313C115.972 214.252 117.93 219.162 119.86 224.101C118.696 226.655 116.908 230.43 114.439 234.943C111.203 240.847 109.671 242.833 110.181 243.429C110.919 244.281 115.716 242.152 134.335 228.216C133.171 224.981 131.979 221.717 130.816 218.396C129.113 213.571 127.467 208.802 125.849 204.062C121.932 205.822 117.987 207.582 114.013 209.313Z" fill="#161616"/>
<path d="M166.351 122.804C169.501 128.169 167.259 136.485 166.947 137.592C165.215 144.035 161.298 144.659 146.937 158.254C137.939 166.798 135.357 170.26 133.455 174.064C130.872 179.286 129.936 184.139 129.567 187.432C130.73 194.244 131.894 201.027 133.058 207.839C130.077 209.769 125.905 212.068 120.569 213.686C116.823 214.821 113.417 215.389 110.607 215.644C107.996 209.031 104.249 196.827 106.264 181.982C108.705 163.903 118.27 152.067 126.217 142.247C138.308 127.317 152.301 117.639 164.279 111.395C163.881 113.523 163.654 116.589 164.846 119.824C165.414 121.357 166.038 122.265 166.351 122.804Z" fill="#EC615B"/>
<path opacity="0.2" d="M161.64 115.113C158.092 124.707 153.835 132.143 149.975 137.734C138.48 154.452 129.993 155.814 123.21 171.339C118.867 181.273 117.931 190.753 117.647 194.159C116.937 202.078 117.562 208.805 118.356 213.743C119.946 213.686 121.933 213.459 124.118 212.835C128.347 211.615 131.356 209.486 133.087 207.982C132.605 205.683 131.895 202.277 131.1 198.104C130.022 192.314 129.483 189.391 129.483 187.319C129.483 181.217 132.065 176.619 134.166 172.957C135.159 171.226 138.054 166.429 148.187 157.148C158.887 147.356 163.343 145.653 166.153 138.472C167.828 134.186 167.799 130.781 167.771 129.674C167.515 122.209 163.315 116.987 161.64 115.113Z" fill="#6D6C6C"/>
<path opacity="0.27" d="M167.743 132C161.924 136.882 153.608 144.176 144.043 153.542C130.164 167.166 127.694 171.14 126.616 173.127C123.607 178.661 118.442 191.263 123.551 212.295C125.225 211.614 126.957 210.847 128.773 209.967C130.221 209.258 131.611 208.52 132.917 207.81C131.782 201.169 130.646 194.527 129.511 187.857C129.596 185.36 129.993 181.613 131.668 177.441C132.065 176.447 133.229 173.694 136.153 169.721C138.48 166.542 140.722 164.385 145.121 160.212C148.641 156.863 152.047 153.344 155.708 150.165C162.293 144.46 165.245 142.899 166.834 138.5C167.771 135.917 167.828 133.561 167.743 132Z" fill="#6D6C6C"/>
<path d="M145.263 208.694C149.577 212.014 153.891 215.335 158.205 218.656C152.472 233.188 152.472 236.963 153.636 237.616C155.566 238.723 161.895 231.882 165.5 226.859C168.707 222.346 170.58 218.117 171.659 215.165C169.899 212.923 167.884 210.595 165.641 208.211C162.548 204.919 159.511 202.109 156.644 199.668C152.869 202.705 149.066 205.685 145.263 208.694Z" fill="#161616"/>
<path d="M189.54 122.807C192.066 129.505 190.533 135.977 190.136 137.594C187.241 149.629 176.484 159.563 172.681 163.025C166.181 168.986 160.788 171.966 157.78 179.913C156.729 182.638 156.304 185.05 156.133 186.696C158.205 191.436 160.277 196.176 162.349 200.888C160.987 203.811 158.007 209.204 151.99 213.319C149.435 215.079 146.937 216.158 144.894 216.867C140.58 212.468 128.886 199.412 129.51 181.957C129.993 168.56 137.571 157.774 143.418 149.402C149.293 141.029 150.797 142.05 158.205 131.35C164.62 122.069 165.84 117.84 171.233 115.967C176.654 114.065 184.601 115.115 188.092 119.827C188.774 120.82 189.086 121.643 189.54 122.807Z" fill="#EC615B"/>
<path opacity="0.24" d="M176.342 121.529C176.654 124.14 176.881 128.625 175.576 133.79C171.034 151.359 154.402 152.892 146.398 171.908C144.837 175.627 141.204 184.624 144.071 195.04C146.285 203.158 151.45 208.437 154.374 210.991C155.509 210.395 157.382 209.203 159.028 207.103C161.072 204.492 161.725 201.824 161.952 200.49C159.937 195.636 157.922 190.755 155.935 185.901C156.304 183.744 157.07 180.65 158.858 177.33C161.299 172.732 164.251 170.404 168.054 166.97C175.036 160.697 179.492 156.724 183.352 151.246C185.793 147.755 189.341 142.617 190.505 135.096C191.47 128.965 190.448 123.828 189.568 120.734C185.169 121.018 180.741 121.274 176.342 121.529Z" fill="#6D6C6C"/>
<path opacity="0.25" d="M190.788 130.641C188.546 134.756 184.686 141.171 178.726 148.039C167.259 161.237 159.482 163.99 154.146 174.151C151.847 178.522 149.747 185.731 152.33 197.312C155.594 198.617 158.886 199.923 162.15 201.257C160.078 196.375 158.035 191.522 155.963 186.64C156.162 184.227 156.758 180.651 158.773 176.961C160.561 173.669 162.548 171.937 166.919 167.964C174.156 161.379 177.789 158.087 179.265 156.441C182.643 152.722 186.332 148.55 188.66 142.107C190.363 137.538 190.732 133.422 190.788 130.641Z" fill="#6D6C6C"/>
<path d="M121.704 83.2429C120.937 81.5399 119.603 79.0706 117.162 76.8284C114.097 74.0185 109.811 72.0033 109.13 72.8264C108.846 73.167 108.875 74.3591 114.04 80.064" fill="white"/>
<path d="M121.704 83.2429C120.937 81.5399 119.603 79.0706 117.162 76.8284C114.097 74.0185 109.811 72.0033 109.13 72.8264C108.846 73.167 108.875 74.3591 114.04 80.064" stroke="#161616" stroke-width="0.567654"/>
<path d="M111.004 78.5859C109.897 79.2671 107.938 80.7146 106.888 83.2123C106.491 84.1773 105.98 85.4262 106.349 86.8737C107.002 89.3714 110.01 90.4215 110.266 90.5351C111.486 90.9608 111.799 90.6486 112.678 91.1595C114.098 91.9826 114.041 93.0895 115.091 94.1113C117.248 96.1832 121.619 95.3601 121.818 94.4803C121.931 93.9978 120.682 93.5436 120.796 92.6638C120.853 92.1245 121.392 91.8974 121.761 91.5568C123.748 89.7403 121.846 84.4328 121.505 83.5529C121.193 82.7298 120.711 81.5377 119.859 80.2038" fill="white"/>
<path d="M111.004 78.5859C109.897 79.2671 107.938 80.7146 106.888 83.2123C106.491 84.1773 105.98 85.4262 106.349 86.8737C107.002 89.3714 110.01 90.4215 110.266 90.5351C111.486 90.9608 111.799 90.6486 112.678 91.1595C114.098 91.9826 114.041 93.0895 115.091 94.1113C117.248 96.1832 121.619 95.3601 121.818 94.4803C121.931 93.9978 120.682 93.5436 120.796 92.6638C120.853 92.1245 121.392 91.8974 121.761 91.5568C123.748 89.7403 121.846 84.4328 121.505 83.5529C121.193 82.7298 120.711 81.5377 119.859 80.2038" stroke="#161616" stroke-width="0.567654"/>
<path d="M105.867 86.5036C106.519 88.2066 107.768 89.7109 109.5 90.3921C111.259 91.1016 112.565 90.165 112.593 88.2917C112.593 87.7525 111.742 87.7525 111.742 88.2917C111.713 90.4772 109.556 89.6825 108.478 88.8026C107.655 88.1498 107.059 87.27 106.69 86.2766C106.491 85.7657 105.668 85.9644 105.867 86.5036Z" fill="#161616"/>
<path d="M107.995 84.1771C108.847 85.7665 109.982 87.5262 111.742 88.179C113.331 88.7751 114.268 87.81 114.438 86.3058C114.495 85.7665 113.644 85.7665 113.587 86.3058C113.331 88.548 111.146 86.9869 110.379 86.1922C109.698 85.4827 109.187 84.6312 108.733 83.7513C108.478 83.2688 107.74 83.6945 107.995 84.1771Z" fill="#161616"/>
<path d="M110.55 80.3478C111.061 81.4831 111.571 82.6468 112.281 83.6686C112.764 84.3781 113.445 85.3999 114.381 85.5702C116.595 85.9959 115.886 82.8455 115.46 81.7669C115.261 81.256 114.438 81.4831 114.637 81.994C114.835 82.4765 115.261 83.4699 115.091 84.0091C114.608 85.5702 113.303 83.6402 113.019 83.2428C112.309 82.221 111.799 81.0573 111.288 79.922C111.061 79.4111 110.323 79.8369 110.55 80.3478Z" fill="#161616"/>
<path d="M110.975 79.067C111.826 78.6413 112.877 79.4076 113.473 79.9753C114.069 80.5429 114.466 81.2809 114.778 82.0188C114.977 82.5297 115.8 82.3027 115.601 81.7918C114.892 80.032 112.791 77.2221 110.549 78.3291C110.067 78.5561 110.492 79.2941 110.975 79.067Z" fill="#161616"/>
<path d="M172.537 70.355C173.446 73.0514 172.055 75.3504 168.166 82.2758C161.638 93.7992 161.241 94.821 159.737 96.6374C156.189 100.895 154.174 103.307 150.456 104.868C143.672 107.707 136.151 105.209 132.035 103.648C128.203 102.172 125.365 100.27 123.52 98.8513C122.271 97.8295 121.306 97.0348 120.682 96.5523C119.376 95.5021 118.78 95.048 118.27 94.1398C118.241 94.1114 117.759 93.2315 117.645 92.2381C117.219 89.2012 120.228 86.6467 120.455 86.448C116.85 87.2995 115.602 87.1292 115.374 86.6183C114.835 85.483 118.752 81.3108 121.505 82.2474C122.811 82.6731 123.464 84.149 123.946 85.2276C124.883 87.2711 124.769 89.1728 124.656 90.1378C126.387 91.3299 128.856 92.7206 132.007 93.6573C138.223 95.4738 143.559 94.5087 146.198 93.8276C147.646 91.5002 150.001 87.6969 152.868 82.957C160.702 69.9577 162.774 65.8422 166.378 65.7854C169.075 65.757 171.743 67.9993 172.537 70.355Z" fill="white" stroke="#161616" stroke-width="0.567654"/>
<path d="M120.2 87.1866C117.759 87.073 117.419 90.2235 117.107 92.0116C117.39 92.04 117.674 92.0968 117.93 92.1252C117.958 90.9899 118.469 90.0532 119.008 89.0882C119.292 88.6057 118.554 88.18 118.27 88.6625C117.163 90.4506 116.482 92.6644 118.015 94.4242C118.213 94.2255 118.412 94.0268 118.611 93.8281C118.185 93.4592 117.958 92.9767 117.93 92.3806C117.646 92.409 117.362 92.4658 117.107 92.4941C117.248 92.9483 117.419 93.374 117.646 93.7998C117.901 94.2823 118.639 93.8565 118.384 93.374C118.185 93.0334 118.015 92.6644 117.93 92.2671C117.816 91.813 117.05 91.8981 117.107 92.3806C117.192 93.2037 117.447 93.8281 118.043 94.4242C118.441 94.8215 119.008 94.2255 118.639 93.8281C117.39 92.3806 118.185 90.5357 119.037 89.0882C118.781 88.9463 118.554 88.8044 118.299 88.6625C117.674 89.7694 117.135 90.8196 117.107 92.1252C117.078 92.6077 117.873 92.7212 117.93 92.2387C118.157 90.9331 118.355 87.9813 120.2 88.0381C120.74 88.0664 120.74 87.215 120.2 87.1866Z" fill="white"/>
<path opacity="0.21" d="M168.195 66.9492C166.407 71.7459 163.512 78.5861 158.942 86.3346C154.287 94.2534 151.846 98.227 147.646 100.327C139.017 104.613 125.706 101.718 121.221 93.5155C119.859 91.0178 119.547 88.4917 119.547 86.5901C118.468 86.959 116.794 87.3564 115.176 86.732C111.543 85.2845 111.202 79.8634 109.272 79.9201C107.995 79.9769 107.058 82.3894 106.718 83.2693C106.405 84.064 105.895 85.3696 106.207 86.732C106.661 88.7472 108.79 90.3366 111.458 90.8475C112.848 91.5287 113.728 92.295 114.267 92.891C115.204 93.9128 115.46 94.7075 116.453 95.19C117.333 95.6158 118.269 95.559 118.894 95.4455C120.228 96.524 122.328 98.1418 125.053 99.8164C130.9 103.393 137.967 107.707 145.971 106.231C149.746 105.55 152.329 103.818 153.918 102.768C156.501 101.037 159.283 98.4257 164.562 88.9174C166.747 84.9723 169.444 79.7214 172.14 73.2502C172.253 72.9664 172.878 71.2918 171.998 69.532C170.919 67.2047 168.337 66.9492 168.195 66.9492Z" fill="#6D6C6C"/>
<path opacity="0.22" d="M114.495 86.6756C114.098 86.9594 114.268 87.5271 113.786 87.9528C113.445 88.2367 112.991 88.2367 112.707 88.2367C112.707 88.634 112.65 89.1449 112.338 89.599C111.941 90.1667 111.401 90.2802 111.43 90.5073C111.487 90.7627 112.281 90.6208 113.048 91.0466C113.587 91.3588 113.927 91.8413 114.126 92.2102C115.999 90.4221 117.873 88.6624 119.746 86.8743C118.327 87.4136 117.277 87.3284 116.567 87.1581C115.659 86.8743 114.978 86.335 114.495 86.6756Z" fill="#6D6C6C"/>
<path d="M172.312 64.7915C170.411 66.6931 169.417 68.8502 167.487 73.1644C165.954 76.5419 163.485 82.1901 162.662 89.7115C161.754 98.1128 163.882 100.014 162.18 106.259C160.902 110.97 158.49 114.433 156.702 116.533C159.001 118.832 163.173 122.38 169.389 124.565C179.919 128.255 189.172 125.474 192.208 124.395C194.735 117.583 197.232 110.771 199.758 103.988C199.787 98.2263 200.014 93.3161 200.241 89.5128C200.808 80.4303 201.745 73.4766 202.341 69.2475C203.022 64.2806 203.732 60.1083 204.271 57.043C197.885 57.3836 192.606 58.1215 188.831 58.8027C176.456 61.0733 173.533 63.571 172.312 64.7915Z" fill="white" stroke="#161616" stroke-width="0.567654"/>
<path opacity="0.19" d="M187.355 59.003C188.632 62.0399 190.278 66.9501 190.647 73.1092C191.527 87.7547 184.46 99.2213 179.095 107.906C176.654 111.852 172.879 117.329 167.288 123.261C169.445 124.397 172.539 125.674 176.427 126.298C183.466 127.434 189.2 125.731 192.038 124.652C194.422 117.784 196.778 110.943 199.162 104.075C199.304 99.3916 199.559 94.5381 199.928 89.5995C200.78 78.0761 202.17 67.2623 203.873 57.2148C198.367 57.8109 192.861 58.4069 187.355 59.003Z" fill="#6D6C6C"/>
<path opacity="0.11" d="M192.435 58.1218C194.478 63.401 196.607 71.0927 196.124 80.3455C194.762 106.089 174.383 121.671 170.864 124.282C173.021 125.048 175.944 125.843 179.492 126.07C184.771 126.411 189.057 125.332 191.697 124.424C194.308 117.555 196.947 110.715 199.559 103.846C199.559 97.5738 199.786 90.8755 200.325 83.7798C201.063 74.2148 202.283 65.3594 203.759 57.3555C199.984 57.6109 196.21 57.8664 192.435 58.1218Z" fill="#6D6C6C"/>
<path d="M203.22 56.6719C205.519 57.5234 208.896 59.1696 211.337 62.4903C214.062 66.2085 214.658 70.6929 213.097 84.9127C211.65 98.139 210.401 100.977 209.918 108.924C209.379 117.666 210.202 124.819 210.968 129.388C214.204 128.622 217.44 127.856 220.675 127.089C224.195 128.026 226.323 129.757 227.374 130.808C228.424 131.829 230.638 133.986 230.013 135.746C229.616 136.881 228.168 137.449 227.544 137.676C226.323 138.159 225.302 138.102 224.195 138.017C221.839 137.875 219.483 137.79 217.127 137.676C215.907 137.619 214.147 137.563 212.019 137.676C214.885 140.145 216.106 141.735 215.737 142.444C215.226 143.381 211.82 142.728 205.491 140.514C205.207 138.215 204.753 134.724 204.071 130.467C202.312 119.341 201.034 115.367 200.183 109.464C199.303 103.361 199.587 97.8552 200.183 86.8711C200.637 79.0942 201.46 68.8197 203.22 56.6719Z" fill="white" stroke="#161616" stroke-width="0.567654"/>
<path d="M216.39 133.9C218.576 132.992 220.846 133.503 222.947 134.44C224.735 135.206 226.494 136.143 227.885 137.505C228.282 137.874 228.878 137.278 228.481 136.909C226.863 135.348 224.848 134.298 222.776 133.475C220.648 132.595 218.349 132.197 216.135 133.106C215.681 133.276 215.908 134.099 216.39 133.9Z" fill="#161616"/>
<path d="M219.172 131.291C222.947 130.553 227.431 132.795 229.503 136.003C229.815 136.457 230.553 136.031 230.241 135.577C227.914 132.029 223.145 129.673 218.945 130.496C218.405 130.582 218.632 131.405 219.172 131.291Z" fill="#161616"/>
<path d="M222.435 129.333C223.939 129.389 225.245 130.042 226.551 130.752C227.033 131.007 227.459 130.269 226.976 130.014C225.529 129.247 224.081 128.538 222.435 128.481C221.896 128.453 221.896 129.304 222.435 129.333Z" fill="#161616"/>
<path opacity="0.16" d="M203.618 57.3516C205.037 60.5588 207.052 65.7812 208.074 72.4796C210.544 88.8848 204.47 97.428 205.548 115.167C205.804 119.567 206.627 126.123 209.238 134.098C211.509 133.361 214.971 132.623 219.03 133.077C221.897 133.417 223.316 133.588 224.735 134.609C226.154 135.631 226.977 136.993 228.425 136.908C228.992 136.88 229.759 136.625 230.071 136.028C230.837 134.638 228.737 132.254 228.027 131.459C227.006 130.295 224.905 128.308 221.045 127.145C217.696 127.826 214.347 128.507 210.998 129.188C210.345 126.293 209.437 121.468 209.351 115.479C209.266 110.37 210.175 104.183 212.019 91.9785C212.36 89.7079 212.786 85.1383 213.666 75.9706C213.949 72.9621 214.177 70.2657 213.155 66.9449C212.644 65.2703 211.395 61.4671 207.705 59.0829C206.144 58.0044 204.64 57.5786 203.618 57.3516Z" fill="#6D6C6C"/>
<path opacity="0.22" d="M209.834 137.504C210.203 138.412 210.998 139.973 212.615 141.194C213.609 141.932 215.34 142.84 215.652 142.471C216.05 142.017 214.546 139.519 212.218 138.27C211.338 137.788 210.458 137.589 209.834 137.504Z" fill="#6D6C6C"/>
<path opacity="0.4" d="M213.013 80.7109C210.43 87.8066 207.336 99.1881 208.187 113.238C208.613 120.418 210.004 126.606 211.48 131.516C210.004 125.896 209.578 121.241 209.436 118.063C209.096 109.576 210.628 104.808 212.218 89.2258C212.615 85.6211 212.871 82.641 213.013 80.7109Z" fill="#6D6C6C"/>
<path opacity="0.22" d="M218.746 130.638C218.689 130.297 221.527 128.992 224.337 129.616C228.112 130.467 229.872 134.441 230.184 135.207C228.85 133.703 226.693 131.745 223.571 131.007C220.931 130.411 218.774 130.922 218.746 130.638Z" fill="#6D6C6C"/>
<path d="M161.867 50.8563C160.674 51.9632 160.419 54.2906 159.937 58.8602C159.397 64.111 159.17 66.779 160.277 68.113C162.292 70.5539 166.635 70.6958 169.643 69.3618C173.191 67.7724 174.412 64.3381 174.724 63.4866C176.115 59.5414 175.661 53.581 171.46 50.8563C168.622 48.983 164.222 48.6708 161.867 50.8563Z" fill="#5222D0"/>
<path d="M167.998 55.0004C168.423 57.0439 170.694 57.2142 172.624 60.4782C174.015 62.834 174.299 65.2465 174.327 66.9779C176.058 66.9495 179.266 66.6089 182.728 64.8208C185.425 63.4017 187.241 61.6135 188.291 60.3931C187.582 59.2294 186.532 57.5264 185.283 55.4829C179.89 46.8261 179.095 46.145 178.017 45.8611C173.646 44.811 167.175 51.1971 167.998 55.0004Z" fill="white" stroke="#161616" stroke-width="0.567654"/>
<path d="M176.825 51.563C175.52 54.3161 174.186 57.0408 172.369 59.5101C172.596 59.4818 172.823 59.4534 173.051 59.425C172.88 59.2263 172.71 58.9992 172.568 58.8006C172.54 58.9709 172.511 59.1412 172.511 59.3115C173.249 58.687 173.817 58.0058 174.328 57.1827C174.072 57.0408 173.845 56.8989 173.59 56.757C173.192 57.6085 172.682 58.1194 171.858 58.4884C172.029 58.7154 172.199 58.9425 172.369 59.1695C173.845 57.7788 175.179 56.2461 176.371 54.5999C176.684 54.1458 175.946 53.7201 175.633 54.1742C174.498 55.7636 173.192 57.2395 171.773 58.5735C171.404 58.9141 171.887 59.425 172.284 59.2547C173.221 58.8289 173.902 58.1478 174.328 57.2111C174.555 56.7286 173.902 56.3029 173.59 56.7854C173.107 57.5233 172.568 58.1478 171.915 58.7438C171.773 58.8573 171.745 59.1128 171.858 59.2547C172.114 59.652 172.142 59.7088 172.483 60.0494C172.682 60.2765 172.994 60.1629 173.164 59.9643C174.981 57.5233 176.315 54.7702 177.62 52.0171C177.79 51.5062 177.053 51.0805 176.825 51.563Z" fill="#161616"/>
<path d="M149.322 29.7653C148.016 32.1779 148.329 34.6188 148.953 39.3871C149.691 44.7798 150.656 49.2927 151.82 52.2728C151.99 52.727 152.444 52.9824 152.927 52.9256C153.551 52.8689 154.488 52.3864 155.027 52.2161C155.708 53.4365 156.843 55.0827 158.603 56.6154C162.094 59.624 165.926 60.3335 167.629 60.5322C169.303 59.9078 173.447 58.0629 176.2 53.6352C178.017 50.6834 178.386 47.9587 178.471 47.3342C178.954 43.2471 177.591 40.0683 176.938 38.7627C177.534 38.3937 178.443 37.7409 179.067 36.634C180.373 34.335 180.316 30.5317 178.244 29.5099C176.683 28.7436 174.214 29.595 172.539 31.7805C172 30.8439 171.177 29.595 169.928 28.3462C169.616 28.034 167.317 25.7066 164.705 24.6565C159.597 22.6413 151.99 24.8551 149.322 29.7653Z" fill="white" stroke="#161616" stroke-width="0.567654"/>
<path d="M156.814 54.8284C158.773 54.3175 159.908 52.6713 160.901 51.0535C161.185 50.5994 160.447 50.1736 160.163 50.6277C159.284 52.0469 158.29 53.5512 156.587 54.0337C156.048 54.1472 156.275 54.9703 156.814 54.8284Z" fill="#161616"/>
<path d="M159.398 50.996C159.966 51.0244 160.42 51.2515 160.789 51.6772C161.158 52.1029 161.754 51.4785 161.385 51.0812C160.874 50.4851 160.164 50.1729 159.398 50.1445C158.83 50.1445 158.83 50.996 159.398 50.996Z" fill="#161616"/>
<path d="M157.241 46.3117C157.241 46.2833 157.241 46.2549 157.241 46.2265C157.241 45.9995 157.042 45.8008 156.815 45.8008C156.588 45.8008 156.389 45.9995 156.389 46.2265C156.389 46.2549 156.389 46.2833 156.389 46.3117C156.389 46.5387 156.588 46.7374 156.815 46.7374C157.042 46.709 157.241 46.5387 157.241 46.3117Z" fill="#161616"/>
<path d="M159.142 44.0429C159.682 44.0429 159.682 43.1914 159.142 43.1914C158.603 43.1914 158.603 44.0429 159.142 44.0429Z" fill="#161616"/>
<path d="M158.886 46.1991C159.426 46.1991 159.426 45.3477 158.886 45.3477C158.347 45.3477 158.347 46.1991 158.886 46.1991Z" fill="#161616"/>
<path d="M148.101 39.4451C147.193 39.1329 145.263 38.3098 144.156 36.4081C142.424 33.4563 143.815 30.022 144.496 28.4042C144.865 27.4959 145.887 25.2537 150.826 20.8544C154.572 17.4768 156.474 15.8023 158.603 14.8656C166.209 11.5448 173.986 14.7237 175.405 15.3197C177.505 16.1712 179.038 17.2214 182.075 19.2649C185.765 21.7626 188.121 23.3804 189.965 26.1619C192.208 29.5679 190.845 30.4477 192.775 34.2794C195.841 40.3533 200.07 39.6154 202.596 45.2351C203.021 46.1718 205.377 51.3942 202.709 55.9638C200.524 59.6819 196.068 61.0159 192.775 60.9308C186.673 60.7605 182.841 55.5381 180.826 52.8133C176.995 47.6193 176.257 42.113 176.086 39.1612C178.499 37.9408 179.435 35.3296 178.556 33.5131C177.874 32.0656 175.888 30.8451 174.156 31.583C172.964 32.0939 172.198 33.4563 172.226 34.9606C171.091 35.1593 167.6 35.585 163.995 33.5982C161.327 32.1507 159.88 30.1071 159.255 29.0854C157.666 29.7098 155.111 30.9019 152.585 33.2576C150.173 35.5282 148.81 37.9124 148.101 39.4451Z" fill="#5222D0"/>
<path opacity="0.24" d="M166.607 41.0903C169.757 44.0421 171.29 47.3061 171.772 48.413C173.759 52.9543 173.646 57.1265 173.447 59.2552C174.469 57.5239 175.462 55.7925 176.484 54.0328C178.13 57.7226 179.748 61.4123 181.394 65.0737C182.274 64.875 184.005 64.3641 185.68 62.8882C186.957 61.7529 187.638 60.5325 187.979 59.7661C185.595 58.0632 180.912 54.2031 178.187 47.5616C176.881 44.3827 176.37 41.4309 176.2 39.217C178.499 37.9682 179.464 35.4705 178.698 33.5973C178.159 32.2349 176.484 30.7022 174.639 31.2131C173.078 31.6388 172 33.3134 172.255 35.1867C171.063 35.3286 168.225 35.5273 165.074 34.1365C161.81 32.689 160.022 30.3332 159.341 29.3398C160.107 34.3636 162.037 37.0883 163.655 38.6494C164.677 39.6995 165.103 39.6995 166.607 41.0903Z" fill="#6D6C6C"/>
<path opacity="0.24" d="M176.257 42.4531C176.058 42.4531 176.172 45.3765 175.888 48.0729C175.519 51.5356 174.497 54.2887 173.646 56.1336C174.412 55.6511 175.547 54.7428 176.541 53.3237C177.96 51.2518 178.215 49.2082 178.3 48.2148C178.045 47.8175 177.704 47.2498 177.392 46.5402C176.399 44.2696 176.427 42.4531 176.257 42.4531Z" fill="#6D6C6C"/>
<path opacity="0.19" d="M177.25 52.3034C177.932 53.013 178.897 53.9496 180.146 54.9714C183.92 58.1219 187.582 59.91 187.695 59.7113C187.809 59.5126 184.233 58.0651 181.508 54.1483C179.805 51.7074 178.812 48.8123 178.386 48.9542C178.187 49.011 178.357 49.6922 178.017 50.7991C177.79 51.4519 177.478 51.9628 177.25 52.3034Z" fill="#6D6C6C"/>
<path opacity="0.74" d="M180.401 18.2148C183.75 24.0049 186.134 29.057 187.752 32.8036C192.265 43.3336 191.896 46.2286 191.271 48.1019C189.881 52.3309 186.021 54.715 183.722 55.8503C184.289 56.6451 186.645 59.7955 190.959 60.6754C191.782 60.8457 196.749 61.7823 200.524 58.348C203.334 55.822 203.76 52.4728 203.845 51.5929C204.356 46.8246 201.518 43.2484 200.609 42.2266C199.417 40.8926 199.162 41.2049 196.38 38.5085C194.223 36.4366 193.173 35.3864 192.549 34.0808C191.555 31.9521 192.208 31.0438 191.044 28.3475C190.42 26.8716 189.682 25.8782 189.143 25.1118C186.39 21.3937 182.416 19.2082 180.401 18.2148Z" fill="#2C167C"/>
<path opacity="0.52" d="M160.221 60.3613C160.476 63.6537 163.485 66.0379 166.635 65.5838C169.672 65.1296 171.858 62.1778 171.318 59.0273C171.886 59.6801 172.681 60.7587 173.248 62.2346C173.702 63.3983 173.873 64.4484 173.929 65.2148C173.504 65.9243 171.29 69.4438 167.146 70.125C166.436 70.2385 162.406 70.8346 160.504 68.422C159.596 67.23 159.511 65.7824 159.454 64.6187C159.398 62.7171 159.88 61.2128 160.221 60.3613Z" fill="#2C167C"/>
<path d="M154.885 41.6295C155.169 42.1971 155.169 43.0202 154.8 43.1905C154.431 43.3892 153.721 42.8499 153.466 42.2255C153.267 41.6863 153.324 40.9199 153.693 40.778C154.09 40.6361 154.658 41.147 154.885 41.6295Z" fill="#161616"/>
<path d="M152.558 40.9764C153.551 40.6358 154.573 40.3804 155.623 40.2101C156.021 40.1533 155.85 39.5289 155.453 39.5857C154.403 39.756 153.381 40.0114 152.388 40.352C151.99 40.4939 152.161 41.09 152.558 40.9764Z" fill="#161616"/>
</svg>
