<svg width="184" height="140" viewBox="0 0 184 140" fill="none" xmlns="http://www.w3.org/2000/svg">
<g filter="url(#filter0_d)">
<path d="M121.84 101.222C131.163 102.358 139.163 108.108 145.746 108.896C153.063 109.771 164.128 104.964 175.411 110.622C178.315 112.078 180.7 113.829 179.812 116.004C178.263 119.794 175.005 121.279 167.866 122.309L167.105 122.414C161.587 123.148 155.656 123.326 140.621 123.425L135.484 123.464C117.156 123.624 106.557 124.482 92.8325 125.578L91.4336 125.692C66.1595 127.771 45.9853 127.438 30.9108 125.133L30.4556 125.062C18.2765 123.155 10.9541 119.999 7.37978 116.419C5.27557 114.311 4.06349 112.346 4.00093 110.246C3.93837 108.145 7.04182 105.836 8.80875 104.964C13.7308 102.536 15.3368 101.655 24.7993 100.411C28.8736 99.8761 34.9775 99.9188 42.0331 99.6806C67.3438 98.8261 106.445 99.3444 121.84 101.222Z" fill="white"/>
<path fill-rule="evenodd" clip-rule="evenodd" d="M129.234 105.808C114.886 138.284 62.9619 137.238 26.8326 115.072C19.9326 110.839 -3.78577 90.8865 19.5587 79.2354C42.9032 67.5844 35.4259 49.6884 54.2657 28.3433C76.0531 3.65879 116.627 -9.00168 145.162 24.2103C217.688 108.623 134.066 94.8727 129.234 105.808Z" fill="#FFD90F"/>
<path fill-rule="evenodd" clip-rule="evenodd" d="M33.3168 19.6905C32.0232 17.612 30.7269 16.8145 29.4518 17.5043C28.3724 18.0884 28.1929 19.6483 28.7672 22.1438L28.423 22.3294C27.95 22.5845 27.7733 23.1746 28.0284 23.6476C28.0504 23.6885 28.0754 23.7278 28.1031 23.7651L28.2875 24.012C30.9804 27.5841 33.1141 29.0471 34.7789 28.2426C36.1782 27.5664 36.4145 24.6861 35.6946 19.474C35.6442 19.109 35.3189 18.8496 34.9566 18.8759L34.9111 18.8807C34.8289 18.892 34.7494 18.918 34.6763 18.9574L33.3168 19.6905ZM29.4987 21.5843L32.5008 19.9601L32.4937 19.9491C31.4614 18.3479 30.5867 17.8385 29.8487 18.2379L29.8148 18.2573C29.2698 18.59 29.1188 19.6349 29.4659 21.4209L29.4987 21.5843ZM34.8952 19.7867L28.8188 23.0635C28.7513 23.0999 28.726 23.1842 28.7625 23.2518C28.7656 23.2576 28.7692 23.2632 28.7731 23.2686L28.9521 23.5081C31.4134 26.7729 33.2646 28.0481 34.416 27.4917C35.2908 27.0689 35.5204 24.5013 34.9118 19.9081L34.8952 19.7867ZM33.6537 25.0405C33.7966 24.8908 33.8844 24.6879 33.8844 24.4646C33.8844 24.004 33.511 23.6306 33.0504 23.6306C32.5898 23.6306 32.2164 24.004 32.2164 24.4646C32.2164 24.9252 32.5898 25.2986 33.0504 25.2986C33.0867 25.2986 33.1224 25.2963 33.1575 25.2918L33.6316 26.1621L33.6487 26.1897C33.729 26.3034 33.8835 26.3414 34.0087 26.2732C34.1435 26.1998 34.1933 26.031 34.1198 25.8961L33.6537 25.0405Z" fill="#FFB61D"/>
<path fill-rule="evenodd" clip-rule="evenodd" d="M121.84 101.222C131.163 102.358 139.163 108.108 145.746 108.896C153.063 109.771 164.128 104.964 175.411 110.622C178.315 112.078 180.7 113.829 179.812 116.004C178.263 119.794 175.005 121.279 167.866 122.309L167.105 122.414C161.587 123.148 155.656 123.326 140.621 123.425L135.484 123.464C117.156 123.624 106.557 124.482 92.8325 125.578L91.4336 125.692C66.1595 127.771 45.9853 127.438 30.9108 125.133L30.4556 125.062C18.2765 123.155 10.9541 119.999 7.37978 116.419C5.27557 114.311 4.06349 112.346 4.00093 110.246C3.93837 108.145 7.04182 105.836 8.80875 104.964C13.7308 102.536 15.3368 101.655 24.7993 100.411C28.8736 99.8761 34.9775 99.9188 42.0331 99.6806C67.3438 98.8261 106.445 99.3444 121.84 101.222ZM24.5904 102.171L23.9703 102.253C15.1522 103.449 9.51529 105.625 6.84497 107.794L6.67831 107.933C4.6279 109.7 4.43622 111.686 7.38353 114.623C10.6061 117.833 18.8254 121.456 30.6768 123.302C45.5138 125.614 65.4613 126.285 90.512 124.275L93.1382 124.063C107.601 122.926 118.697 122.321 139.233 122.177L144.902 122.134C157.128 122.024 162.325 121.805 167.341 121.108L167.818 121.039C189.971 116.706 173.986 108.931 164.816 108.896C156.962 108.866 147.529 111.075 144.902 110.248C136.622 107.642 132.371 103.651 121.84 102.375L118.778 102.008L116.164 101.884C73.3212 99.894 42.7885 99.7922 24.5904 102.171Z" fill="#00160A"/>
<path d="M52.3371 1.49965C52.185 1.49475 52.0327 1.49492 51.8806 1.50015C48.1316 1.62906 45.1888 4.7426 45.2567 8.4815L45.2597 8.59499L45.3057 9.99598C45.4374 14.2041 45.5098 18.3956 45.5229 22.5705L45.5456 35.4159C45.5506 40.0392 45.5478 44.2119 45.5343 48.298L45.5157 52.6314C45.4428 66.4278 45.2463 76.1104 44.8816 80.325L44.8111 81.1132C44.3709 86.2642 44.2797 93.6625 44.5408 103.291C44.5438 103.402 44.5494 103.514 44.5576 103.625C44.8461 107.528 48.2135 110.469 52.1086 110.244L52.2268 110.237L53.5214 110.142C65.6215 109.279 77.7219 108.847 89.8223 108.847C101.666 108.847 113.601 109.261 125.626 110.088C125.974 110.112 126.323 110.114 126.671 110.094C131.231 109.837 134.729 105.968 134.545 101.42L134.539 101.282L134.447 99.6422C133.64 84.8681 133.222 70.094 133.193 55.32L133.192 53.6784C133.192 42.9102 133.696 28.142 134.704 9.36739C134.716 9.15706 134.718 8.94635 134.711 8.73582C134.585 4.66036 131.211 1.45051 127.149 1.51089L127.026 1.51372L120.878 1.70013C106.91 2.11211 96.7389 2.32739 90.3588 2.3459L89.2652 2.34713L88.1402 2.34421C81.6274 2.31624 71.5448 2.09288 57.8867 1.67418L52.3371 1.49965Z" fill="white"/>
<path fill-rule="evenodd" clip-rule="evenodd" d="M126.549 1.11567C126.057 1.38552 125.408 1.57534 124.602 1.68486C126.676 1.86905 128.306 1.82607 129.493 1.55606L129.236 1.52429C128.4 1.41874 127.505 1.28253 126.549 1.11567Z" fill="#E7EAEE"/>
<path fill-rule="evenodd" clip-rule="evenodd" d="M48.5641 100.527L48.6219 100.53C48.9802 100.554 49.2329 100.834 49.2 101.143C49.1622 101.497 48.7844 101.84 48.3718 101.868C48.0439 101.891 47.8161 101.638 47.8524 101.247C47.8906 100.836 48.2125 100.529 48.5641 100.527Z" fill="#E7EAEE"/>
<path fill-rule="evenodd" clip-rule="evenodd" d="M55.1261 105.898L55.1839 105.901C55.5422 105.925 55.7949 106.205 55.762 106.514C55.7243 106.868 55.3464 107.211 54.9338 107.239C54.6059 107.262 54.3781 107.01 54.4145 106.618C54.4526 106.207 54.7745 105.9 55.1261 105.898Z" fill="#E7EAEE"/>
<path fill-rule="evenodd" clip-rule="evenodd" d="M89.8947 105.546C75.6577 108.688 102.389 108.133 112.817 107.445C118.492 107.07 123.024 109.905 125.626 110.084C125.974 110.108 126.323 110.11 126.671 110.091C131.231 109.833 134.728 105.964 134.545 101.416L134.538 101.278L134.447 99.6383C133.64 84.8643 133.222 70.0902 133.193 55.3161L133.192 53.6745C133.192 42.9064 133.696 28.1382 134.704 9.36353C134.715 9.1532 134.718 8.94249 134.711 8.73196C134.584 4.6565 126.775 97.4067 89.8947 105.546Z" fill="#E7EAEE"/>
<path d="M132.12 101.75L132.171 101.752C132.43 101.773 132.642 102.043 132.612 102.373C132.578 102.738 132.263 103.066 131.949 103.091C131.728 103.109 131.541 102.871 131.574 102.463C131.608 102.046 131.869 101.756 132.12 101.75Z" fill="white"/>
<path fill-rule="evenodd" clip-rule="evenodd" d="M132.031 104.133C131.104 104.206 130.452 103.378 130.533 102.38C130.612 101.411 131.35 100.641 132.236 100.711C133.108 100.78 133.734 101.576 133.651 102.471C133.571 103.33 132.864 104.067 132.031 104.133ZM132.17 101.753L132.12 101.751C131.869 101.758 131.608 102.047 131.574 102.464C131.541 102.872 131.727 103.11 131.948 103.092C132.263 103.068 132.577 102.739 132.611 102.374C132.642 102.044 132.43 101.774 132.17 101.753Z" fill="white"/>
<path d="M123.302 7.51172C126.597 7.51172 129.268 10.1828 129.268 13.4776C129.268 13.601 129.264 13.7243 129.257 13.8473L129.169 15.3089C129.009 18.0828 128.849 21.3763 128.69 25.1893L128.665 25.7997C128.276 36.0569 128.263 60.323 128.628 98.5982C128.66 101.893 126.014 104.589 122.72 104.621C122.639 104.621 122.559 104.621 122.479 104.618L57.0262 102.599C53.9956 102.505 51.5171 100.153 51.2649 97.1319L51.2094 96.4496C50.3474 85.5844 50.2961 71.7108 51.0555 54.8289L51.1668 52.4079C51.5547 43.5241 51.5851 30.5856 51.2581 13.5924C51.1954 10.3324 53.7596 7.63297 57.0055 7.51567L57.1656 7.51199L123.302 7.51172Z" fill="white"/>
<path fill-rule="evenodd" clip-rule="evenodd" d="M79.2959 77.8698C82.1875 77.9915 85.1569 77.4787 87.732 76.2205C90.9573 74.6446 93.3841 72.0008 94.7274 68.2096C96.4967 63.2164 95.8469 57.8172 93.3033 53.065C91.0394 48.8354 87.48 45.6163 84.199 44.8203C84.199 44.8203 93.3033 57.6271 91.999 64.6282C90.0047 75.333 79.2959 77.8698 79.2959 77.8698Z" fill="#E7EAEE"/>
<path fill-rule="evenodd" clip-rule="evenodd" d="M81.3981 62.8281C82.8054 63.4119 83.2351 64.4965 82.6871 66.0822L82.6556 66.1708C79.092 75.9556 74.8896 76.0446 78.4856 66.1708C78.9213 64.9745 78.8133 64.0569 78.1616 63.4179C79.3133 63.184 80.3921 62.9874 81.3981 62.8281Z" fill="#E7EAEE"/>
<path fill-rule="evenodd" clip-rule="evenodd" d="M59.0783 51.3872C60.0003 48.6477 61.3467 46.5883 63.863 44.9601L64.1827 44.7574C64.7256 44.4166 65.3949 44.0307 65.9392 44.2943C66.6308 44.6292 67.6322 45.8498 67.0229 46.329C66.6098 46.6539 64.909 46.9995 63.6269 48.1226C62.1134 49.4486 61.024 51.5852 61.024 52.1084C61.024 53.8152 58.5339 53.0049 59.0783 51.3872Z" fill="#E7EAEE"/>
<path fill-rule="evenodd" clip-rule="evenodd" d="M56.2281 12.3451C53.0629 21.036 53.0845 22.7604 52.8945 21.2625C52.2803 16.4179 51.817 13.2343 52.5468 11.3005C53.4708 8.85219 55.7872 8.37059 56.3838 8.65475C57.6452 9.25552 56.2281 12.3451 56.2281 12.3451Z" fill="#E7EAEE"/>
<path fill-rule="evenodd" clip-rule="evenodd" d="M108.304 57.0156L107.25 56.9834C106.001 56.9516 105.101 56.9591 104.345 57.0181C103.739 57.0655 103.286 57.1483 103.029 57.2293L102.979 57.2463L102.973 57.2702C102.945 57.4119 102.925 57.6017 102.916 57.8309L102.913 57.9186C102.896 58.6067 102.979 59.5258 103.145 60.5523C103.28 61.394 103.465 62.2684 103.658 63.0053L103.707 63.1865C103.782 63.4615 103.854 63.7006 103.917 63.8868L103.94 63.9532L103.968 63.9635C104.356 64.1014 105.127 64.1177 106.614 64.0081L107.624 63.9292C108.305 63.8792 108.801 63.8576 109.29 63.8637L114.037 63.9631C114.702 63.9755 115.302 63.9852 115.889 63.993L116.956 64.0051C119.619 64.1601 122.546 64.0438 122.91 63.381C124.021 61.359 124.544 57.195 124.021 57.1672C123.079 57.1171 121.938 57.058 121.396 57.0652L120.146 57.0878L119.011 57.0969C118.493 57.0999 117.953 57.1015 117.373 57.102L110.867 57.087C110.444 57.0841 110.03 57.0738 109.283 57.0491L108.304 57.0156Z" fill="#E7EAEE"/>
<path fill-rule="evenodd" clip-rule="evenodd" d="M58.4154 0.193572L52.3847 0.00432503C52.1995 -0.00163797 52.0141 -0.00143494 51.8289 0.00493377C47.2188 0.163462 43.6101 4.02921 43.7686 8.63933L43.8146 10.038C43.8686 11.7653 43.9508 13.4897 44.0329 15.2113C44.1723 18.1346 44.3113 21.0498 44.3113 23.9569L44.3306 34.5004C44.3492 49.204 44.3047 73.4194 43.6516 80.4333L43.6025 80.9839C43.178 85.9534 42.7966 92.9453 43.0144 101.96L43.0495 103.327C43.0531 103.461 43.0599 103.596 43.0698 103.73C43.4219 108.495 47.5699 112.072 52.3345 111.719L53.6271 111.626L53.8413 111.61C53.8844 111.682 53.9282 111.755 53.9715 111.826C54.1808 112.172 54.3764 112.495 54.4219 112.653C54.5365 113.053 54.5486 113.506 54.4824 114.53L54.4153 115.49L54.3971 115.802C54.2994 117.716 54.5204 118.855 55.4542 119.713C56.6552 120.815 57.9275 120.698 60.5344 120.459L60.6516 120.448L61.3227 120.383C62.0983 120.308 62.9704 120.369 63.5647 120.41L63.5649 120.41C63.7361 120.422 63.8841 120.432 64.0002 120.437L64.2197 120.448C65.7155 120.508 65.953 120.015 66.084 118.798C66.1561 118.128 66.0621 117.6 65.6681 116.238L65.3731 115.235L65.2753 114.886C64.8149 113.185 64.857 112.336 65.4567 111.925C65.6022 111.825 66.21 111.645 66.911 111.436C67.6321 111.222 68.4518 110.978 68.9682 110.763C75.9194 110.477 82.8707 110.334 89.822 110.334C97.1258 110.334 104.464 110.492 111.838 110.807C111.789 110.887 111.78 111.002 111.832 111.163C111.891 111.344 112.113 111.47 112.396 111.63C113.148 112.055 114.332 112.725 114.057 115.327L114.058 115.433C114.099 117.484 115.342 118.687 117.342 119.095C118.679 119.368 120.2 119.286 121.857 118.999C122.677 118.857 123.205 118.344 123.457 117.562C123.597 117.131 123.646 116.743 123.679 115.971C123.679 115.971 123.314 111.96 125.343 111.559C125.403 111.563 125.463 111.567 125.524 111.571C125.759 111.588 125.994 111.595 126.229 111.595C126.261 111.602 126.293 111.61 126.325 111.619C126.422 111.645 126.515 111.63 126.599 111.587C126.651 111.584 126.703 111.582 126.755 111.579C132.183 111.272 136.334 106.623 136.027 101.195L135.936 99.5562C135.101 84.2621 134.683 68.9679 134.683 53.6738C134.683 43.2588 135.157 29.0741 136.104 11.1195L136.193 9.44275C136.207 9.19036 136.21 8.9375 136.202 8.68487C136.048 3.74492 131.919 -0.135213 126.979 0.0183482L123.848 0.1145C108.333 0.584902 97.1692 0.830006 90.3566 0.849813L89.266 0.851034C82.9057 0.846116 72.6221 0.626962 58.4154 0.193572ZM123.307 111.424C119.859 111.201 116.419 111.012 112.987 110.858C114.631 111.656 115.216 113.145 115.249 115.205L115.25 115.327C115.25 116.659 116.287 117.53 117.681 117.814C117.828 117.844 117.977 117.877 118.13 117.91C119.094 118.119 120.195 118.358 121.417 118.157L121.602 118.126C122.447 117.814 122.447 114.779 122.447 114.779C122.456 114.533 122.465 114.372 122.479 114.176L122.497 113.956C122.603 112.851 122.834 112.026 123.307 111.424ZM55.8556 112.242C55.7745 111.959 55.6589 111.71 55.5095 111.495C58.4359 111.297 61.3624 111.124 64.2888 110.977C63.8316 111.486 63.7887 112.174 63.7718 112.997C63.7573 113.705 63.9005 114.458 64.2016 115.52L64.2197 115.583L64.4952 116.521C64.8325 117.68 64.9339 118.164 64.9054 118.57L64.8993 118.639C64.8588 119.016 64.3749 119.441 63.5574 119.393L63.4111 119.386C63.0607 119.332 59.6074 119.393 59.6074 119.393C58.0129 119.554 57.2452 119.332 56.463 118.614C55.9378 118.132 55.797 117.276 55.9005 115.636L55.965 114.716C56.046 113.513 56.0393 112.95 55.8878 112.36L55.8556 112.242ZM51.8802 1.49553C52.0323 1.4903 52.1846 1.49014 52.3367 1.49503L57.8864 1.66957C71.5444 2.08827 81.627 2.31163 88.1398 2.3396L89.2648 2.34251L90.3584 2.34129C96.7385 2.32277 106.909 2.1075 120.877 1.69552L127.025 1.50911L127.149 1.50628C131.211 1.4459 134.584 4.65575 134.711 8.73121C134.718 8.94174 134.715 9.15245 134.704 9.36278C133.696 28.1374 133.191 42.9056 133.191 53.6738L133.193 55.3153C133.222 70.0894 133.64 84.8635 134.447 99.6376L134.538 101.278L134.545 101.416C134.728 105.963 131.23 109.832 126.671 110.09C126.323 110.11 125.974 110.107 125.626 110.084C113.601 109.256 101.666 108.843 89.822 108.843C77.7215 108.843 65.6212 109.274 53.521 110.138L52.2264 110.232L52.1082 110.24C48.2131 110.464 44.8457 107.524 44.5572 103.62C44.549 103.509 44.5434 103.398 44.5404 103.286C44.2793 93.6579 44.3705 86.2596 44.8107 81.1086L44.8812 80.3204C45.2459 76.1058 45.4424 66.4232 45.5153 52.6268L45.5339 48.2934C45.5474 44.2073 45.5502 40.0346 45.5452 35.4113L45.5226 22.5659C45.5094 18.391 45.437 14.1995 45.3053 9.99137L45.2593 8.59038L45.2563 8.47689C45.1884 4.73799 48.1312 1.62445 51.8802 1.49553ZM129.268 13.478C129.268 10.1831 126.597 7.5121 123.302 7.5121L57.165 7.51238L57.0049 7.51605C53.7591 7.63336 51.1949 10.3328 51.2576 13.5928C51.5845 30.586 51.5541 43.5245 51.1663 52.4083L51.0549 54.8293C50.2955 71.7112 50.3468 85.5848 51.2089 96.45L51.2644 97.1323C51.5166 100.154 53.995 102.506 57.0257 102.599L122.478 104.619C122.558 104.621 122.639 104.622 122.719 104.621C126.014 104.59 128.659 101.893 128.628 98.5986C128.263 60.3234 128.275 36.0573 128.665 25.8001L128.689 25.1896C128.849 21.3766 129.008 18.0832 129.169 15.3092L129.256 13.8477C129.264 13.7246 129.268 13.6013 129.268 13.478ZM57.2224 9.00358H123.302C125.773 9.00358 127.776 11.0069 127.776 13.478C127.776 13.5705 127.773 13.663 127.768 13.7553C127.611 16.2711 127.456 19.2744 127.301 22.7659L127.199 25.1273C126.805 34.5503 126.767 57.1157 127.083 92.8595L127.136 98.6128C127.16 101.084 125.176 103.106 122.705 103.13C122.645 103.13 122.584 103.13 122.524 103.128L57.0717 101.108L56.9731 101.104C54.7452 100.987 52.9371 99.2416 52.7507 97.0082C51.8322 86.0025 51.7708 71.7841 52.5691 54.3623L52.6441 52.7501C53.0206 44.3673 53.0741 32.3457 52.8054 16.6764L52.7488 13.5641C52.7012 11.0934 54.6656 9.05195 57.1363 9.00441C57.165 9.00386 57.1937 9.00358 57.2224 9.00358ZM54.9364 4.42939C55.0306 5.44336 54.2958 6.25709 53.3058 6.18896C52.4004 6.12665 51.604 5.4037 51.5112 4.53304L51.5057 4.46939C51.4481 3.60312 52.1118 2.86672 53.0022 2.77227L53.0694 2.7664C54.0189 2.70105 54.8456 3.45152 54.9364 4.42939ZM53.1852 3.80655L53.1274 3.80873C52.7691 3.83357 52.5164 4.11343 52.5493 4.42231C52.587 4.77594 52.9649 5.11899 53.3775 5.14738C53.7054 5.16995 53.9332 4.91767 53.8968 4.52596C53.8587 4.11527 53.5368 3.80804 53.1852 3.80655ZM47.9066 12.3378C46.8746 12.4294 46.1791 11.4364 46.2649 10.2455C46.349 9.07831 47.1505 8.14023 48.1431 8.22829L48.2071 8.2353C49.1188 8.35387 49.7485 9.25062 49.6969 10.2558L49.6922 10.3261C49.6072 11.3536 48.8367 12.2553 47.9066 12.3378ZM48.0665 9.26939L48.0158 9.26692C47.6992 9.2708 47.351 9.69861 47.3062 10.3206C47.2614 10.9419 47.5285 11.3232 47.8144 11.2978C48.2023 11.2634 48.6061 10.7909 48.6517 10.24C48.6948 9.71848 48.4013 9.29933 48.0665 9.26939ZM125.189 4.42939C125.095 5.44336 125.83 6.25709 126.82 6.18896C127.725 6.12665 128.522 5.4037 128.615 4.53304L128.62 4.46939C128.678 3.60312 128.014 2.86672 127.124 2.77227L127.057 2.7664C126.107 2.70105 125.28 3.45152 125.189 4.42939ZM126.941 3.80655L126.998 3.80873C127.357 3.83357 127.61 4.11343 127.577 4.42231C127.539 4.77594 127.161 5.11899 126.748 5.14738C126.42 5.16995 126.193 4.91767 126.229 4.52596C126.267 4.11527 126.589 3.80804 126.941 3.80655ZM130.749 10.6312C130.195 9.80793 130.532 8.76475 131.457 8.33934C132.349 7.92907 133.413 8.26977 133.831 9.12473L133.859 9.18586C134.223 10.0042 133.917 10.9471 133.138 11.3304L133.08 11.3575C132.28 11.7124 131.255 11.3842 130.749 10.6312ZM132.899 9.59564L132.872 9.54454C132.695 9.24073 132.268 9.1156 131.893 9.28791C131.536 9.45225 131.431 9.77567 131.615 10.0484C131.846 10.3915 132.332 10.5472 132.657 10.4031C132.941 10.2772 133.057 9.91838 132.899 9.59564ZM47.1694 99.9875C46.4455 100.704 46.4853 101.799 47.2875 102.384C48.0211 102.918 49.0959 102.876 49.7267 102.269L49.7718 102.223C50.3727 101.597 50.3377 100.606 49.7163 99.9614L49.6686 99.9137C48.9832 99.2533 47.8676 99.2968 47.1694 99.9875ZM48.9113 100.636L48.9541 100.675C49.2127 100.924 49.2264 101.301 49.0026 101.516C48.7464 101.763 48.2364 101.783 47.9021 101.54C47.6364 101.346 47.624 101.006 47.9037 100.73C48.1969 100.44 48.6409 100.411 48.9113 100.636ZM53.85 107.753C53.0478 107.169 53.008 106.073 53.7319 105.357C54.4301 104.666 55.5457 104.623 56.2311 105.283L56.2788 105.331C56.9002 105.975 56.9352 106.966 56.3343 107.593L56.2892 107.638C55.6584 108.245 54.5836 108.287 53.85 107.753ZM55.5166 106.044L55.4738 106.005C55.2035 105.781 54.7594 105.809 54.4662 106.099C54.1865 106.376 54.1989 106.715 54.4646 106.909C54.7989 107.152 55.3089 107.132 55.5651 106.886C55.7889 106.67 55.7752 106.294 55.5166 106.044ZM127.295 105.704C126.464 106.542 126.442 107.775 127.327 108.409C128.138 108.99 129.352 108.875 130.078 108.16C130.831 107.419 130.853 106.227 130.112 105.502C129.363 104.768 128.105 104.887 127.295 105.704ZM129.349 106.218L129.391 106.257C129.698 106.558 129.689 107.079 129.346 107.416C128.977 107.78 128.327 107.841 127.935 107.56C127.618 107.333 127.626 106.853 128.037 106.439C128.453 106.019 129.032 105.951 129.349 106.218ZM132.03 104.129C131.104 104.203 130.452 103.374 130.533 102.376C130.611 101.407 131.35 100.638 132.236 100.708C133.108 100.777 133.734 101.572 133.651 102.467C133.571 103.326 132.864 104.064 132.03 104.129ZM132.17 101.749L132.12 101.748C131.869 101.754 131.607 102.043 131.574 102.461C131.541 102.869 131.727 103.106 131.948 103.089C132.263 103.064 132.577 102.735 132.611 102.37C132.642 102.04 132.43 101.77 132.17 101.749Z" fill="#00160A"/>
<path fill-rule="evenodd" clip-rule="evenodd" d="M53.7316 105.356C53.0077 106.073 53.0475 107.168 53.8497 107.752C54.5833 108.287 55.6581 108.245 56.2889 107.638L56.334 107.592C56.9349 106.966 56.8999 105.975 56.2785 105.33L56.2308 105.283C55.5454 104.622 54.4298 104.666 53.7316 105.356ZM55.4735 106.005L55.5163 106.044C55.7749 106.293 55.7885 106.67 55.5648 106.885C55.3086 107.132 54.7986 107.152 54.4643 106.908C54.1986 106.715 54.1862 106.375 54.4659 106.099C54.7591 105.809 55.2031 105.78 55.4735 106.005Z" fill="#00160A"/>
<path d="M129.349 106.222L129.391 106.261C129.698 106.562 129.689 107.083 129.346 107.421C128.977 107.784 128.327 107.845 127.935 107.565C127.617 107.337 127.626 106.857 128.037 106.443C128.453 106.023 129.032 105.955 129.349 106.222Z" fill="white"/>
<path fill-rule="evenodd" clip-rule="evenodd" d="M63.5132 42.1944C63.1689 42.314 62.8583 42.4762 62.4744 42.7126L62.1798 42.8974L62.0337 42.9905C59.8092 44.4263 58.3242 46.2119 57.2676 48.63L57.2111 48.7609L57.1687 48.7482C56.8883 48.6659 56.6341 48.6256 56.3624 48.6482C55.783 48.6964 55.243 49.0435 55.0501 49.6905C54.7488 50.7011 54.8732 51.8567 55.2643 53.0399L55.3377 53.2565C55.7193 54.3533 56.1417 55.0975 56.8439 55.3148C57.7774 55.6036 61.0027 54.3252 62.1274 53.165C62.9296 52.3374 62.6083 51.3253 61.8448 50.7412L61.7747 50.6893L61.7009 50.6383L61.6172 50.5841L61.6732 50.484C61.7122 50.4152 61.7531 50.3453 61.7956 50.2748C62.2517 49.5185 62.822 48.8034 63.3997 48.2973C63.6222 48.1024 63.8794 47.9238 64.1727 47.7571C64.6265 47.4992 66.4363 46.7887 66.741 46.5491C67.7196 45.7794 67.6064 44.6648 66.9875 43.6985C66.6025 43.0976 65.9974 42.5344 65.4125 42.2512C64.798 41.9536 64.1551 41.9715 63.5132 42.1944ZM64.8274 43.4593C65.5191 43.7942 66.5205 45.0148 65.9112 45.494C65.498 45.8189 63.7973 46.1645 62.5152 47.2876C61.0017 48.6136 59.9123 50.7502 59.9123 51.2734L60.0849 51.3382C61.0287 51.7014 61.3883 51.9989 61.1636 52.2307C60.1627 53.2632 57.4422 54.0948 57.2407 54.0325C57.0425 53.9711 55.8687 51.643 56.3365 50.074C56.399 49.8643 56.9424 50.0237 57.9666 50.5522C58.8886 47.8127 60.235 45.7533 62.7513 44.1251L63.0709 43.9224C63.6139 43.5816 64.2831 43.1957 64.8274 43.4593Z" fill="#00160A"/>
<path fill-rule="evenodd" clip-rule="evenodd" d="M65.5497 73.0861C60.0241 67.0475 59.7043 56.7463 65.6737 50.1125C69.3823 45.9911 78.099 43.3366 84.1985 44.8164C87.4795 45.6124 91.0389 48.8315 93.3028 53.0611C95.8464 57.8133 96.4962 63.2125 94.7269 68.2057C93.3836 71.9968 90.9568 74.6407 87.7315 76.2166C85.1564 77.4748 82.187 77.9876 79.2954 77.8659C74.0772 77.6463 67.5884 75.3141 65.5497 73.0861ZM91.9878 53.7649C89.9087 49.8806 86.6688 46.9505 83.8469 46.2658L83.679 46.2264C78.1151 44.9645 70.0891 47.4353 66.7824 51.1101C61.3386 57.1599 61.6314 66.5947 66.65 72.0792C68.382 73.972 74.5012 76.1713 79.3581 76.3757C82.0169 76.4876 84.7428 76.0169 87.0768 74.8765C89.9577 73.4689 92.1109 71.1231 93.3211 67.7076C94.9414 63.1347 94.3434 58.1659 91.9878 53.7649ZM89.1147 68.0552C92.4153 62.2609 87.9411 49.7499 81.6918 48.7058C75.8175 47.7244 73.5909 49.1493 71.0575 51.3461L70.5676 51.7758C65.6095 56.1594 65.6095 65.5766 70.4533 69.9457C71.6706 71.0436 77.0261 73.8603 81.1358 72.9986C83.8607 72.4272 87.653 70.621 89.1147 68.0552ZM75.3223 50.3402C75.6334 50.2286 75.9616 50.1367 76.3109 50.0652C76.2638 50.1737 76.2237 50.2889 76.1906 50.4108C76.0054 51.0919 76.0245 51.6746 76.2243 53.093L76.3608 54.033C76.3724 54.1158 76.3828 54.1918 76.3931 54.2696L76.4231 54.5087C76.6355 56.3044 76.4427 57.2411 75.6398 57.7577C74.9051 58.2305 74.1824 58.409 72.5319 58.6011L71.9138 58.6711C71.1524 58.7588 70.7524 58.8195 70.2714 58.9281L70.0537 58.972C69.3873 59.1122 68.834 59.2862 68.4045 59.5054C68.6877 56.9401 69.7381 54.5 71.5555 52.8931C73.2697 51.3776 74.1344 50.7661 75.3223 50.3402ZM81.4461 50.1769C81.2047 50.1366 80.9699 50.1005 80.7412 50.0685C80.7891 50.1898 80.8297 50.3187 80.8631 50.4549C81.0028 51.0238 81.0268 51.5288 80.993 52.6796L80.9765 53.176C80.9592 53.6538 80.9509 53.9381 80.9484 54.2112L80.9484 54.5386C80.9624 55.9942 81.1904 56.9619 81.7503 57.6172L81.8126 57.687L81.8374 57.6976C81.872 57.7115 81.9158 57.7273 81.9681 57.7447L82.0232 57.7627C82.1515 57.8035 82.3123 57.849 82.5182 57.9031L82.8625 57.9911L84.3325 58.351C84.6212 58.4228 84.878 58.4882 85.1239 58.5531L85.5284 58.6622C86.7436 58.9969 87.6751 59.3231 88.3529 59.6869C87.3409 55.1563 84.5547 50.6963 81.4461 50.1769ZM88.5156 63.0192C88.5995 62.9657 88.6789 62.9114 88.7539 62.8562C88.7903 64.5461 88.5069 66.1088 87.8187 67.3169C86.8305 69.0517 84.0858 70.7038 81.4055 71.4032C81.4733 71.2321 81.5282 71.0463 81.5705 70.8474C81.7009 70.2356 81.7217 69.535 81.6704 68.5426L81.6381 68.0087L81.5895 67.3063C81.4975 65.9033 81.5199 65.3164 81.6422 65.1758C82.1924 64.5433 82.9546 64.3012 84.8947 64.0228L85.3445 63.9587C86.9662 63.7218 87.7268 63.5217 88.5156 63.0192ZM77.1159 70.6766C77.1362 70.9283 77.2199 71.1851 77.3553 71.4275C76.6675 71.2822 75.9519 71.0733 75.2225 70.8064C73.5912 70.2093 72.0095 69.3407 71.4523 68.8381C69.6832 67.2425 68.665 64.8339 68.3975 62.2979C68.8557 62.509 69.4618 62.6876 70.2143 62.8657L70.33 62.8928C70.6338 62.9633 70.9444 63.0289 71.311 63.1012L72.3585 63.3046C74.7033 63.7865 75.9139 64.3449 76.4671 65.0908L76.5226 65.1686C76.8891 65.703 76.9905 66.3078 77.0199 67.8783L77.0365 68.9968C77.0496 69.6667 77.0702 70.1109 77.1159 70.6766ZM78.8797 50.1284L78.947 50.1345C79.5801 50.21 79.7139 50.7971 79.6391 53.0116L79.6138 53.7792C79.6077 54.0107 79.6052 54.1971 79.6053 54.4014C79.6061 55.7899 79.7724 56.8685 80.2189 57.7324C80.1355 57.6881 80.0404 57.663 79.9394 57.663L79.8379 57.6642L79.8125 57.665L79.8011 57.6602C79.6299 57.5967 79.4426 57.6168 79.2913 57.7059L79.2759 57.7154L79.2234 57.7239C77.9225 57.9407 76.6294 58.7178 75.9362 59.7471C75.1925 60.8513 75.2293 62.0567 76.0777 63.0889C75.2705 62.6629 74.1992 62.3212 72.7857 62.0225L72.3295 61.9309C72.0612 61.8788 71.7266 61.8147 71.7262 61.8147L71.4566 61.7616C71.1962 61.7095 70.9654 61.6608 70.7438 61.6105L70.6336 61.5853C69.9603 61.4289 69.4288 61.2686 69.0571 61.1012L68.998 61.0738C68.8837 61.0194 68.7929 60.9671 68.7283 60.9204L68.7198 60.9137L68.7361 60.8968C68.7821 60.8512 68.8516 60.7993 68.9467 60.7445C69.2727 60.5563 69.8097 60.3839 70.5464 60.2418L70.7326 60.2017C71.0603 60.1342 71.3816 60.0861 71.883 60.0262L72.6968 59.9333C74.5478 59.7178 75.4048 59.5052 76.3662 58.8866C77.7682 57.9844 78.0358 56.5737 77.7402 54.2207L77.7075 53.9724C77.6909 53.8505 77.6728 53.7238 77.649 53.5617L77.5565 52.926C77.3904 51.7438 77.3666 51.2365 77.4756 50.8022L77.4859 50.7629C77.6189 50.2735 77.9581 50.071 78.8797 50.1284ZM77.4932 64.2227C77.5109 64.2453 77.5282 64.2682 77.5453 64.2912C78.1795 65.1463 78.3248 65.9018 78.3617 67.8306L78.3764 68.8495C78.3876 69.4871 78.4042 69.9073 78.4403 70.3937L78.4539 70.5685C78.4817 70.9133 79.0701 71.4614 79.7201 71.3374C80.2267 71.2407 80.4225 70.4112 80.3271 68.5647L80.314 68.3335L80.24 67.2499C80.123 65.4759 80.16 64.8865 80.5649 64.3726C79.5942 64.7379 78.4653 64.7203 77.4932 64.2227ZM82.1309 63.2521C82.7328 63.0244 83.499 62.8705 84.5632 62.7145L85.1401 62.6319C86.488 62.435 87.1397 62.274 87.6919 61.9498L87.7944 61.8871C88.4191 61.489 88.4791 61.4098 88.2013 61.1854L88.1113 61.1158C87.62 60.7459 86.6711 60.3765 85.305 59.9933L85.0164 59.9138C84.7047 59.8295 84.3846 59.7471 84.0073 59.6534L82.4375 59.2684C82.141 59.1938 81.9038 59.1315 81.7107 59.0743C82.924 60.3572 83.1247 61.8012 82.2908 63.0348L82.2437 63.1027C82.2075 63.1536 82.1698 63.2035 82.1309 63.2521ZM79.4626 58.8938L79.5474 58.8817L79.6075 58.9179C81.5587 60.1043 81.993 61.3968 81.2715 62.411C80.5537 63.4199 78.9774 63.7685 77.8463 63.0517C76.5351 62.2208 76.3172 61.3173 76.9258 60.4136C77.4398 59.6505 78.4674 59.0468 79.4626 58.8938Z" fill="#00160A"/>
<path fill-rule="evenodd" clip-rule="evenodd" d="M99.8346 55.9263C99.8039 56.0722 99.7779 56.2916 99.7705 56.5935C99.7529 57.3109 99.8443 58.2482 100.002 59.2273C100.158 60.1953 100.369 61.1435 100.564 61.8614C100.65 62.1783 100.729 62.4336 100.794 62.6178C100.874 62.6471 100.984 62.6776 101.134 62.7027C101.476 62.7599 101.917 62.7721 102.474 62.7486C102.898 62.7307 103.333 62.6955 103.805 62.6573C103.955 62.6451 104.11 62.6326 104.268 62.6202C104.9 62.5712 105.586 62.5266 106.252 62.5403C106.774 62.5511 107.316 62.563 107.874 62.5751C112.83 62.6835 118.971 62.8178 122.643 62.4353C122.693 62.3845 122.804 62.2497 122.95 61.9343C123.215 61.3613 123.428 60.5208 123.539 59.5765C123.649 58.6408 123.645 57.7057 123.539 56.9745C123.485 56.6081 123.412 56.336 123.34 56.1568C123.326 56.1205 123.313 56.0917 123.302 56.0694C123.282 56.063 123.259 56.0557 123.232 56.0477C123.073 56.0015 122.848 55.9547 122.558 55.9126C121.977 55.8285 121.251 55.7799 120.49 55.7554C119.275 55.7163 118.091 55.741 117.413 55.7552C117.241 55.7588 117.102 55.7617 117.003 55.7628C114.888 55.7845 112.699 55.777 110.554 55.7697C109.678 55.7667 108.81 55.7638 107.958 55.7628C107.218 55.762 106.384 55.733 105.554 55.7042C105.5 55.7023 105.446 55.7004 105.393 55.6986C104.497 55.6675 103.601 55.6383 102.762 55.64C101.918 55.6417 101.179 55.6752 100.592 55.7583C100.301 55.7995 100.075 55.8493 99.9075 55.9019C99.8805 55.9104 99.8562 55.9186 99.8346 55.9263ZM100.881 62.8426C100.88 62.8405 100.879 62.837 100.876 62.8318C100.894 62.8615 100.895 62.8693 100.881 62.8426ZM99.8731 55.7855C99.8769 55.7758 99.8791 55.7716 99.8792 55.7719C99.8794 55.7722 99.8775 55.777 99.8731 55.7855ZM105.597 54.2133C102.877 54.1188 99.8496 54.0135 98.7937 54.7955C97.4122 55.8185 99.1862 63.2681 99.6467 63.6595C100.539 64.4183 102.218 64.2823 103.946 64.1423C104.716 64.0798 105.496 64.0166 106.221 64.0315C106.743 64.0423 107.288 64.0542 107.85 64.0666C112.829 64.1759 119.155 64.3148 122.918 63.9059C125.186 63.6595 125.818 56.0798 124.232 54.8759C123.262 54.1399 118.853 54.2329 117.359 54.2644C117.199 54.2678 117.073 54.2705 116.987 54.2713C114.883 54.293 112.711 54.2856 110.57 54.2783C109.692 54.2753 108.82 54.2723 107.959 54.2713C107.246 54.2706 106.436 54.2424 105.597 54.2133Z" fill="#421EB7"/>
<path fill-rule="evenodd" clip-rule="evenodd" d="M107.943 54.4159C108.803 54.4168 109.675 54.4198 110.553 54.4228C112.359 54.429 114.187 54.4352 115.977 54.424L116.971 54.4159C117.056 54.415 117.182 54.4123 117.342 54.409C118.836 54.3775 123.245 54.2844 124.215 55.0204C125.801 56.2243 125.17 63.804 122.902 64.0504C119.138 64.4594 112.813 64.3205 107.834 64.2111H107.834H107.834C107.272 64.1988 106.727 64.1868 106.205 64.176C105.48 64.1611 104.699 64.2243 103.929 64.2868L103.929 64.2868H103.929C102.201 64.4268 100.523 64.5629 99.6301 63.804C99.1696 63.4126 97.3956 55.9631 98.7771 54.94C99.833 54.1581 102.861 54.2633 105.581 54.3578L105.581 54.3578C106.256 54.3813 106.912 54.4041 107.515 54.4125L107.516 54.4117L107.517 54.4125C107.662 54.4145 107.804 54.4157 107.943 54.4159ZM106.124 55.8686C106.27 55.8734 106.404 55.8777 106.528 55.8815C106.628 56.4992 106.64 57.5845 106.568 59.1836L106.515 60.3391C106.468 61.4192 106.45 62.1542 106.481 62.6905L106.131 62.6831C105.641 62.677 105.145 62.6987 104.465 62.7487L103.455 62.8275C101.967 62.9372 101.196 62.9209 100.808 62.783L100.781 62.7726L100.758 62.7062C100.694 62.5201 100.622 62.281 100.547 62.006L100.499 61.8247C100.306 61.0878 100.121 60.2135 99.9854 59.3718C99.8201 58.3453 99.737 57.4261 99.7539 56.7381L99.7566 56.6503C99.7654 56.4211 99.7858 56.2314 99.8141 56.0897L99.8191 56.0657L99.8699 56.0488C100.126 55.9678 100.579 55.885 101.186 55.8376C101.941 55.7786 102.842 55.7711 104.091 55.8028L105.144 55.8351L106.124 55.8686ZM110.878 62.7826L107.995 62.7222C107.979 62.553 107.968 62.3453 107.964 62.1047L107.963 62.053C107.958 61.6753 107.966 61.3145 107.992 60.6806L108.076 58.8164C108.127 57.5357 108.129 56.6059 108.044 55.9072L114.214 55.9215C114.544 55.9212 114.862 55.9205 115.17 55.9195C115.075 57.7751 115.225 61.0209 115.418 62.8336C114.898 62.8328 114.357 62.8298 113.797 62.8246L112.73 62.8125C112.142 62.8047 111.542 62.795 110.878 62.7826ZM116.933 62.8286C119.225 62.8094 121.065 62.7352 122.492 62.5935L122.625 62.5796L122.643 62.561C122.719 62.4748 122.808 62.3362 122.899 62.1506L122.933 62.0788C123.201 61.4995 123.413 60.6554 123.522 59.721C123.631 58.7964 123.63 57.8593 123.522 57.1191C123.472 56.7775 123.403 56.4973 123.324 56.3013L123.301 56.2486L123.285 56.2137L123.225 56.1952C123.065 56.1479 122.846 56.1025 122.578 56.0626C122.05 55.9838 121.369 55.9313 120.573 55.9033C119.833 55.8773 119.08 55.8734 118.237 55.8846L116.986 55.9073L116.631 55.9101C116.619 56.1118 116.611 56.3516 116.607 56.6204L116.606 56.7077C116.6 57.4347 116.626 58.3506 116.678 59.3648L116.689 59.5689C116.731 60.3645 116.788 61.1864 116.849 61.9094L116.885 62.3303C116.902 62.5102 116.918 62.6774 116.933 62.8286ZM110.365 58.4265L110.501 58.6215C110.656 58.8403 110.803 59.034 110.943 59.2048C110.755 59.6135 110.657 60.0726 110.626 60.6634C110.615 60.8783 110.78 61.0616 110.995 61.0728C111.209 61.084 111.393 60.9189 111.404 60.7041C111.422 60.3636 111.463 60.083 111.537 59.8338C111.969 60.2111 112.346 60.3512 112.743 60.3584L112.82 60.3585C113.035 60.3585 113.209 60.1841 113.209 59.9689C113.209 59.7672 113.056 59.6013 112.859 59.5814L112.82 59.5793L112.754 59.5793C112.5 59.5736 112.244 59.4664 111.895 59.1144C112.008 58.9555 112.145 58.7978 112.309 58.6296L112.727 58.2163C112.88 58.0648 112.881 57.8181 112.73 57.6653C112.578 57.5125 112.331 57.5114 112.179 57.6629L111.829 58.0074C111.659 58.1774 111.51 58.3409 111.379 58.5046L111.238 58.3125C111.164 58.2114 111.088 58.1025 111.007 57.9855C110.886 57.8081 110.643 57.763 110.466 57.8848C110.288 58.0066 110.243 58.2491 110.365 58.4265ZM121.003 58.0555L121.007 57.8178C121.008 57.6026 120.835 57.4268 120.62 57.425C120.405 57.4232 120.229 57.5962 120.227 57.8113C120.226 58.048 120.219 58.26 120.209 58.4497C120.01 58.3868 119.795 58.3347 119.559 58.2888L119.076 58.1989C118.865 58.1588 118.661 58.2976 118.621 58.509C118.581 58.7204 118.719 58.9242 118.931 58.9644L119.508 59.0734C119.738 59.1213 119.94 59.1753 120.123 59.2436C120.03 59.7306 119.878 59.9626 119.67 60.1096L119.616 60.1462L119.584 60.1701C119.433 60.2965 119.398 60.5197 119.511 60.687C119.631 60.8653 119.874 60.9124 120.052 60.7921L120.115 60.7492C120.44 60.5213 120.675 60.194 120.822 59.6402C121.022 59.8052 121.214 60.0146 121.419 60.2869C121.548 60.4588 121.793 60.4931 121.964 60.3637C122.136 60.2342 122.171 59.99 122.041 59.8181C121.685 59.3456 121.347 59.02 120.963 58.7861C120.983 58.5663 120.996 58.3238 121.003 58.0555Z" fill="#00160A"/>
<path fill-rule="evenodd" clip-rule="evenodd" d="M104.006 58.0183L103.945 58.2481C103.874 58.5068 103.803 58.7389 103.73 58.9473C104.046 59.2671 104.295 59.6649 104.526 60.2095C104.61 60.4076 104.518 60.6363 104.32 60.7203C104.122 60.8043 103.893 60.7119 103.809 60.5138C103.676 60.2 103.541 59.9505 103.386 59.7418C103.11 60.2437 102.803 60.5045 102.433 60.647L102.361 60.6733C102.158 60.7469 101.935 60.6426 101.861 60.4405C101.792 60.2509 101.88 60.0426 102.057 59.9567L102.094 59.9411L102.155 59.9188C102.393 59.8264 102.597 59.6381 102.804 59.1879C102.643 59.0775 102.46 58.9762 102.249 58.8741L101.715 58.6286C101.519 58.5385 101.434 58.3071 101.524 58.1117C101.614 57.9163 101.846 57.831 102.041 57.921L102.488 58.1251C102.705 58.2267 102.902 58.3293 103.08 58.4386C103.136 58.2569 103.193 58.0527 103.252 57.8235C103.306 57.6152 103.518 57.4899 103.727 57.5437C103.935 57.5975 104.06 57.81 104.006 58.0183Z" fill="#FFD90F"/>
</g>
<defs>
<filter id="filter0_d" x="0" y="0" width="184" height="139.048" filterUnits="userSpaceOnUse" color-interpolation-filters="sRGB">
<feFlood flood-opacity="0" result="BackgroundImageFix"/>
<feColorMatrix in="SourceAlpha" type="matrix" values="0 0 0 0 0 0 0 0 0 0 0 0 0 0 0 0 0 0 127 0"/>
<feOffset dy="4"/>
<feGaussianBlur stdDeviation="2"/>
<feColorMatrix type="matrix" values="0 0 0 0 0 0 0 0 0 0 0 0 0 0 0 0 0 0 0.25 0"/>
<feBlend mode="normal" in2="BackgroundImageFix" result="effect1_dropShadow"/>
<feBlend mode="normal" in="SourceGraphic" in2="effect1_dropShadow" result="shape"/>
</filter>
</defs>
</svg>
