<svg width="611" height="595" viewBox="0 0 611 595" fill="none" xmlns="http://www.w3.org/2000/svg">
<ellipse cx="305.5" cy="297.5" rx="305.5" ry="297.5" fill="#FFD90F"/>
<path d="M359.321 361.247C376.199 363.305 390.68 373.714 402.597 375.14C415.842 376.724 435.872 368.022 456.298 378.264C461.556 380.9 465.873 384.069 464.264 388.006C461.461 394.867 455.562 397.556 442.64 399.421L441.262 399.611C431.273 400.94 420.536 401.262 393.319 401.441L384.019 401.512C350.842 401.8 331.656 403.354 306.81 405.339L304.278 405.544C258.525 409.309 222.005 408.706 194.716 404.532L193.892 404.405C171.844 400.951 158.589 395.239 152.119 388.758C148.31 384.943 146.115 381.385 146.002 377.583C145.889 373.78 151.507 369.6 154.705 368.022C163.616 363.626 166.523 362.031 183.653 359.78C191.028 358.811 202.078 358.888 214.85 358.457C260.669 356.91 331.453 357.849 359.321 361.247Z" fill="white"/>
<path fill-rule="evenodd" clip-rule="evenodd" d="M372.708 369.537C346.734 428.327 252.738 426.433 187.335 386.307C174.844 378.644 131.908 342.525 174.167 321.433C216.427 300.342 202.891 267.946 236.996 229.306C276.436 184.62 349.885 161.701 401.541 221.824C532.832 374.633 381.454 349.741 372.708 369.537Z" fill="#919191"/>
<path fill-rule="evenodd" clip-rule="evenodd" d="M199.072 213.643C196.73 209.88 194.384 208.436 192.075 209.685C190.121 210.743 189.796 213.566 190.836 218.084L190.213 218.42C189.357 218.882 189.037 219.95 189.498 220.806C189.538 220.88 189.584 220.951 189.634 221.019L189.968 221.466C194.842 227.932 198.705 230.581 201.719 229.124C204.252 227.9 204.68 222.686 203.376 213.251C203.285 212.59 202.696 212.121 202.04 212.168L201.958 212.177C201.809 212.197 201.665 212.244 201.533 212.316L199.072 213.643ZM192.16 217.071L197.595 214.131L197.582 214.111C195.713 211.212 194.13 210.29 192.794 211.013L192.732 211.048C191.746 211.651 191.472 213.542 192.101 216.775L192.16 217.071ZM201.929 213.817L190.929 219.749C190.807 219.815 190.761 219.967 190.827 220.09C190.833 220.1 190.839 220.11 190.847 220.12L191.171 220.554C195.626 226.464 198.977 228.772 201.062 227.765C202.645 227 203.061 222.352 201.959 214.037L201.929 213.817ZM199.682 223.328C199.941 223.057 200.099 222.689 200.099 222.285C200.099 221.451 199.423 220.775 198.59 220.775C197.756 220.775 197.08 221.451 197.08 222.285C197.08 223.119 197.756 223.795 198.59 223.795C198.655 223.795 198.72 223.791 198.783 223.783L199.642 225.358L199.673 225.408C199.818 225.614 200.098 225.683 200.324 225.559C200.568 225.426 200.659 225.121 200.526 224.877L199.682 223.328Z" fill="#FFB61D"/>
<path fill-rule="evenodd" clip-rule="evenodd" d="M359.321 361.247C376.199 363.305 390.68 373.714 402.597 375.14C415.842 376.724 435.872 368.022 456.298 378.264C461.556 380.9 465.873 384.069 464.264 388.006C461.461 394.867 455.562 397.556 442.64 399.421L441.262 399.611C431.273 400.94 420.536 401.262 393.319 401.441L384.019 401.512C350.842 401.8 331.656 403.354 306.81 405.339L304.278 405.544C258.525 409.309 222.005 408.706 194.716 404.532L193.892 404.405C171.844 400.951 158.589 395.239 152.119 388.758C148.31 384.943 146.115 381.385 146.002 377.583C145.889 373.78 151.507 369.6 154.705 368.022C163.616 363.626 166.523 362.031 183.653 359.78C191.028 358.811 202.078 358.888 214.85 358.457C260.669 356.91 331.453 357.849 359.321 361.247ZM183.274 362.965L182.152 363.115C166.189 365.279 155.984 369.217 151.151 373.144L150.849 373.396C147.137 376.595 146.79 380.19 152.125 385.506C157.959 391.319 172.838 397.876 194.292 401.218C221.151 405.403 257.261 406.619 302.609 402.979L307.363 402.596C333.544 400.538 353.631 399.442 390.806 399.181L401.069 399.104C423.201 398.904 432.609 398.508 441.69 397.246L442.553 397.122C482.655 389.278 453.719 375.203 437.118 375.14C422.901 375.085 405.824 379.084 401.069 377.587C386.08 372.869 378.384 365.646 359.321 363.334L353.777 362.67L349.045 362.447C271.49 358.844 216.218 358.659 183.274 362.965Z" fill="#00160A"/>
<path d="M233.502 180.71C233.227 180.701 232.951 180.701 232.676 180.71C225.889 180.944 220.562 186.58 220.685 193.349L220.69 193.554L220.774 196.09C221.012 203.708 221.143 211.296 221.167 218.853L221.208 242.107C221.217 250.476 221.212 258.03 221.187 265.427L221.154 273.271C221.022 298.246 220.666 315.774 220.006 323.404L219.878 324.83C219.081 334.155 218.916 347.548 219.389 364.978C219.394 365.18 219.405 365.381 219.419 365.582C219.942 372.649 226.037 377.972 233.089 377.565L233.303 377.551L235.646 377.381C257.551 375.818 279.455 375.036 301.36 375.036C322.801 375.036 344.405 375.785 366.175 377.282C366.805 377.326 367.436 377.33 368.066 377.294C376.32 376.827 382.652 369.823 382.32 361.591L382.308 361.342L382.143 358.373C380.682 331.628 379.925 304.883 379.873 278.138L379.87 275.166C379.87 255.673 380.783 228.939 382.608 194.952C382.628 194.571 382.633 194.19 382.621 193.809C382.392 186.431 376.284 180.621 368.931 180.73L368.708 180.735L357.579 181.072C332.293 181.818 313.881 182.208 302.331 182.242L300.352 182.244L298.315 182.238C286.525 182.188 268.273 181.783 243.549 181.026L233.502 180.71Z" fill="white"/>
<path fill-rule="evenodd" clip-rule="evenodd" d="M367.846 180.013C366.954 180.501 365.78 180.845 364.321 181.043C368.075 181.377 371.026 181.299 373.175 180.81L372.71 180.753C371.197 180.562 369.576 180.315 367.846 180.013Z" fill="#E7EAEE"/>
<path fill-rule="evenodd" clip-rule="evenodd" d="M226.672 359.98L226.777 359.984C227.425 360.029 227.883 360.536 227.823 361.095C227.755 361.735 227.071 362.356 226.324 362.408C225.73 362.449 225.318 361.992 225.384 361.283C225.453 360.539 226.036 359.983 226.672 359.98Z" fill="#E7EAEE"/>
<path fill-rule="evenodd" clip-rule="evenodd" d="M238.552 369.703L238.657 369.707C239.305 369.752 239.763 370.259 239.703 370.818C239.635 371.458 238.951 372.079 238.204 372.13C237.61 372.171 237.198 371.715 237.264 371.005C237.333 370.262 237.915 369.706 238.552 369.703Z" fill="#E7EAEE"/>
<path fill-rule="evenodd" clip-rule="evenodd" d="M301.492 369.065C275.719 374.753 324.11 373.748 342.988 372.502C353.261 371.824 361.465 376.956 366.175 377.28C366.805 377.323 367.437 377.327 368.067 377.291C376.321 376.824 382.652 369.821 382.32 361.589L382.308 361.339L382.143 358.37C380.682 331.625 379.926 304.88 379.873 278.136L379.87 275.164C379.87 255.671 380.783 228.937 382.608 194.95C382.629 194.569 382.633 194.187 382.621 193.806C382.392 186.429 368.254 354.33 301.492 369.065Z" fill="#E7EAEE"/>
<path d="M377.93 362.191L378.021 362.195C378.491 362.232 378.875 362.722 378.82 363.319C378.758 363.98 378.188 364.574 377.619 364.619C377.22 364.651 376.882 364.221 376.941 363.482C377.003 362.727 377.476 362.203 377.93 362.191Z" fill="white"/>
<path fill-rule="evenodd" clip-rule="evenodd" d="M377.769 366.499C376.091 366.632 374.912 365.132 375.058 363.326C375.2 361.571 376.536 360.178 378.141 360.305C379.72 360.43 380.853 361.87 380.702 363.489C380.558 365.045 379.277 366.38 377.769 366.499ZM378.022 362.191L377.931 362.187C377.476 362.199 377.003 362.722 376.942 363.478C376.882 364.217 377.22 364.647 377.62 364.615C378.189 364.57 378.759 363.976 378.82 363.315C378.876 362.718 378.491 362.228 378.022 362.191Z" fill="white"/>
<path d="M361.968 191.602C367.933 191.602 372.768 196.437 372.768 202.401C372.768 202.625 372.761 202.848 372.747 203.071L372.589 205.716C372.298 210.738 372.009 216.7 371.72 223.602L371.676 224.708C370.971 243.276 370.948 287.204 371.609 356.491C371.666 362.456 366.877 367.337 360.913 367.394C360.768 367.395 360.622 367.394 360.477 367.389L241.991 363.734C236.505 363.564 232.018 359.307 231.562 353.837L231.461 352.602C229.901 332.933 229.808 307.818 231.183 277.258L231.384 272.875C232.086 256.793 232.141 233.371 231.549 202.609C231.436 196.708 236.078 191.821 241.954 191.609L242.243 191.602L361.968 191.602Z" fill="white"/>
<path fill-rule="evenodd" clip-rule="evenodd" d="M282.305 318.957C287.539 319.177 292.915 318.249 297.576 315.971C303.415 313.119 307.808 308.332 310.24 301.47C313.443 292.431 312.266 282.657 307.662 274.054C303.563 266.397 297.12 260.57 291.181 259.129C291.181 259.129 307.662 282.313 305.301 294.986C301.69 314.365 282.305 318.957 282.305 318.957Z" fill="#E7EAEE"/>
<path fill-rule="evenodd" clip-rule="evenodd" d="M286.112 291.734C288.659 292.791 289.437 294.755 288.445 297.625L288.388 297.785C281.937 315.498 274.33 315.66 280.84 297.785C281.628 295.62 281.433 293.959 280.253 292.802C282.338 292.379 284.291 292.023 286.112 291.734Z" fill="#E7EAEE"/>
<path fill-rule="evenodd" clip-rule="evenodd" d="M245.707 271.025C247.376 266.066 249.814 262.338 254.369 259.391L254.947 259.024C255.93 258.407 257.142 257.708 258.127 258.185C259.379 258.792 261.192 261.001 260.089 261.869C259.341 262.457 256.262 263.082 253.941 265.116C251.202 267.516 249.23 271.384 249.23 272.331C249.23 275.421 244.722 273.954 245.707 271.025Z" fill="#E7EAEE"/>
<path fill-rule="evenodd" clip-rule="evenodd" d="M240.546 200.343C234.817 216.076 234.856 219.198 234.512 216.486C233.4 207.716 232.561 201.953 233.882 198.452C235.555 194.02 239.748 193.148 240.828 193.663C243.112 194.75 240.546 200.343 240.546 200.343Z" fill="#E7EAEE"/>
<path fill-rule="evenodd" clip-rule="evenodd" d="M334.816 281.201L332.91 281.143C330.648 281.085 329.018 281.099 327.651 281.206C326.552 281.292 325.733 281.442 325.269 281.588L325.177 281.619L325.168 281.662C325.116 281.919 325.079 282.262 325.064 282.677L325.059 282.836C325.028 284.082 325.178 285.745 325.478 287.604C325.723 289.127 326.058 290.71 326.407 292.044L326.495 292.372C326.631 292.87 326.761 293.303 326.876 293.64L326.917 293.76L326.967 293.779C327.669 294.028 329.066 294.058 331.758 293.859L333.587 293.717C334.819 293.626 335.716 293.587 336.602 293.598L345.196 293.778C346.398 293.8 347.485 293.818 348.549 293.832L350.479 293.854C355.301 294.135 360.599 293.924 361.258 292.724C363.268 289.064 364.216 281.526 363.268 281.476C361.563 281.385 359.499 281.278 358.518 281.291L356.253 281.332L354.2 281.348C353.263 281.354 352.284 281.357 351.235 281.358L339.457 281.33C338.691 281.325 337.941 281.307 336.59 281.262L334.816 281.201Z" fill="#E7EAEE"/>
<path fill-rule="evenodd" clip-rule="evenodd" d="M244.507 178.35L233.59 178.008C233.255 177.997 232.919 177.997 232.584 178.009C224.238 178.296 217.706 185.294 217.992 193.639L218.076 196.171C218.173 199.298 218.322 202.42 218.471 205.536C218.723 210.828 218.975 216.106 218.975 221.368L219.01 240.455C219.043 267.072 218.963 310.908 217.781 323.605L217.692 324.601C216.923 333.598 216.233 346.255 216.627 362.573L216.691 365.048C216.697 365.292 216.71 365.535 216.727 365.778C217.365 374.403 224.874 380.878 233.499 380.241L235.839 380.071L236.227 380.043C236.305 380.174 236.384 380.305 236.462 380.434C236.841 381.059 237.195 381.644 237.278 381.931C237.485 382.654 237.507 383.474 237.387 385.328L237.266 387.067L237.233 387.632C237.056 391.097 237.456 393.158 239.146 394.71C241.321 396.707 243.624 396.495 248.343 396.061L248.555 396.042L249.77 395.924C251.174 395.789 252.753 395.898 253.828 395.973L253.829 395.973C254.139 395.994 254.407 396.013 254.617 396.022L255.014 396.042C257.722 396.15 258.152 395.258 258.389 393.055C258.52 391.841 258.349 390.886 257.636 388.421L257.102 386.604L256.925 385.973C256.092 382.893 256.168 381.356 257.253 380.613C257.517 380.432 258.617 380.105 259.886 379.728C261.191 379.34 262.675 378.898 263.61 378.509C276.194 377.992 288.777 377.733 301.361 377.733C314.583 377.733 327.868 378.019 341.216 378.59C341.127 378.734 341.111 378.943 341.205 379.233C341.311 379.561 341.713 379.788 342.226 380.079C343.586 380.848 345.731 382.061 345.232 386.771L345.234 386.964C345.309 390.676 347.559 392.854 351.179 393.593C353.6 394.087 356.353 393.938 359.352 393.418C360.836 393.161 361.793 392.232 362.249 390.818C362.502 390.036 362.592 389.334 362.651 387.937C362.651 387.937 361.991 380.677 365.662 379.95C365.772 379.958 365.881 379.965 365.99 379.973C366.415 380.002 366.841 380.016 367.267 380.015C367.324 380.028 367.382 380.043 367.441 380.059C367.617 380.106 367.785 380.079 367.936 380C368.031 379.996 368.125 379.992 368.22 379.986C378.046 379.431 385.56 371.014 385.004 361.189L384.839 358.222C383.327 330.536 382.571 302.85 382.571 275.163C382.571 256.31 383.428 230.631 385.143 198.129L385.305 195.094C385.329 194.637 385.334 194.179 385.32 193.722C385.042 184.779 377.567 177.755 368.625 178.033L362.957 178.207C334.871 179.059 314.661 179.503 302.329 179.538L300.354 179.541C288.841 179.532 270.225 179.135 244.507 178.35ZM361.976 379.705C355.736 379.302 349.509 378.961 343.296 378.681C346.271 380.125 347.331 382.821 347.39 386.551L347.392 386.771C347.392 389.183 349.269 390.759 351.794 391.274C352.058 391.328 352.329 391.387 352.606 391.447C354.35 391.825 356.344 392.258 358.555 391.895L358.891 391.838C360.42 391.274 360.42 385.78 360.42 385.78C360.437 385.333 360.452 385.042 360.478 384.687L360.512 384.289C360.703 382.289 361.121 380.795 361.976 379.705ZM239.873 381.186C239.726 380.675 239.517 380.223 239.247 379.834C244.544 379.476 249.842 379.163 255.139 378.897C254.312 379.819 254.234 381.064 254.203 382.553C254.177 383.835 254.436 385.199 254.981 387.12L255.014 387.235L255.513 388.933C256.123 391.03 256.307 391.907 256.256 392.642L256.244 392.767C256.171 393.449 255.295 394.218 253.815 394.132L253.55 394.118C252.916 394.022 246.665 394.132 246.665 394.132C243.778 394.424 242.389 394.022 240.973 392.722C240.022 391.849 239.767 390.299 239.954 387.331L240.071 385.665C240.218 383.488 240.206 382.469 239.931 381.401L239.873 381.186ZM232.677 180.707C232.952 180.698 233.228 180.698 233.503 180.706L243.549 181.022C268.274 181.78 286.526 182.185 298.316 182.235L300.352 182.241L302.332 182.238C313.882 182.205 332.293 181.815 357.579 181.069L368.709 180.732L368.932 180.727C376.285 180.617 382.392 186.428 382.622 193.806C382.633 194.187 382.629 194.568 382.609 194.949C380.784 228.936 379.871 255.67 379.871 275.163L379.874 278.135C379.926 304.88 380.682 331.625 382.143 358.369L382.309 361.338L382.321 361.588C382.653 369.82 376.321 376.824 368.067 377.291C367.437 377.326 366.805 377.323 366.176 377.279C344.406 375.782 322.801 375.033 301.361 375.033C279.456 375.033 257.551 375.815 235.647 377.378L233.303 377.548L233.089 377.562C226.038 377.968 219.942 372.646 219.42 365.579C219.405 365.378 219.395 365.176 219.39 364.975C218.917 347.545 219.082 334.152 219.879 324.827L220.007 323.4C220.667 315.771 221.023 298.243 221.154 273.268L221.188 265.423C221.213 258.026 221.218 250.473 221.209 242.103L221.168 218.85C221.144 211.292 221.013 203.705 220.774 196.087L220.691 193.551L220.686 193.345C220.563 186.577 225.89 180.941 232.677 180.707ZM372.768 202.399C372.768 196.434 367.933 191.599 361.968 191.599L242.243 191.599L241.954 191.606C236.078 191.818 231.436 196.705 231.549 202.606C232.141 233.368 232.086 256.79 231.384 272.872L231.183 277.255C229.808 307.816 229.901 332.93 231.461 352.599L231.562 353.834C232.018 359.304 236.505 363.562 241.991 363.731L360.477 367.386C360.622 367.391 360.768 367.392 360.913 367.391C366.877 367.334 371.666 362.453 371.609 356.489C370.948 287.201 370.971 243.273 371.676 224.705L371.72 223.6C372.009 216.697 372.298 210.735 372.589 205.714L372.747 203.068C372.761 202.845 372.768 202.622 372.768 202.399ZM242.347 194.299H361.968C366.441 194.299 370.068 197.925 370.068 202.399C370.068 202.566 370.063 202.733 370.052 202.901C369.77 207.455 369.488 212.892 369.207 219.212L369.023 223.487C368.309 240.545 368.24 281.394 368.814 346.099L368.909 356.514C368.952 360.988 365.36 364.648 360.887 364.691C360.778 364.692 360.669 364.691 360.56 364.688L242.074 361.032L241.896 361.025C237.863 360.812 234.59 357.653 234.252 353.61C232.59 333.687 232.478 307.948 233.924 276.41L234.059 273.491C234.741 258.316 234.838 236.554 234.351 208.189L234.249 202.554C234.163 198.082 237.719 194.386 242.191 194.3C242.243 194.299 242.295 194.299 242.347 194.299ZM238.209 186.018C238.38 187.854 237.049 189.327 235.257 189.204C233.618 189.091 232.177 187.782 232.008 186.206L231.999 186.091C231.894 184.523 233.096 183.19 234.708 183.019L234.829 183.008C236.548 182.89 238.045 184.248 238.209 186.018ZM235.039 184.891L234.934 184.895C234.286 184.94 233.828 185.446 233.888 186.006C233.956 186.646 234.64 187.267 235.387 187.318C235.981 187.359 236.393 186.902 236.327 186.193C236.258 185.45 235.675 184.894 235.039 184.891ZM225.483 200.335C223.615 200.5 222.356 198.703 222.511 196.547C222.664 194.434 224.115 192.736 225.911 192.895L226.027 192.908C227.678 193.123 228.818 194.746 228.724 196.566L228.716 196.693C228.562 198.553 227.167 200.185 225.483 200.335ZM225.773 194.78L225.681 194.775C225.108 194.783 224.478 195.557 224.396 196.683C224.315 197.808 224.799 198.498 225.316 198.452C226.019 198.39 226.75 197.534 226.832 196.537C226.91 195.593 226.379 194.834 225.773 194.78ZM365.385 186.018C365.215 187.854 366.545 189.327 368.337 189.204C369.976 189.091 371.417 187.782 371.586 186.206L371.596 186.091C371.7 184.523 370.498 183.19 368.887 183.019L368.765 183.008C367.046 182.89 365.55 184.248 365.385 186.018ZM368.555 184.891L368.66 184.895C369.308 184.94 369.766 185.446 369.706 186.006C369.638 186.646 368.954 187.267 368.207 187.318C367.613 187.359 367.201 186.902 367.267 186.193C367.336 185.45 367.919 184.894 368.555 184.891ZM375.449 197.245C374.446 195.755 375.056 193.866 376.731 193.096C378.346 192.354 380.271 192.97 381.028 194.518L381.08 194.629C381.738 196.11 381.184 197.817 379.774 198.511L379.669 198.56C378.22 199.202 376.366 198.608 375.449 197.245ZM379.342 195.371L379.293 195.278C378.972 194.728 378.199 194.502 377.521 194.813C376.874 195.111 376.684 195.696 377.017 196.19C377.434 196.811 378.314 197.093 378.903 196.832C379.417 196.604 379.627 195.955 379.342 195.371ZM224.149 359.003C222.838 360.299 222.91 362.283 224.363 363.34C225.691 364.308 227.636 364.232 228.778 363.132L228.86 363.051C229.948 361.916 229.884 360.123 228.759 358.956L228.673 358.869C227.432 357.674 225.413 357.753 224.149 359.003ZM227.302 360.177L227.38 360.247C227.848 360.699 227.872 361.381 227.467 361.771C227.003 362.217 226.08 362.253 225.475 361.813C224.994 361.462 224.972 360.847 225.478 360.347C226.009 359.821 226.813 359.77 227.302 360.177ZM236.242 373.06C234.79 372.003 234.718 370.019 236.029 368.723C237.292 367.473 239.312 367.394 240.553 368.589L240.639 368.676C241.764 369.843 241.827 371.636 240.74 372.77L240.658 372.852C239.516 373.952 237.57 374.027 236.242 373.06ZM239.259 369.967L239.182 369.897C238.692 369.49 237.889 369.541 237.358 370.066C236.852 370.567 236.874 371.182 237.355 371.532C237.96 371.973 238.883 371.937 239.347 371.491C239.752 371.101 239.727 370.419 239.259 369.967ZM369.197 369.35C367.693 370.868 367.652 373.1 369.255 374.248C370.723 375.299 372.921 375.092 374.235 373.798C375.598 372.457 375.637 370.298 374.297 368.985C372.94 367.657 370.663 367.872 369.197 369.35ZM372.915 370.282L372.992 370.352C373.547 370.897 373.53 371.84 372.91 372.451C372.241 373.109 371.065 373.22 370.355 372.711C369.78 372.3 369.796 371.43 370.539 370.681C371.293 369.921 372.342 369.798 372.915 370.282ZM377.769 366.501C376.092 366.633 374.912 365.133 375.058 363.327C375.2 361.573 376.537 360.18 378.142 360.307C379.72 360.431 380.853 361.872 380.702 363.491C380.558 365.046 379.277 366.382 377.769 366.501ZM378.022 362.192L377.931 362.189C377.477 362.2 377.003 362.724 376.942 363.48C376.882 364.219 377.22 364.648 377.62 364.617C378.189 364.572 378.759 363.977 378.821 363.316C378.876 362.719 378.491 362.23 378.022 362.192Z" fill="#00160A"/>
<path fill-rule="evenodd" clip-rule="evenodd" d="M236.029 368.72C234.718 370.016 234.79 371.999 236.242 373.057C237.57 374.024 239.516 373.948 240.658 372.849L240.74 372.767C241.827 371.633 241.764 369.839 240.639 368.672L240.553 368.586C239.312 367.39 237.292 367.469 236.029 368.72ZM239.182 369.894L239.259 369.964C239.727 370.415 239.752 371.097 239.347 371.487C238.883 371.934 237.96 371.97 237.355 371.529C236.874 371.179 236.852 370.564 237.358 370.063C237.889 369.538 238.692 369.486 239.182 369.894Z" fill="#00160A"/>
<path d="M372.914 370.28L372.991 370.351C373.547 370.895 373.53 371.839 372.909 372.449C372.241 373.107 371.065 373.218 370.355 372.71C369.78 372.298 369.796 371.429 370.539 370.68C371.293 369.919 372.341 369.797 372.914 370.28Z" fill="white"/>
<path fill-rule="evenodd" clip-rule="evenodd" d="M253.735 254.388C253.112 254.605 252.55 254.898 251.855 255.326L251.322 255.661L251.057 255.83C247.03 258.429 244.342 261.661 242.429 266.038L242.327 266.275L242.25 266.252C241.743 266.103 241.282 266.031 240.791 266.071C239.742 266.159 238.764 266.787 238.415 267.958C237.87 269.788 238.095 271.88 238.803 274.021L238.936 274.414C239.627 276.399 240.391 277.746 241.662 278.14C243.352 278.663 249.191 276.348 251.227 274.248C252.679 272.75 252.097 270.918 250.715 269.86L250.588 269.766L250.455 269.674L250.303 269.576L250.404 269.395C250.475 269.27 250.549 269.144 250.626 269.016C251.452 267.647 252.484 266.352 253.53 265.436C253.933 265.083 254.398 264.76 254.929 264.458C255.751 263.991 259.027 262.705 259.579 262.271C261.35 260.878 261.145 258.86 260.025 257.111C259.328 256.023 258.232 255.004 257.174 254.491C256.061 253.952 254.897 253.985 253.735 254.388ZM256.115 256.678C257.367 257.284 259.179 259.494 258.076 260.362C257.328 260.95 254.25 261.575 251.929 263.608C249.189 266.009 247.217 269.877 247.217 270.824L247.529 270.941C249.238 271.598 249.889 272.137 249.482 272.557C247.67 274.426 242.745 275.931 242.381 275.818C242.022 275.707 239.897 271.493 240.744 268.652C240.857 268.273 241.841 268.561 243.695 269.518C245.364 264.559 247.801 260.831 252.356 257.883L252.935 257.516C253.918 256.899 255.129 256.201 256.115 256.678Z" fill="#00160A"/>
<path fill-rule="evenodd" clip-rule="evenodd" d="M257.422 310.304C247.419 299.372 246.84 280.725 257.647 268.716C264.36 261.255 280.14 256.45 291.181 259.128C297.121 260.569 303.564 266.397 307.662 274.053C312.267 282.656 313.443 292.43 310.24 301.469C307.809 308.332 303.415 313.118 297.577 315.971C292.915 318.249 287.54 319.177 282.305 318.957C272.859 318.559 261.113 314.337 257.422 310.304ZM305.282 275.328C301.518 268.296 295.653 262.992 290.545 261.752L290.241 261.681C280.169 259.396 265.64 263.869 259.654 270.522C249.799 281.473 250.329 298.553 259.414 308.481C262.549 311.907 273.627 315.889 282.419 316.259C287.232 316.462 292.167 315.609 296.392 313.545C301.607 310.997 305.505 306.75 307.695 300.567C310.629 292.289 309.546 283.294 305.282 275.328ZM300.081 301.197C306.056 290.708 297.956 268.059 286.644 266.169C276.01 264.393 271.979 266.972 267.393 270.949L266.506 271.727C257.53 279.662 257.53 296.71 266.299 304.619C268.503 306.606 278.197 311.705 285.637 310.145C290.57 309.111 297.435 305.841 300.081 301.197ZM275.113 269.128C275.676 268.926 276.27 268.76 276.903 268.63C276.817 268.827 276.745 269.035 276.685 269.256C276.35 270.489 276.384 271.544 276.746 274.111L276.993 275.813C277.014 275.963 277.033 276.1 277.051 276.241L277.106 276.674C277.49 279.925 277.141 281.62 275.688 282.556C274.358 283.411 273.05 283.735 270.062 284.082L268.943 284.209C267.564 284.368 266.84 284.478 265.97 284.674L265.575 284.754C264.369 285.007 263.367 285.323 262.59 285.719C263.103 281.075 265.004 276.658 268.294 273.749C271.397 271.006 272.963 269.899 275.113 269.128ZM286.199 268.832C285.762 268.759 285.337 268.694 284.923 268.636C285.009 268.856 285.083 269.089 285.143 269.336C285.396 270.365 285.44 271.28 285.378 273.363L285.349 274.261C285.317 275.126 285.302 275.641 285.298 276.135L285.298 276.728C285.323 279.363 285.736 281.115 286.749 282.301L286.862 282.428L286.907 282.447C286.97 282.472 287.049 282.5 287.144 282.532L287.243 282.564C287.476 282.638 287.767 282.721 288.139 282.819L288.763 282.978L291.424 283.63C291.946 283.759 292.411 283.878 292.856 283.995L293.589 284.193C295.789 284.799 297.475 285.389 298.702 286.048C296.87 277.846 291.826 269.773 286.199 268.832ZM298.996 292.08C299.148 291.983 299.292 291.885 299.428 291.785C299.493 294.844 298.981 297.673 297.735 299.86C295.946 303 290.977 305.991 286.125 307.257C286.248 306.948 286.347 306.611 286.424 306.251C286.66 305.144 286.698 303.875 286.605 302.079L286.546 301.112L286.458 299.841C286.292 297.301 286.332 296.239 286.554 295.984C287.55 294.839 288.93 294.401 292.442 293.897L293.256 293.781C296.192 293.352 297.568 292.99 298.996 292.08ZM278.36 305.942C278.397 306.398 278.548 306.863 278.793 307.301C277.548 307.038 276.253 306.66 274.932 306.177C271.979 305.096 269.116 303.524 268.107 302.614C264.905 299.725 263.062 295.365 262.577 290.774C263.407 291.157 264.504 291.48 265.866 291.802L266.076 291.851C266.626 291.979 267.188 292.098 267.852 292.229L269.748 292.597C273.992 293.469 276.184 294.48 277.185 295.83L277.286 295.971C277.949 296.939 278.133 298.033 278.186 300.876L278.216 302.901C278.24 304.114 278.277 304.918 278.36 305.942ZM281.553 268.745L281.675 268.755C282.821 268.892 283.063 269.955 282.927 273.964L282.882 275.353C282.871 275.773 282.866 276.11 282.866 276.48C282.868 278.993 283.169 280.946 283.977 282.51C283.826 282.429 283.654 282.384 283.471 282.384L283.287 282.386L283.242 282.388L283.221 282.379C282.911 282.264 282.572 282.301 282.298 282.462L282.27 282.479L282.175 282.494C279.82 282.887 277.479 284.294 276.224 286.157C274.878 288.156 274.945 290.338 276.48 292.206C275.019 291.435 273.08 290.817 270.521 290.276L269.695 290.11C269.21 290.016 268.604 289.9 268.603 289.9L268.115 289.804C267.644 289.709 267.226 289.621 266.825 289.53L266.625 289.484C265.406 289.201 264.444 288.911 263.771 288.608L263.664 288.559C263.457 288.46 263.293 288.365 263.176 288.281L263.161 288.269L263.19 288.238C263.274 288.156 263.399 288.062 263.572 287.962C264.162 287.622 265.134 287.31 266.467 287.052L266.804 286.98C267.398 286.858 267.979 286.77 268.887 286.662L270.36 286.494C273.711 286.104 275.262 285.719 277.003 284.599C279.541 282.966 280.025 280.412 279.49 276.153L279.431 275.703C279.401 275.483 279.368 275.253 279.325 274.96L279.157 273.809C278.857 271.669 278.814 270.75 279.011 269.964L279.03 269.893C279.271 269.007 279.884 268.641 281.553 268.745ZM279.043 294.259C279.075 294.3 279.106 294.341 279.137 294.383C280.285 295.931 280.548 297.298 280.615 300.79L280.642 302.635C280.662 303.789 280.692 304.549 280.757 305.43L280.782 305.746C280.832 306.371 281.898 307.363 283.074 307.138C283.991 306.963 284.346 305.462 284.173 302.119L284.149 301.701L284.015 299.739C283.803 296.527 283.87 295.46 284.604 294.53C282.846 295.191 280.803 295.16 279.043 294.259ZM287.438 292.502C288.528 292.09 289.915 291.811 291.841 291.529L292.886 291.379C295.326 291.023 296.506 290.731 297.505 290.144L297.691 290.031C298.822 289.31 298.93 289.167 298.427 288.761L298.264 288.635C297.375 287.965 295.657 287.296 293.184 286.603L292.662 286.459C292.098 286.306 291.518 286.157 290.835 285.987L287.993 285.29C287.457 285.155 287.027 285.043 286.678 284.939C288.874 287.261 289.237 289.875 287.728 292.108L287.643 292.231C287.577 292.324 287.509 292.414 287.438 292.502ZM282.608 284.612L282.761 284.59L282.87 284.656C286.402 286.803 287.189 289.143 285.883 290.979C284.583 292.806 281.73 293.437 279.682 292.139C277.309 290.635 276.914 288.999 278.016 287.363C278.946 285.982 280.806 284.889 282.608 284.612Z" fill="#00160A"/>
<path fill-rule="evenodd" clip-rule="evenodd" d="M319.486 279.242C319.43 279.506 319.383 279.903 319.37 280.45C319.338 281.748 319.504 283.445 319.789 285.217C320.071 286.97 320.452 288.686 320.806 289.986C320.962 290.559 321.105 291.022 321.222 291.355C321.367 291.408 321.567 291.463 321.838 291.509C322.458 291.612 323.256 291.635 324.263 291.592C325.031 291.56 325.819 291.496 326.673 291.427C326.945 291.405 327.225 291.382 327.512 291.36C328.655 291.271 329.897 291.19 331.103 291.215C332.048 291.234 333.03 291.256 334.038 291.278C343.011 291.474 354.127 291.717 360.776 291.025C360.866 290.933 361.066 290.689 361.33 290.118C361.81 289.081 362.197 287.559 362.397 285.85C362.595 284.156 362.589 282.463 362.396 281.139C362.3 280.476 362.168 279.984 362.037 279.659C362.011 279.593 361.987 279.541 361.967 279.501C361.932 279.489 361.89 279.476 361.841 279.462C361.553 279.378 361.147 279.293 360.62 279.217C359.569 279.065 358.254 278.977 356.878 278.933C354.677 278.862 352.534 278.906 351.307 278.932C350.996 278.939 350.744 278.944 350.565 278.946C346.736 278.985 342.774 278.972 338.891 278.958C337.306 278.953 335.734 278.948 334.191 278.946C332.852 278.944 331.343 278.892 329.839 278.84C329.742 278.836 329.645 278.833 329.547 278.83C327.925 278.773 326.304 278.72 324.786 278.724C323.257 278.727 321.919 278.787 320.857 278.938C320.329 279.012 319.92 279.102 319.618 279.198C319.569 279.213 319.525 279.228 319.486 279.242ZM321.381 291.762C321.379 291.758 321.376 291.752 321.372 291.743C321.403 291.796 321.405 291.81 321.381 291.762ZM319.556 278.987C319.562 278.969 319.566 278.962 319.567 278.962C319.567 278.963 319.564 278.972 319.556 278.987ZM329.918 276.141C324.994 275.97 319.513 275.779 317.602 277.195C315.101 279.047 318.312 292.532 319.146 293.241C320.762 294.615 323.8 294.368 326.928 294.115C328.323 294.002 329.735 293.887 331.047 293.914C331.993 293.934 332.979 293.955 333.996 293.978C343.01 294.176 354.46 294.427 361.274 293.687C365.379 293.241 366.522 279.52 363.651 277.34C361.895 276.008 353.914 276.176 351.209 276.233C350.92 276.24 350.691 276.244 350.537 276.246C346.728 276.285 342.795 276.272 338.92 276.258C337.33 276.253 335.751 276.248 334.194 276.246C332.902 276.245 331.436 276.194 329.918 276.141Z" fill="#421EB7"/>
<path fill-rule="evenodd" clip-rule="evenodd" d="M334.163 276.504C335.721 276.505 337.3 276.511 338.889 276.516C342.158 276.527 345.467 276.539 348.708 276.518L350.507 276.504C350.661 276.502 350.89 276.497 351.179 276.491C353.883 276.434 361.865 276.266 363.621 277.598C366.492 279.777 365.349 293.499 361.243 293.945C354.43 294.685 342.98 294.434 333.966 294.236H333.966H333.966C332.949 294.213 331.962 294.192 331.017 294.172C329.705 294.145 328.292 294.26 326.898 294.373L326.898 294.373H326.898C323.77 294.626 320.732 294.872 319.115 293.499C318.282 292.79 315.071 279.305 317.571 277.453C319.483 276.037 324.964 276.228 329.888 276.399L329.888 276.399C331.11 276.441 332.298 276.482 333.389 276.498L333.391 276.496L333.392 276.498C333.655 276.501 333.913 276.503 334.163 276.504ZM330.871 279.134C331.136 279.142 331.379 279.15 331.603 279.157C331.784 280.275 331.805 282.24 331.675 285.135L331.578 287.226C331.493 289.182 331.462 290.512 331.518 291.483L330.883 291.47C329.997 291.459 329.1 291.498 327.868 291.588L326.039 291.731C323.347 291.929 321.95 291.9 321.248 291.65L321.198 291.632L321.157 291.511C321.042 291.174 320.912 290.742 320.776 290.244L320.688 289.916C320.339 288.582 320.004 286.999 319.759 285.475C319.459 283.617 319.309 281.953 319.34 280.708L319.345 280.549C319.36 280.134 319.397 279.79 319.449 279.534L319.458 279.49L319.55 279.46C320.014 279.313 320.834 279.163 321.932 279.077C323.299 278.971 324.929 278.957 327.191 279.015L329.097 279.073L330.871 279.134ZM339.477 291.65L334.257 291.54C334.229 291.234 334.209 290.858 334.202 290.422L334.201 290.329C334.192 289.645 334.206 288.992 334.253 287.844L334.405 284.47C334.497 282.151 334.5 280.468 334.347 279.203L345.516 279.229C346.114 279.229 346.688 279.228 347.246 279.226C347.075 282.585 347.347 288.461 347.696 291.742C346.754 291.741 345.776 291.735 344.76 291.726L342.83 291.704C341.766 291.69 340.679 291.672 339.477 291.65ZM350.439 291.733C354.588 291.698 357.919 291.564 360.501 291.307L360.743 291.282L360.775 291.249C360.913 291.092 361.074 290.842 361.238 290.506L361.3 290.376C361.785 289.327 362.169 287.799 362.367 286.107C362.563 284.434 362.561 282.737 362.366 281.397C362.276 280.779 362.15 280.272 362.007 279.917L361.966 279.821L361.936 279.758L361.828 279.725C361.539 279.639 361.143 279.557 360.657 279.485C359.701 279.342 358.469 279.247 357.027 279.196C355.687 279.149 354.325 279.142 352.799 279.163L350.534 279.204L349.891 279.209C349.87 279.574 349.855 280.008 349.848 280.494L349.847 280.652C349.836 281.969 349.883 283.627 349.976 285.463L349.996 285.832C350.073 287.272 350.176 288.76 350.285 290.069L350.352 290.831C350.381 291.157 350.41 291.459 350.439 291.733ZM338.548 283.764L338.795 284.117C339.076 284.513 339.341 284.864 339.594 285.173C339.255 285.913 339.076 286.744 339.021 287.813C339 288.202 339.299 288.534 339.688 288.554C340.077 288.575 340.409 288.276 340.429 287.887C340.461 287.271 340.537 286.763 340.671 286.312C341.452 286.995 342.135 287.248 342.853 287.261L342.992 287.261C343.381 287.261 343.697 286.946 343.697 286.556C343.697 286.191 343.42 285.891 343.064 285.855L342.992 285.851L342.874 285.851C342.413 285.841 341.95 285.646 341.318 285.009C341.524 284.722 341.772 284.436 342.068 284.132L342.824 283.383C343.101 283.109 343.103 282.663 342.829 282.386C342.555 282.109 342.108 282.107 341.832 282.382L341.198 283.005C340.891 283.313 340.62 283.609 340.385 283.905L340.128 283.558C339.995 283.375 339.857 283.178 339.711 282.966C339.491 282.645 339.052 282.563 338.731 282.783C338.41 283.004 338.328 283.443 338.548 283.764ZM357.806 283.092L357.812 282.662C357.816 282.273 357.503 281.954 357.113 281.951C356.724 281.948 356.405 282.261 356.402 282.65C356.398 283.079 356.387 283.463 356.369 283.806C356.008 283.692 355.619 283.598 355.192 283.515L354.318 283.352C353.935 283.279 353.566 283.531 353.493 283.913C353.421 284.296 353.672 284.665 354.055 284.738L355.1 284.935C355.516 285.022 355.882 285.12 356.213 285.243C356.045 286.125 355.77 286.545 355.394 286.811L355.296 286.877L355.238 286.92C354.963 287.149 354.901 287.553 355.105 287.856C355.323 288.179 355.761 288.264 356.084 288.046L356.199 287.969C356.787 287.556 357.212 286.964 357.477 285.961C357.841 286.26 358.188 286.639 358.559 287.132C358.793 287.443 359.235 287.505 359.546 287.271C359.858 287.036 359.92 286.594 359.685 286.283C359.041 285.428 358.429 284.838 357.733 284.415C357.77 284.017 357.794 283.578 357.806 283.092Z" fill="#00160A"/>
<path fill-rule="evenodd" clip-rule="evenodd" d="M327.037 283.038L326.926 283.454C326.798 283.922 326.668 284.342 326.536 284.72C327.108 285.299 327.56 286.019 327.978 287.005C328.13 287.363 327.963 287.777 327.605 287.929C327.246 288.081 326.832 287.914 326.68 287.555C326.439 286.987 326.194 286.536 325.914 286.158C325.414 287.067 324.858 287.539 324.188 287.797L324.058 287.844C323.692 287.977 323.287 287.789 323.154 287.423C323.029 287.08 323.187 286.702 323.509 286.547L323.575 286.519L323.686 286.478C324.116 286.311 324.485 285.97 324.86 285.155C324.569 284.955 324.238 284.772 323.855 284.587L322.889 284.143C322.535 283.98 322.38 283.561 322.543 283.207C322.706 282.853 323.125 282.699 323.479 282.862L324.288 283.231C324.682 283.415 325.037 283.601 325.36 283.799C325.461 283.47 325.564 283.1 325.671 282.685C325.769 282.308 326.153 282.081 326.53 282.179C326.907 282.276 327.134 282.661 327.037 283.038Z" fill="#FFD90F"/>
</svg>
