<svg width="280" height="258" viewBox="0 0 280 258" fill="none" xmlns="http://www.w3.org/2000/svg">
<path fill-rule="evenodd" clip-rule="evenodd" d="M70.6347 106.442C67.2587 58.2562 130.387 26.5196 187.936 30.2265C198.926 30.9344 240.138 39.8655 219.458 68.7157C198.779 97.566 219.146 114.343 210.046 151.993C199.521 195.532 158.757 236.545 103.325 214.724C-37.5625 159.263 71.7715 122.667 70.6347 106.442Z" fill="#FFD90F"/>
<path d="M63.0294 254.797C66.763 254.797 70.4966 254.797 74.2303 254.797C74.6288 254.797 74.6288 254.168 74.2303 254.168C70.4966 254.168 66.763 254.168 63.0294 254.168C62.6308 254.168 62.6308 254.797 63.0294 254.797Z" fill="#161616"/>
<path d="M112.259 254.422C115.028 254.422 117.796 254.422 120.565 254.422C120.964 254.422 120.964 253.793 120.565 253.793C117.796 253.793 115.028 253.793 112.259 253.793C111.839 253.793 111.839 254.422 112.259 254.422Z" fill="#161616"/>
<path d="M124.592 254.043C126.207 254.043 127.802 254.043 129.417 254.043C129.815 254.043 129.815 253.414 129.417 253.414C127.802 253.414 126.207 253.414 124.592 253.414C124.194 253.414 124.194 254.043 124.592 254.043Z" fill="#161616"/>
<path fill-rule="evenodd" clip-rule="evenodd" d="M104.834 228.893H65.0014C63.617 228.893 62.4844 227.761 62.4844 226.376V225.076C62.4844 223.691 63.617 222.559 65.0014 222.559H104.834C106.218 222.559 107.351 223.691 107.351 225.076V226.376C107.351 227.761 106.218 228.893 104.834 228.893Z" stroke="#161616" stroke-width="0.419509"/>
<path fill-rule="evenodd" clip-rule="evenodd" d="M108.735 235.565H68.9028C67.5184 235.565 66.3857 234.432 66.3857 233.048V231.748C66.3857 230.363 67.5184 229.23 68.9028 229.23H108.735C110.12 229.23 111.252 230.363 111.252 231.748V233.048C111.252 234.432 110.12 235.565 108.735 235.565Z" stroke="#161616" stroke-width="0.419509"/>
<path fill-rule="evenodd" clip-rule="evenodd" d="M99.5477 242.065H59.7153C58.3309 242.065 57.1982 240.932 57.1982 239.548V238.248C57.1982 236.863 58.3309 235.73 59.7153 235.73H99.5477C100.932 235.73 102.065 236.863 102.065 238.248V239.548C102.065 240.932 100.932 242.065 99.5477 242.065Z" stroke="#161616" stroke-width="0.419509"/>
<path fill-rule="evenodd" clip-rule="evenodd" d="M104.414 248.19H64.6025C63.2181 248.19 62.0854 247.057 62.0854 245.673V244.373C62.0854 242.988 63.2181 241.855 64.6025 241.855H104.435C105.819 241.855 106.952 242.988 106.952 244.373V245.673C106.931 247.057 105.798 248.19 104.414 248.19Z" stroke="#161616" stroke-width="0.419509"/>
<path fill-rule="evenodd" clip-rule="evenodd" d="M108.735 254.526H68.9028C67.5184 254.526 66.3857 253.393 66.3857 252.009V250.708C66.3857 249.324 67.5184 248.191 68.9028 248.191H108.735C110.12 248.191 111.252 249.324 111.252 250.708V252.009C111.252 253.393 110.12 254.526 108.735 254.526Z" stroke="#161616" stroke-width="0.419509"/>
<path d="M93.1924 225.287C93.1924 226.147 93.1924 227.028 93.1924 227.888C93.1924 228.181 93.6748 228.202 93.6748 227.888C93.6748 227.028 93.6748 226.147 93.6748 225.287C93.6538 224.972 93.1924 224.972 93.1924 225.287Z" fill="#161616"/>
<path d="M94.5977 225.748C94.5977 226.545 94.5977 227.321 94.5977 228.118C94.5977 228.411 95.0801 228.432 95.0801 228.118C95.0801 227.321 95.0801 226.545 95.0801 225.748C95.0801 225.454 94.5977 225.454 94.5977 225.748Z" fill="#161616"/>
<path d="M99.3379 224.447C99.3379 225.559 99.3379 226.649 99.3379 227.761C99.3379 228.055 99.8203 228.076 99.8203 227.761C99.8203 226.649 99.8203 225.559 99.8203 224.447C99.8203 224.153 99.3379 224.153 99.3379 224.447Z" fill="#161616"/>
<path d="M100.282 226.334C100.282 226.774 100.282 227.194 100.282 227.634C100.282 227.928 100.764 227.949 100.764 227.634C100.764 227.194 100.764 226.774 100.764 226.334C100.764 226.04 100.282 226.04 100.282 226.334Z" fill="#161616"/>
<path d="M67.728 224.361C67.728 225.578 67.728 226.794 67.728 228.032C67.728 228.325 68.2105 228.346 68.2105 228.032C68.2105 226.815 68.2105 225.599 68.2105 224.361C68.1895 224.046 67.728 224.046 67.728 224.361Z" fill="#161616"/>
<path d="M65.7773 225.287C65.7773 226 65.7773 226.734 65.7773 227.447C65.7773 227.741 66.2598 227.762 66.2598 227.447C66.2598 226.734 66.2598 226 66.2598 225.287C66.2598 224.993 65.7773 224.993 65.7773 225.287Z" fill="#161616"/>
<path d="M73.6221 224.509C73.6221 225.495 73.6221 226.481 73.6221 227.446C73.6221 227.74 74.1045 227.761 74.1045 227.446C74.1045 226.46 74.1045 225.474 74.1045 224.509C74.0835 224.195 73.6221 224.195 73.6221 224.509Z" fill="#161616"/>
<path d="M71.4619 226.228C71.4619 226.878 71.4619 227.529 71.4619 228.179C71.4619 228.473 71.9443 228.494 71.9443 228.179C71.9443 227.529 71.9443 226.878 71.9443 226.228C71.9234 225.914 71.4619 225.914 71.4619 226.228Z" fill="#161616"/>
<path d="M82.4526 224.572C82.4526 225.851 82.4526 227.11 82.4526 228.389C82.4526 228.683 82.9351 228.704 82.9351 228.389C82.9351 227.11 82.9351 225.851 82.9351 224.572C82.9351 224.278 82.4526 224.278 82.4526 224.572Z" fill="#161616"/>
<path d="M83.8999 226.021C83.8999 226.671 83.8999 227.322 83.8999 227.972C83.8999 228.266 84.3823 228.286 84.3823 227.972C84.3823 227.322 84.3823 226.671 84.3823 226.021C84.3614 225.706 83.8999 225.706 83.8999 226.021Z" fill="#161616"/>
<path d="M86.0396 224.279C86.0396 225.558 86.0396 226.817 86.0396 228.096C86.0396 228.39 86.522 228.411 86.522 228.096C86.522 226.817 86.522 225.558 86.522 224.279C86.522 223.985 86.0396 223.985 86.0396 224.279Z" fill="#161616"/>
<path d="M72.0278 230.677C72.0278 232.188 72.0278 233.698 72.0278 235.208C72.0278 235.502 72.5103 235.523 72.5103 235.208C72.5103 233.698 72.5103 232.188 72.5103 230.677C72.5103 230.384 72.0278 230.384 72.0278 230.677Z" fill="#161616"/>
<path d="M74.6289 232.185C74.6289 233.255 74.6289 234.346 74.6289 235.415C74.6289 235.709 75.1113 235.73 75.1113 235.415C75.1113 234.346 75.1113 233.255 75.1113 232.185C75.0904 231.891 74.6289 231.891 74.6289 232.185Z" fill="#161616"/>
<path d="M83.04 231.326C83.04 232.395 83.04 233.486 83.04 234.556C83.04 234.85 83.5225 234.871 83.5225 234.556C83.5225 233.486 83.5225 232.395 83.5225 231.326C83.5015 231.032 83.04 231.032 83.04 231.326Z" fill="#161616"/>
<path d="M88.4937 230.173C88.4937 231.914 88.4937 233.676 88.4937 235.417C88.4937 235.711 88.9761 235.732 88.9761 235.417C88.9761 233.676 88.9761 231.914 88.9761 230.173C88.9551 229.88 88.4937 229.88 88.4937 230.173Z" fill="#161616"/>
<path d="M93.4438 232.271C93.4438 232.837 93.4438 233.425 93.4438 233.991C93.4438 234.285 93.9263 234.306 93.9263 233.991C93.9263 233.425 93.9263 232.837 93.9263 232.271C93.9263 231.956 93.4438 231.956 93.4438 232.271Z" fill="#161616"/>
<path d="M62.1064 237.513C62.1064 238.898 62.1064 240.282 62.1064 241.687C62.1064 241.981 62.5889 242.002 62.5889 241.687C62.5889 240.303 62.5889 238.919 62.5889 237.513C62.5889 237.199 62.1064 237.199 62.1064 237.513Z" fill="#161616"/>
<path d="M73.1816 237.662C73.1816 239.109 73.1816 240.535 73.1816 241.983C73.1816 242.276 73.6641 242.297 73.6641 241.983C73.6641 240.535 73.6641 239.109 73.6641 237.662C73.6641 237.347 73.1816 237.347 73.1816 237.662Z" fill="#161616"/>
<path d="M68.5879 238.017C68.5879 238.982 68.5879 239.926 68.5879 240.891C68.5879 241.185 69.0703 241.205 69.0703 240.891C69.0703 239.926 69.0703 238.982 69.0703 238.017C69.0494 237.703 68.5879 237.703 68.5879 238.017Z" fill="#161616"/>
<path d="M70.1611 237.076C70.1611 237.873 70.1611 238.649 70.1611 239.446C70.1611 239.74 70.6436 239.761 70.6436 239.446C70.6436 238.649 70.6436 237.873 70.6436 237.076C70.6436 236.782 70.1611 236.782 70.1611 237.076Z" fill="#161616"/>
<path d="M85.4102 237.158C85.4102 238.626 85.4102 240.073 85.4102 241.542C85.4102 241.835 85.8926 241.856 85.8926 241.542C85.8926 240.073 85.8926 238.626 85.8926 237.158C85.8716 236.843 85.4102 236.843 85.4102 237.158Z" fill="#161616"/>
<path d="M81.4458 237.076C81.4458 237.432 81.4458 237.789 81.4458 238.145C81.4458 238.439 81.9282 238.46 81.9282 238.145C81.9282 237.789 81.9282 237.432 81.9282 237.076C81.9282 236.782 81.4458 236.782 81.4458 237.076Z" fill="#161616"/>
<path d="M94.8071 235.795C94.8071 237.179 94.8071 238.563 94.8071 239.969C94.8071 240.262 95.2896 240.283 95.2896 239.969C95.2896 238.584 95.2896 237.2 95.2896 235.795C95.2896 235.48 94.8071 235.48 94.8071 235.795Z" fill="#161616"/>
<path d="M96.9048 238.794C96.9048 239.633 96.9048 240.472 96.9048 241.312C96.9048 241.605 97.3872 241.626 97.3872 241.312C97.3872 240.472 97.3872 239.633 97.3872 238.794C97.3662 238.501 96.9048 238.501 96.9048 238.794Z" fill="#161616"/>
<path d="M89.3535 237.076C89.3535 238.292 89.3535 239.509 89.3535 240.746C89.3535 241.04 89.836 241.061 89.836 240.746C89.836 239.53 89.836 238.313 89.836 237.076C89.836 236.782 89.3535 236.782 89.3535 237.076Z" fill="#161616"/>
<path d="M66.1338 242.548C66.1338 244.101 66.1338 245.653 66.1338 247.226C66.1338 247.52 66.6162 247.541 66.6162 247.226C66.6162 245.674 66.6162 244.122 66.6162 242.548C66.6162 242.234 66.1338 242.234 66.1338 242.548Z" fill="#161616"/>
<path d="M69.7837 248.066C69.7837 246.514 69.7837 244.961 69.7837 243.388C69.7837 243.095 69.3013 243.074 69.3013 243.388C69.3013 244.941 69.3013 246.493 69.3013 248.066C69.3013 248.38 69.7837 248.38 69.7837 248.066Z" fill="#161616"/>
<path d="M71.294 247.938C71.294 247.33 71.294 246.743 71.294 246.134C71.294 245.841 70.8115 245.82 70.8115 246.134C70.8115 246.743 70.8115 247.33 70.8115 247.938C70.8115 248.232 71.294 248.232 71.294 247.938Z" fill="#161616"/>
<path d="M74.6289 242.193C74.6289 243.829 74.6289 245.444 74.6289 247.08C74.6289 247.374 75.1113 247.395 75.1113 247.08C75.1113 245.444 75.1113 243.829 75.1113 242.193C75.0904 241.878 74.6289 241.878 74.6289 242.193Z" fill="#161616"/>
<path d="M75.8457 244.478C75.8457 245.254 75.8457 246.009 75.8457 246.785C75.8457 247.079 76.3281 247.1 76.3281 246.785C76.3281 246.009 76.3281 245.254 76.3281 244.478C76.3072 244.184 75.8457 244.184 75.8457 244.478Z" fill="#161616"/>
<path d="M77.5024 243.619C77.5024 244.458 77.5024 245.297 77.5024 246.136C77.5024 246.429 77.9849 246.45 77.9849 246.136C77.9849 245.297 77.9849 244.458 77.9849 243.619C77.9639 243.325 77.5024 243.325 77.5024 243.619Z" fill="#161616"/>
<path d="M82.8936 242.193C82.8936 243.892 82.8936 245.591 82.8936 247.29C82.8936 247.584 83.376 247.605 83.376 247.29C83.376 245.591 83.376 243.892 83.376 242.193C83.355 241.878 82.8936 241.878 82.8936 242.193Z" fill="#161616"/>
<path d="M88.3472 244.06C88.3472 245.004 88.3472 245.927 88.3472 246.871C88.3472 247.165 88.8296 247.186 88.8296 246.871C88.8296 245.927 88.8296 245.004 88.8296 244.06C88.8296 243.746 88.3472 243.746 88.3472 244.06Z" fill="#161616"/>
<path d="M95.8145 242.045C95.8145 243.848 95.8145 245.631 95.8145 247.435C95.8145 247.729 96.2969 247.75 96.2969 247.435C96.2969 245.631 96.2969 243.848 96.2969 242.045C96.2969 241.73 95.8145 241.73 95.8145 242.045Z" fill="#161616"/>
<path d="M98.1216 244.689C98.1216 245.549 98.1216 246.409 98.1216 247.269C98.1216 247.563 98.604 247.584 98.604 247.269C98.604 246.409 98.604 245.549 98.604 244.689C98.604 244.395 98.1216 244.395 98.1216 244.689Z" fill="#161616"/>
<path d="M102.086 242.318C102.086 243.66 102.086 245.003 102.086 246.345C102.086 246.639 102.568 246.66 102.568 246.345C102.568 245.003 102.568 243.66 102.568 242.318C102.547 242.024 102.086 242.024 102.086 242.318Z" fill="#161616"/>
<path d="M72.0068 254.335C72.0068 252.783 72.0068 251.231 72.0068 249.658C72.0068 249.364 71.5244 249.343 71.5244 249.658C71.5244 251.21 71.5244 252.762 71.5244 254.335C71.5244 254.629 72.0068 254.629 72.0068 254.335Z" fill="#161616"/>
<path d="M73.7271 254.255C73.7271 253.458 73.7271 252.681 73.7271 251.884C73.7271 251.591 73.2446 251.57 73.2446 251.884C73.2446 252.681 73.2446 253.458 73.2446 254.255C73.2656 254.569 73.7271 254.569 73.7271 254.255Z" fill="#161616"/>
<path d="M78.5723 248.798C78.5723 250.602 78.5723 252.385 78.5723 254.189C78.5723 254.483 79.0547 254.504 79.0547 254.189C79.0547 252.385 79.0547 250.602 79.0547 248.798C79.0547 248.484 78.5723 248.484 78.5723 248.798Z" fill="#161616"/>
<path d="M82.8936 249.658C82.8936 250.77 82.8936 251.86 82.8936 252.972C82.8936 253.266 83.376 253.287 83.376 252.972C83.376 251.86 83.376 250.77 83.376 249.658C83.355 249.343 82.8936 249.343 82.8936 249.658Z" fill="#161616"/>
<path d="M81.3828 250.31C81.3828 250.751 81.3828 251.17 81.3828 251.611C81.3828 251.904 81.8652 251.925 81.8652 251.611C81.8652 251.17 81.8652 250.751 81.8652 250.31C81.8443 249.996 81.3828 249.996 81.3828 250.31Z" fill="#161616"/>
<path d="M90.7173 248.295C90.7173 250.161 90.7173 252.028 90.7173 253.895C90.7173 254.189 91.1997 254.21 91.1997 253.895C91.1997 252.028 91.1997 250.161 91.1997 248.295C91.1997 247.98 90.7173 247.98 90.7173 248.295Z" fill="#161616"/>
<path d="M92.521 250.728C92.521 251.567 92.521 252.406 92.521 253.245C92.521 253.539 93.0034 253.56 93.0034 253.245C93.0034 252.406 93.0034 251.567 93.0034 250.728C92.9825 250.434 92.521 250.434 92.521 250.728Z" fill="#161616"/>
<path d="M97.1147 248.568C97.1147 250.309 97.1147 252.071 97.1147 253.812C97.1147 254.105 97.5972 254.126 97.5972 253.812C97.5972 252.071 97.5972 250.309 97.5972 248.568C97.5972 248.274 97.1147 248.274 97.1147 248.568Z" fill="#161616"/>
<path d="M105.463 249.009C105.463 250.52 105.463 252.03 105.463 253.54C105.463 253.834 105.945 253.855 105.945 253.54C105.945 252.03 105.945 250.52 105.945 249.009C105.924 248.716 105.463 248.716 105.463 249.009Z" fill="#161616"/>
<path d="M106.742 250.959C106.742 251.672 106.742 252.406 106.742 253.119C106.742 253.413 107.225 253.434 107.225 253.119C107.225 252.406 107.225 251.672 107.225 250.959C107.225 250.644 106.742 250.644 106.742 250.959Z" fill="#161616"/>
<path d="M101.373 235.08C101.373 233.969 101.373 232.836 101.373 231.724C101.373 231.431 100.89 231.41 100.89 231.724C100.89 232.836 100.89 233.969 100.89 235.08C100.911 235.374 101.373 235.395 101.373 235.08Z" fill="#161616"/>
<path d="M104.267 230.361C104.267 231.871 104.267 233.36 104.267 234.871C104.267 235.164 104.75 235.185 104.75 234.871C104.75 233.36 104.75 231.871 104.75 230.361C104.729 230.067 104.267 230.046 104.267 230.361Z" fill="#161616"/>
<path d="M106.449 221.384C107.603 222.055 108.232 223.314 108.127 224.635C108.106 224.929 108.568 224.929 108.609 224.635C108.735 223.146 108.001 221.741 106.701 220.986C106.428 220.818 106.176 221.216 106.449 221.384Z" fill="#161616"/>
<path d="M58.415 236.97C57.8486 237.893 57.7438 238.983 58.1213 239.99C58.2262 240.263 58.6877 240.158 58.5828 239.864C58.2472 238.962 58.3311 238.039 58.8345 237.2C58.9813 236.949 58.5828 236.697 58.415 236.97Z" fill="#161616"/>
<path d="M56.0447 234.597C54.8281 236.129 54.2198 237.953 54.2618 239.904C54.2618 240.198 54.7442 240.219 54.7442 239.904C54.7023 238.079 55.2686 236.359 56.4013 234.912C56.5691 234.702 56.2335 234.367 56.0447 234.597Z" fill="#161616"/>
<path d="M106.239 241.29C107.078 241.73 107.602 242.569 107.602 243.534C107.602 243.828 108.085 243.849 108.085 243.534C108.085 242.423 107.477 241.395 106.491 240.891C106.218 240.744 105.966 241.143 106.239 241.29Z" fill="#161616"/>
<path opacity="0.15" d="M84.4873 223.064C85.7668 222.896 88.7663 222.686 91.6189 224.406C92.437 224.888 93.0662 225.434 93.5906 225.958C93.5277 226.923 93.4438 227.888 93.3809 228.853C90.2975 228.979 87.235 229.104 84.1517 229.209C84.5712 229.23 87.9272 229.419 89.7521 232.146C90.5492 233.342 90.738 234.537 90.7799 235.25C90.675 236.005 90.3394 237.621 89.1228 239.173C87.6546 241.04 85.8087 241.732 85.0956 241.962C85.4312 242.13 87.0253 243.032 87.5707 244.962C87.8853 246.095 87.6965 247.08 87.5707 247.542C85.536 249.744 83.5014 251.947 81.4668 254.17C90.8009 254.275 100.156 254.38 109.49 254.485C109.847 254.296 110.518 253.856 110.937 253.037C111.63 251.695 111.294 250.08 110.518 249.115C109.05 247.248 105.714 247.898 105.337 247.982C105.442 247.919 107.141 246.64 106.994 244.563C106.889 243.074 105.861 242.172 105.652 241.983C104.162 241.879 102.694 241.774 101.205 241.669C101.352 241.522 102.463 240.305 102.233 238.564C102.044 237.222 101.142 236.089 99.8623 235.565C101.855 235.544 103.575 235.502 104.938 235.46C108.903 235.355 109.805 235.292 110.518 234.537C111.483 233.488 111.797 231.454 110.832 230.195C110.308 229.524 109.595 229.272 109.175 229.167C107.623 229.104 106.071 229.021 104.519 228.958C104.75 228.958 105.861 228.979 106.7 228.14C107.518 227.301 107.455 226.189 107.434 225.664C107.413 225.329 107.288 223.945 106.302 223.085C105.274 222.183 103.952 222.434 101.54 222.56C99.6525 222.665 97.7438 222.476 95.856 222.56C91.9126 222.728 87.9272 222.917 84.4873 223.064Z" fill="#3D3D3D"/>
<path d="M113.58 248.942C128.032 248.942 142.505 248.942 156.957 248.942C161.069 248.942 165.201 248.942 169.312 248.942C169.71 248.942 169.71 248.312 169.312 248.312C154.86 248.312 140.387 248.312 125.935 248.312C121.824 248.312 117.691 248.312 113.58 248.312C113.182 248.312 113.182 248.942 113.58 248.942Z" fill="#4D4D4D"/>
<path d="M175.164 249.468C184.855 248.713 194.524 248.503 204.236 249.321C204.635 249.363 204.635 248.734 204.236 248.692C194.524 247.874 184.876 248.084 175.164 248.839C174.766 248.86 174.766 249.489 175.164 249.468Z" fill="#4D4D4D"/>
<path d="M201.425 252.781C206.648 253.242 211.829 251.942 217.031 251.606C222.38 251.271 227.75 251.606 233.035 252.55C233.434 252.613 233.602 252.005 233.203 251.942C228.001 251.019 222.715 250.662 217.43 250.956C212.102 251.25 206.774 252.634 201.425 252.152C201.027 252.11 201.027 252.739 201.425 252.781Z" fill="#4D4D4D"/>
<path d="M204.698 248.545C202.516 246.867 200.482 244.979 198.678 242.902C198.279 242.441 197.902 241.98 197.524 241.518C197.251 241.182 196.958 240.826 196.769 240.448C196.517 239.945 196.622 239.588 196.622 239.022C196.622 238.036 196.056 238.078 195.406 237.407C194.42 236.379 194.273 234.89 193.979 233.568C193.707 232.331 193.203 231.24 192.637 230.128C191.315 227.465 190.707 224.423 189.91 221.57C189.847 221.696 189.763 221.822 189.7 221.948C192.469 221.57 195.468 223.647 197.671 225.157C198.804 225.933 199.873 226.772 200.901 227.674C201.929 228.597 203.502 229.898 202.936 231.45C202.852 231.66 203.062 231.848 203.229 231.848C204.949 231.911 206.25 233.631 207.173 234.911C208.075 236.127 208.809 237.47 209.354 238.875C210.445 241.707 210.781 244.79 210.298 247.79C210.235 248.188 210.843 248.356 210.906 247.958C211.452 244.601 211.032 241.161 209.669 238.015C208.998 236.484 208.117 235.037 207.047 233.736C206.061 232.541 204.865 231.261 203.208 231.198C203.313 231.324 203.418 231.471 203.502 231.597C203.985 230.296 203.229 229.101 202.348 228.178C201.216 226.982 199.894 225.954 198.552 225.01C196.077 223.248 192.7 220.878 189.49 221.34C189.323 221.361 189.239 221.57 189.281 221.717C190.099 224.633 190.707 227.695 192.07 230.422C192.763 231.827 193.224 233.149 193.56 234.68C193.79 235.813 194.126 236.987 194.965 237.847C195.322 238.225 195.951 238.435 196.014 238.98C196.056 239.483 195.888 239.84 196.077 240.385C196.475 241.497 197.503 242.504 198.258 243.364C200.104 245.482 202.181 247.391 204.404 249.111C204.698 249.321 205.012 248.776 204.698 248.545Z" fill="#4D4D4D"/>
<path d="M208.285 234.721C209.019 232.015 211.2 229.666 212.92 227.527C213.382 226.96 213.822 226.415 214.284 225.87C214.661 225.408 215.144 224.548 215.794 224.443C216.067 224.401 216.192 224.569 216.486 224.38C216.801 224.192 216.927 223.814 217.094 223.52C218.353 221.234 220.367 219.577 222.485 218.088C224.142 216.913 225.778 215.738 226.596 213.809C226.386 213.746 226.198 213.704 225.988 213.641C225.128 216.829 225.128 219.996 225.673 223.248C226.24 226.625 226.365 229.897 225.443 233.253C223.681 239.65 218.835 243.95 213.906 248.02C213.591 248.271 214.032 248.712 214.347 248.46C219.171 244.475 223.932 240.259 225.841 234.092C226.743 231.155 226.995 228.051 226.575 225.01C226.324 223.206 225.925 221.444 225.862 219.598C225.799 217.626 226.051 215.676 226.575 213.788C226.68 213.389 226.114 213.263 225.967 213.62C225.002 215.927 222.632 217.102 220.744 218.549C219.779 219.283 218.877 220.101 218.059 221.003C217.703 221.402 217.367 221.842 217.073 222.283C216.843 222.639 216.486 223.604 216.108 223.73C215.857 223.814 215.584 223.667 215.29 223.793C214.871 223.961 214.598 224.464 214.326 224.779C213.403 225.891 212.48 226.981 211.599 228.114C210.068 230.044 208.327 232.099 207.655 234.512C207.571 234.952 208.18 235.12 208.285 234.721Z" fill="#4D4D4D"/>
<path d="M192.301 225.175C194.189 226.518 195.615 228.322 197.021 230.146C198.51 232.034 199.978 233.943 201.363 235.915C204.027 239.69 206.355 243.739 207.592 248.227C207.697 248.626 208.306 248.458 208.201 248.059C206.921 243.403 204.488 239.208 201.698 235.306C200.335 233.398 198.909 231.552 197.461 229.706C196.014 227.839 194.546 226.014 192.595 224.651C192.28 224.399 191.966 224.945 192.301 225.175Z" fill="#4D4D4D"/>
<path d="M223.765 219.072C220.43 227.84 212.732 234.384 210.529 243.655C210.445 244.054 211.033 244.222 211.137 243.823C213.319 234.552 221.038 228.008 224.373 219.24C224.52 218.862 223.912 218.695 223.765 219.072Z" fill="#4D4D4D"/>
<path d="M218.604 220.565C218.919 223.48 218.73 226.375 218.038 229.206C217.933 229.605 218.541 229.773 218.646 229.374C219.338 226.48 219.548 223.522 219.234 220.565C219.192 220.166 218.562 220.166 218.604 220.565Z" fill="#4D4D4D"/>
<path d="M220.513 226.5C222.485 225.262 224.352 223.878 226.114 222.347C226.429 222.074 225.967 221.633 225.673 221.906C223.953 223.395 222.129 224.759 220.199 225.954C219.842 226.185 220.157 226.73 220.513 226.5Z" fill="#4D4D4D"/>
<path d="M192.532 230.694C193.979 230.652 196.014 230.233 197.335 230.925C197.692 231.114 198.007 230.568 197.65 230.379C196.161 229.582 194.147 230.002 192.532 230.065C192.112 230.086 192.112 230.715 192.532 230.694Z" fill="#4D4D4D"/>
<path d="M200.461 227.506C200.209 229.541 200.251 231.533 200.545 233.568C200.608 233.966 201.216 233.799 201.153 233.4C200.859 231.428 200.859 229.478 201.09 227.506C201.153 227.107 200.524 227.107 200.461 227.506Z" fill="#4D4D4D"/>
<path d="M187.561 256.074C190.959 256.263 194.315 255.508 197.713 255.571C200.964 255.634 204.131 256.494 207.382 255.969C207.781 255.906 207.613 255.298 207.215 255.361C203.901 255.906 200.628 254.941 197.314 254.941C194.063 254.941 190.833 255.634 187.561 255.445C187.162 255.403 187.162 256.032 187.561 256.074Z" fill="#4D4D4D"/>
<path d="M226.869 248.185C229.302 247.85 231.756 247.745 234.21 247.85C236.622 247.955 239.014 248.248 241.447 248.039C243.817 247.85 246.166 247.472 248.557 247.493C250.97 247.514 253.361 247.787 255.752 248.102C256.151 248.144 256.151 247.514 255.752 247.472C253.361 247.179 250.97 246.885 248.557 246.864C246.04 246.843 243.565 247.263 241.048 247.43C238.636 247.598 236.245 247.284 233.833 247.2C231.441 247.116 229.071 247.263 226.722 247.577C226.302 247.64 226.47 248.248 226.869 248.185Z" fill="#4D4D4D"/>
<path d="M9.22739 252.213C15.7298 253.115 22.1693 251.668 28.6507 251.228C32.0906 250.997 35.4677 251.249 38.9077 251.563C42.3476 251.878 45.7876 252.025 49.2486 252.046C53.192 252.067 57.1563 251.962 61.0997 251.836C61.4982 251.815 61.4982 251.186 61.0997 251.207C56.6739 251.332 52.2271 251.458 47.8013 251.395C43.4593 251.332 39.1804 250.85 34.8594 250.577C26.3434 250.011 17.8903 252.78 9.39519 251.605C8.99666 251.563 8.82886 252.151 9.22739 252.213Z" fill="#4D4D4D"/>
<path d="M45.9552 255.761C48.4093 255.761 50.8424 255.173 53.2756 254.985C55.7507 254.796 58.2258 254.754 60.7009 254.859C61.0994 254.88 61.0994 254.251 60.7009 254.23C58.2258 254.125 55.7507 254.146 53.2756 254.355C50.8424 254.544 48.3883 255.132 45.9552 255.132C45.5566 255.132 45.5566 255.761 45.9552 255.761Z" fill="#4D4D4D"/>
<path d="M32.6362 119.924C32.6362 136.285 32.6362 152.646 32.6362 168.986C32.6362 185.325 32.6362 201.707 32.6362 218.047C32.6362 227.276 32.6362 236.506 32.6362 245.735C32.6362 246.133 33.2655 246.133 33.2655 245.735C33.2655 229.374 33.2655 213.013 33.2655 196.673C33.2655 180.333 33.2655 163.951 33.2655 147.612C33.2655 138.382 33.2655 129.153 33.2655 119.924C33.2655 119.525 32.6362 119.525 32.6362 119.924Z" fill="#4D4D4D"/>
<path d="M85.4526 112.248C85.4526 126.281 85.4526 140.313 85.4526 154.346C85.4526 168.378 85.4526 182.411 85.4526 196.444C85.4526 204.393 85.4526 212.364 85.4526 220.314C85.4526 220.712 86.0819 220.712 86.0819 220.314C86.0819 206.281 86.0819 192.249 86.0819 178.216C86.0819 164.183 86.0819 150.151 86.0819 136.118C86.0819 128.168 86.0819 120.198 86.0819 112.248C86.0819 111.85 85.4526 111.85 85.4526 112.248Z" fill="#4D4D4D"/>
<path d="M86.711 172.174C98.6041 177.124 110.518 182.032 122.474 186.857C122.852 187.004 123.02 186.395 122.642 186.248C110.686 181.424 98.7719 176.516 86.8789 171.566C86.5013 171.419 86.3545 172.027 86.711 172.174Z" fill="#4D4D4D"/>
<path d="M120.02 186.44C120.02 202.213 120.02 218.008 120.02 233.781C120.02 238.249 120.02 242.717 120.02 247.184C120.02 247.583 120.649 247.583 120.649 247.184C120.649 231.411 120.649 215.616 120.649 199.843C120.649 195.375 120.649 190.907 120.649 186.44C120.649 186.041 120.02 186.041 120.02 186.44Z" fill="#4D4D4D"/>
<path d="M177.325 246.953C177.325 233.738 177.325 220.545 177.325 207.33C177.325 206.932 176.696 206.932 176.696 207.33C176.696 220.545 176.696 233.738 176.696 246.953C176.696 247.351 177.325 247.351 177.325 246.953Z" fill="#4D4D4D"/>
<path d="M171.473 208.758C184.289 203.242 197.147 197.704 209.334 190.866C212.816 188.915 216.256 186.839 219.612 184.636C219.947 184.406 219.633 183.86 219.297 184.091C207.593 191.747 194.966 197.788 182.213 203.409C178.542 205.024 174.85 206.619 171.179 208.192C170.781 208.38 171.117 208.905 171.473 208.758Z" fill="#4D4D4D"/>
<path d="M187.645 200.616C187.645 183.668 187.645 166.699 187.645 149.751C187.645 144.927 187.645 140.123 187.645 135.299C187.645 134.9 187.016 134.9 187.016 135.299C187.016 152.247 187.016 169.216 187.016 186.164C187.016 190.989 187.016 195.792 187.016 200.616C187.016 201.015 187.645 201.015 187.645 200.616Z" fill="#4D4D4D"/>
<path d="M183.974 136.578C199.601 136.578 215.228 136.578 230.854 136.578C235.322 136.578 239.79 136.578 244.237 136.578C244.635 136.578 244.635 135.949 244.237 135.949C228.61 135.949 212.983 135.949 197.357 135.949C192.889 135.949 188.421 135.949 183.974 135.949C183.555 135.949 183.555 136.578 183.974 136.578Z" fill="#4D4D4D"/>
<path d="M238.406 138.654C238.406 166.027 238.406 193.4 238.406 220.773C238.406 228.45 238.406 236.127 238.406 243.825C238.406 244.224 239.035 244.224 239.035 243.825C239.035 216.452 239.035 189.079 239.035 161.706C239.035 154.029 239.035 146.352 239.035 138.654C239.035 138.256 238.406 138.256 238.406 138.654Z" fill="#4D4D4D"/>
<path d="M29.9514 120.616C44.6133 115.896 60.261 114.868 75.4682 113.127C79.915 112.624 84.3618 112.121 88.8086 111.596C89.2071 111.554 89.2071 110.925 88.8086 110.967C80.8798 111.869 72.9301 112.792 65.0014 113.694C57.4712 114.554 49.8991 115.372 42.4528 116.819C38.1738 117.637 33.9368 118.686 29.7836 120.007C29.4061 120.133 29.5739 120.741 29.9514 120.616Z" fill="#4D4D4D"/>
<path d="M37.1459 135.888C37.1459 132.385 37.1459 128.882 37.1459 125.4C37.1459 125.002 36.5166 125.002 36.5166 125.4C36.5166 128.903 36.5166 132.406 36.5166 135.888C36.5166 136.287 37.1459 136.287 37.1459 135.888Z" fill="#4D4D4D"/>
<path d="M36.6427 125.356C38.6982 125.356 40.7538 125.356 42.8094 125.356C43.208 125.356 43.208 124.727 42.8094 124.727C40.7538 124.727 38.6982 124.727 36.6427 124.727C36.2441 124.727 36.2441 125.356 36.6427 125.356Z" fill="#4D4D4D"/>
<path d="M42.5156 125.209C42.5156 128.859 42.5156 132.509 42.5156 136.137C42.5156 136.536 43.1449 136.536 43.1449 136.137C43.1449 132.488 43.1449 128.838 43.1449 125.209C43.1449 124.811 42.5156 124.811 42.5156 125.209Z" fill="#4D4D4D"/>
<path d="M36.9152 136.559C38.7401 136.559 40.5649 136.559 42.3898 136.559C42.7883 136.559 42.7883 135.93 42.3898 135.93C40.5649 135.93 38.7401 135.93 36.9152 135.93C36.5167 135.93 36.4957 136.559 36.9152 136.559Z" fill="#4D4D4D"/>
<path d="M54.8495 135.802C54.8495 132.299 54.8495 128.796 54.8495 125.315C54.8495 124.916 54.2202 124.916 54.2202 125.315C54.2202 128.817 54.2202 132.32 54.2202 135.802C54.2202 136.201 54.8495 136.201 54.8495 135.802Z" fill="#4D4D4D"/>
<path d="M54.3669 125.254C56.4225 125.254 58.4781 125.254 60.5337 125.254C60.9322 125.254 60.9322 124.625 60.5337 124.625C58.4781 124.625 56.4225 124.625 54.3669 124.625C53.9474 124.625 53.9474 125.254 54.3669 125.254Z" fill="#4D4D4D"/>
<path d="M60.2192 125.127C60.2192 128.777 60.2192 132.426 60.2192 136.055C60.2192 136.454 60.8485 136.454 60.8485 136.055C60.8485 132.406 60.8485 128.756 60.8485 125.127C60.8485 124.728 60.2192 124.728 60.2192 125.127Z" fill="#4D4D4D"/>
<path d="M54.6187 136.453C56.4436 136.453 58.2685 136.453 60.0933 136.453C60.4919 136.453 60.4919 135.824 60.0933 135.824C58.2685 135.824 56.4436 135.824 54.6187 135.824C54.2202 135.824 54.2202 136.453 54.6187 136.453Z" fill="#4D4D4D"/>
<path d="M73.035 135.404C73.035 131.901 73.035 128.398 73.035 124.916C73.035 124.518 72.4058 124.518 72.4058 124.916C72.4058 128.419 72.4058 131.922 72.4058 135.404C72.4058 135.802 73.035 135.802 73.035 135.404Z" fill="#4D4D4D"/>
<path d="M72.5318 124.852C74.5874 124.852 76.643 124.852 78.6986 124.852C79.0971 124.852 79.0971 124.223 78.6986 124.223C76.643 124.223 74.5874 124.223 72.5318 124.223C72.1333 124.223 72.1333 124.852 72.5318 124.852Z" fill="#4D4D4D"/>
<path d="M78.4048 124.729C78.4048 128.378 78.4048 132.028 78.4048 135.657C78.4048 136.055 79.034 136.055 79.034 135.657C79.034 132.007 79.034 128.357 79.034 124.729C79.034 124.309 78.4048 124.309 78.4048 124.729Z" fill="#4D4D4D"/>
<path d="M72.8043 136.055C74.6291 136.055 76.454 136.055 78.2789 136.055C78.6774 136.055 78.6774 135.426 78.2789 135.426C76.454 135.426 74.6291 135.426 72.8043 135.426C72.4057 135.426 72.4057 136.055 72.8043 136.055Z" fill="#4D4D4D"/>
<path d="M30.7275 165.377C30.7275 179.2 30.7275 193.002 30.7275 206.825C30.7275 207.223 31.3568 207.223 31.3568 206.825C31.3568 193.002 31.3568 179.2 31.3568 165.377C31.3568 164.958 30.7275 164.958 30.7275 165.377Z" fill="#4D4D4D"/>
<path d="M35.1323 209.471C35.1323 215.889 35.1323 222.287 35.1323 228.705C35.1323 229.104 35.7616 229.104 35.7616 228.705C35.7616 222.287 35.7616 215.889 35.7616 209.471C35.7616 209.072 35.1323 209.072 35.1323 209.471Z" fill="#4D4D4D"/>
<path d="M27.9587 118.814C34.7128 116.465 41.5718 114.535 48.5567 113.046C48.9552 112.962 48.7874 112.354 48.3889 112.438C41.404 113.927 34.5241 115.857 27.7909 118.206C27.4134 118.332 27.5812 118.94 27.9587 118.814Z" fill="#4D4D4D"/>
<path d="M87.2143 175.174C94.304 177.838 101.205 181.005 108.085 184.172C108.441 184.34 108.777 183.795 108.4 183.627C101.457 180.439 94.5137 177.251 87.3821 174.566C87.0045 174.419 86.8367 175.027 87.2143 175.174Z" fill="#4D4D4D"/>
<path d="M91.3256 197.345C91.3256 193.842 91.3256 190.339 91.3256 186.857C91.3256 186.459 90.6963 186.459 90.6963 186.857C90.6963 190.36 90.6963 193.863 90.6963 197.345C90.6963 197.765 91.3256 197.765 91.3256 197.345Z" fill="#4D4D4D"/>
<path d="M90.8434 186.817C92.899 186.817 94.9546 186.817 97.0102 186.817C97.4088 186.817 97.4088 186.188 97.0102 186.188C94.9546 186.188 92.899 186.188 90.8434 186.188C90.4239 186.188 90.4239 186.817 90.8434 186.817Z" fill="#4D4D4D"/>
<path d="M96.6953 186.69C96.6953 190.339 96.6953 193.989 96.6953 197.618C96.6953 198.016 97.3246 198.016 97.3246 197.618C97.3246 193.968 97.3246 190.318 97.3246 186.69C97.3246 186.27 96.6953 186.27 96.6953 186.69Z" fill="#4D4D4D"/>
<path d="M91.0948 198.016C92.9197 198.016 94.7445 198.016 96.5694 198.016C96.9679 198.016 96.9679 197.387 96.5694 197.387C94.7445 197.387 92.9197 197.387 91.0948 197.387C90.6963 197.387 90.6963 198.016 91.0948 198.016Z" fill="#4D4D4D"/>
<path d="M180.115 208.022C193.811 202.883 206.942 196.338 219.297 188.514C219.632 188.305 219.318 187.759 218.982 187.969C206.669 195.772 193.581 202.295 179.947 207.413C179.569 207.56 179.737 208.168 180.115 208.022Z" fill="#4D4D4D"/>
<path d="M240.335 140.147C240.356 156.382 240.377 172.596 240.377 188.831C240.377 189.229 241.007 189.229 241.007 188.831C240.986 172.596 240.965 156.382 240.965 140.147C240.965 139.748 240.335 139.748 240.335 140.147Z" fill="#4D4D4D"/>
<path d="M194.902 134.461C211.431 134.461 227.939 134.461 244.467 134.461C244.866 134.461 244.866 133.832 244.467 133.832C227.939 133.832 211.431 133.832 194.902 133.832C194.504 133.832 194.504 134.461 194.902 134.461Z" fill="#4D4D4D"/>
<path d="M193.728 155.31C193.728 151.807 193.728 148.304 193.728 144.822C193.728 144.424 193.099 144.424 193.099 144.822C193.099 148.325 193.099 151.828 193.099 155.31C193.099 155.73 193.728 155.73 193.728 155.31Z" fill="#4D4D4D"/>
<path d="M193.245 144.782C195.301 144.782 197.356 144.782 199.412 144.782C199.811 144.782 199.811 144.152 199.412 144.152C197.356 144.152 195.301 144.152 193.245 144.152C192.847 144.152 192.847 144.782 193.245 144.782Z" fill="#4D4D4D"/>
<path d="M199.098 144.654C199.098 148.304 199.098 151.954 199.098 155.583C199.098 155.981 199.727 155.981 199.727 155.583C199.727 151.933 199.727 148.283 199.727 144.654C199.727 144.235 199.098 144.235 199.098 144.654Z" fill="#4D4D4D"/>
<path d="M193.518 155.981C195.343 155.981 197.168 155.981 198.993 155.981C199.391 155.981 199.391 155.352 198.993 155.352C197.168 155.352 195.343 155.352 193.518 155.352C193.099 155.352 193.099 155.981 193.518 155.981Z" fill="#4D4D4D"/>
<path d="M222.863 155.31C222.863 151.807 222.863 148.304 222.863 144.822C222.863 144.424 222.233 144.424 222.233 144.822C222.233 148.325 222.233 151.828 222.233 155.31C222.233 155.73 222.863 155.73 222.863 155.31Z" fill="#4D4D4D"/>
<path d="M222.359 144.782C224.415 144.782 226.471 144.782 228.526 144.782C228.925 144.782 228.925 144.152 228.526 144.152C226.471 144.152 224.415 144.152 222.359 144.152C221.961 144.152 221.961 144.782 222.359 144.782Z" fill="#4D4D4D"/>
<path d="M228.232 144.654C228.232 148.304 228.232 151.954 228.232 155.583C228.232 155.981 228.862 155.981 228.862 155.583C228.862 151.933 228.862 148.283 228.862 144.654C228.862 144.235 228.232 144.235 228.232 144.654Z" fill="#4D4D4D"/>
<path d="M222.632 155.981C224.457 155.981 226.282 155.981 228.107 155.981C228.505 155.981 228.505 155.352 228.107 155.352C226.282 155.352 224.457 155.352 222.632 155.352C222.233 155.352 222.233 155.981 222.632 155.981Z" fill="#4D4D4D"/>
<ellipse cx="210.068" cy="60.6061" rx="12.5643" ry="12.7741" stroke="#4D4D4D" stroke-width="0.629264"/>
<path d="M195.574 109.962C199.056 107.592 203.293 109.081 206.901 110.298C208.6 110.864 210.32 111.389 212.102 111.556C214.032 111.745 215.962 111.535 217.85 111.158C225.338 109.606 233.435 104.32 241.133 107.907C241.489 108.075 241.825 107.529 241.447 107.361C235.784 104.718 229.554 106.795 224.017 108.683C220.786 109.794 217.451 110.906 213.99 110.99C210.445 111.074 207.341 109.627 204.006 108.704C201.111 107.886 197.839 107.655 195.238 109.417C194.924 109.648 195.238 110.193 195.574 109.962Z" fill="#4D4D4D"/>
<path d="M38.7611 98.5303C44.823 100.271 50.78 97.4186 56.4644 95.6357C59.5687 94.6708 62.8409 93.8948 66.1131 94.3143C69.4482 94.7547 72.4896 96.3489 75.552 97.6703C78.6564 99.0128 81.8866 100.124 85.3266 99.5791C85.7251 99.5162 85.5573 98.9079 85.1588 98.9708C78.5935 100.02 73.0979 94.8806 66.8892 93.7899C60.8273 92.7201 55.059 95.6147 49.3956 97.2928C45.9766 98.2996 42.4318 98.9079 38.9289 97.9011C38.5304 97.7962 38.3625 98.4045 38.7611 98.5303Z" fill="#4D4D4D"/>
<path d="M93.0455 107.634C95.2899 107.571 97.2616 106.564 99.2542 105.662C100.471 105.117 101.729 104.592 103.072 104.488C104.561 104.362 105.861 104.886 107.141 105.599C109.49 106.9 111.672 108.095 114.378 108.515C116.937 108.934 119.537 108.746 122.034 107.991C122.411 107.865 122.264 107.256 121.866 107.382C119.097 108.221 116.16 108.326 113.329 107.655C111.986 107.34 110.686 106.837 109.469 106.187C108.316 105.557 107.225 104.802 106.008 104.32C101.331 102.453 97.5762 106.858 93.0455 106.984C92.6469 107.026 92.6469 107.655 93.0455 107.634Z" fill="#4D4D4D"/>
<path d="M157.419 88.0849C163.46 90.8956 170.235 90.7697 176.654 89.5322C183.911 88.1268 190.749 84.9176 198.259 85.0434C202.496 85.1273 206.691 86.0502 210.592 87.7283C210.97 87.8961 211.284 87.3507 210.907 87.1829C204.614 84.4561 197.608 83.722 190.896 85.1273C187.226 85.9034 183.681 87.1829 180.052 88.1268C176.612 89.0078 173.088 89.637 169.543 89.7629C165.495 89.8888 161.447 89.2805 157.755 87.5605C157.377 87.3717 157.063 87.9171 157.419 88.0849Z" fill="#4D4D4D"/>
<path d="M85.0537 203.387C85.704 206.806 86.3332 210.246 86.9835 213.665C76.1601 217.588 70.8953 220.294 71.2309 221.804C71.6294 223.629 80.1245 223.692 96.7371 222.014C96.0239 214.882 95.3107 207.75 94.5976 200.598C91.4093 201.542 88.221 202.464 85.0537 203.387Z" fill="#161616" stroke="#161616" stroke-width="0.629264"/>
<path d="M135.71 160.535C131.179 162.401 129.27 161.94 123.544 163.513C112.993 166.408 105.358 171.819 100.597 175.91C100.827 183.712 101.058 191.515 101.289 199.318C100.806 199.884 95.5206 205.883 87.508 205.065C81.9915 204.499 78.5515 201.017 77.6286 200.01C77.4817 192.816 77.6076 185.139 78.09 177.063C78.3837 172.386 78.7612 167.855 79.2437 163.513C79.9568 162.506 81.0476 161.059 82.4529 159.381C93.486 146.25 106.701 140.419 113.895 137.357C121.069 134.294 125.557 132.385 132.249 131.84C134.032 131.693 151.861 130.435 154.734 137.587C157.398 144.111 146.89 155.941 135.71 160.535Z" fill="white" stroke="#161616" stroke-width="0.629264"/>
<path opacity="0.16" d="M153.581 135.386C149.595 132.639 140.807 144.343 123.313 155.376C106.491 165.969 97.681 165.801 92.605 176.1C91.0528 179.225 89.4377 184.175 88.4518 189.209C87.2352 195.544 87.2352 200.956 87.5079 204.794C88.8713 204.731 90.4864 204.542 92.2274 204.081C96.4435 202.969 99.443 200.851 101.205 199.362C100.974 191.412 100.722 183.462 100.492 175.533C103.428 173.142 108.106 169.723 114.419 166.808C126.229 161.333 130.654 163.682 140.387 158.082C142.631 156.802 155.322 149.482 155.028 139.917C154.944 138.386 154.923 136.309 153.581 135.386Z" fill="#3D3D3D"/>
<path opacity="0.25" d="M155.217 139.161C154.336 138.447 150.917 143.23 142.715 149.082C132.521 156.339 127.613 156.256 116.391 163.01C112.343 165.443 106.491 169.344 100.009 175.28C101.268 174.735 103.302 173.812 105.673 172.449C110.497 169.638 111.672 167.918 115.342 166.072C116.664 165.422 119.139 164.751 124.068 163.471C132.689 161.227 133.927 161.332 137.052 159.926C141.184 158.08 143.89 155.752 145.316 154.494C152.154 148.495 156.328 140.041 155.217 139.161Z" fill="#3D3D3D"/>
<path opacity="0.2" d="M100.24 175.512C97.5553 185.181 94.8914 194.872 92.2065 204.542C93.4021 204.227 94.8704 203.724 96.4646 202.885C98.7509 201.668 100.366 200.221 101.415 199.109C101.016 191.243 100.639 183.378 100.24 175.512Z" fill="#3D3D3D"/>
<path d="M153.287 236.149C153.937 239.568 154.566 243.008 155.216 246.427C145.421 251.356 140.764 254.419 141.184 255.614C141.708 257.062 149.616 255.803 164.886 251.86C164.194 245.693 163.523 239.526 162.83 233.359C159.642 234.303 156.475 235.226 153.287 236.149Z" fill="#161616" stroke="#161616" stroke-width="0.629264"/>
<path d="M161.677 129.549C162.411 135.212 163.355 143.749 163.816 154.174C164.508 170.262 163.502 179.219 163.334 191.112C163.187 201.537 163.669 216.492 166.648 234.93C165.033 236 161.383 238.118 156.223 238.475C151.315 238.81 147.56 237.384 145.798 236.587C145.337 227.651 144.519 218.149 143.197 208.165C140.764 189.77 137.094 173.199 133.024 158.684C130.507 155.202 127.969 151.741 125.452 148.259C134.618 141.778 143.764 135.317 152.93 128.836C155.825 129.088 158.74 129.318 161.677 129.549Z" fill="white" stroke="#161616" stroke-width="0.629264"/>
<path d="M128.913 150.065C128.263 149.163 127.634 148.24 126.984 147.338C126.795 148.051 126.606 148.764 126.417 149.499C129.522 147.569 132.563 145.534 135.479 143.311C137.912 141.465 140.177 139.43 142.631 137.626C144.183 136.473 145.778 135.382 147.372 134.291C148.903 133.263 150.455 131.963 152.133 131.145C153.035 130.704 154.105 130.767 155.07 130.767C156.916 130.767 158.74 130.83 160.565 130.935C162.579 131.04 162.579 127.894 160.565 127.789C158.74 127.705 156.895 127.621 155.07 127.621C153.895 127.621 152.678 127.621 151.567 127.978C149.826 128.544 148.253 129.907 146.763 130.935C145.043 132.089 143.344 133.243 141.666 134.459C139.065 136.347 136.674 138.465 134.136 140.416C131.158 142.702 128.032 144.8 124.844 146.772C124.173 147.191 123.774 148.219 124.278 148.932C124.928 149.834 125.557 150.757 126.207 151.659C127.361 153.295 130.088 151.722 128.913 150.065Z" fill="white"/>
<path opacity="0.14" d="M140.827 132.069C144.015 141.487 146.973 151.975 149.322 163.448C155.174 192.164 155.279 217.712 153.58 237.785C154.587 238.142 155.867 238.456 157.356 238.498C162.075 238.624 165.473 235.897 166.564 234.954C165.641 230.318 164.446 223.375 163.732 214.901C162.18 196.547 164.131 186.144 164.446 170.538C164.634 161.057 164.278 147.591 161.614 131.125C154.671 131.44 147.749 131.754 140.827 132.069Z" fill="#3D3D3D"/>
<path opacity="0.2" d="M162.306 140.812C161.719 161.473 160.712 182.721 159.244 204.536C158.489 215.8 157.608 226.896 156.643 237.803C157.608 237.971 159.328 238.139 161.363 237.572C164.005 236.817 165.642 235.244 166.313 234.51C163.964 220.876 163.376 209.822 163.25 202.417C163.02 188.406 164.341 181.253 163.964 164.892C163.712 154.489 162.915 146.056 162.306 140.812Z" fill="#3D3D3D"/>
<path d="M76.5171 55.5939C76.7898 54.9646 74.1049 53.6641 74.3776 52.93C74.6503 52.1749 77.9854 51.9861 80.2298 53.6431C82.579 55.3631 82.4322 57.8802 83.7746 61.1104C85.3058 64.7392 87.718 66.7109 91.3887 69.7313C93.5911 71.5562 102.191 78.3942 114.588 78.0166C120.209 77.8488 124.907 76.2337 128.389 74.5347C127.907 80.5547 127.404 86.5956 126.921 92.6156C124.068 93.2658 120.146 93.8321 115.552 93.4336C98.856 91.9863 88.1375 79.1074 84.8234 75.143C82.8097 72.7308 80.062 69.0182 77.5449 63.9631C75.5732 64.5504 72.5108 65.2216 68.8401 64.844C66.2391 64.5923 63.1348 63.7953 63.1557 63.0611C63.1767 62.0963 68.5255 61.446 68.4835 61.1104C68.4416 60.8168 64.2255 61.9704 63.1557 60.3972C62.3167 59.1597 63.4913 56.37 65.463 55.2373C66.0713 54.9017 66.7635 54.6919 68.4835 54.7129C73.1401 54.7129 76.2654 56.1602 76.5171 55.5939Z" fill="white" stroke="#161616" stroke-width="0.629264"/>
<path d="M63.0925 59.2012C64.1622 58.9495 65.3998 59.4739 66.4905 59.5159C67.4554 59.5578 68.4202 59.4739 69.3641 59.2851C69.7627 59.2012 69.5949 58.5929 69.1963 58.6768C68.0007 58.9076 66.8051 58.9705 65.5885 58.8027C64.6656 58.6768 63.8476 58.3832 62.9247 58.5929C62.5261 58.6768 62.6939 59.2851 63.0925 59.2012Z" fill="#161616"/>
<path d="M63.9731 57.1261C65.2316 56.8744 66.3433 57.3988 67.5599 57.4617C68.6296 57.5246 69.6994 57.3149 70.7482 57.0422C71.1467 56.9373 70.9789 56.329 70.5804 56.4339C69.217 56.7905 67.8955 56.9583 66.4901 56.6646C65.5463 56.4758 64.7492 56.308 63.7843 56.4968C63.4068 56.6017 63.5746 57.21 63.9731 57.1261Z" fill="#161616"/>
<path d="M75.5729 57.7522C76.6426 58.8848 78.0899 59.4722 79.6421 59.4302C80.0407 59.4092 80.0407 58.78 79.6421 58.8009C78.2368 58.8639 76.9782 58.3395 76.0343 57.3117C75.7407 57.018 75.3002 57.4585 75.5729 57.7522Z" fill="#161616"/>
<path opacity="0.18" d="M63.155 60.2284C63.218 59.6621 67.7906 59.5152 71.9857 60.1235C74.2511 60.4382 76.4535 60.7528 78.5301 61.7386C83.0607 63.8572 84.55 67.9054 86.8993 71.6181C86.8993 71.6181 92.1641 79.8614 101.582 84.476C110.937 89.0487 121.614 85.9863 127.634 83.5531C127.403 86.5736 127.172 89.594 126.941 92.6145C121.383 93.7472 116.936 93.4745 114.083 93.076C98.205 90.8316 88.2417 78.6239 84.2773 73.7785C81.0681 69.8561 78.9286 66.2484 77.6281 63.7942C75.5515 64.5493 72.4681 65.3254 68.7974 64.9479C66.2594 64.6752 63.2599 63.8362 63.2809 63.102C63.3228 62.1581 68.3779 61.5918 68.336 61.382C68.315 61.2772 66.8887 61.5918 65.1267 61.1513C64.4345 60.9835 63.1341 60.543 63.155 60.2284Z" fill="#3D3D3D"/>
<path opacity="0.24" d="M110.791 89.4914C118.279 89.5963 124.068 86.6597 127.089 84.7929C126.984 87.4778 126.858 90.1417 126.753 92.8265C122.6 93.5187 115.321 94.106 107.015 91.4422C91.9757 86.6388 84.5924 74.6828 82.6836 71.3477C83.2919 72.4384 93.1713 89.2607 110.791 89.4914Z" fill="#3D3D3D"/>
<path opacity="0.19" d="M70.287 63.6677C74.7758 63.6887 77.7962 63.0175 77.8591 63.3321C77.9011 63.5838 76.0343 64.339 74.0626 64.7165C68.3363 65.8072 63.0924 63.437 63.1553 63.1014C63.2183 62.8707 65.5675 63.6468 70.287 63.6677Z" fill="#3D3D3D"/>
<circle cx="75.1949" cy="40.5557" r="5.91508" fill="#EC615B"/>
<ellipse cx="73.9993" cy="40.1159" rx="6.71215" ry="6.73312" stroke="#161616" stroke-width="0.419509"/>
<path d="M74.9223 36.4258C73.6008 36.3419 70.2028 37.6214 71.4613 39.5301C72.1954 40.6418 73.6218 39.9077 74.6496 40.1804C75.971 40.537 75.8242 42.1311 75.0062 42.9072C74.1462 43.7043 72.9296 43.5784 72.1115 42.8443C71.8179 42.5716 71.3564 43.0121 71.6711 43.2847C73.3281 44.795 76.2857 43.935 76.2857 41.4809C76.2857 40.3692 75.5305 39.656 74.4818 39.5301C73.7057 39.4253 71.5242 40.0126 72.0276 38.4184C72.3632 37.3277 73.9784 36.9921 74.9432 37.055C75.3418 37.076 75.3418 36.4467 74.9223 36.4258Z" fill="#161616"/>
<path d="M74.2089 36.7178C74.2718 36.0256 74.3348 35.3544 74.3977 34.6622C74.4396 34.2636 73.8104 34.2636 73.7684 34.6622C73.7055 35.3544 73.6426 36.0256 73.5796 36.7178C73.5377 37.1163 74.167 37.1163 74.2089 36.7178Z" fill="#161616"/>
<path d="M73.7896 44.2286C73.8525 44.711 73.9155 45.2144 73.9574 45.6969C73.9994 46.0954 74.6286 46.0954 74.5867 45.6969C74.5237 45.2144 74.4608 44.711 74.4189 44.2286C74.3769 43.8301 73.7477 43.8301 73.7896 44.2286Z" fill="#161616"/>
<path d="M134.724 73.0458C134.031 73.0877 131.703 73.1926 128.725 73.9268C127.026 74.3463 125.683 74.8287 124.907 75.1433C123.502 77.996 121.698 82.4008 121.027 87.9803C120.062 95.93 121.992 101.048 123.313 108.956C124.215 114.388 124.949 122.254 123.942 132.197C126.082 134.147 131.661 138.699 140.135 139.874C152.133 141.552 160.943 135.217 162.768 133.854C163.88 126.974 164.928 119.905 165.872 112.668C167.487 100.419 168.704 88.5676 169.606 77.178C163.796 71.7034 158.762 70.2351 155.217 69.9414C148.4 69.3541 142.233 72.6263 134.724 73.0458Z" fill="#EC615B"/>
<path opacity="0.17" d="M144.141 78.3302C145.442 79.6726 147.225 81.7072 148.819 84.476C156.475 97.7745 151.734 113.296 149.616 120.176C148.148 125.001 145.358 132.069 139.862 139.704C141.96 140.061 144.603 140.271 147.623 139.977C154.797 139.264 159.999 136.013 162.6 134.083C164.571 122.882 166.249 110.968 167.55 98.3827C168.305 90.9994 168.871 83.8048 169.291 76.8619C168.473 76.0648 167.214 74.9951 165.536 73.9253C162.83 72.1844 158.572 69.4785 153.769 70.3176C147.644 71.3663 144.54 77.4912 144.141 78.3302Z" fill="#3D3D3D"/>
<path opacity="0.11" d="M168.347 81.6641C167.277 84.6636 165.62 89.446 163.942 95.4449C158.95 113.043 159.307 120.595 153.245 129.677C151.399 132.446 148.295 136.368 143.072 140.249C145.652 140.228 149.385 139.913 153.643 138.508C157.503 137.228 160.46 135.508 162.474 134.103C164.11 125.335 165.557 115.875 166.627 105.744C167.487 97.3118 168.054 89.2572 168.347 81.6641Z" fill="#3D3D3D"/>
<path d="M158.615 122.044C158.174 121.226 158.636 120.009 159.328 119.359C160.607 118.143 162.936 118.604 163.984 119.925C164.131 120.114 164.844 120.995 164.551 121.75C163.921 123.282 159.517 123.68 158.615 122.044Z" fill="white" stroke="#161616" stroke-width="0.629264"/>
<path d="M164.53 73.6094C167.655 75.7698 171.515 78.9162 175.227 83.321C179.276 88.1034 181.918 92.9278 183.68 96.976C185.17 100.437 186.072 103.52 186.638 105.849C184.771 110.149 181.268 116.483 174.808 122.042C172.479 124.055 170.172 125.608 168.054 126.824C166.942 128.062 165.39 129.635 163.334 131.25C161.992 132.32 160.167 133.746 159.747 133.389C159.412 133.096 159.999 131.648 160.901 130.642C161.971 129.467 163.292 129.11 163.271 129.048C163.25 128.985 162.076 129.194 160.985 130.033C159.726 131.019 159.789 131.942 159.16 132.089C157.839 132.404 154.797 129.215 155.259 125.985C155.636 123.279 158.3 121.832 159.202 121.329C161.677 119.965 164.089 120.217 164.97 120.343C168.117 115.455 171.263 110.589 174.409 105.702C173.549 105.01 172.417 104.024 171.179 102.744C169.732 101.255 165.662 97.018 163.712 91.2078C161.09 83.4049 163.502 76.2103 164.53 73.6094Z" fill="white" stroke="#161616" stroke-width="0.629264"/>
<path d="M155.762 128.652C156.538 126.932 157.86 125.59 159.58 124.835C159.957 124.667 159.622 124.122 159.265 124.289C157.461 125.087 156.014 126.534 155.217 128.338C155.049 128.694 155.594 129.009 155.762 128.652Z" fill="#161616"/>
<path d="M158.07 131.567C157.419 129.596 159.328 127.561 160.901 126.659C161.258 126.449 160.943 125.904 160.587 126.114C158.762 127.162 156.706 129.47 157.461 131.735C157.587 132.113 158.195 131.945 158.07 131.567Z" fill="#161616"/>
<path opacity="0.18" d="M163.565 77.072C166.082 79.673 169.627 83.5535 173.423 88.6505C178.751 95.7612 181.394 99.327 181.583 103.082C181.918 110.045 176.695 118.75 169.816 122.064C167.823 123.029 162.642 124.98 159.663 128.798C158.803 129.888 157.922 131.398 158.237 131.734C158.51 132.007 159.517 131.294 159.852 131.629C160.251 132.028 159.286 133.244 159.559 133.517C159.894 133.853 161.761 132.657 163.649 131.147C164.865 130.161 166.355 128.819 167.928 127.057C169.92 125.924 172.039 124.498 174.199 122.694C181.058 116.967 184.75 110.276 186.722 105.704C186.239 103.858 185.505 101.362 184.352 98.488C180.87 89.8251 176.213 84.2247 174.682 82.4627C172.479 79.9037 169.165 76.5686 164.53 73.3594C164.194 74.5969 163.879 75.8345 163.565 77.072Z" fill="#3D3D3D"/>
<path opacity="0.21" d="M183.681 108.767C181.667 111.368 180.639 113.025 179.8 114.263C178.206 116.57 175.836 118.772 171.074 123.177C169.375 124.75 167.068 126.848 164.236 129.26C161.258 131.84 159.811 133.161 159.874 133.245C159.957 133.35 162.831 131.169 168.515 126.701C169.585 126.072 171.095 125.149 172.794 123.848C182.569 116.36 186.953 105.6 186.554 105.348C186.387 105.264 185.485 106.418 183.681 108.767Z" fill="#3D3D3D"/>
<path d="M130.34 38.6436C124.173 43.6987 124.425 53.9557 126.837 60.5839C128.368 64.779 130.822 67.6526 132.437 69.2468C132.102 71.6799 131.766 74.1131 131.431 76.5462C133.214 77.3643 135.773 78.2243 138.898 78.3711C147.078 78.7696 152.931 73.9872 154.525 72.6029C153.077 67.7575 151.63 62.9122 150.183 58.0459C149.994 56.6825 149.679 54.5849 149.344 52.0259C148.442 45.3557 148.484 44.9991 148.085 43.9084C147.917 43.4679 145.4 37.0704 139.548 35.9377C134.829 35.0568 130.927 38.1611 130.34 38.6436Z" fill="white" stroke="#161616" stroke-width="0.629264"/>
<path d="M125.264 55.7175C124.907 57.1229 124.53 59.3253 124.781 61.9682C124.949 63.7302 125.243 66.7926 127.445 69.7501C129.816 72.9384 133.004 74.155 134.367 74.5955C134.262 74.2389 134.137 73.7984 134.074 73.274C134.011 72.7286 134.032 72.2252 134.074 71.8477C135.521 72.6447 136.989 73.4208 138.436 74.2179C142.107 70.8408 143.324 67.7365 143.743 65.4921C144.079 63.7302 144.289 60.4999 145.065 54.5849C145.212 53.5361 145.484 51.6483 146.68 51.1659C147.246 50.9351 148.001 51.04 148.484 51.4595C149.931 52.6761 148.463 56.2 148.777 56.3049C149.092 56.4097 151.63 52.8649 150.77 48.8166C150.33 46.7191 149.113 45.2718 148.4 44.5586C146.806 47.0756 145.044 49.6766 143.093 52.3405C141.855 54.0395 140.618 55.6336 139.401 57.1858C138.94 57.4375 138.248 57.7102 137.451 57.6473C136.821 57.5844 136.612 57.3746 136.15 57.2487C134.43 56.7663 133.507 58.8009 131.808 58.5283C130.424 58.2975 130.298 56.8083 128.767 56.7663C128.033 56.7453 127.739 57.0809 126.984 56.9341C126.187 56.7034 125.62 56.158 125.264 55.7175Z" fill="#161616" stroke="#161616" stroke-width="0.629264"/>
<path d="M132.395 49.763C131.871 52.1962 131.535 54.6503 131.388 57.1254C131.367 57.3771 131.661 57.503 131.871 57.3981C132.731 56.9576 133.612 56.4962 134.472 56.0557C134.828 55.8669 134.514 55.3215 134.157 55.5103C133.297 55.9508 132.416 56.4123 131.556 56.8527C131.724 56.9366 131.871 57.0415 132.039 57.1254C132.185 54.6923 132.5 52.3011 133.024 49.9308C133.087 49.5323 132.479 49.3645 132.395 49.763Z" fill="#161616"/>
<ellipse cx="129.039" cy="51.0642" rx="0.482436" ry="1.21658" fill="#161616" stroke="#161616" stroke-width="0.629264"/>
<ellipse cx="137.178" cy="51.0642" rx="0.650239" ry="1.21658" fill="#161616" stroke="#161616" stroke-width="0.629264"/>
<path d="M127.865 48.6913C128.263 47.9571 129.144 48.1249 129.795 48.3557C130.172 48.4815 130.34 47.8732 129.962 47.7474C129.039 47.4118 127.865 47.3908 127.319 48.3767C127.131 48.7123 127.676 49.0479 127.865 48.6913Z" fill="#161616"/>
<path d="M135.793 47.8343C136.779 46.8904 138.289 46.9743 139.128 48.107C139.359 48.4216 139.904 48.107 139.674 47.7923C138.604 46.345 136.674 46.1562 135.353 47.3938C135.059 47.6665 135.5 48.107 135.793 47.8343Z" fill="#161616"/>
<path d="M120.397 44.8346C129.228 45.359 138.038 46.0932 146.805 47.058C148.001 47.1839 148.001 45.2961 146.805 45.1703C138.017 44.2054 129.207 43.4712 120.397 42.9469C119.181 42.8839 119.181 44.7717 120.397 44.8346Z" fill="#161616"/>
<path d="M126.103 43.5328C126.249 42.1693 126.795 38.6664 129.48 35.8138C132.982 32.1011 139.464 30.5489 144.498 33.6953C148.441 36.1704 150.56 40.9528 149.847 45.8191C141.939 45.064 134.031 44.3088 126.103 43.5328Z" fill="#5222D0"/>
<path opacity="0.69" d="M137.262 32.7282C136.234 33.5882 136.234 35.413 136.59 37.3428C136.989 39.4613 138.017 42.0413 139.548 44.7052C142.988 45.1037 146.428 45.5232 149.868 45.9217C150.015 45.1666 150.161 44.0759 150.036 42.7754C150.036 42.7754 149.805 40.3842 148.546 38.2237C146.029 33.9028 139.443 30.8823 137.262 32.7282Z" fill="#3A1DA3"/>
<path opacity="0.24" d="M148.043 57.3569C147.267 57.7764 146.491 57.6715 146.218 57.6086C146.889 58.8881 148.966 63.2091 147.959 68.7885C146.994 74.0953 143.848 77.3046 142.757 78.3324C144.121 78.0597 145.673 77.6192 147.351 76.948C150.539 75.6475 152.93 73.9275 154.546 72.5222C152.867 66.6281 151.189 60.7339 149.511 54.8398C149.511 54.9447 149.428 56.6228 148.043 57.3569Z" fill="#3D3D3D"/>
<path opacity="0.19" d="M140.282 46.3633C140.534 47.433 140.744 49.0481 140.492 50.9359C140.051 54.1242 138.52 56.3266 137.723 57.3544C138.206 57.2076 138.688 57.0398 139.17 56.893C140.135 55.7183 141.121 54.4598 142.086 53.1803C143.68 51.0618 145.148 48.9642 146.491 46.9506C144.414 46.7618 142.359 46.5521 140.282 46.3633Z" fill="#3D3D3D"/>
</svg>
